<svg width="188" height="34" viewBox="0 0 188 34" fill="none" xmlns="http://www.w3.org/2000/svg">
<path d="M27.0796 30.4586C27.4921 31.347 27.619 31.8546 26.3816 31.5374C25.5249 31.7912 25.1759 31.347 24.8904 30.649C23.4309 27.2858 21.9079 23.9544 20.3532 20.6229C19.8456 19.5124 20.9243 19.3538 21.432 19.0048C22.0666 18.5606 22.0031 19.4173 22.13 19.7028C23.8116 23.2563 25.4297 26.8733 27.0796 30.4586Z" fill="#757B82"/>
<path d="M31.0145 5.80584C28.6984 6.56731 26.3822 7.32878 24.0978 8.12199C23.6536 8.28063 23.2094 8.50272 22.7652 8.69309C23.2094 8.85173 23.6854 9.01037 24.1295 9.20074C24.542 9.35938 24.9227 9.48629 25.4304 9.64493C25.1448 9.89876 24.9862 10.0257 24.8593 10.1526C23.4315 11.3265 21.972 12.5005 20.576 13.7061C20.0049 14.2138 19.7828 14.182 19.4655 13.4523C17.7205 9.48629 15.912 5.52029 14.1035 1.58601C14.0083 1.39564 13.8497 1.237 13.7227 1.04663C13.5958 1.237 13.4689 1.39564 13.3737 1.61774C12.1046 4.44153 10.8355 7.26533 9.53465 10.0891C6.58394 16.5934 3.66496 23.0659 0.714249 29.5384C0.270057 30.522 1.12671 30.871 1.53918 31.3786C1.91991 31.8546 2.2372 31.22 2.49102 30.9979C10.0106 24.9061 17.5301 18.7826 25.0179 12.6908C26.8264 11.1996 26.8264 11.1996 27.3024 13.5475C27.3341 13.7061 27.461 13.8648 27.5244 14.0551C27.6196 13.9282 27.7465 13.8013 27.81 13.6427C29.0157 11.1996 30.2531 8.75655 31.4587 6.31349C31.5539 6.15485 31.5539 5.93275 31.5856 5.77411C31.3953 5.74238 31.2049 5.74238 31.0145 5.80584ZM17.657 15.9905C13.3737 19.4806 9.05873 23.0024 4.77544 26.4925C4.6168 26.6194 4.3947 26.7146 4.20433 26.8098C4.23606 26.6194 4.23606 26.4291 4.33125 26.2387C7.31368 19.671 10.2961 13.1033 13.2786 6.56731C13.3737 6.34521 13.5324 6.15485 13.691 5.93275C13.8179 6.15485 13.9766 6.34521 14.1035 6.56731C15.3409 9.32765 16.5783 12.0563 17.8474 14.8166C17.9426 15.0387 18.006 15.2608 18.1964 15.7367C18.1012 15.8002 17.8474 15.8319 17.657 15.9905Z" fill="#757B82"/>
<path d="M62.901 30.5853C62.9327 31.3785 62.6789 31.6006 61.8857 31.6006C56.1112 31.5689 50.305 31.5689 44.5304 31.6006C43.7372 31.6006 43.5786 31.3468 43.5786 30.617C43.6103 25.8578 43.5786 21.0986 43.5786 16.3394C43.5786 11.5485 43.6103 6.75756 43.5469 1.96662C43.5469 1.10997 43.9276 1.04651 44.5939 1.04651C45.2602 1.04651 45.7361 1.01478 45.7044 1.96662C45.6727 10.7236 45.7044 19.5122 45.6727 28.2692C45.6727 29.221 45.8948 29.5066 46.8783 29.5066C51.8596 29.4431 56.8727 29.5066 61.854 29.4431C62.8375 29.4431 62.8693 29.8556 62.901 30.5853Z" fill="#757B82"/>
<path d="M97.675 12.6908C95.93 16.403 92.7572 18.0846 88.7277 18.3067C87.6807 18.3701 86.602 18.1798 85.5867 18.3384C83.9051 18.5922 84.0954 17.5452 84.1589 16.5299C84.1906 15.9588 84.6031 16.1174 84.9204 16.0857C86.6971 16.0223 88.4739 16.2761 90.219 15.9271C94.1532 15.1021 96.5011 12.3418 96.1838 8.97863C95.93 5.96447 92.5985 3.26758 89.0133 3.1724C86.126 3.10894 83.2705 3.1724 80.3833 3.14067C79.4949 3.14067 79.6535 3.68005 79.6535 4.18769C79.6535 12.9446 79.6535 21.7333 79.6535 30.4902C79.6535 31.3786 79.4314 31.6007 78.543 31.6007C77.6229 31.6325 77.4643 31.2834 77.4643 30.4585C77.496 25.731 77.4643 21.0036 77.4643 16.2761C77.4643 11.4534 77.4643 6.63075 77.4643 1.80809C77.4643 1.49081 77.2739 0.951434 77.9085 0.951434C82.2869 1.04662 86.7289 0.412058 91.0439 1.30044C96.6915 2.47438 99.8643 8.05852 97.675 12.6908Z" fill="#757B82"/>
<path d="M114.364 30.6171C114.364 31.569 113.952 31.569 113.222 31.6007C112.429 31.6324 112.111 31.4738 112.111 30.5854C112.143 21.0987 112.143 11.612 112.111 2.12533C112.111 1.20522 112.429 1.04658 113.254 1.04658C114.174 1.01485 114.332 1.33213 114.332 2.18879C114.301 6.91627 114.301 11.6437 114.301 16.3712C114.332 21.0987 114.301 25.8579 114.364 30.6171Z" fill="#757B82"/>
<path d="M134.512 30.7122C134.512 31.6641 134.036 31.6006 133.401 31.6006C132.735 31.6006 132.354 31.5689 132.354 30.7122C132.386 26.6828 132.322 22.6533 132.386 18.6238C132.418 17.5768 132.069 17.3864 131.117 17.3864C127.373 17.4182 123.629 17.3547 119.885 17.4182C118.838 17.4499 118.933 16.9105 118.87 16.1808C118.838 15.4193 119.092 15.1972 119.853 15.1972C123.692 15.2289 127.532 15.1972 131.339 15.2289C132.132 15.2289 132.386 15.0386 132.386 14.2136C132.354 10.1207 132.386 6.0278 132.354 1.93489C132.354 1.07823 132.703 1.01477 133.401 1.01477C134.068 1.01477 134.543 0.983045 134.543 1.93489C134.512 6.72582 134.512 11.5168 134.512 16.3077C134.48 21.1304 134.448 25.9213 134.512 30.7122Z" fill="#757B82"/>
<path d="M161.131 18.1797C160.846 18.1797 160.56 18.2432 160.306 18.2749C160.433 18.5287 160.56 18.7825 160.719 18.9729C163.955 22.9389 167.16 26.8732 170.396 30.8392C170.554 31.0296 170.618 31.2834 170.745 31.4737C170.523 31.5055 170.301 31.5372 170.079 31.5689C168.778 31.791 167.921 31.2834 167.064 30.2364C163.511 25.7944 159.862 21.4477 156.277 17.0375C156.086 16.8154 155.96 16.5298 155.801 16.2443C156.086 16.2126 156.372 16.1491 156.658 16.1491C158.879 16.1491 161.068 16.2443 163.257 15.8001C166.557 15.1021 169 12.3735 168.968 9.54967C168.905 6.59896 166.303 3.83862 162.908 3.33097C159.577 2.85505 156.245 3.23579 152.914 3.1406C152.152 3.10888 152.406 3.71171 152.406 4.09245C152.406 12.8494 152.374 21.6381 152.406 30.395C152.406 31.2517 152.279 31.6007 151.296 31.6007C150.312 31.6007 150.249 31.1565 150.249 30.395C150.28 25.6992 150.249 21.0035 150.249 16.276C150.249 11.5485 150.28 6.82106 150.217 2.09358C150.217 1.20519 150.471 0.951369 151.327 0.983097C155.262 1.14174 159.196 0.665816 163.067 1.23692C168.936 2.06185 172.585 7.58253 170.459 12.5004C168.746 16.5616 165.288 18.0211 161.131 18.1797Z" fill="#757B82"/>
<path d="M181.279 29.6019C181.343 30.0461 180.898 29.7923 180.74 29.9192C180.2 30.3951 180.613 30.9979 180.486 31.5373C180.486 31.6325 180.486 31.7277 180.486 31.7911C180.359 32.3939 180.74 33.0285 180.264 33.5996C179.851 33.0285 180.2 32.3939 179.978 31.5373C179.693 31.1566 180.771 30.0461 179.344 29.7605C179.122 29.6971 179.344 29.475 179.502 29.475C179.851 29.4432 180.2 29.4432 180.549 29.475C180.803 29.475 181.247 29.5067 181.279 29.6019Z" fill="#757B82"/>
<path d="M186.767 29.8239C186.957 31.0296 187.179 32.2035 187.338 33.4092C187.338 33.4727 187.211 33.6313 187.147 33.6313C187.052 33.6313 186.957 33.5361 186.894 33.4409C186.83 33.3775 186.862 33.2823 186.83 33.1871C186.703 32.4891 186.576 31.7911 186.449 31.0613C186.069 31.6959 185.72 32.3305 185.339 32.9333C185.212 33.1554 185.053 33.314 184.895 33.5044C184.768 33.314 184.641 33.1237 184.546 32.9333C184.133 32.3305 184.038 31.5372 183.435 31.0296C183.308 31.7276 183.181 32.4574 183.023 33.1554C182.991 33.314 182.864 33.4092 182.801 33.5678C182.769 33.4092 182.706 33.2506 182.674 33.1554C182.706 32.9967 182.769 32.8698 182.769 32.7429C182.959 31.7276 183.118 30.7123 183.308 29.697C183.784 30.5854 184.26 31.4421 184.736 32.3304C184.958 32.7746 185.117 32.8064 185.307 32.3304C185.339 32.267 185.339 32.2353 185.371 32.1718C185.91 31.4421 186.005 30.4268 186.767 29.8239Z" fill="#757B82"/>
<path d="M170.365 30.8709C170.523 31.0613 170.587 31.3151 170.714 31.5055C170.491 31.5372 170.269 31.5689 170.047 31.6007C168.746 31.8228 167.89 31.3151 167.033 30.2681C163.48 25.8262 159.831 21.4794 156.246 17.0692C156.055 16.8471 155.928 16.5616 155.77 16.276C156.055 16.2443 156.341 16.1808 156.626 16.1808C158.847 16.1808 161.037 16.276 163.226 15.8318C166.525 15.1338 168.969 12.4052 168.937 9.58141C168.873 6.6307 166.272 3.87036 162.877 3.36271C159.545 2.88679 156.214 3.26753 152.882 3.17234C152.121 3.14061 152.375 3.74345 152.375 4.12418C152.375 12.8811 152.343 21.6698 152.375 30.4267C152.375 31.2834 152.248 31.6324 151.264 31.6324C150.281 31.6324 150.217 31.1882 150.217 30.4267C150.249 25.731 150.217 21.0352 150.217 16.3078C150.217 11.5803 150.249 6.8528 150.186 2.12532C150.186 1.23693 150.439 0.983107 151.296 1.01484C155.23 1.17348 159.165 0.697555 163.035 1.26866C168.905 2.09359 172.554 7.61427 170.428 12.5321C168.715 16.5299 165.225 17.9893 161.068 18.148C160.783 18.148 160.497 18.2114 160.243 18.2432C160.37 18.497 160.497 18.7508 160.656 18.9412C163.924 22.9706 167.16 26.9049 170.365 30.8709Z" fill="#757B82"/>
<path d="M31.0145 5.80584C28.6984 6.56731 26.3822 7.32878 24.0978 8.12199C23.6536 8.28063 23.2094 8.50272 22.7652 8.69309C23.2094 8.85173 23.6854 9.01037 24.1295 9.20074C24.542 9.35938 24.9227 9.48629 25.4304 9.64493C25.1448 9.89876 24.9862 10.0257 24.8593 10.1526C23.4315 11.3265 21.972 12.5005 20.576 13.7061C20.0049 14.2138 19.7828 14.182 19.4655 13.4523C17.7205 9.48629 15.912 5.52029 14.1035 1.58601C14.0083 1.39564 13.8497 1.237 13.7227 1.04663C13.5958 1.237 13.4689 1.39564 13.3737 1.61774C12.1046 4.44153 10.8355 7.26533 9.53465 10.0891C6.58394 16.5934 3.66496 23.0659 0.714249 29.5384C0.270057 30.522 1.12671 30.871 1.53918 31.3786C1.91991 31.8546 2.2372 31.22 2.49102 30.9979C10.0106 24.9061 17.5301 18.7826 25.0179 12.6908C26.8264 11.1996 26.8264 11.1996 27.3024 13.5475C27.3341 13.7061 27.461 13.8648 27.5244 14.0551C27.6196 13.9282 27.7465 13.8013 27.81 13.6427C29.0157 11.1996 30.2531 8.75655 31.4587 6.31349C31.5539 6.15485 31.5539 5.93275 31.5856 5.77411C31.3953 5.74238 31.2049 5.74238 31.0145 5.80584ZM17.657 15.9905C13.3737 19.4806 9.05873 23.0024 4.77544 26.4925C4.6168 26.6194 4.3947 26.7146 4.20433 26.8098C4.23606 26.6194 4.23606 26.4291 4.33125 26.2387C7.31368 19.671 10.2961 13.1033 13.2786 6.56731C13.3737 6.34521 13.5324 6.15485 13.691 5.93275C13.8179 6.15485 13.9766 6.34521 14.1035 6.56731C15.3409 9.32765 16.5783 12.0563 17.8474 14.8166C17.9426 15.0387 18.006 15.2608 18.1964 15.7367C18.1012 15.8002 17.8474 15.8319 17.657 15.9905Z" fill="#757B82"/>
<path d="M97.675 12.6908C95.93 16.403 92.7572 18.0846 88.7277 18.3067C87.6807 18.3701 86.602 18.1798 85.5867 18.3384C83.9051 18.5922 84.0954 17.5452 84.1589 16.5299C84.1906 15.9588 84.6031 16.1174 84.9204 16.0857C86.6971 16.0223 88.4739 16.2761 90.219 15.9271C94.1532 15.1021 96.5011 12.3418 96.1838 8.97863C95.93 5.96447 92.5985 3.26758 89.0133 3.1724C86.126 3.10894 83.2705 3.1724 80.3833 3.14067C79.4949 3.14067 79.6535 3.68005 79.6535 4.18769C79.6535 12.9446 79.6535 21.7333 79.6535 30.4902C79.6535 31.3786 79.4314 31.6007 78.543 31.6007C77.6229 31.6325 77.4643 31.2834 77.4643 30.4585C77.496 25.731 77.4643 21.0036 77.4643 16.2761C77.4643 11.4534 77.4643 6.63075 77.4643 1.80809C77.4643 1.49081 77.2739 0.951434 77.9085 0.951434C82.2869 1.04662 86.7289 0.412058 91.0439 1.30044C96.6915 2.47438 99.8643 8.05852 97.675 12.6908Z" fill="#757B82"/>
<path d="M62.901 30.5853C62.9327 31.3785 62.6789 31.6006 61.8857 31.6006C56.1112 31.5689 50.305 31.5689 44.5304 31.6006C43.7372 31.6006 43.5786 31.3468 43.5786 30.617C43.6103 25.8578 43.5786 21.0986 43.5786 16.3394C43.5786 11.5485 43.6103 6.75756 43.5469 1.96662C43.5469 1.10997 43.9276 1.04651 44.5939 1.04651C45.2602 1.04651 45.7361 1.01478 45.7044 1.96662C45.6727 10.7236 45.7044 19.5122 45.6727 28.2692C45.6727 29.221 45.8948 29.5066 46.8783 29.5066C51.8596 29.4431 56.8727 29.5066 61.854 29.4431C62.8375 29.4431 62.8693 29.8556 62.901 30.5853Z" fill="#757B82"/>
<path d="M134.512 30.7122C134.512 31.6641 134.036 31.6006 133.401 31.6006C132.735 31.6006 132.354 31.5689 132.354 30.7122C132.386 26.6828 132.322 22.6533 132.386 18.6238C132.418 17.5768 132.069 17.3864 131.117 17.3864C127.373 17.4182 123.629 17.3547 119.885 17.4182C118.838 17.4499 118.933 16.9105 118.87 16.1808C118.838 15.4193 119.092 15.1972 119.853 15.1972C123.692 15.2289 127.532 15.1972 131.339 15.2289C132.132 15.2289 132.386 15.0386 132.386 14.2136C132.354 10.1207 132.386 6.0278 132.354 1.93489C132.354 1.07823 132.703 1.01477 133.401 1.01477C134.068 1.01477 134.543 0.983045 134.543 1.93489C134.512 6.72582 134.512 11.5168 134.512 16.3077C134.48 21.1304 134.448 25.9213 134.512 30.7122Z" fill="#757B82"/>
<path d="M114.364 30.6171C114.364 31.569 113.952 31.569 113.222 31.6007C112.429 31.6324 112.111 31.4738 112.111 30.5854C112.143 21.0987 112.143 11.612 112.111 2.12533C112.111 1.20522 112.429 1.04658 113.254 1.04658C114.174 1.01485 114.332 1.33213 114.332 2.18879C114.301 6.91627 114.301 11.6437 114.301 16.3712C114.332 21.0987 114.301 25.8579 114.364 30.6171Z" fill="#757B82"/>
<path d="M26.4148 31.5374C25.5581 31.7912 25.2091 31.347 24.9236 30.649C23.4641 27.2858 21.9411 23.9544 20.3864 20.6229C19.8788 19.5124 20.9576 19.3538 21.4652 19.0048C22.0998 18.5606 22.0363 19.4173 22.1632 19.7028C23.8448 23.2881 25.4312 26.9051 27.1128 30.4903C27.5253 31.3787 27.6204 31.8546 26.4148 31.5374Z" fill="#757B82"/>
<path d="M187.371 33.4092C187.371 33.4727 187.244 33.6313 187.181 33.6313C187.086 33.6313 186.99 33.5361 186.927 33.4409C186.863 33.3775 186.895 33.2823 186.863 33.1871C186.737 32.4891 186.61 31.7911 186.483 31.0613C186.102 31.6959 185.753 32.3305 185.372 32.9333C185.245 33.1554 185.087 33.314 184.928 33.5044C184.801 33.314 184.674 33.1237 184.579 32.9333C184.167 32.3305 184.071 31.5372 183.469 31.0296C183.342 31.7276 183.215 32.4574 183.056 33.1554C183.024 33.314 182.897 33.4092 182.834 33.5678C182.802 33.4092 182.739 33.2506 182.707 33.1554C182.739 32.9967 182.802 32.8698 182.802 32.7429C182.993 31.7276 183.151 30.7123 183.342 29.697C183.818 30.5854 184.293 31.4421 184.769 32.3304C184.991 32.7746 185.15 32.8064 185.34 32.3304C185.372 32.267 185.372 32.2353 185.404 32.1718C185.912 31.4103 186.007 30.395 186.8 29.7922C186.99 31.0296 187.181 32.2035 187.371 33.4092Z" fill="#757B82"/>
<path d="M180.74 29.9192C180.2 30.3951 180.613 30.9979 180.486 31.5373C180.486 31.6325 180.486 31.7277 180.486 31.7911C180.359 32.3939 180.74 33.0285 180.264 33.5996C179.851 33.0285 180.2 32.3939 179.978 31.5373C179.693 31.1566 180.771 30.0461 179.344 29.7605C179.122 29.6971 179.344 29.475 179.502 29.475C179.851 29.4432 180.2 29.4432 180.549 29.475C180.803 29.475 181.247 29.5067 181.279 29.5702C181.343 30.0461 180.898 29.7605 180.74 29.9192Z" fill="#757B82"/>
</svg>
