<svg width="251" height="35" viewBox="0 0 251 35" fill="none" xmlns="http://www.w3.org/2000/svg">
<path d="M0.736003 11.8824C1.67964 11.0038 2.5582 10.0602 3.43676 9.18164C4.64071 10.3856 5.84466 11.5895 7.08115 12.826C5.94228 13.9649 4.73833 15.1689 3.50184 16.4053C2.5582 15.4617 1.6471 14.5181 0.670925 13.607C0.0201402 12.9562 -0.0774772 12.6633 0.736003 11.8824Z" fill="#757B82"/>
<path d="M12.416 18.293C12.4486 18.2604 12.4811 18.2604 12.416 18.293V18.293Z" fill="#757B82"/>
<path d="M8.93555 12.9236C10.172 11.6871 11.3109 10.5482 12.5149 9.34424C13.1982 9.76725 13.6863 10.4506 14.3045 11.0037C14.8902 11.5569 15.4434 12.1426 16.0291 12.7283C15.1831 13.5743 14.3371 14.4204 13.491 15.2664C13.2307 15.5267 12.8728 15.7219 12.7752 16.1775C12.7101 16.4703 12.4498 16.4378 12.2871 16.2426C11.1808 15.1688 10.107 14.0624 8.93555 12.9236Z" fill="#757B82"/>
<path d="M9.19525 4.56117C9.00002 4.36594 9.00002 4.20324 9.19525 4.008C10.3016 2.90167 11.4079 1.82788 12.4166 0.786621L15.8983 4.26832C15.638 4.56117 15.0849 4.88656 14.8571 5.37465C14.5968 5.86274 14.0761 5.96036 13.7833 6.38337C13.4904 6.80638 13.165 7.19685 12.8722 7.58732C12.677 7.84763 12.4817 7.84763 12.2214 7.61986C11.2127 6.5786 10.204 5.56989 9.19525 4.56117Z" fill="#757B82"/>
<path d="M16.1272 30.5923C14.8907 31.8288 13.7519 32.9677 12.5479 34.1716C11.8971 33.7486 11.3765 33.0653 10.7908 32.5121C10.1725 31.9264 9.58684 31.3407 8.93606 30.6574C9.81462 29.7788 10.5956 28.9653 11.4416 28.1844C11.832 27.7939 12.1249 27.4035 12.0598 26.8178C11.9947 26.1995 12.2225 25.4836 11.9947 24.963C11.767 24.4424 11.1813 24.0519 10.7257 23.5964C10.4654 23.3361 10.1725 23.1083 9.97731 22.8154C9.52176 22.1972 8.90352 22.0345 8.12258 22.0345C7.34164 22.0345 6.78847 22.2297 6.26784 22.8154C5.4869 23.7265 4.5758 24.5075 3.79486 25.2884C2.55837 24.0519 1.4195 22.9131 0.345703 21.8393C1.4195 20.7655 2.55837 19.6266 3.72978 18.4552C3.95756 18.2274 4.08771 18.5853 4.28295 18.7806C4.83612 19.3012 5.42182 19.8218 5.87737 20.4075C6.43054 21.0909 7.11386 21.221 7.95988 21.2861C9.03368 21.3512 9.81462 21.0583 10.4979 20.2123C11.0511 19.529 11.7344 18.9433 12.3852 18.2925L15.9971 21.9043C15.7368 22.2948 15.2487 22.6527 14.8257 23.1083C14.4026 23.5638 13.9796 24.0845 13.4915 24.4099C12.4178 25.1583 12.9058 26.2646 12.8082 27.2408C12.8082 27.4035 13.0685 27.5662 13.2312 27.7289C14.1749 28.6725 15.151 29.6161 16.1272 30.5923Z" fill="#757B82"/>
<path d="M24.912 12.7285C23.643 13.9976 22.5041 15.1364 21.3978 16.2428C20.324 15.169 19.1526 13.9976 18.1113 12.9563C19.1851 11.8825 20.324 10.7436 21.593 9.47461C22.1137 9.73492 22.5692 10.4508 23.1874 11.0365C23.7732 11.5897 24.3589 12.2079 24.912 12.7285Z" fill="#757B82"/>
<path d="M17.8184 21.8069C19.0548 20.5704 20.1937 19.4315 21.3977 18.2275C22.081 18.6505 22.5691 19.3339 23.1873 19.887C23.8056 20.4727 24.3913 21.0585 24.8794 21.5791C23.6754 22.783 22.5365 23.9219 21.2675 25.1909C20.7469 24.8655 20.2588 24.1822 19.6731 23.629C19.0549 23.0433 18.4691 22.4576 17.8184 21.8069Z" fill="#757B82"/>
<path d="M21.5943 7.74992C20.3904 6.54596 19.2515 5.40709 18.0801 4.23568C19.1539 3.16189 20.2927 2.02301 21.3665 0.949219C22.4729 2.05555 23.6117 3.19442 24.8808 4.46345C24.5554 4.98408 23.8721 5.47217 23.3189 6.09042C22.7006 6.64358 22.0824 7.22929 21.5943 7.74992Z" fill="#757B82"/>
<path d="M24.8136 30.4299C24.9763 30.5926 24.9763 30.7227 24.8136 30.8854C23.7724 31.9267 22.7311 32.9679 21.6899 34.0092C21.4946 34.2044 21.3319 34.2044 21.1367 34.0092L17.7852 30.6576C18.9566 29.4862 20.0304 28.4124 21.1367 27.3061C21.3319 27.1109 21.4946 27.1109 21.6899 27.3061C22.7311 28.3473 23.7724 29.3886 24.8136 30.4299Z" fill="#757B82"/>
<path d="M33.7628 21.6115C32.5589 22.8154 31.42 23.9543 30.151 25.2559C30.1835 25.2884 30.2161 25.2884 30.2812 25.2884H30.3137H30.1185L30.151 25.2559C29.0121 24.117 27.9058 23.0107 26.7344 21.8393C27.9709 20.6028 29.1097 19.4639 30.2812 18.2925C30.2812 18.2925 30.3137 18.2925 30.3788 18.2925C30.4113 18.2925 30.4764 18.2925 30.5089 18.325C31.5827 19.4314 32.7216 20.5702 33.7628 21.6115Z" fill="#757B82"/>
<path d="M33.6646 12.6308C33.9575 12.8911 33.7622 13.0864 33.567 13.2816C32.5257 14.3228 31.4845 15.3641 30.4432 16.4054C29.2393 15.2014 28.0353 13.9975 26.7988 12.761C27.8075 11.7522 28.7837 10.7435 29.7924 9.76736C30.3456 9.24673 30.5408 9.24673 31.094 9.79989C31.9726 10.711 32.6559 11.7848 33.6646 12.6308Z" fill="#757B82"/>
<path d="M59.5002 23.4337C58.7518 22.0996 58.2963 20.6028 57.7757 19.1711C57.0273 17.1211 56.0511 15.1362 55.5305 12.9886C54.9448 12.3378 54.9773 11.4267 54.5868 10.6783C54.2289 9.99502 53.871 9.24662 53.7083 8.49822C53.513 7.68474 53.0249 6.96887 52.8623 6.15539C52.7972 5.83 52.6019 5.63477 52.2115 5.63477C51.2353 5.63477 50.2591 5.63477 49.2504 5.63477C48.8599 5.63477 48.6322 5.83 48.5671 6.12285C48.2742 7.26173 47.7536 8.30298 47.3306 9.37678C46.8425 10.6458 46.3544 11.9474 45.8989 13.2164C45.4108 14.4854 44.6949 15.6894 44.4997 17.0886C43.3283 19.3989 42.5799 21.8393 41.6688 24.2472C41.4735 24.7027 41.5061 24.7678 42.0267 24.7678C42.9703 24.7678 43.914 24.7678 44.8576 24.7678C45.1505 24.7678 45.2155 24.7027 45.3782 24.3774C45.8012 23.4988 46.1592 22.6528 46.4195 21.7091C46.6147 21.0909 46.7774 20.9933 47.3957 20.9933C49.6409 20.9933 51.8861 21.0258 54.0987 20.9607C54.6519 20.9607 54.8146 21.2536 54.8797 21.579C55.1075 22.3925 55.5305 23.1083 55.7908 23.8893C56.0836 24.7353 56.0836 24.7353 56.767 24.7678C57.7431 24.7678 58.7193 24.7678 59.8582 24.7678C59.7606 24.2147 59.6955 23.7917 59.5002 23.4337ZM52.6996 17.1862C51.2678 17.1862 49.8361 17.1862 48.2091 17.1862C49.0877 15.2989 49.5433 13.4442 50.4218 11.7196C50.4869 11.5894 50.4869 11.3942 50.4869 11.199C50.5194 11.0363 50.5845 10.9712 50.7472 10.9712C50.9099 10.9712 50.975 11.0363 51.0401 11.1664C51.4305 12.0775 51.6583 13.0537 52.0813 13.9648C52.4718 14.8108 52.7321 15.7545 53.0575 16.6656C53.2202 17.1536 53.1876 17.1862 52.6996 17.1862Z" fill="#757B82"/>
<path d="M74.9566 14.2578C74.9566 17.707 74.9566 21.1561 74.9566 24.6704C74.4034 24.8005 73.8503 24.7029 73.2645 24.7354C72.6788 24.7354 72.1257 24.7354 71.4423 24.7354V21.3839C71.4423 19.5942 71.4423 17.8046 71.4423 16.0149C71.4423 15.3641 71.2797 14.7784 70.7916 14.2578C69.7178 13.184 68.4162 13.1515 67.2773 14.2253C66.4638 15.0062 66.0408 15.9498 66.0408 17.0887C66.0408 19.5942 66.0408 22.0998 66.0408 24.7354H62.3314C62.3314 24.5727 62.2988 24.4751 62.2988 24.345C62.2988 20.0823 62.2988 15.8522 62.2988 11.5896C62.2988 11.492 62.2988 11.4269 62.2988 11.3293C62.3314 10.7436 62.4941 10.5483 63.0798 10.5158C63.7631 10.5158 64.4139 10.5158 65.0972 10.5158C65.9432 10.5158 66.0083 10.6134 66.0734 11.5245C66.0734 11.6221 66.1059 11.6872 66.1059 11.8174C66.7242 11.6872 67.1472 11.1666 67.6678 10.9063C69.9781 9.76739 71.6701 10.0277 73.5899 11.492C74.436 12.1102 74.9566 13.0864 74.9566 14.2578Z" fill="#757B82"/>
<path d="M89.6977 10.4832C89.1771 10.4832 89.0144 10.6784 88.9494 11.2966C88.9494 11.3943 88.9494 11.4593 88.9494 11.557C88.9168 11.8173 88.689 11.9149 88.4938 11.7522C88.4287 11.6871 88.3636 11.622 88.2986 11.557C86.8018 10.2554 84.9145 9.83238 82.7994 10.4506C82.0185 10.6784 81.3677 11.1014 80.6844 11.5244C78.9598 12.5657 78.3416 14.2577 77.9511 16.0474C77.7233 17.0235 77.8209 18.0973 77.9511 19.1386C78.0162 19.6918 78.1789 20.2775 78.4066 20.8306C78.9273 22.1322 79.7733 23.1735 80.8145 23.9869C81.5629 24.5726 82.4415 24.898 83.4502 25.1258C84.2312 25.2885 84.947 25.321 85.728 25.1909C86.5089 25.0282 87.2573 24.8004 87.9406 24.3449C88.2335 24.1496 88.3962 23.5314 88.8517 23.7592C89.1771 23.9219 88.8192 24.4425 89.0795 24.7679H92.431V10.4832C91.4549 10.4832 90.5763 10.4506 89.6977 10.4832ZM89.2097 17.9021C89.112 19.2362 88.3311 20.8632 87.1597 21.4489C86.5089 21.7743 85.728 22.1322 84.9796 22.002C84.2962 21.8719 83.6129 21.6767 83.0597 21.156C81.9534 20.1799 81.3026 19.041 81.4002 17.5767C81.3352 15.8196 82.2137 14.5831 83.6129 13.8022C84.101 13.5093 84.8169 13.2815 85.4676 13.4117C86.0859 13.5418 86.7692 13.6395 87.2248 14.0299C88.4613 15.0061 89.3398 16.2101 89.2097 17.9021Z" fill="#757B82"/>
<path d="M99.3625 5.11426H95.6855V24.7354H99.3625V5.11426Z" fill="#757B82"/>
<path d="M115.794 10.483C115.794 10.906 115.859 11.2314 115.696 11.5894C114.557 13.9647 113.451 16.4052 112.344 18.7805C111.694 20.2123 111.01 21.644 110.36 23.0757C109.481 24.9955 108.635 26.9153 107.756 28.8352C107.171 30.1042 107.171 30.1042 105.804 30.1042H103.526C104.242 28.2495 105.056 26.5249 105.967 24.8328C106.129 24.5074 105.967 24.117 106.325 23.8892C106.487 23.7916 106.422 23.6289 106.357 23.4336C105.609 21.7091 104.893 20.017 104.177 18.2925C103.722 17.1861 103.136 16.1123 102.778 14.9735C102.453 13.8671 101.802 12.8584 101.574 11.687C101.509 11.2965 101.183 10.9711 100.891 10.4505C102.095 10.4505 103.103 10.4505 104.112 10.4505C104.47 10.4505 104.665 10.6457 104.795 10.9386C105.251 11.9473 105.706 12.9886 106.129 13.9973C106.65 15.2663 107.041 16.5679 107.691 17.7718C107.952 18.2599 107.887 18.8456 108.44 19.3337C108.993 17.7393 109.904 16.3076 110.425 14.7457C110.522 14.4203 110.75 14.16 110.88 13.8671C111.271 13.0536 111.694 12.2402 111.987 11.3616C112.247 10.6783 112.637 10.3854 113.353 10.418C114.167 10.5156 114.948 10.483 115.794 10.483Z" fill="#757B82"/>
<path d="M121.975 10.4506H124.123V13.7046H122.008V24.7028H118.558C118.461 22.9457 118.526 21.1235 118.526 19.3013C118.526 17.4791 118.526 15.6244 118.526 13.7696H116.639C116.639 12.8911 116.639 12.0451 116.639 11.2316C116.639 10.776 116.899 10.5482 117.355 10.5157C117.712 10.4832 118.07 10.5157 118.461 10.5157V5.37451H121.975V10.4506Z" fill="#757B82"/>
<path d="M125.816 10.4834H129.233V24.6705C128.745 24.8007 128.159 24.703 127.606 24.7356C127.02 24.7356 126.467 24.7356 125.849 24.7356V10.4834H125.816Z" fill="#757B82"/>
<path d="M129.102 5.27684C129.525 5.79747 129.85 6.28555 129.85 7.00142C129.818 8.23791 128.679 9.44186 127.507 9.40932C126.401 9.37678 125.295 8.20537 125.262 7.03396C125.23 6.31809 125.523 5.79747 126.011 5.30938C126.499 4.82129 126.499 4.82129 127.573 4.82129C128.061 4.85383 128.646 4.69113 129.102 5.27684Z" fill="#757B82"/>
<path d="M135.872 15.8521C134.863 18.1624 135.709 20.733 138.15 21.6441C139.972 22.3275 141.534 22.0021 143.063 20.733C143.389 20.4727 143.519 20.4076 143.942 20.6354C144.235 20.7981 144.495 21.0584 144.755 21.2211C145.243 21.5791 145.959 21.6441 146.219 22.3275C145.764 22.9457 145.276 23.5314 144.658 23.8893C142.868 24.8981 140.981 25.4838 138.931 25.2234C138.052 25.0933 137.108 24.9306 136.262 24.5727C134.896 23.9544 133.952 22.8806 133.106 21.7418C132.325 20.7005 131.935 19.4965 132 18.1624C132 17.8045 132.032 17.4466 132 17.0886C131.87 15.6895 132.488 14.4855 133.236 13.4442C134.082 12.2728 135.221 11.2967 136.653 10.7435C138.247 10.0927 139.907 9.96255 141.501 10.2229C143.226 10.5157 144.625 11.199 145.862 12.5982C146.024 12.7935 146.252 12.9887 146.512 13.249C145.731 14.1601 144.527 14.3553 143.551 15.0712C142.998 14.6482 142.543 14.095 141.794 13.8673C141.111 13.672 140.427 13.2816 139.712 13.4117C138.866 13.5419 137.955 13.7371 137.239 14.2252C136.685 14.6482 136.165 15.1688 135.872 15.8521Z" fill="#757B82"/>
<path d="M158.583 20.7004C158.713 21.6766 158.486 22.5552 157.802 23.3361C157.249 23.9543 156.761 24.4424 155.915 24.7027C155.199 24.9305 154.516 25.2559 153.702 25.2559C151.848 25.2559 150.318 24.5401 148.984 23.3036C148.854 23.1734 148.691 23.0758 148.496 22.9131C149.244 22.002 149.96 21.156 150.741 20.2449C151.099 20.6028 151.36 20.8631 151.652 21.156C152.173 21.7091 152.921 21.7742 153.605 22.002C154.093 22.1647 155.199 21.5139 155.329 21.0584C155.394 20.8306 155.394 20.5703 155.167 20.3425C154.646 19.8219 154.028 19.4314 153.41 19.0409C152.661 18.5854 151.848 18.2274 151.099 17.7394C150.221 17.1536 149.537 16.4378 149.31 15.4941C149.017 14.4204 148.919 13.2815 149.635 12.2402C150.611 10.841 151.913 10.1577 153.605 10.1577C155.687 10.1577 156.729 10.7109 158.258 12.468C157.575 13.1513 156.891 13.8346 156.175 14.5505C155.98 14.4204 155.59 14.1926 155.199 13.8997C154.548 13.4442 153.833 13.0537 152.987 13.6069C152.726 13.7696 152.336 13.8997 152.466 14.1926C152.563 14.4529 152.596 14.7783 152.987 14.9735C154.06 15.4616 155.069 16.0148 156.078 16.6005C157.086 17.1862 157.9 17.9671 158.388 19.106C158.616 19.7242 158.518 20.2123 158.583 20.7004Z" fill="#757B82"/>
<path d="M169.125 5.63477H172.802V24.6702C172.249 24.8004 171.631 24.7027 171.012 24.7353C170.394 24.7353 169.776 24.7353 169.125 24.7353V5.63477Z" fill="#757B82"/>
<path d="M189.008 14.5832C188.975 17.9348 189.008 21.2863 189.008 24.6704H185.493C185.493 21.8069 185.493 19.0086 185.493 16.1776C185.493 15.2665 185.233 14.4856 184.485 13.8999C184.159 13.6396 183.801 13.4444 183.346 13.3793C182.76 13.3467 182.174 13.5094 181.784 13.8023C180.71 14.5507 180.124 15.657 180.124 16.9911C180.124 19.5292 180.124 22.0672 180.124 24.6704H176.447C176.252 24.4101 176.382 24.0196 176.382 23.6942C176.382 19.757 176.382 15.8197 176.382 11.8825C176.382 11.7198 176.382 11.5245 176.382 11.3293C176.415 10.646 176.578 10.4833 177.228 10.4507C177.912 10.4507 178.562 10.4507 179.246 10.4507C179.994 10.4507 180.092 10.5809 180.157 11.3944C180.157 11.5245 180.092 11.6547 180.255 11.7523C181.003 11.4595 181.556 10.9063 182.304 10.5809C184.289 9.6698 186.665 10.288 187.869 11.5571C188.585 12.4031 189.04 13.3793 189.008 14.5832Z" fill="#757B82"/>
<path d="M201.372 20.1798C201.892 22.4575 200.103 24.6376 197.955 25.0606C196.133 25.386 195.027 25.2884 193.432 24.4749C192.489 23.9868 191.838 23.4011 191.447 22.7178C191.708 22.4575 191.935 22.2297 192.163 22.002C192.651 21.5139 193.204 21.0583 193.497 20.4401C194.148 20.7004 194.538 21.3186 195.157 21.6115C195.742 21.8718 196.328 22.1647 196.979 22.067C197.5 22.002 197.857 21.6766 198.085 21.1885C198.215 20.8956 198.215 20.6028 197.955 20.375C197.434 19.8869 197.011 19.3337 196.328 19.106C195.254 18.748 194.311 18.0973 193.4 17.4139C192.521 16.7631 192.131 15.787 191.935 14.6481C191.61 12.5981 193.888 10.1251 196.296 10.1902C198.053 10.2228 199.55 10.8085 200.819 11.9473C201.274 12.3378 201.242 12.5981 200.819 13.0537C200.265 13.6394 199.68 14.1925 199.127 14.7783C198.638 14.4203 198.183 14.0298 197.695 13.737C197.207 13.4441 196.654 13.314 196.1 13.5092C195.45 13.737 195.287 14.3552 195.71 14.8759C196.035 15.2663 196.491 15.3965 196.881 15.5917C198.313 16.3076 199.68 17.056 200.753 18.2925C201.111 18.748 201.437 19.171 201.404 19.7893C201.372 19.8869 201.339 20.0496 201.372 20.1798Z" fill="#757B82"/>
<path d="M207.555 10.4834V24.703H204.171C203.943 24.4427 204.106 24.0848 204.073 23.7269C204.073 19.9198 204.073 16.1127 204.073 12.3381C204.073 12.0778 204.073 11.785 204.073 11.5247C204.008 10.4834 204.008 10.4834 204.887 10.4834C205.733 10.4834 206.579 10.4834 207.555 10.4834Z" fill="#757B82"/>
<path d="M207.326 5.30951C207.716 5.7976 208.107 6.31823 208.074 7.00155C208.042 8.23804 206.968 9.34438 205.699 9.37692C205.081 9.40946 204.69 9.05153 204.235 8.66105C203.714 8.20551 203.259 7.71742 203.519 6.96902C203.389 6.31823 203.584 5.89522 204.039 5.40713C204.528 4.91904 205.016 4.75635 205.666 4.75635C206.317 4.82143 206.968 4.85397 207.326 5.30951Z" fill="#757B82"/>
<path d="M224.768 11.7199V10.5159H221.286C221.286 10.8739 221.286 11.1342 221.286 11.3945C221.286 11.5572 221.319 11.785 221.091 11.8175C220.993 11.8175 220.831 11.7524 220.766 11.6873C219.985 10.8739 218.878 10.4508 217.87 10.2882C216.34 10.0278 214.811 10.2556 213.444 11.1993C212.924 11.5572 212.468 11.9477 212.078 12.3707C210.971 13.5421 210.288 14.9413 210.288 16.6008C210.288 17.3492 210.288 18.1301 210.288 18.8785C210.288 19.1714 210.386 19.4642 210.451 19.7571C210.809 21.1237 211.557 22.23 212.566 23.1737C213.64 24.2149 214.843 24.7681 216.34 24.7681C216.861 24.7681 217.414 24.7681 217.967 24.7681C218.716 24.7681 219.334 24.4753 219.985 24.1173C220.375 23.8895 220.635 23.4015 221.189 23.4015C221.579 24.3451 220.961 25.126 220.733 25.9721C220.701 26.1348 220.44 26.2974 220.245 26.3951C218.455 27.3712 216.666 27.5665 214.811 26.5252C213.574 25.8094 213.542 25.8419 212.143 25.8419C211.687 25.8419 211.232 25.8419 210.809 25.8419C210.288 25.8419 210.093 26.1022 210.321 26.5578C211.427 28.9331 213.509 30.1696 215.917 30.3974C216.633 30.4625 217.349 30.3974 218.065 30.3974C219.464 30.4625 220.733 30.072 221.937 29.3561C222.685 28.9006 223.271 28.3149 223.727 27.5665C224.443 26.3625 224.8 25.0935 224.768 23.6943C224.768 19.692 224.768 15.6897 224.768 11.7199ZM220.408 20.4079C219.594 21.1888 218.781 21.7094 217.609 21.4816C216.536 21.8396 215.722 21.1888 214.941 20.6356C214.388 20.2126 214.095 19.5293 213.867 18.8134C213.249 16.8611 214.128 14.9087 215.95 13.9651C216.601 13.6397 217.219 13.7699 217.87 13.7048C219.529 13.5095 220.44 14.5508 221.124 15.8198C221.872 17.3492 221.449 19.3991 220.408 20.4079Z" fill="#757B82"/>
<path d="M241.199 16.1125C241.134 18.6506 241.166 21.2212 241.166 23.7592V24.7029H237.392V23.2711C237.392 20.8958 237.392 18.5204 237.392 16.145C237.392 15.2014 237.099 14.5506 236.448 13.9649C236.09 13.6395 235.7 13.4443 235.179 13.4117C234.593 13.3792 234.04 13.5744 233.617 13.8673C232.543 14.6157 231.99 15.722 231.99 17.0561C231.99 19.5617 231.99 22.0672 231.99 24.7029H228.541V5.14678C229.029 5.01663 229.615 5.11424 230.168 5.11424C230.754 5.11424 231.307 5.11424 231.925 5.11424V11.8173C232.348 11.6546 232.674 11.4594 232.999 11.2316C234.789 9.93005 237.359 9.86497 239.084 11.0689C239.995 11.6872 240.581 12.6308 240.808 13.7046C241.036 14.453 241.231 15.2665 241.199 16.1125Z" fill="#757B82"/>
<path d="M250.539 10.4508V13.7047H248.489V24.703H244.975V13.7373H243.055C243.055 12.8587 243.055 12.0452 243.055 11.2643C243.055 10.7111 243.282 10.5159 243.868 10.4833C244.194 10.4833 244.486 10.4833 244.909 10.4833C244.909 9.93018 244.942 9.34447 244.942 8.79131C244.942 8.23814 244.942 7.71751 244.942 7.16434V5.40723H248.424V10.4508H250.539Z" fill="#757B82"/>
<path d="M224.768 11.7199V10.5159H221.286C221.286 10.8739 221.286 11.1342 221.286 11.3945C221.286 11.5572 221.319 11.785 221.091 11.8175C220.993 11.8175 220.831 11.7524 220.766 11.6873C219.985 10.8739 218.878 10.4508 217.87 10.2882C216.34 10.0278 214.811 10.2556 213.444 11.1993C212.924 11.5572 212.468 11.9477 212.078 12.3707C210.971 13.5421 210.288 14.9413 210.288 16.6008C210.288 17.3492 210.288 18.1301 210.288 18.8785C210.288 19.1714 210.386 19.4642 210.451 19.7571C210.809 21.1237 211.557 22.23 212.566 23.1737C213.64 24.2149 214.843 24.7681 216.34 24.7681C216.861 24.7681 217.414 24.7681 217.967 24.7681C218.716 24.7681 219.334 24.4753 219.985 24.1173C220.375 23.8895 220.635 23.4015 221.189 23.4015C221.579 24.3451 220.961 25.126 220.733 25.9721C220.701 26.1348 220.44 26.2974 220.245 26.3951C218.455 27.3712 216.666 27.5665 214.811 26.5252C213.574 25.8094 213.542 25.8419 212.143 25.8419C211.687 25.8419 211.232 25.8419 210.809 25.8419C210.288 25.8419 210.093 26.1022 210.321 26.5578C211.427 28.9331 213.509 30.1696 215.917 30.3974C216.633 30.4625 217.349 30.3974 218.065 30.3974C219.464 30.4625 220.733 30.072 221.937 29.3561C222.685 28.9006 223.271 28.3149 223.727 27.5665C224.443 26.3625 224.8 25.0935 224.768 23.6943C224.768 19.692 224.768 15.6897 224.768 11.7199ZM220.408 20.4079C219.594 21.1888 218.781 21.7094 217.609 21.4816C216.536 21.8396 215.722 21.1888 214.941 20.6356C214.388 20.2126 214.095 19.5293 213.867 18.8134C213.249 16.8611 214.128 14.9087 215.95 13.9651C216.601 13.6397 217.219 13.7699 217.87 13.7048C219.529 13.5095 220.44 14.5508 221.124 15.8198C221.872 17.3492 221.449 19.3991 220.408 20.4079Z" fill="#757B82"/>
<path d="M59.5002 23.4337C58.7518 22.0996 58.2963 20.6028 57.7757 19.1711C57.0273 17.1211 56.0511 15.1362 55.5305 12.9886C54.9448 12.3378 54.9773 11.4267 54.5868 10.6783C54.2289 9.99502 53.871 9.24662 53.7083 8.49822C53.513 7.68474 53.0249 6.96887 52.8623 6.15539C52.7972 5.83 52.6019 5.63477 52.2115 5.63477C51.2353 5.63477 50.2591 5.63477 49.2504 5.63477C48.8599 5.63477 48.6322 5.83 48.5671 6.12285C48.2742 7.26173 47.7536 8.30298 47.3306 9.37678C46.8425 10.6458 46.3544 11.9474 45.8989 13.2164C45.4108 14.4854 44.6949 15.6894 44.4997 17.0886C43.3283 19.3989 42.5799 21.8393 41.6688 24.2472C41.4735 24.7027 41.5061 24.7678 42.0267 24.7678C42.9703 24.7678 43.914 24.7678 44.8576 24.7678C45.1505 24.7678 45.2155 24.7027 45.3782 24.3774C45.8012 23.4988 46.1592 22.6528 46.4195 21.7091C46.6147 21.0909 46.7774 20.9933 47.3957 20.9933C49.6409 20.9933 51.8861 21.0258 54.0987 20.9607C54.6519 20.9607 54.8146 21.2536 54.8797 21.579C55.1075 22.3925 55.5305 23.1083 55.7908 23.8893C56.0836 24.7353 56.0836 24.7353 56.767 24.7678C57.7431 24.7678 58.7193 24.7678 59.8582 24.7678C59.7606 24.2147 59.6955 23.7917 59.5002 23.4337ZM52.6996 17.1862C51.2678 17.1862 49.8361 17.1862 48.2091 17.1862C49.0877 15.2989 49.5433 13.4442 50.4218 11.7196C50.4869 11.5894 50.4869 11.3942 50.4869 11.199C50.5194 11.0363 50.5845 10.9712 50.7472 10.9712C50.9099 10.9712 50.975 11.0363 51.0401 11.1664C51.4305 12.0775 51.6583 13.0537 52.0813 13.9648C52.4718 14.8108 52.7321 15.7545 53.0575 16.6656C53.2202 17.1536 53.1876 17.1862 52.6996 17.1862Z" fill="#757B82"/>
<path d="M89.6977 10.4832C89.1771 10.4832 89.0144 10.6784 88.9494 11.2966C88.9494 11.3943 88.9494 11.4593 88.9494 11.557C88.9168 11.8173 88.689 11.9149 88.4938 11.7522C88.4287 11.6871 88.3636 11.622 88.2986 11.557C86.8018 10.2554 84.9145 9.83238 82.7994 10.4506C82.0185 10.6784 81.3677 11.1014 80.6844 11.5244C78.9598 12.5657 78.3416 14.2577 77.9511 16.0474C77.7233 17.0235 77.8209 18.0973 77.9511 19.1386C78.0162 19.6918 78.1789 20.2775 78.4066 20.8306C78.9273 22.1322 79.7733 23.1735 80.8145 23.9869C81.5629 24.5726 82.4415 24.898 83.4502 25.1258C84.2312 25.2885 84.947 25.321 85.728 25.1909C86.5089 25.0282 87.2573 24.8004 87.9406 24.3449C88.2335 24.1496 88.3962 23.5314 88.8517 23.7592C89.1771 23.9219 88.8192 24.4425 89.0795 24.7679H92.431V10.4832C91.4549 10.4832 90.5763 10.4506 89.6977 10.4832ZM89.2097 17.9021C89.112 19.2362 88.3311 20.8632 87.1597 21.4489C86.5089 21.7743 85.728 22.1322 84.9796 22.002C84.2962 21.8719 83.6129 21.6767 83.0597 21.156C81.9534 20.1799 81.3026 19.041 81.4002 17.5767C81.3352 15.8196 82.2137 14.5831 83.6129 13.8022C84.101 13.5093 84.8169 13.2815 85.4676 13.4117C86.0859 13.5418 86.7692 13.6395 87.2248 14.0299C88.4613 15.0061 89.3398 16.2101 89.2097 17.9021Z" fill="#757B82"/>
<path d="M241.166 23.7592V24.7029H237.392V23.2711C237.392 20.8958 237.392 18.5204 237.392 16.145C237.392 15.2014 237.099 14.5506 236.448 13.9649C236.09 13.6395 235.7 13.4443 235.179 13.4117C234.593 13.3792 234.04 13.5744 233.617 13.8673C232.543 14.6157 231.99 15.722 231.99 17.0561C231.99 19.5617 231.99 22.0672 231.99 24.7029H228.541V5.14678C229.029 5.01663 229.615 5.11424 230.168 5.11424C230.754 5.11424 231.307 5.11424 231.925 5.11424V11.8173C232.348 11.6546 232.674 11.4594 232.999 11.2316C234.789 9.93005 237.359 9.86497 239.084 11.0689C239.995 11.6872 240.581 12.6308 240.808 13.7046C240.971 14.4855 241.134 15.299 241.134 16.145C241.134 18.6506 241.166 21.2212 241.166 23.7592Z" fill="#757B82"/>
<path d="M189.008 24.6704H185.493C185.493 21.8069 185.493 19.0086 185.493 16.1776C185.493 15.2665 185.233 14.4856 184.485 13.8999C184.159 13.6396 183.801 13.4444 183.346 13.3793C182.76 13.3467 182.174 13.5094 181.784 13.8023C180.71 14.5507 180.124 15.657 180.124 16.9911C180.124 19.5292 180.124 22.0672 180.124 24.6704H176.447C176.252 24.4101 176.382 24.0196 176.382 23.6942C176.382 19.757 176.382 15.8197 176.382 11.8825C176.382 11.7198 176.382 11.5245 176.382 11.3293C176.415 10.646 176.578 10.4833 177.228 10.4507C177.912 10.4507 178.562 10.4507 179.246 10.4507C179.994 10.4507 180.092 10.5809 180.157 11.3944C180.157 11.5245 180.092 11.6547 180.255 11.7523C181.003 11.4595 181.556 10.9063 182.304 10.5809C184.289 9.6698 186.665 10.288 187.869 11.5571C188.65 12.3706 189.105 13.3467 189.073 14.5507C188.975 17.9348 189.008 21.2863 189.008 24.6704Z" fill="#757B82"/>
<path d="M74.9566 14.2578C74.9566 17.707 74.9566 21.1561 74.9566 24.6704C74.4034 24.8005 73.8503 24.7029 73.2645 24.7354C72.6788 24.7354 72.1257 24.7354 71.4423 24.7354V21.3839C71.4423 19.5942 71.4423 17.8046 71.4423 16.0149C71.4423 15.3641 71.2797 14.7784 70.7916 14.2578C69.7178 13.184 68.4162 13.1515 67.2773 14.2253C66.4638 15.0062 66.0408 15.9498 66.0408 17.0887C66.0408 19.5942 66.0408 22.0998 66.0408 24.7354H62.3314C62.3314 24.5727 62.2988 24.4751 62.2988 24.345C62.2988 20.0823 62.2988 15.8522 62.2988 11.5896C62.2988 11.492 62.2988 11.4269 62.2988 11.3293C62.3314 10.7436 62.4941 10.5483 63.0798 10.5158C63.7631 10.5158 64.4139 10.5158 65.0972 10.5158C65.9432 10.5158 66.0083 10.6134 66.0734 11.5245C66.0734 11.6221 66.1059 11.6872 66.1059 11.8174C66.7242 11.6872 67.1472 11.1666 67.6678 10.9063C69.9781 9.76739 71.6701 10.0277 73.5899 11.492C74.436 12.1102 74.9566 13.0864 74.9566 14.2578Z" fill="#757B82"/>
<path d="M115.696 11.5571C114.557 13.9325 113.451 16.3729 112.344 18.7483C111.694 20.18 111.01 21.6118 110.36 23.0435C109.481 24.9633 108.635 26.8831 107.756 28.8029C107.171 30.072 107.171 30.072 105.804 30.072H103.526C104.242 28.2172 105.056 26.4926 105.967 24.8006C106.129 24.4752 105.967 24.0847 106.325 23.857C106.487 23.7594 106.422 23.5967 106.357 23.4014C105.609 21.6768 104.893 19.9848 104.177 18.2602C103.722 17.1539 103.136 16.0801 102.778 14.9412C102.453 13.8349 101.802 12.8262 101.574 11.6548C101.509 11.2643 101.183 10.9389 100.891 10.4183C102.095 10.4183 103.103 10.4183 104.112 10.4183C104.47 10.4183 104.665 10.6135 104.795 10.9064C105.251 11.9151 105.706 12.9563 106.129 13.965C106.65 15.2341 107.041 16.5356 107.691 17.7396C107.952 18.2277 107.887 18.8134 108.44 19.3015C108.993 17.7071 109.904 16.2753 110.425 14.7134C110.522 14.3881 110.75 14.1277 110.88 13.8349C111.271 13.0214 111.694 12.2079 111.987 11.3294C112.247 10.646 112.637 10.3532 113.353 10.3857C114.102 10.4183 114.882 10.3857 115.761 10.3857C115.794 10.9064 115.859 11.1992 115.696 11.5571Z" fill="#757B82"/>
<path d="M146.219 22.3602C145.764 22.9784 145.276 23.5641 144.658 23.9221C142.868 24.9308 140.981 25.5165 138.931 25.2562C138.052 25.126 137.108 24.9633 136.262 24.6054C134.896 23.9871 133.952 22.9133 133.106 21.7745C132.325 20.7332 131.935 19.5293 132 18.1952C132 17.8372 132.032 17.4793 132 17.1214C131.87 15.7222 132.488 14.5182 133.236 13.477C134.082 12.3056 135.221 11.3294 136.653 10.7762C138.247 10.1254 139.907 9.99527 141.501 10.2556C143.226 10.5484 144.625 11.2318 145.862 12.6309C146.024 12.8262 146.252 13.0214 146.512 13.2817C145.731 14.1928 144.527 14.3881 143.551 15.1039C142.998 14.6809 142.543 14.1277 141.794 13.9C141.111 13.7047 140.427 13.3143 139.712 13.4444C138.866 13.5746 137.955 13.7698 137.239 14.2579C136.685 14.6484 136.165 15.1365 135.872 15.8198C134.863 18.1301 135.709 20.7007 138.15 21.6118C139.972 22.2951 141.534 21.9697 143.063 20.7007C143.389 20.4404 143.519 20.3753 143.942 20.6031C144.235 20.7657 144.495 21.0261 144.755 21.1888C145.276 21.5792 145.992 21.6443 146.219 22.3602Z" fill="#757B82"/>
<path d="M197.955 25.0284C196.133 25.3538 195.027 25.2562 193.432 24.4427C192.489 23.9546 191.838 23.3689 191.447 22.6856C191.708 22.4253 191.935 22.1975 192.163 21.9697C192.651 21.4816 193.204 21.0261 193.497 20.4079C194.148 20.6682 194.538 21.2864 195.157 21.5793C195.742 21.8396 196.328 22.1324 196.979 22.0348C197.5 21.9697 197.857 21.6443 198.085 21.1563C198.215 20.8634 198.215 20.5705 197.955 20.3428C197.434 19.8547 197.011 19.3015 196.328 19.0737C195.254 18.7158 194.311 18.065 193.4 17.3817C192.521 16.7309 192.131 15.7547 191.935 14.6159C191.61 12.5659 193.888 10.0929 196.296 10.158C198.053 10.1905 199.55 10.7762 200.819 11.9151C201.274 12.3056 201.242 12.5659 200.819 13.0214C200.265 13.6072 199.68 14.1603 199.127 14.746C198.638 14.3881 198.183 13.9976 197.695 13.7048C197.207 13.4119 196.654 13.2818 196.1 13.477C195.45 13.7048 195.287 14.323 195.71 14.8436C196.035 15.2341 196.491 15.3643 196.881 15.5595C198.313 16.2754 199.68 17.0238 200.753 18.2603C201.111 18.7158 201.437 19.1388 201.404 19.7571C201.404 19.8872 201.372 20.0174 201.404 20.1475C201.892 22.4578 200.103 24.6379 197.955 25.0284Z" fill="#757B82"/>
<path d="M157.802 23.3688C157.249 23.9871 156.761 24.4751 155.915 24.7355C155.199 24.9632 154.516 25.2886 153.702 25.2886C151.848 25.2886 150.318 24.5728 148.984 23.3363C148.854 23.2061 148.691 23.1085 148.496 22.9458C149.244 22.0347 149.96 21.1887 150.741 20.2776C151.099 20.6355 151.36 20.8958 151.652 21.1887C152.173 21.7419 152.921 21.8069 153.605 22.0347C154.093 22.1974 155.199 21.5466 155.329 21.0911C155.394 20.8633 155.394 20.603 155.167 20.3752C154.646 19.8546 154.028 19.4641 153.41 19.0736C152.661 18.6181 151.848 18.2602 151.099 17.7721C150.221 17.1864 149.537 16.4705 149.31 15.5269C149.017 14.4531 148.919 13.3142 149.635 12.2729C150.611 10.8738 151.913 10.1904 153.605 10.1904C155.687 10.1904 156.729 10.7436 158.258 12.5007C157.575 13.184 156.891 13.8674 156.175 14.5832C155.98 14.4531 155.59 14.2253 155.199 13.9324C154.548 13.4769 153.833 13.0864 152.987 13.6396C152.726 13.8023 152.336 13.9324 152.466 14.2253C152.563 14.4856 152.596 14.811 152.987 15.0062C154.06 15.4943 155.069 16.0475 156.078 16.6332C157.086 17.2189 157.9 17.9998 158.388 19.1387C158.648 19.6919 158.551 20.1474 158.616 20.6681C158.713 21.7093 158.486 22.5553 157.802 23.3688Z" fill="#757B82"/>
<path d="M12.416 18.293C12.4486 18.2604 12.4811 18.2604 12.416 18.293V18.293Z" fill="#757B82"/>
<path d="M16.1272 30.5923C14.8907 31.8288 13.7519 32.9677 12.5479 34.1716C11.8971 33.7486 11.3765 33.0653 10.7908 32.5121C10.1725 31.9264 9.58684 31.3407 8.93606 30.6574C9.81462 29.7788 10.5956 28.9653 11.4416 28.1844C11.832 27.7939 12.1249 27.4035 12.0598 26.8178C11.9947 26.1995 12.2225 25.4836 11.9947 24.963C11.767 24.4424 11.1813 24.0519 10.7257 23.5964C10.4654 23.3361 10.1725 23.1083 9.97731 22.8154C9.52176 22.1972 8.90352 22.0345 8.12258 22.0345C7.34164 22.0345 6.78847 22.2297 6.26784 22.8154C5.4869 23.7265 4.5758 24.5075 3.79486 25.2884C2.55837 24.0519 1.4195 22.9131 0.345703 21.8393C1.4195 20.7655 2.55837 19.6266 3.72978 18.4552C3.95756 18.2274 4.08771 18.5853 4.28295 18.7806C4.83612 19.3012 5.42182 19.8218 5.87737 20.4075C6.43054 21.0909 7.11386 21.221 7.95988 21.2861C9.03368 21.3512 9.81462 21.0583 10.4979 20.2123C11.0511 19.529 11.7344 18.9433 12.3852 18.2925L15.9971 21.9043C15.7368 22.2948 15.2487 22.6527 14.8257 23.1083C14.4026 23.5638 13.9796 24.0845 13.4915 24.4099C12.4178 25.1583 12.9058 26.2646 12.8082 27.2408C12.8082 27.4035 13.0685 27.5662 13.2312 27.7289C14.1749 28.6725 15.151 29.6161 16.1272 30.5923Z" fill="#757B82"/>
<path d="M124.123 10.4506V13.7046H122.008V24.7028H118.558C118.461 22.9457 118.526 21.1235 118.526 19.3013C118.526 17.4791 118.526 15.6244 118.526 13.7696H116.639C116.639 12.8911 116.639 12.0451 116.639 11.2316C116.639 10.776 116.899 10.5482 117.355 10.5157C117.712 10.4832 118.07 10.5157 118.461 10.5157V5.37451H121.975V10.4181H124.123V10.4506Z" fill="#757B82"/>
<path d="M250.539 10.4508V13.7047H248.489V24.703H244.975V13.7373H243.055C243.055 12.8587 243.055 12.0452 243.055 11.2643C243.055 10.7111 243.282 10.5159 243.868 10.4833C244.194 10.4833 244.486 10.4833 244.909 10.4833C244.909 9.93018 244.942 9.34447 244.942 8.79131C244.942 8.23814 244.942 7.71751 244.942 7.16434V5.40723H248.424V10.4508H250.539Z" fill="#757B82"/>
<path d="M99.3625 5.11426H95.6855V24.7354H99.3625V5.11426Z" fill="#757B82"/>
<path d="M172.802 5.63477V24.6702C172.249 24.8004 171.631 24.7027 171.012 24.7353C170.394 24.7353 169.776 24.7353 169.125 24.7353V5.63477H172.802Z" fill="#757B82"/>
<path d="M207.555 10.4834V24.703H204.171C203.943 24.4427 204.106 24.0848 204.073 23.7269C204.073 19.9198 204.073 16.1127 204.073 12.3381C204.073 12.0778 204.073 11.785 204.073 11.5247C204.008 10.4834 204.008 10.4834 204.887 10.4834C205.733 10.4834 206.579 10.4834 207.555 10.4834Z" fill="#757B82"/>
<path d="M129.234 10.4834V24.6705C128.746 24.8007 128.16 24.703 127.607 24.7356C127.021 24.7356 126.468 24.7356 125.85 24.7356V10.4834H129.234Z" fill="#757B82"/>
<path d="M24.8482 4.43091C24.5228 4.95154 23.8395 5.43963 23.2864 6.05788C22.7006 6.67612 22.1149 7.26183 21.5943 7.74992C20.3904 6.54596 19.2515 5.40709 18.0801 4.23568C19.1539 3.16189 20.2927 2.02301 21.3665 0.949219C22.4403 2.02301 23.6117 3.19442 24.8482 4.43091Z" fill="#757B82"/>
<path d="M7.08052 12.8262C5.94165 13.9651 4.7377 15.169 3.50121 16.4055C2.55757 15.4619 1.64647 14.5182 0.670297 13.6072C-0.0130269 12.9889 -0.110644 12.6961 0.702836 11.9151C1.64647 11.0366 2.52503 10.0929 3.40359 9.21436C4.67262 10.4183 5.87657 11.6223 7.08052 12.8262Z" fill="#757B82"/>
<path d="M24.8781 21.5791C23.6741 22.783 22.5353 23.9219 21.2662 25.1909C20.7456 24.8655 20.2575 24.1822 19.6718 23.629C19.0536 23.0433 18.4679 22.4576 17.8496 21.8069C19.0861 20.5704 20.225 19.4315 21.4289 18.2275C22.1122 18.6505 22.6003 19.3339 23.2186 19.887C23.7717 20.4727 24.3575 21.091 24.8781 21.5791Z" fill="#757B82"/>
<path d="M30.2479 25.2562C30.2805 25.2562 30.2805 25.2562 30.2479 25.2562H30.0853L30.1178 25.2236C28.9789 24.0848 27.8726 22.9784 26.7012 21.807C27.9377 20.5705 29.0765 19.4317 30.2479 18.2603C30.2479 18.2603 30.2805 18.2603 30.3456 18.2603C30.3781 18.2603 30.4432 18.2603 30.4757 18.2928C31.6146 19.4317 32.7535 20.538 33.7947 21.6118C32.5908 22.8157 31.4519 23.9546 30.1829 25.2562C30.1503 25.2562 30.2154 25.2562 30.2479 25.2562Z" fill="#757B82"/>
<path d="M24.912 12.7285C23.643 13.9976 22.5041 15.1364 21.3978 16.2428C20.324 15.169 19.1526 13.9976 18.1113 12.9563C19.1851 11.8825 20.324 10.7436 21.593 9.47461C22.1137 9.73492 22.5692 10.4508 23.1874 11.0365C23.7732 11.5897 24.3589 12.2079 24.912 12.7285Z" fill="#757B82"/>
<path d="M24.8136 30.8854C23.7724 31.9267 22.7311 32.9679 21.6899 34.0092C21.4946 34.2044 21.3319 34.2044 21.1367 34.0092L17.7852 30.6576C18.9566 29.4862 20.0304 28.4124 21.1367 27.3061C21.3319 27.1109 21.4946 27.1109 21.6899 27.3061C22.7311 28.3473 23.7724 29.3886 24.8136 30.4299C24.9763 30.56 24.9763 30.7227 24.8136 30.8854Z" fill="#757B82"/>
<path d="M33.567 13.2816C32.5257 14.3228 31.4845 15.3641 30.4432 16.4054C29.2393 15.2014 28.0353 13.9975 26.7988 12.761C27.8075 11.7522 28.7837 10.7435 29.7924 9.76736C30.3456 9.24673 30.5408 9.24673 31.094 9.79989C31.9726 10.711 32.6559 11.7848 33.6646 12.6308C33.9575 12.8586 33.7622 13.0538 33.567 13.2816Z" fill="#757B82"/>
<path d="M15.9315 4.26849C15.6712 4.56135 15.1181 4.88674 14.8903 5.37483C14.63 5.86292 14.1093 5.96053 13.8165 6.38354C13.5236 6.80655 13.1982 7.19702 12.9054 7.58749C12.7102 7.84781 12.5149 7.84781 12.2546 7.62003C11.2459 6.61132 10.2372 5.6026 9.22846 4.59389C9.03322 4.39865 9.03322 4.23595 9.22846 4.04072C10.3348 2.93439 11.4411 1.86059 12.4498 0.819336L15.9315 4.26849Z" fill="#757B82"/>
<path d="M16.0291 12.7609C15.1831 13.6069 14.3371 14.4529 13.491 15.2989C13.2307 15.5592 12.8728 15.7545 12.7752 16.21C12.7101 16.5029 12.4498 16.4703 12.2871 16.2751C11.1808 15.1688 10.0744 14.0624 8.93555 12.9236C10.172 11.6871 11.3109 10.5482 12.5149 9.34424C13.1982 9.76725 13.6863 10.4506 14.3045 11.0037C14.8902 11.5894 15.4434 12.1426 16.0291 12.7609Z" fill="#757B82"/>
<path d="M129.819 6.96919C129.786 8.20568 128.648 9.40963 127.476 9.37709C126.37 9.34455 125.264 8.17314 125.231 7.00173C125.198 6.28587 125.491 5.76524 125.979 5.27715C126.467 4.78906 126.467 4.78906 127.541 4.78906C128.062 4.8216 128.648 4.6589 129.071 5.24461C129.494 5.79778 129.852 6.25333 129.819 6.96919Z" fill="#757B82"/>
<path d="M208.108 7.00155C208.075 8.23804 207.001 9.34438 205.732 9.37692C205.114 9.40946 204.723 9.05153 204.268 8.66105C203.747 8.20551 203.292 7.71742 203.552 6.96902C203.422 6.31823 203.617 5.89522 204.073 5.40713C204.561 4.91904 205.049 4.75635 205.7 4.75635C206.318 4.75635 206.969 4.78889 207.359 5.27698C207.717 5.7976 208.108 6.31823 208.108 7.00155Z" fill="#757B82"/>
</svg>
