<svg width="170" height="44" viewBox="0 0 170 44" fill="none" xmlns="http://www.w3.org/2000/svg">
<path d="M54.3841 36.5423C54.416 35.4893 54.0012 35.0745 52.9482 35.1064C50.5551 35.1383 48.1938 35.1064 45.8007 35.0745C44.1733 35.1702 44.1414 35.1702 44.1414 33.5428V9.89838C44.1414 8.46249 44.2371 8.36676 45.673 8.36676C48.1619 8.36676 50.6827 8.33485 53.1716 8.36676C53.9055 8.36676 54.3841 8.17531 54.448 7.37759C54.4161 5.59069 54.3841 3.77189 54.3841 1.98499C54.3522 0.549095 54.2884 0.453369 52.8525 0.453369C47.6514 0.453369 42.4502 0.453369 37.2491 0.453369C35.6537 0.453369 35.5898 0.517187 35.5898 2.11263C35.5898 8.90921 35.5898 15.7058 35.5898 22.5343C35.5898 28.916 35.6218 35.2978 35.5898 41.6477C35.5898 42.7007 35.9089 43.0836 36.9938 43.0836C42.3226 43.0517 47.6514 43.0517 52.9482 43.0836C54.0012 43.0836 54.448 42.7964 54.3841 41.7115C54.3203 39.9565 54.3203 38.2653 54.3841 36.5423Z" fill="#757B82"/>
<path d="M68.0727 22.7579C69.0938 24.0342 70.0192 24.9915 70.6573 26.1083C71.7103 27.9909 73.2739 28.4057 75.2522 28.2143C76.0818 28.1186 76.3052 27.8952 76.2733 27.0975C76.2414 24.2576 76.2733 21.3858 76.2414 18.5459C76.2414 15.0997 76.2414 15.1317 72.7952 15.1955C71.9337 15.1955 71.7422 15.5465 71.7742 16.3123C71.8061 17.7801 71.7742 19.2798 71.7742 21.0667C70.785 19.6946 69.8277 18.6416 69.2214 17.461C68.2004 15.4827 66.6368 14.8126 64.5308 15.1955C64.4989 15.1955 64.467 15.1955 64.4032 15.1955C63.7331 15.1317 63.5098 15.4188 63.5098 16.0889C63.5417 19.8542 63.5417 23.5875 63.5098 27.3527C63.5098 27.959 63.7331 28.2143 64.3394 28.1824C65.2328 28.1505 66.1263 28.1505 67.0516 28.1824C67.8175 28.2143 68.1046 27.9271 68.0727 27.1294C68.0408 25.7892 68.0727 24.4171 68.0727 22.7579Z" fill="#757B82"/>
<path d="M59.6173 24.3213C58.9153 24.3852 58.2133 24.2894 57.5113 24.3532C56.937 24.3852 56.7774 24.1937 56.7774 23.6193C56.8094 22.5025 56.8732 21.3538 56.7774 20.2051C56.7136 19.2478 56.9689 18.9607 57.99 18.9926C61.149 18.9926 60.6384 19.5669 60.7022 16.1527C60.7022 16.1208 60.7022 16.0569 60.7022 16.025C60.7341 15.355 60.4151 15.1316 59.7769 15.1316C56.1074 15.1635 52.4378 15.1316 48.7364 15.1316C48.1621 15.1316 47.9068 15.323 47.8749 15.9612C47.6515 18.9607 47.6515 18.9607 50.619 18.9926C50.7467 18.9926 50.8424 18.9926 50.97 18.9926C51.5763 18.8968 51.7997 19.184 51.7678 19.7903C51.7359 20.9071 51.7039 22.0558 51.7678 23.2045C51.8316 24.1299 51.5444 24.3852 50.619 24.3852C47.3324 24.3852 47.9706 23.747 47.8749 27.2569C47.843 27.9909 48.1621 28.2142 48.8321 28.1823C50.619 28.1504 52.4378 28.1823 54.2247 28.1823C55.4692 28.1823 56.7136 28.2142 57.99 28.1823C61.117 28.1185 60.6065 28.7567 60.7022 25.4381C60.7341 24.6085 60.4789 24.2256 59.6173 24.3213Z" fill="#757B82"/>
<path d="M134.986 15.674C134.635 15.8973 134.412 16.3122 133.965 16.3122C133.646 15.9612 134.221 15.1634 133.487 15.1953C132.912 15.2273 132.051 14.621 131.668 15.6102C131.668 16.8546 131.668 18.0991 131.668 19.3754C131.7 23.6831 131.7 27.9589 131.7 32.2666C131.7 33.0643 131.636 33.6067 132.785 33.6387C134.061 33.6387 133.806 32.9047 133.806 32.2028C133.806 30.7669 133.806 29.331 133.806 27.927C134.253 27.7674 134.476 28.0546 134.731 28.1503C138.496 29.7139 142.421 27.9589 143.698 24.0979C144.272 22.311 144.272 20.4922 143.666 18.7053C142.453 14.9082 138.337 13.5042 134.986 15.674ZM134.731 26.2039C134.157 25.9167 133.838 25.5976 133.87 24.8637C133.933 23.0768 133.902 21.258 133.87 19.4711C133.87 18.833 134.061 18.3543 134.54 17.9395C136.039 16.6632 137.667 16.2164 139.518 16.9503C141.496 17.7481 141.975 19.503 142.07 21.2261C142.07 25.8529 138.592 28.0865 134.731 26.2039Z" fill="#757B82"/>
<path d="M6.48914 14.6526C5.2447 14.6845 4.19171 15.1951 3.01108 15.7375V7.79224C2.30909 8.0156 1.67091 8.11132 1.16037 8.52614C0.841279 8.90905 1.00082 9.35577 1.00082 9.73867C1.00082 14.6845 1.00082 19.6623 1.00082 24.6082C1.00082 27.6395 1.00082 27.6395 3.96835 28.3415C4.00025 28.3415 4.03216 28.3734 4.06407 28.3734C9.07376 29.5541 12.9666 27.0014 13.4772 22.215C13.9239 17.8435 10.8926 14.5569 6.48914 14.6526ZM10.9564 24.0019C10.2544 25.725 8.4994 26.7461 6.3296 26.7142C6.13814 26.7142 5.94669 26.7142 5.75524 26.7142C3.26635 26.5865 3.0749 26.3951 3.0749 23.8743V21.9917C3.0749 20.9706 3.13872 19.9495 3.04299 18.9603C2.94726 18.0031 3.39399 17.5563 4.19171 17.1734C6.17005 16.2481 8.37176 16.4076 9.77575 17.684C11.2755 19.0561 11.8179 21.8959 10.9564 24.0019Z" fill="#757B82"/>
<path d="M23.7522 14.8443C21.2314 14.2699 18.8701 14.7805 17.0832 16.695C15.073 18.8329 14.8496 21.4494 15.6792 24.1617C16.8918 28.2779 23.7522 30.3839 27.1026 27.7355C27.677 27.2568 27.4855 26.4272 27.2941 25.8847C27.1026 25.3742 26.624 25.9166 26.3368 26.0443C25.1562 26.5229 23.9436 26.7782 22.6992 26.8101C19.8912 26.9377 17.9129 25.3104 17.5619 22.5981C17.4661 21.928 17.5619 21.7047 18.2958 21.7047C19.8593 21.7366 21.4228 21.7047 22.9864 21.7047C24.5818 21.7047 26.2091 21.7047 27.8046 21.7047C28.2513 21.7047 28.4747 21.6728 28.5066 21.0665C28.4747 18.2585 26.4963 15.4825 23.7522 14.8443ZM25.5072 20.1731C24.2946 20.1731 23.0821 20.1731 21.8696 20.1731C20.657 20.1731 19.4445 20.1731 18.2319 20.1731C17.849 20.1731 17.5299 20.2369 17.6257 19.6306C17.9129 17.9713 19.955 16.4716 22.061 16.4397C24.1351 16.4078 25.7305 17.5884 26.1453 19.4392C26.3049 20.1411 26.0177 20.1731 25.5072 20.1731Z" fill="#757B82"/>
<path d="M162.843 14.6529C158.79 14.621 155.918 17.3651 155.855 21.3856C155.791 25.789 158.503 28.6608 162.715 28.7247C166.767 28.7566 169.703 25.8529 169.735 21.7366C169.799 17.5566 166.991 14.6848 162.843 14.6529ZM162.811 26.8739C159.939 26.8739 157.865 24.6403 157.929 21.609C157.993 18.5457 159.971 16.5036 162.843 16.5036C165.714 16.5355 167.693 18.6096 167.661 21.6728C167.629 24.7041 165.619 26.842 162.811 26.8739Z" fill="#757B82"/>
<path d="M126.977 16.8544C126.754 17.3968 126.53 17.9393 126.307 18.4817C125.382 20.7154 124.424 22.949 123.403 25.374C122.159 22.3746 121.01 19.6305 119.861 16.8544C119.127 15.0675 119.127 15.0675 117.213 15.1632C117.149 15.1632 117.085 15.1951 116.926 15.2589C118.106 18.0988 119.319 20.9068 120.5 23.7467C121.106 25.1507 122.159 26.5547 122.159 27.9268C122.159 29.3626 121.074 30.7985 120.5 32.2344C120.34 32.6493 119.829 33.2555 120.18 33.447C120.627 33.7022 121.329 33.5746 121.904 33.4789C122.286 33.4151 122.286 32.9364 122.446 32.6493C124.552 27.7353 126.658 22.8532 128.732 17.9393C129.083 17.0139 129.434 16.0886 129.785 15.1632C127.743 15.0675 127.743 15.0675 126.977 16.8544Z" fill="#757B82"/>
<path d="M105.502 26.3632C104.385 26.6185 103.269 26.8099 102.152 26.6823C99.7587 26.427 98.0675 24.6401 97.8123 22.1831C97.557 19.6942 98.9291 17.4925 101.195 16.7905C102.535 16.3757 103.907 16.5353 105.215 16.8863C106.523 17.2373 106.491 17.2373 106.491 15.929C106.491 15.3546 106.3 15.0994 105.726 14.9717C104.8 14.7803 103.907 14.5569 103.077 14.6207C101.258 14.5888 99.6949 14.9717 98.3228 15.9609C95.5148 17.9393 94.6852 22.3746 96.5678 25.4378C98.6738 28.8521 102.918 29.1712 106.077 28.1501C106.906 27.8948 106.523 26.9695 106.46 26.3951C106.332 25.7569 105.821 26.2994 105.502 26.3632Z" fill="#757B82"/>
<path d="M152.951 26.14C152.536 26.2357 152.122 26.3314 151.675 26.3952C150.367 26.5229 149.952 26.2038 149.92 24.8955C149.888 23.3639 149.888 21.8642 149.92 20.3326C149.952 19.2477 149.441 17.8756 150.143 17.1736C150.781 16.5354 152.154 17.014 153.206 17.014C153.877 17.014 154.291 16.9821 154.259 16.0887C154.228 15.291 153.972 15.0995 153.238 15.1314C152.377 15.1952 151.515 15.0995 150.654 15.1633C150.016 15.1952 149.856 14.9719 149.888 14.3656C149.952 13.5679 149.888 12.7702 149.888 11.9405C149.792 11.9086 149.697 11.8767 149.601 11.8767C148.484 13.185 147.367 14.4613 146.25 15.7696C145.995 16.0887 145.421 16.3759 145.58 16.7907C145.772 17.2374 146.346 17.014 146.729 16.9821C147.559 16.9183 147.782 17.1736 147.75 18.0032C147.718 20.4921 147.718 23.0129 147.782 25.5018C147.814 27.512 148.899 28.4693 150.909 28.4055C151.42 28.3736 151.93 28.3417 152.409 28.2459C154.291 27.8311 154.323 27.7673 154.132 25.789C153.781 25.8847 153.366 26.0442 152.951 26.14Z" fill="#757B82"/>
<path d="M114.948 14.9719C114.501 15.0038 114.054 15.2272 113.639 15.4505C112.618 15.9611 112.012 16.8864 111.278 18.0671C111.278 17.1736 111.214 16.5673 111.31 15.993C111.438 15.0676 110.895 15.1314 110.257 15.1314C109.587 15.1314 109.108 15.0995 109.14 16.0568C109.204 19.822 109.204 23.5554 109.14 27.3206C109.14 28.1183 109.427 28.246 110.097 28.1822C110.64 28.1183 111.374 28.4374 111.31 27.3525C111.246 25.6295 111.31 23.9064 111.342 22.1833C111.438 20.6198 111.789 19.152 113.161 18.1628C113.767 17.5246 114.533 17.3332 115.362 17.1736C116.32 16.9822 116.734 16.2483 116.352 15.1314C116.032 14.2699 115.394 14.94 114.948 14.9719Z" fill="#757B82"/>
<path d="M88.3678 40.4032C88.3678 27.7035 88.3678 15.0038 88.3678 2.30408C88.3678 2.04881 88.3358 1.76163 88.3039 1.50636C88.4635 0.357643 87.6019 0.45337 86.9319 0.45337C81.5712 0.45337 76.2105 0.485278 70.8498 0.45337C69.8925 0.45337 69.4777 0.804367 69.5096 1.76163C69.5415 3.51662 69.5415 5.2716 69.5096 7.02659C69.4777 8.04767 69.9244 8.36676 70.9136 8.36676C73.4025 8.30294 75.9233 8.36676 78.4122 8.33485C79.3695 8.33485 79.8162 8.59012 79.8162 9.67502C79.7843 17.748 79.7843 25.789 79.8162 33.8619C79.8162 34.8511 79.4652 35.1383 78.5079 35.1383C76.019 35.1064 73.4982 35.1702 71.0093 35.1064C69.8925 35.0745 69.4777 35.5212 69.5096 36.638C69.5735 38.2653 69.5735 39.9246 69.5096 41.5519C69.4777 42.6368 69.8606 43.0836 71.0093 43.0517C76.2105 42.9878 81.4116 43.0197 86.6128 43.0197C88.4316 43.0197 88.4954 42.924 88.3039 41.0733C88.3358 40.8819 88.3678 40.6266 88.3678 40.4032Z" fill="#757B82"/>
</svg>
