<svg width="164" height="24" viewBox="0 0 164 24" fill="none" xmlns="http://www.w3.org/2000/svg">
<path d="M22.1548 15.0514C21.6281 13.4712 20.68 12.4178 19.2052 11.6804C19.0998 11.6804 19.0998 11.6804 18.9945 11.575H18.8891C18.7838 11.575 18.7838 11.575 18.6785 11.4697H18.5731C18.4678 11.4697 18.4678 11.4697 18.3624 11.3644H18.2571H18.3624C18.3624 11.3644 18.3624 11.3644 18.4678 11.3644C18.5731 11.3644 18.6785 11.3644 18.7838 11.259H18.8891C18.8891 11.259 18.9945 11.259 18.9945 11.1537H19.0998C19.2052 11.1537 19.2052 11.0483 19.3105 11.0483C19.7319 10.8376 20.1533 10.5216 20.4693 10.2056C22.1548 8.41475 22.4708 5.3598 21.2067 3.25294C20.3639 1.88349 19.2052 1.04074 17.625 0.514027C17.5197 0.514027 17.309 0.408684 17.2037 0.514027C17.2037 0.514027 17.2037 0.514027 17.0983 0.514027C16.993 0.408684 16.7823 0.514027 16.6769 0.408684C16.2556 0.197998 15.7289 0.197998 15.3075 0.197998C10.7777 0.197998 6.24798 0.197998 1.71823 0.197998C1.61289 0.197998 1.50755 0.197998 1.29686 0.197998C0.980831 0.197998 0.875488 0.303341 1.08617 0.61937C1.19152 0.935399 1.50755 0.935399 1.61289 1.14608C1.92892 1.6728 2.35029 2.19952 2.77166 2.62089C2.98235 2.93692 3.08769 3.25295 3.08769 3.67432C3.08769 5.57049 3.08769 7.46666 3.08769 9.36284C3.08769 13.7872 3.08769 18.2116 3.08769 22.6361C3.08769 23.2681 3.19303 23.3735 3.71975 23.3735C7.93347 23.3735 12.1472 23.3735 16.2556 23.3735C16.7823 23.3735 17.309 23.3735 17.7304 23.0574C18.2571 23.0574 18.6785 22.8467 19.0998 22.6361C20.68 21.8987 21.7334 20.7399 22.1548 18.9491C22.2601 18.8437 22.3655 18.633 22.3655 18.5277C22.5761 17.3689 22.4708 16.2101 22.1548 15.0514ZM17.309 16.7368C17.0983 17.8956 16.4663 18.633 15.3075 18.8437C14.9915 18.9491 14.7808 18.9491 14.4647 18.9491C13.5166 18.9491 12.5686 18.9491 11.5151 18.9491C10.4617 18.9491 9.40827 18.9491 8.35484 18.9491C8.03881 18.9491 8.03881 18.9491 8.03881 18.633C8.03881 17.1582 8.03881 15.5781 8.03881 14.1033C8.03881 13.7872 8.03881 13.7872 8.35484 13.7872C10.3564 13.7872 12.4632 13.7872 14.4647 13.7872C14.9914 13.7872 15.5182 13.8926 15.9395 14.2086C16.993 14.63 17.5197 15.6834 17.309 16.7368ZM15.4128 9.25749C15.0968 9.36284 14.6754 9.46818 14.3594 9.46818C13.4113 9.46818 12.4632 9.46818 11.5151 9.46818C10.4617 9.46818 9.51361 9.46818 8.46018 9.46818C8.14415 9.46818 8.14415 9.46818 8.14415 9.15215C8.14415 7.78269 8.14415 6.41323 8.14415 5.04378C8.14415 4.72775 8.14415 4.72775 8.46018 4.72775C10.3564 4.72775 12.2525 4.72775 14.254 4.72775C14.9915 4.72775 15.7289 4.93843 16.2556 5.46515C17.309 6.30789 17.2037 8.62544 15.4128 9.25749Z" fill="#757B82"/>
<path d="M110.748 13.3657C110.748 13.2604 110.748 13.1551 110.748 12.9444C110.748 8.94134 110.748 4.93831 110.748 0.935273C110.748 0.82993 110.748 0.724588 110.748 0.513902C110.643 0.408559 110.748 0.408558 110.748 0.303215C110.853 0.0925291 111.064 0.0925293 111.169 0.0925293C112.539 0.0925293 113.908 0.0925293 115.278 0.0925293C115.594 0.0925293 115.804 0.197872 115.804 0.619244C115.804 0.724587 115.804 0.829931 115.804 1.04062C115.804 8.20394 115.804 15.2619 115.804 22.4252C115.804 23.268 115.804 23.3733 114.856 23.3733C113.698 23.3733 112.539 23.3733 111.38 23.3733C111.064 23.3733 110.748 23.268 110.537 22.952C110.116 22.3199 109.589 21.7932 109.273 21.0558L109.168 20.9504C108.957 20.8451 108.852 20.7398 108.746 20.5291C107.798 19.265 106.956 18.0008 106.008 16.7367C105.375 15.7886 104.743 14.9459 104.006 14.1031C103.901 13.8925 103.795 13.7871 103.69 13.5764C103.269 13.2604 103.058 12.839 102.742 12.4177C101.899 11.2589 100.951 10.1001 100.108 8.836C100.003 9.15203 100.003 9.46806 100.003 9.78408C100.003 14.1031 100.003 18.4222 100.003 22.7413C100.003 23.268 99.8976 23.3733 99.3709 23.3733C98.0015 23.3733 96.7374 23.3733 95.3679 23.3733C94.8412 23.3733 94.8412 23.268 94.8412 22.7413C94.8412 16.4207 94.8412 9.99477 94.8412 3.67419C94.8412 3.35816 94.7358 3.14748 94.6305 2.93679C93.9984 2.09405 93.261 1.35665 92.7343 0.513902C92.7343 0.408559 92.629 0.408558 92.7343 0.303215C92.8397 0.197872 93.0503 0.197873 93.1557 0.197873C95.2626 0.197873 97.3694 0.197873 99.5816 0.197873C100.003 0.197873 100.214 0.513902 100.424 0.724588C100.53 0.935274 100.74 1.14596 100.846 1.35665C102.11 3.14748 103.374 4.83296 104.743 6.6238C105.059 7.15051 105.481 7.57188 105.692 8.0986C105.797 8.0986 105.902 8.20394 105.902 8.30928C106.534 9.15203 107.166 9.88943 107.693 10.7322C108.641 11.8909 109.484 13.1551 110.432 14.3138C110.432 14.1031 110.432 13.9978 110.432 13.7871C110.643 13.5764 110.643 13.4711 110.748 13.3657Z" fill="#757B82"/>
<path d="M40.6952 18.9489C40.6952 20.3184 40.6952 21.7932 40.6952 23.1626C40.5899 23.268 40.4845 23.268 40.2739 23.268C40.0632 23.268 39.9578 23.268 39.7471 23.268C34.9014 23.268 30.0556 23.268 25.2098 23.268C24.2617 23.268 24.2617 23.268 24.2617 22.4252C24.2617 15.2619 24.2617 7.99325 24.2617 0.82993C24.2617 0.197872 24.3671 0.0925293 24.9991 0.0925293C28.6861 0.0925293 32.4785 0.0925293 36.1655 0.0925293C37.4296 0.0925293 38.6937 0.0925293 39.8525 0.0925293C40.5899 0.0925293 40.6952 0.197873 40.6952 0.935273C40.6952 1.88336 40.6952 2.93679 40.6952 3.88488C40.6952 4.51694 40.5899 4.62228 39.9578 4.62228C36.6922 4.62228 33.4266 4.62228 30.1609 4.62228C29.3182 4.62228 29.3182 4.62228 29.3182 5.46502C29.3182 6.51845 29.3182 7.57188 29.3182 8.73065C29.3182 9.25737 29.4235 9.36271 29.9502 9.36271C32.6892 9.36271 35.3227 9.36271 38.0616 9.36271C38.6937 9.36271 38.6937 9.36271 38.6937 9.99477C38.6937 11.0482 38.6937 12.1016 38.6937 13.0497C38.6937 13.6818 38.5884 13.7871 37.9563 13.7871C35.4281 13.7871 32.7945 13.7871 30.2663 13.7871C29.4235 13.7871 29.4235 13.7871 29.4235 14.7352C29.4235 15.894 29.4235 17.0528 29.4235 18.2115C29.4235 18.7382 29.4235 18.8436 30.0556 18.8436C33.3212 18.8436 36.5868 18.8436 39.9578 18.8436C40.1685 18.7382 40.4845 18.7382 40.6952 18.9489Z" fill="#757B82"/>
<path d="M83.2539 5.88652C82.7272 6.41323 82.3059 7.04529 81.8845 7.67735C79.883 10.3109 77.8815 13.0498 75.7746 15.6834C75.7746 15.7888 75.6693 15.7888 75.6693 15.8941C75.5639 16.4208 75.0372 16.7368 74.8265 17.1582C74.5105 17.6849 74.0891 18.2116 73.7731 18.7384C73.9838 18.8437 74.0891 18.8437 74.2998 18.8437C77.4601 18.8437 80.6204 18.8437 83.7807 18.8437C84.5181 18.8437 84.6234 18.8437 84.6234 19.5811C84.6234 20.6345 84.6234 21.7933 84.6234 22.8467C84.6234 23.2681 84.5181 23.3735 84.0967 23.3735C83.886 23.3735 83.6753 23.3735 83.3593 23.3735C78.1975 23.3735 73.0357 23.3735 67.8739 23.3735C67.7685 23.3735 67.6632 23.3735 67.5578 23.3735C66.9258 23.3735 66.9258 23.3735 66.9258 22.7414C66.9258 21.688 66.9258 20.7399 66.9258 19.6865C66.9258 19.3704 67.0311 19.1597 67.1365 18.9491C67.7685 18.1063 68.4006 17.2636 69.0326 16.3155L69.138 16.2101C69.2433 16.1048 69.3487 15.9994 69.454 15.8941C69.454 15.8941 69.454 15.7888 69.5594 15.7888C69.77 15.4727 70.0861 15.1567 70.2968 14.8407C70.2968 14.8407 70.2968 14.7353 70.4021 14.7353C71.0342 13.7872 71.7716 12.9445 72.4036 11.9964C73.141 11.0483 73.8784 10.1002 74.5105 9.04681C75.4586 7.78269 76.3013 6.51858 77.2494 5.25446L77.3547 5.14912C77.4601 5.04378 77.5654 4.93843 77.5654 4.83309C77.4601 4.72775 77.3547 4.72775 77.1441 4.72775C76.512 4.72775 75.8799 4.72775 75.2479 4.72775C72.825 4.72775 70.4021 4.72775 67.9792 4.72775C67.7685 4.72775 67.5578 4.72775 67.4525 4.72775C67.1365 4.72775 67.0311 4.6224 67.0311 4.30637C67.0311 3.04226 67.0311 1.88349 67.0311 0.61937C67.0311 0.303341 67.1365 0.197998 67.4525 0.197998C67.6632 0.197998 67.7685 0.197998 67.9792 0.197998C73.2464 0.197998 78.5135 0.197998 83.7807 0.197998C83.886 0.197998 83.9914 0.197998 83.9914 0.197998C84.6234 0.197998 84.6234 0.30334 84.6234 0.830055C84.6234 1.88349 84.6234 2.83157 84.6234 3.885C84.6234 4.09569 84.6234 4.41172 84.4127 4.51706C83.9914 5.04378 83.7807 5.57049 83.2539 5.88652Z" fill="#757B82"/>
<path d="M127.286 0.513971C127.496 0.513971 127.707 0.513971 127.918 0.408628C128.129 0.197942 128.445 0.303285 128.761 0.197942C129.498 0.0925992 130.341 0.197942 131.078 0.197942C131.183 0.197942 131.289 0.197942 131.289 0.303285C131.816 0.408628 132.342 0.513971 132.869 0.619314C133.501 0.83 134.028 1.04069 134.66 1.35671C136.135 2.09412 137.293 3.14755 138.347 4.517C138.347 4.62235 138.452 4.62235 138.557 4.72769C138.768 5.14906 138.768 5.14906 138.347 5.46509C137.293 5.99181 136.24 6.62386 135.187 7.15058C135.081 7.25592 134.87 7.36127 134.765 7.15058C133.817 5.78112 132.553 4.83303 130.867 4.517C127.18 3.7796 123.704 6.09715 122.861 9.8895C122.44 11.7857 122.651 13.5765 123.493 15.262C124.652 17.6849 126.654 18.8437 129.287 19.0543C130.973 19.1597 132.553 18.633 133.922 17.6849C134.238 17.4742 134.344 17.2635 134.344 16.9475C134.344 16.3154 134.344 15.6834 134.344 15.0513C134.344 14.7353 134.344 14.7353 134.028 14.7353C133.396 14.7353 132.764 14.7353 132.132 14.7353C131.816 14.7353 131.71 14.6299 131.5 14.4192C130.551 13.2605 129.603 11.9964 128.655 10.8376C128.55 10.7322 128.55 10.7322 128.445 10.6269C128.55 10.3109 128.866 10.4162 128.971 10.4162C130.867 10.4162 132.764 10.4162 134.66 10.4162C135.819 10.4162 137.083 10.4162 138.241 10.4162C138.874 10.4162 138.979 10.5216 138.979 11.1536C138.979 13.6818 138.979 16.1047 138.979 18.633C138.979 19.0543 138.874 19.3704 138.557 19.5811C138.136 19.8971 137.82 20.3185 137.504 20.6345C136.556 21.4772 135.503 22.0039 134.344 22.5307C134.028 22.636 133.712 22.636 133.396 22.7413C132.974 23.0574 132.448 22.952 132.026 23.0574C131.71 23.2681 131.289 23.2681 130.867 23.3734C129.709 23.4787 128.55 23.4787 127.391 23.2681C127.286 23.2681 127.18 23.1627 127.075 23.1627C126.548 23.1627 126.127 23.0574 125.706 22.952H125.6C124.126 22.4253 122.861 21.7933 121.703 20.8452C120.228 19.6864 119.174 18.2116 118.437 16.5261C118.332 16.3154 118.332 15.9994 118.226 15.7887C118.016 15.3673 117.91 14.946 117.805 14.5246V14.4192C117.594 12.8391 117.489 11.259 117.805 9.57347V9.46813C118.016 9.04675 117.91 8.52004 118.226 8.20401C118.226 7.78264 118.437 7.46661 118.542 7.15058V7.04524C118.648 6.83455 118.753 6.72921 118.858 6.51852C119.069 6.09715 119.28 5.78112 119.596 5.46509C120.228 4.517 121.071 3.67426 121.913 2.93686C122.019 2.83152 122.229 2.83152 122.335 2.72617C122.756 2.19946 123.388 1.98877 123.915 1.77809C125.179 1.04069 126.232 0.724657 127.286 0.513971Z" fill="#757B82"/>
<path d="M42.6968 1.04073C42.6968 0.935391 42.5914 0.830048 42.4861 0.724705C42.4861 0.514019 42.2754 0.514019 42.2754 0.303333C42.3807 0.19799 42.4861 0.19799 42.5914 0.19799C44.8036 0.19799 47.0158 0.19799 49.1227 0.19799C49.4387 0.19799 49.5441 0.303333 49.7547 0.514019C49.9654 0.830048 50.1761 1.14608 50.3868 1.35676C50.7028 1.88348 51.0189 2.30485 51.4402 2.72622C51.7563 3.25294 52.0723 3.67431 52.4937 4.09568C52.8097 4.6224 53.2311 5.14911 53.6524 5.78117C54.2845 6.62391 54.9166 7.572 55.5486 8.3094C55.7593 8.62543 55.97 8.94146 56.286 9.25749C56.602 9.7842 56.9181 10.2056 57.3394 10.6269C57.6555 11.1537 57.9715 11.575 58.3929 11.9964C58.9196 12.8391 59.5516 13.5766 60.1837 14.4193C60.1837 14.314 60.1837 14.1033 60.1837 13.9979C60.1837 9.57352 60.1837 5.14911 60.1837 0.724705C60.1837 0.0926472 60.0784 0.19799 60.7104 0.19799C62.0799 0.19799 63.4493 0.19799 64.8188 0.19799C65.0295 0.19799 65.1348 0.19799 65.1348 0.408676C65.1348 0.514019 65.1348 0.724705 65.1348 0.830048C65.1348 7.99337 65.1348 15.262 65.1348 22.4254C65.1348 22.5307 65.1348 22.7414 65.1348 22.8467C65.0295 22.9521 64.9241 22.9521 64.8188 22.9521C63.4493 22.9521 61.9745 22.9521 60.6051 22.9521C60.3944 22.9521 60.289 22.8467 60.1837 22.636C58.7089 20.5292 57.1288 18.4223 55.654 16.4208C55.5486 16.3155 55.4433 16.1048 55.3379 16.1048C55.2326 15.9994 55.1272 15.8941 55.0219 15.7888C54.4952 15.0514 53.9685 14.314 53.4418 13.5766C53.3364 13.4712 53.3364 13.3659 53.3364 13.2605C52.915 12.5231 52.3883 11.8911 51.8616 11.259C51.1242 10.3109 50.4921 9.36283 49.7547 8.41474C49.6494 8.3094 49.6494 8.20406 49.5441 8.09871C49.4387 8.3094 49.5441 8.41474 49.5441 8.62543C49.5441 13.2605 49.5441 17.8956 49.5441 22.5307C49.5441 22.636 49.5441 22.7414 49.5441 22.7414C49.5441 22.9521 49.4387 23.0574 49.228 23.0574C47.7532 23.0574 46.3838 23.0574 44.909 23.0574C44.6983 23.0574 44.5929 22.9521 44.5929 22.7414C44.5929 22.636 44.5929 22.5307 44.5929 22.4254C44.5929 16.1048 44.5929 9.67886 44.5929 3.35828C44.5929 3.04225 44.4876 2.83157 44.3823 2.62088C43.6448 2.30485 43.2235 1.67279 42.6968 1.04073Z" fill="#757B82"/>
<path d="M91.4706 11.7857C91.4706 15.4727 91.4706 19.1597 91.4706 22.7413C91.4706 23.2681 91.576 23.2681 90.9439 23.2681C89.6798 23.2681 88.3104 23.2681 87.0462 23.2681C86.5195 23.2681 86.5195 23.3734 86.5195 22.8467C86.5195 19.4757 86.5195 16.1047 86.5195 12.7338C86.5195 8.73072 86.5195 4.72768 86.5195 0.72465C86.5195 0.197935 86.5195 0.303277 86.9409 0.303277C88.3104 0.303277 89.5745 0.303277 90.9439 0.303277C91.4706 0.303277 91.3653 0.303278 91.3653 0.72465C91.4707 4.41165 91.4706 8.09866 91.4706 11.7857Z" fill="#757B82"/>
<path d="M162.577 20.213C162.261 19.3702 161.839 18.4221 161.629 17.5794C161.312 16.9473 161.102 16.4206 160.891 15.7886C160.891 15.7886 160.891 15.7886 160.891 15.6832C160.68 15.1565 160.47 14.6298 160.259 13.9977C159.838 13.155 159.522 12.2069 159.206 11.3642C158.995 10.8375 158.784 10.3107 158.574 9.78402C158.258 9.04662 157.941 8.30922 157.731 7.57182C157.415 6.83442 157.099 5.99167 156.783 5.14893C156.572 4.8329 156.467 4.41153 156.361 3.99016C156.045 3.14741 155.729 2.41001 155.413 1.56727C155.203 1.25124 155.203 0.935209 154.992 0.61918C154.781 0.0924651 154.781 0.197808 154.36 0.197808C151.516 0.197808 148.671 0.197808 145.827 0.197808C145.722 0.197808 145.616 0.197808 145.511 0.197808C145.3 0.197808 145.406 0.303151 145.406 0.408494C146.143 1.25124 146.775 2.09398 147.407 2.93673C147.513 3.04207 147.513 3.14741 147.513 3.3581C147.197 4.30619 146.88 5.14893 146.459 6.09702C146.248 6.72907 146.038 7.25579 145.827 7.88785C145.722 8.20388 145.616 8.51991 145.511 8.73059C145.195 9.67868 144.879 10.5214 144.458 11.3642C144.352 11.8909 144.142 12.3123 143.931 12.839C143.72 13.471 143.51 14.2084 143.193 14.8405C143.193 14.9458 143.193 14.9458 143.088 15.0512C142.877 15.6832 142.667 16.2099 142.456 16.7367C142.245 17.3687 142.035 18.0008 141.719 18.6328C141.508 19.1595 141.297 19.6863 141.087 20.213C140.876 20.7397 140.665 21.2664 140.455 21.7931C140.455 21.7931 140.455 21.8985 140.349 21.8985C140.244 22.3198 140.033 22.6359 140.033 22.9519C140.139 22.9519 140.139 22.9519 140.244 22.9519C141.929 22.9519 143.615 22.9519 145.3 22.9519C145.511 22.9519 145.616 22.8466 145.722 22.6359C146.143 21.5824 146.459 20.529 146.88 19.4756C147.091 19.0542 146.986 19.0542 147.513 19.0542C150.462 19.0542 153.517 19.0542 156.467 19.0542C156.572 19.0542 156.677 19.0542 156.783 19.0542C156.993 19.0542 156.993 19.1595 156.993 19.2649C157.415 20.213 157.731 21.0557 158.047 22.0038C158.152 22.2145 158.152 22.3198 158.258 22.5305C158.468 22.9519 158.363 22.8466 158.784 22.8466C160.364 22.8466 162.05 22.8466 163.63 22.8466C163.735 22.8466 163.841 22.8466 163.946 22.8466C163.314 22.2145 162.998 21.1611 162.577 20.213ZM151.516 5.99167C151.621 5.99167 151.621 5.88633 151.621 5.78099C151.726 5.67565 151.726 5.67564 151.726 5.5703C151.832 5.5703 151.832 5.5703 151.937 5.5703C151.937 5.67564 151.937 5.67565 152.042 5.78099C152.358 6.72908 152.78 7.67716 153.096 8.62525C153.833 10.6268 154.571 12.6283 155.308 14.6298C155.308 14.7351 155.413 14.9458 155.413 15.0512H148.461C148.355 14.9458 148.461 14.8405 148.461 14.7351C149.514 11.8909 150.567 9.04662 151.516 6.20236C151.41 6.09702 151.41 5.99167 151.516 5.99167Z" fill="#757B82"/>
</svg>
