<svg width="260" height="25" viewBox="0 0 260 25" fill="none" xmlns="http://www.w3.org/2000/svg">
<path d="M11.0939 1.15651C5.93832 0.712065 1.53832 4.22318 0.560547 9.46762V9.6454V12.5343V12.7121C1.58277 17.9565 6.1161 21.4676 11.1383 20.9787C16.3828 20.4898 20.2494 16.2676 20.205 11.0676C20.205 5.82318 16.2939 1.60095 11.0939 1.15651ZM17.8939 11.7343C17.3605 11.1121 16.6939 10.7565 17.0494 9.95651C17.2717 9.2454 16.7828 8.57873 16.7383 7.73429C17.9383 8.13429 17.4494 9.33429 18.0717 9.91207C18.9605 10.6232 17.7161 10.9787 17.8939 11.7343ZM2.73832 11.3787C2.29388 10.7121 2.29388 10.1343 2.87166 9.55651C3.36055 6.88984 5.27166 4.40095 7.36055 4.31206C5.7161 6.0454 3.53833 7.11207 3.3161 9.55651C3.27166 10.1343 3.44943 10.801 2.73832 11.3787ZM13.0939 8.97873C12.3828 9.11206 11.7161 9.37873 11.1383 8.62318C10.6494 8.0454 9.84943 7.95651 9.49388 8.66762C9.09388 9.46762 9.93832 9.73429 10.5605 9.95651C11.0494 10.1343 11.5828 10.2232 12.0272 10.4898C13.8939 11.5121 14.0272 13.601 12.2939 14.7565C11.8939 15.0232 11.405 15.1121 11.1383 15.6454C10.605 16.4898 10.0272 16.4454 9.58277 15.4676C9.49388 15.2898 9.36055 15.0676 9.18277 14.9787C8.24943 14.6232 7.04944 13.9565 7.58277 13.0232C8.20499 11.9565 9.18277 13.0676 9.93832 13.5121C10.4717 13.8232 11.1383 13.8232 11.4494 13.1565C11.7605 12.4454 11.1383 12.0898 10.6494 11.8232C10.3828 11.6898 10.0717 11.6898 9.80499 11.601C8.64944 11.1121 7.44944 10.6676 7.49388 9.02318C7.53832 7.33429 9.13832 6.93429 10.0717 6.0454C10.605 5.46762 12.605 7.37873 13.0939 8.97873ZM6.02721 17.1121C6.69388 17.201 7.36055 16.5343 7.80499 17.5121C9.84944 18.5343 11.8494 17.9565 13.8939 17.6454C11.9383 18.6676 9.89388 18.9787 7.80499 18.001C6.82721 18.7565 6.42721 18.0898 6.02721 17.1121Z" fill="#757B82"/>
<path d="M83.0932 11.6009C85.4043 8.48978 84.6043 5.42312 81.0932 4.75645C79.3155 4.4009 78.9155 3.68978 79.1377 2.13423C79.271 1.11201 78.9155 0.667562 77.8043 0.712006C77.0488 0.756451 76.7377 1.06756 76.7821 1.77867C76.7821 2.22312 76.7821 2.66756 76.7821 3.11201C76.7821 3.73423 76.8266 4.31201 75.9377 4.31201C75.0932 4.26756 75.271 3.68978 75.271 3.2009C75.271 2.84534 75.271 2.44534 75.271 2.08978C75.3155 1.28978 75.271 0.712006 74.1599 0.712006C73.0932 0.712006 72.871 1.24534 73.0043 2.08978C73.3599 4.08978 72.5155 4.8009 70.6044 4.44534C70.3821 4.4009 70.1599 4.44534 69.9377 4.44534C69.0488 4.35645 68.5599 4.57867 68.6043 5.6009C68.6488 6.48978 68.7377 7.02312 69.8043 6.88978C70.7377 6.75645 71.4044 7.02312 71.4044 8.17867C71.4044 11.0676 71.4932 13.9565 71.5377 16.8009C71.5377 17.5564 71.271 18.2231 70.4266 18.1342C68.7377 17.9565 68.7821 19.2453 68.8266 20.1342C68.8266 21.4676 70.071 20.8453 70.6932 20.8009C72.471 20.6676 73.5377 20.9787 73.1377 23.112C73.0043 23.8231 72.9599 24.5342 74.1599 24.5787C75.4932 24.6231 75.3599 23.8676 75.3599 23.0231C75.3599 22.712 75.3599 22.4453 75.3599 22.1342C75.3599 21.5564 75.2266 20.9342 76.2043 20.9787C77.0932 21.0231 77.0932 21.5565 77.0488 22.1787C77.0488 22.4009 77.0488 22.6231 77.0488 22.8453C77.0488 23.6898 76.7821 24.6231 78.2932 24.5787C79.7155 24.5342 79.3599 23.6009 79.3155 22.8898C79.2266 21.5565 79.3599 20.712 81.0932 20.5787C83.271 20.4453 85.0932 19.5565 85.6266 17.112C86.071 14.6231 85.4932 13.2898 83.0932 11.6009ZM75.3155 9.06756C75.0932 7.60089 75.2266 6.8009 76.7821 6.93423C79.0043 7.06756 80.2488 7.77867 80.2043 9.15645C80.1599 10.4453 78.7377 11.2453 76.6044 11.2898C74.4266 11.2898 75.5821 9.64534 75.3155 9.06756ZM76.6044 18.2231C74.4266 18.2231 75.6266 16.5787 75.3155 15.9564C75.0932 14.312 75.1377 13.2898 77.0932 13.4676C79.7599 13.6898 81.1821 14.3565 81.1821 15.8231C81.1821 17.3342 79.4044 18.2231 76.6044 18.2231Z" fill="#757B82"/>
<path d="M211.361 23.6454C207.85 23.2898 204.783 19.9121 204.783 16.4454C204.783 13.4676 204.828 10.5343 204.783 7.5565C204.783 6.31206 205.005 5.24539 206.25 4.62317H200.472C202.561 7.82317 200.917 11.4232 201.628 14.9787C201.005 14.7565 200.872 14.7565 200.783 14.6676C198.694 12.4898 196.65 10.2676 194.517 8.08983C192.65 6.17872 191.05 4.04539 188.783 2.57872C186.961 1.42317 185.005 0.889833 182.605 2.3565C183.361 2.3565 183.717 2.3565 184.072 2.3565C187.317 2.53428 190.072 5.37872 190.072 8.62317C190.072 11.5565 190.028 14.5343 190.072 17.5121C190.072 18.7565 189.939 19.8232 188.339 20.4454H194.428C192.25 17.1565 193.805 13.6009 193.494 10.2232C195.183 11.6898 196.65 13.2454 198.117 14.8009C200.383 17.2009 202.605 19.6898 205.005 22.0009C207.628 24.5343 210.161 25.0232 212.65 23.6009C212.072 23.6454 211.717 23.6898 211.361 23.6454Z" fill="#757B82"/>
<path d="M240.339 13.8676C238.828 10.5787 237.405 7.51208 235.761 4.04541C234.294 7.51208 233.005 10.5343 231.716 13.6454C229.361 9.24541 228.605 6.1343 229.539 4.75652H223.316C224.472 5.3343 225.094 6.26763 225.45 7.37874C226.072 9.24541 226.783 11.1121 227.45 12.9787C228.428 15.6454 229.45 18.2676 230.561 21.2899C231.494 17.2454 233.361 14.0454 234.783 10.2232C236.428 13.7787 237.894 16.9787 239.361 20.1343C239.316 20.4899 239.405 20.9343 239.85 20.8454C240.516 20.7121 240.205 20.1343 240.205 19.6899C241.405 15.7343 242.605 11.8232 243.761 7.86763C244.161 6.5343 244.65 5.28985 246.072 4.66763H241.894C242.872 6.26763 242.828 6.71208 240.339 13.8676Z" fill="#757B82"/>
<path d="M50.5156 13.2896C53.0934 12.0007 53.9823 10.2674 53.4934 7.91181C53.0934 6.08958 51.3601 4.75625 49.0045 4.71181C46.2934 4.62292 43.5378 4.66736 40.5156 4.66736C42.649 6.44514 42.6934 18.8451 40.7378 20.5785H46.9156C45.4934 20.1785 45.4934 19.1118 45.4934 17.9563C45.5378 14.4896 45.6267 11.0229 45.449 7.55625C45.3601 5.77847 46.1601 5.60069 47.5378 5.82292C48.5156 6.00069 49.1378 6.48958 49.4934 7.37847C50.5601 9.82292 49.3601 11.9563 46.3823 12.8007C47.449 13.6007 47.8045 14.8451 48.3378 15.9563C50.3823 20.2674 51.7601 21.0229 56.7378 20.4451C53.6712 18.8896 52.9156 15.4229 50.5156 13.2896Z" fill="#757B82"/>
<path d="M140.028 4.53431C134.472 3.51209 129.805 6.08987 128.916 10.5788C127.716 16.6676 131.405 20.9788 137.85 21.0232C142.161 21.0232 145.361 19.1565 146.605 15.9121C148.561 10.5788 145.672 5.55653 140.028 4.53431ZM142.428 16.8454C141.494 18.7121 140.161 19.8232 137.939 19.8676C135.716 19.9121 134.25 18.8899 133.361 16.9788C132.116 14.3121 132.072 11.5565 133.139 8.80098C134.072 6.40098 135.628 5.4232 138.072 5.46764C140.25 5.51209 141.761 6.71209 142.65 9.0232C143.094 10.2232 143.183 11.4676 143.139 12.7121C143.228 14.1343 143.05 15.5121 142.428 16.8454Z" fill="#757B82"/>
<path d="M169.718 14.8009C166.073 11.3787 162.429 7.91201 158.606 4.31201C158.606 8.97868 158.606 13.2453 158.606 17.512C158.606 18.8009 158.606 20.0009 156.695 20.6231H163.451C161.806 19.3787 161.318 15.0676 162.295 10.5342C166.029 14.0453 169.673 17.512 173.584 21.1565C173.14 16.312 173.451 11.8231 173.362 7.33423C173.318 6.22312 173.762 5.42312 175.095 4.75646H168.962C171.229 7.82312 169.495 11.3342 169.718 14.8009Z" fill="#757B82"/>
<path d="M35.4937 7.06748C35.4937 9.73415 35.5381 12.4008 35.4937 15.023C35.4492 18.0897 33.8492 19.7786 31.1826 19.823C28.5159 19.8675 26.8714 18.0897 26.827 15.0675C26.7826 12.4008 26.827 9.73415 26.827 7.11193C26.827 6.13415 26.8714 5.2897 28.3826 4.71193H21.4492C23.2714 5.33415 23.2714 6.40081 23.227 7.51192C23.1826 9.86748 23.1826 12.223 23.227 14.5786C23.2714 18.8008 25.7603 20.9786 30.4714 20.9786C34.827 20.9786 37.1826 18.8008 37.2714 14.623C37.3159 12.1341 37.3159 9.60081 37.2714 7.11193C37.2714 6.0897 37.4492 5.24526 38.9159 4.66748H34.427C35.4492 5.11192 35.5381 6.0897 35.4937 7.06748Z" fill="#757B82"/>
<path d="M125.539 16.7566C125.006 18.1344 124.072 19.1121 122.65 19.601C119.317 20.6677 116.25 18.9788 115.272 15.5121C113.983 10.9344 115.894 6.22326 119.317 5.55659C119.539 5.51215 119.761 5.51215 119.983 5.4677C123.006 5.15659 125.006 6.48993 126.028 9.82326C126.383 5.11215 126.294 5.02326 122.339 4.44548C121.406 4.31215 120.428 4.22326 119.45 4.31215C114.517 4.62326 111.361 7.55659 111.094 11.7788C110.606 19.2899 116.606 21.5121 121.717 20.8899C125.583 20.401 127.672 18.7566 126.294 14.2233C126.072 15.1121 125.806 15.9566 125.539 16.7566Z" fill="#757B82"/>
<path d="M257.139 12.4009C255.494 11.3786 253.939 10.312 252.339 9.28974C251.539 8.75641 251.05 8.0453 251.405 7.06752C251.716 6.13419 252.428 5.6453 253.361 5.55641C255.139 5.42307 256.694 5.73418 257.45 8.08974C257.628 6.97863 257.672 6.35641 257.805 5.68974C257.894 5.11196 257.939 4.62307 257.139 4.66752C255.45 4.71196 253.805 4.08974 252.072 4.48974C250.294 4.93419 248.961 5.77863 248.561 7.68974C248.161 9.68974 248.694 11.3342 250.472 12.4453C252.072 13.4675 253.672 14.5342 255.228 15.6009C256.072 16.1786 256.561 16.9786 256.205 18.0453C255.894 19.0675 255.139 19.6009 254.116 19.7786C251.405 20.2675 249.805 19.0675 248.916 15.8231C247.316 18.7564 247.939 20.0897 251.094 20.7564C252.961 21.1564 254.739 21.0231 256.516 20.2675C258.161 19.5564 259.005 18.312 259.139 16.4897C259.228 14.7564 258.694 13.3786 257.139 12.4009Z" fill="#757B82"/>
<path d="M93.9376 4.75635H87.582C89.582 6.26746 89.6265 18.8008 87.8487 20.5341H93.982C91.982 18.7563 91.982 6.48968 93.9376 4.75635Z" fill="#757B82"/>
<path d="M154.695 4.80078H148.65C150.784 6.623 150.784 18.6674 148.695 20.5786H154.873C152.962 18.7119 152.917 6.75634 154.695 4.80078Z" fill="#757B82"/>
<path d="M108.872 4.62311C104.472 4.62311 100.072 4.88977 95.6719 4.44533V7.73422C96.0274 7.20089 96.1608 6.75644 96.4719 6.48977C97.583 5.33422 99.1385 5.512 100.427 5.77866C101.716 6.04533 101.005 7.37866 101.05 8.22311C101.139 11.4676 101.05 14.712 101.094 17.9564C101.139 19.112 100.739 19.9564 99.4497 20.6231H106.427C104.872 19.9564 104.605 19.0231 104.605 17.8231C104.65 14.6676 104.605 11.4676 104.605 8.312C104.605 5.60089 105.139 5.15644 107.805 5.73422C108.339 5.86755 108.827 6.22311 109.361 6.53422C109.583 7.06755 109.805 7.60089 110.027 8.13422C110.25 7.06755 110.294 6.13422 110.25 5.20089C110.205 3.82311 109.539 4.17866 108.872 4.62311Z" fill="#757B82"/>
<path d="M221.495 15.912C221.14 16.712 220.962 17.112 220.784 17.5565C219.451 19.6009 217.362 19.5565 215.273 19.512C214.206 19.512 213.94 18.8898 214.162 18.0898C214.562 16.5342 212.962 14.312 215.006 13.4231C216.384 12.8454 218.428 12.8898 219.317 15.4231V10.4898C218.473 12.8009 216.517 12.2676 214.828 12.1787C213.495 12.0898 214.117 10.8454 214.162 10.2231C214.34 8.75647 213.14 6.75647 214.917 5.86758C216.695 4.97869 219.184 6.00091 220.384 7.51202V4.26758C218.517 4.75647 216.784 4.62313 215.006 4.62313C213.14 4.62313 211.317 4.62313 209.406 4.62313C211.228 6.4898 211.273 18.4009 209.495 20.5787C212.651 20.5787 215.717 20.4454 218.828 20.6231C220.606 20.712 221.228 20.0454 221.184 18.4454C221.717 17.8231 221.762 17.112 221.495 15.912Z" fill="#757B82"/>
</svg>
