<svg width="76" height="38" viewBox="0 0 76 38" fill="none" xmlns="http://www.w3.org/2000/svg">
<path d="M72.092 28.2737C70.1793 27.7956 68.2666 28.1675 66.3007 28.0612C66.1945 28.0612 66.0882 28.0612 66.0882 28.2206C66.0882 28.4331 66.1945 28.4331 66.3539 28.4331C66.7258 28.4331 66.9383 28.5925 66.9383 29.0176C66.9383 31.621 66.9383 34.2244 66.9383 36.8278C66.9383 37.2529 66.7789 37.3591 66.3539 37.3591C65.5038 37.306 65.185 36.6684 64.8131 36.084C64.2286 35.0745 63.8036 34.0119 62.6347 33.3743C64.1224 32.6305 64.6537 31.7804 64.4943 30.4521C64.388 29.2301 63.6973 28.4863 62.2628 28.2206C60.1907 27.8487 58.1186 28.1144 56.0464 28.0612C55.8871 28.0612 55.8339 28.1144 55.7808 28.2737C55.7808 28.4863 55.8871 28.5394 56.0464 28.5394C56.6309 28.4863 56.684 28.8582 56.684 29.2832C56.684 31.7273 56.684 34.1713 56.684 36.6153C56.684 37.3591 56.2058 37.6248 55.5683 37.306C55.2495 37.1466 55.0901 36.8278 54.9838 36.5622C53.7087 33.8525 52.4335 31.0897 51.1584 28.38C51.0521 28.1675 51.0521 27.8487 50.6802 27.9018C50.3614 27.955 50.3614 28.2206 50.3083 28.38C49.1926 31.0897 48.1299 33.7994 47.0142 36.4559C46.8548 36.881 46.6954 37.2529 46.1641 37.3591C46.0578 37.3591 46.0047 37.4123 46.0047 37.5717C46.0047 37.731 46.111 37.7842 46.2704 37.7842C46.8548 37.7842 47.4924 37.7842 48.0768 37.7842C48.1299 37.7842 48.2362 37.6779 48.2893 37.6248C48.3425 37.5185 48.2893 37.4123 48.1299 37.4123C47.5986 37.306 47.758 36.9872 47.8643 36.6153C48.1299 35.5527 48.6612 35.1808 49.8301 35.2339C50.999 35.287 52.0085 35.2339 52.3273 36.6684C52.3804 37.0403 52.5929 37.306 52.0616 37.4123C51.9022 37.4654 51.9022 37.5717 51.9022 37.6779C51.9022 37.8904 52.0616 37.8373 52.221 37.8373C54.7182 37.8373 57.1622 37.8373 59.6594 37.8373C59.7656 37.8373 59.9781 37.8904 59.9781 37.6779C59.9781 37.5185 59.8719 37.4123 59.7125 37.4123C59.128 37.4123 59.1812 37.0935 59.1812 36.6684C59.1812 34.4369 59.2343 32.2054 59.1812 29.9739C59.128 28.9644 59.4468 28.7519 60.3501 28.8582C61.2533 28.9644 61.8377 29.3364 62.0502 30.2396C62.3159 31.1959 61.8377 32.2586 61.0939 32.6305C60.2438 33.0555 60.2969 33.0024 60.722 33.8525C61.147 34.6495 61.5721 35.4464 61.9971 36.2434C62.5284 37.1466 63.2723 37.731 64.388 37.7842C66.407 37.9436 68.3728 37.8904 70.3918 37.8373C73.5797 37.731 75.0142 36.3496 75.3861 33.3212C75.4924 30.824 74.2704 28.8582 72.092 28.2737ZM50.9459 34.6495H50.8927C48.5019 34.8088 48.5019 34.8088 49.4051 32.5774C49.5113 32.2586 49.6707 31.9398 49.8833 31.4616C50.3614 32.5242 50.7865 33.4274 51.2115 34.3307C51.3178 34.6495 51.2115 34.7026 50.9459 34.6495ZM72.3576 35.1808C71.9857 36.4028 70.9762 37.0403 69.7011 36.9872C69.3292 36.9872 69.3292 36.7747 69.3292 36.509C69.3292 35.287 69.3292 34.1181 69.3292 32.8961C69.3292 31.7273 69.3292 30.5584 69.3292 29.3895C69.3292 29.0176 69.4355 28.9113 69.8074 28.9113C71.1356 28.9113 72.0389 29.4426 72.4108 30.7178C72.8358 32.1523 72.8358 33.6931 72.3576 35.1808ZM66.1413 19.3477C65.3444 18.8696 64.5474 18.3914 63.6973 17.9663C63.166 17.7007 62.9535 17.2756 63.0066 16.6912C63.0597 16.1068 63.4848 15.8411 64.0161 15.7348C65.185 15.4692 66.0882 15.9474 66.6195 17.0631C66.6726 17.1694 66.6726 17.3288 66.832 17.2756C66.8852 17.2756 66.9914 17.1694 66.9914 17.0631C67.2571 16.213 67.0977 15.5755 66.1413 15.2567C65.3444 14.991 64.5474 14.8316 63.6973 14.9379C62.2628 15.0973 61.2533 15.8942 61.0408 17.01C60.7751 18.2851 61.3064 19.3477 62.6347 20.1447C63.4848 20.676 64.388 21.1542 65.185 21.6855C66.0882 22.3231 66.0882 23.3857 65.185 23.917C64.0692 24.6077 62.2628 23.9701 61.7846 22.7481C61.6252 22.4293 61.7315 21.6855 61.4127 21.7918C60.9876 21.898 61.2002 22.5887 61.0408 22.9607C60.6688 23.9701 61.2533 24.3421 62.0502 24.6077C62.7409 24.8202 63.4316 25.0328 64.1755 24.9796C64.3349 24.9796 64.4943 24.9796 64.6537 24.9796C66.2476 24.9265 67.5227 24.0233 67.8415 22.5887C68.2134 21.3136 67.5759 20.1447 66.1413 19.3477ZM57.9592 19.3477C57.1622 18.8696 56.3121 18.3914 55.462 17.9132C54.9307 17.6476 54.7713 17.2225 54.8244 16.6912C54.8776 16.1599 55.2495 15.8942 55.6745 15.7348C56.8434 15.3629 57.9592 15.8942 58.4373 17.01C58.4905 17.1162 58.4905 17.2756 58.6499 17.2756C58.703 17.2756 58.8093 17.1694 58.8093 17.0631C59.0218 16.2662 59.0749 15.5755 58.0654 15.2567C57.2153 14.991 56.4184 14.7785 55.5151 14.8847C54.0275 15.0441 53.1242 15.8411 52.8586 17.01C52.5929 18.232 53.1774 19.2946 54.4525 20.0384C55.2495 20.5166 56.0996 20.9948 56.8965 21.5261C57.4279 21.8449 57.7466 22.3231 57.6404 22.9075C57.5341 23.5451 57.1091 23.8639 56.4715 24.0233C54.9307 24.3421 53.7087 23.5451 53.443 22.0043C53.3899 21.8449 53.4962 21.6324 53.2305 21.6324C53.0711 21.6324 53.018 21.7918 53.018 21.898C52.4335 23.7045 52.8586 24.3952 54.7713 24.7671C55.1964 24.8202 55.5683 24.8734 55.9933 24.9265V24.8734C56.1527 24.8734 56.3121 24.8734 56.4715 24.8734C58.0654 24.8202 59.2874 23.917 59.6594 22.5887C60.0313 21.3667 59.3937 20.1978 57.9592 19.3477ZM51.1053 22.2168C50.8927 22.1637 50.7865 22.3231 50.7865 22.4825C50.6271 23.917 49.6707 24.0764 48.5019 24.0233C46.6423 23.917 46.8548 24.2358 46.8548 22.3231C46.8548 20.3041 46.8548 20.3572 48.8738 20.3041C49.352 20.3041 49.777 20.3572 49.7239 20.9948C49.7239 21.1011 49.7239 21.2605 49.9364 21.2605C50.1489 21.2605 50.1489 21.1011 50.1489 20.9417C50.1489 20.3041 50.1489 19.6665 50.1489 19.029C50.1489 18.9227 50.202 18.7102 49.9895 18.7102C49.7239 18.7102 49.777 18.8696 49.777 19.029C49.7239 19.2946 49.6707 19.5071 49.2988 19.5603C47.0673 19.8791 46.9079 19.7728 46.9079 17.5413C46.9079 17.1694 46.9079 16.8506 46.9079 16.4787C46.8548 16.0536 47.0673 15.8411 47.4924 15.8411C48.2893 15.8411 49.0863 15.8411 49.8833 15.8411C50.3083 15.8411 50.574 15.9474 50.5208 16.4255C50.5208 16.6381 50.6271 16.9569 50.7865 16.7443C51.1584 16.3193 50.8927 15.788 50.9459 15.2567C50.9459 14.9379 50.6802 15.0441 50.4677 15.0441C49.4051 15.0441 48.3425 15.0441 47.2798 15.0441C46.1641 15.0441 45.1015 15.0441 43.9857 15.0441C43.8795 15.0441 43.6669 14.9379 43.6669 15.2035C43.6138 15.4692 43.8263 15.4161 43.9857 15.4161C44.4108 15.4161 44.517 15.6286 44.517 16.0005C44.517 18.6039 44.517 21.1542 44.517 23.7576C44.517 24.1295 44.4108 24.3421 43.9857 24.3952C43.8263 24.3952 43.6138 24.3421 43.6138 24.6077C43.6138 24.8734 43.8263 24.7671 43.9857 24.7671C46.1641 24.7671 48.2893 24.7671 50.4677 24.7671C50.7334 24.7671 50.8927 24.6608 50.8927 24.3952C50.999 23.7576 51.1053 23.12 51.2115 22.4825C51.2647 22.4293 51.3178 22.2699 51.1053 22.2168ZM42.7637 28.2206C41.7542 28.0081 40.6916 28.1144 39.7884 28.0612C38.8852 28.0612 38.1413 28.0612 37.3444 28.0612C37.185 28.0612 36.9724 27.955 36.9724 28.2206C36.9724 28.4331 37.1318 28.4331 37.2912 28.4331C37.6631 28.4331 37.8225 28.6988 37.8225 29.0707C37.8225 31.621 37.8225 34.1713 37.8225 36.7216C37.8225 37.0935 37.7694 37.3591 37.3444 37.3591C37.185 37.3591 37.0256 37.4123 37.0256 37.6248C37.0256 37.8904 37.2381 37.7842 37.3975 37.7842C38.6726 37.7842 39.9478 37.8373 41.1698 37.7842C44.4108 37.6248 45.8453 36.2434 46.1641 33.1087C46.3235 30.7178 44.9421 28.6988 42.7637 28.2206ZM43.295 35.0214C42.9231 36.3496 42.073 36.9341 40.7447 36.9341C40.3197 36.9341 40.2134 36.8278 40.2134 36.4028C40.2666 35.2339 40.2134 34.065 40.2134 32.8961C40.2134 31.7273 40.2134 30.5052 40.2134 29.3364C40.2134 29.0176 40.3197 28.8582 40.6385 28.8582C41.9668 28.8051 42.87 29.4426 43.2419 30.7178C43.6669 32.1523 43.6669 33.5868 43.295 35.0214ZM42.8168 15.2567C42.7637 15.0441 42.6043 15.0973 42.4449 15.0973C41.8605 15.0973 41.2761 15.0973 40.6916 15.0973C40.5853 15.0973 40.3728 15.0441 40.3728 15.2567C40.3197 15.5223 40.5322 15.4692 40.6916 15.4692C41.0104 15.4692 41.1698 15.6286 41.1698 15.8942C41.1698 17.435 41.1698 18.9758 41.1698 20.7823C40.9041 20.4635 40.7979 20.3041 40.6916 20.1447C39.5759 18.7102 38.407 17.2225 37.2912 15.788C37.0256 15.4161 36.6537 15.0973 36.1755 15.0973C35.4316 15.0973 34.6347 15.0973 33.8909 15.0973C33.7846 15.0973 33.5721 15.0441 33.5721 15.2567C33.5721 15.4161 33.6783 15.4692 33.8377 15.4692C34.3159 15.4161 34.4222 15.7348 34.4222 16.1599C34.4222 18.7102 34.4222 21.2073 34.4222 23.7576C34.4222 24.1295 34.3159 24.3952 33.8909 24.4483C33.7315 24.4483 33.5721 24.4483 33.6252 24.6608C33.6252 24.8734 33.8377 24.8202 33.944 24.8202C34.5284 24.8202 35.1129 24.8202 35.6973 24.8202C35.8567 24.8202 36.0692 24.9265 36.0692 24.6077C36.0692 24.3952 35.9098 24.3952 35.7504 24.3952C35.4316 24.3952 35.2191 24.2358 35.2191 23.917C35.2191 21.6855 35.2191 19.4009 35.2191 17.01C35.4316 17.2756 35.5379 17.3819 35.6442 17.5413C37.2912 19.7197 38.9383 21.898 40.5322 24.0764C40.7447 24.3421 40.9573 24.6077 41.2761 24.714C41.7542 24.9265 42.073 24.9265 42.073 24.2358C42.0199 21.5792 42.073 18.8696 42.073 16.213C42.073 15.788 42.1261 15.5223 42.6043 15.5223C42.7106 15.4692 42.87 15.4692 42.8168 15.2567ZM35.8036 27.955C35.2723 27.955 34.7409 27.955 34.1565 27.955C33.9971 27.955 33.7846 27.8487 33.7315 28.1144C33.6783 28.38 33.8909 28.3269 34.0502 28.38C34.3159 28.4331 34.4753 28.5925 34.4753 28.8582C34.4753 30.399 34.4753 31.9398 34.4753 33.64C33.3595 32.2054 32.1907 30.9834 31.3406 29.5489C30.2779 27.7424 28.7372 27.955 27.1432 28.0081C26.9838 28.0081 26.8776 28.0612 26.8776 28.2737C26.8776 28.4331 26.9838 28.4863 27.1432 28.4863C27.7277 28.4331 27.7808 28.8051 27.7808 29.2301C27.7808 31.6741 27.7808 34.1181 27.7808 36.5622C27.7808 36.8278 27.8339 37.1997 27.462 37.306C27.0901 37.4123 26.7182 37.4123 26.4525 37.1466C26.24 36.9341 26.0806 36.6684 25.9212 36.4028C24.6461 33.6931 23.4241 31.0366 22.1489 28.3269C22.0427 28.1675 22.0427 27.8487 21.7239 27.8487C21.352 27.8487 21.352 28.1144 21.2988 28.3269C20.1831 31.0366 19.1205 33.7462 18.0047 36.4559C17.8453 36.8278 17.739 37.1997 17.2609 37.306C17.1015 37.3591 17.0483 37.4654 17.0483 37.6248C17.0483 37.8373 17.2077 37.7842 17.3671 37.7842C17.8453 37.7842 18.2704 37.7842 18.7485 37.7842C18.9079 37.7842 19.1736 37.9436 19.2798 37.6779C19.3861 37.3591 19.1205 37.4123 18.9079 37.306C18.6954 37.1997 18.6954 37.0403 18.7485 36.7747C19.1736 35.2339 19.2267 35.2339 20.8206 35.1808C21.9364 35.1276 22.9459 35.0745 23.2647 36.509C23.3178 36.881 23.6366 37.1997 22.999 37.3591C22.8396 37.4123 22.8396 37.5717 22.8927 37.6779C22.9459 37.731 23.0521 37.7842 23.1053 37.7842C25.0711 37.7842 27.037 37.7842 29.0028 37.7842C29.1091 37.7842 29.2685 37.7842 29.2685 37.6248C29.2685 37.5185 29.1622 37.4123 29.1091 37.4123C28.2058 37.4123 28.4715 36.7747 28.4184 36.2434C28.4184 34.3838 28.4184 32.5242 28.4184 30.6115C28.4184 30.4521 28.4184 30.2927 28.4715 29.9739C29.9592 31.9398 31.3937 33.8525 32.8282 35.7121C33.3064 36.2965 33.7315 36.881 34.2628 37.4123C34.4753 37.6248 34.7941 37.731 35.0597 37.6248C35.2723 37.5185 35.166 37.1997 35.166 36.9872C35.166 34.3838 35.166 31.7804 35.166 29.177C35.166 28.7519 35.166 28.38 35.6973 28.2737C35.8567 28.2737 36.0161 28.3269 36.0161 28.0612C36.1223 27.8487 35.9098 27.955 35.8036 27.955ZM21.9895 34.6495C21.352 34.6495 20.7144 34.6495 20.0768 34.6495C19.8112 34.6495 19.6518 34.6495 19.8112 34.2775C20.1831 33.3743 20.555 32.4711 20.9269 31.4616C21.4051 32.4711 21.8301 33.3743 22.2552 34.2775C22.3614 34.5963 22.3614 34.7026 21.9895 34.6495ZM32.5094 24.4483C31.9781 24.4483 31.925 24.0764 31.925 23.6514C31.925 22.4293 31.925 21.2605 31.925 20.0384C31.925 18.8164 31.925 17.5944 31.925 16.3724C31.925 15.8942 31.9781 15.5223 32.5626 15.5223C32.722 15.5223 32.7751 15.4692 32.7751 15.3098C32.7751 15.0973 32.6157 15.1504 32.5094 15.1504C31.3406 15.1504 30.1717 15.1504 29.0028 15.1504C28.8965 15.1504 28.7372 15.1504 28.7372 15.3098C28.7372 15.4692 28.8434 15.5223 28.9497 15.5223C29.4279 15.4692 29.481 15.7348 29.481 16.1599C29.481 18.7102 29.481 21.2605 29.481 23.8107C29.481 24.1827 29.4279 24.4483 28.9497 24.5014C28.8434 24.5014 28.684 24.5014 28.684 24.714C28.684 24.9265 28.8434 24.9265 28.9497 24.9265H32.3501C32.5094 24.9265 32.6688 24.9265 32.6157 24.714C32.7751 24.4483 32.6688 24.3952 32.5094 24.4483ZM27.9933 9.25287C27.6745 9.19974 27.6745 9.46539 27.6745 9.62479C27.5683 10.9531 26.7713 11.1656 25.6024 11.1125C23.4772 11.0062 23.796 11.325 23.796 9.25287C23.796 7.39329 23.796 7.39329 25.6556 7.39329C26.1337 7.39329 26.6119 7.39329 26.5588 8.08399C26.5588 8.24338 26.5588 8.34964 26.7713 8.40277C27.037 8.40277 26.9838 8.24338 26.9838 8.08399C26.9838 7.39329 26.9838 6.75572 26.9838 6.06501C26.9838 5.90562 26.9838 5.74623 26.7713 5.79936C26.5588 5.79936 26.5056 5.90562 26.5588 6.06501C26.6119 6.64945 26.24 6.70259 25.815 6.64945C25.2836 6.64945 24.7523 6.64945 24.2742 6.64945C23.9022 6.64945 23.7428 6.59632 23.796 6.17128C23.8491 5.32118 23.796 4.41795 23.796 3.56786C23.796 3.14281 23.9554 2.98342 24.3804 2.98342C25.1774 2.98342 26.0275 2.98342 26.8244 2.98342C27.2495 2.98342 27.462 3.08968 27.4089 3.56786C27.4089 3.78038 27.462 4.09917 27.6745 3.88665C27.9933 3.51473 27.7277 2.98342 27.8339 2.55837C27.8871 2.29272 27.7277 2.23959 27.5151 2.23959C25.3368 2.23959 23.1053 2.23959 20.9269 2.23959C20.8206 2.23959 20.6612 2.23959 20.6612 2.39898C20.6612 2.6115 20.8206 2.6115 20.98 2.6115C21.4051 2.6115 21.5645 2.87716 21.5645 3.24908C21.5645 5.79936 21.5645 8.34964 21.5645 10.8999C21.5645 11.2718 21.4582 11.4844 21.0332 11.5375C20.8738 11.5375 20.6612 11.4312 20.6612 11.75C20.6612 12.0688 20.9269 11.9625 21.0863 11.9625C22.1489 11.9625 23.2115 11.9625 24.2742 11.9625C25.3368 11.9625 26.4525 11.9625 27.5151 11.9625C27.7277 11.9625 27.9933 12.0157 27.9933 11.6438C28.0464 11.0062 28.1527 10.3686 28.259 9.73105C28.2058 9.51852 28.3652 9.306 27.9933 9.25287ZM26.0275 19.454C25.1242 18.9227 24.221 18.3914 23.2647 17.8601C22.7865 17.5944 22.6271 17.1694 22.6271 16.7443C22.6271 16.2662 22.9459 15.9474 23.3709 15.788C24.4867 15.3098 25.7087 15.8411 26.1869 17.01C26.24 17.1162 26.3463 17.1694 26.3994 17.2756C26.4525 17.1694 26.6119 17.1162 26.6119 17.01C26.8244 16.2662 26.8776 15.6286 25.9212 15.3098C25.1242 15.0441 24.3273 14.8316 23.4772 14.8847C21.9364 14.991 20.9269 15.7348 20.6612 16.9569C20.3425 18.2851 20.8206 19.2415 22.2552 20.0916C23.0521 20.5698 23.8491 21.0479 24.6461 21.5261C25.1774 21.8449 25.5493 22.3762 25.3899 23.0138C25.2305 23.5982 24.8055 23.917 24.221 24.0233C22.7334 24.3421 21.4582 23.492 21.1926 21.9512C21.1926 21.8449 21.2457 21.6324 21.0332 21.6324C20.8738 21.6324 20.8738 21.7386 20.8206 21.8449C20.1831 23.5982 20.6612 24.3952 22.4677 24.714C22.8927 24.7671 23.3178 24.8202 23.7428 24.8734C24.1679 24.8202 24.5929 24.7671 25.018 24.714C26.2931 24.4483 27.2495 23.5451 27.4089 22.4293C27.7808 21.2073 27.2495 20.1447 26.0275 19.454ZM19.5455 11.5375C18.9611 11.5375 18.9079 11.1656 18.9079 10.6874C18.9079 8.24338 18.9079 5.85249 18.9079 3.40847C18.9079 2.93029 18.9611 2.55837 19.5455 2.55837C19.7049 2.55837 19.8112 2.50524 19.758 2.34585C19.758 2.18646 19.6518 2.13333 19.4924 2.13333C18.3235 2.13333 17.1546 2.13333 15.9857 2.13333C15.8795 2.13333 15.7201 2.18646 15.7201 2.29272C15.6669 2.50524 15.8263 2.50524 15.9857 2.55837C16.3045 2.55837 16.517 2.71777 16.517 3.08968C16.517 4.1523 16.517 5.21492 16.517 6.27754C16.517 6.49006 16.4639 6.59632 16.1983 6.59632C13.8074 6.86198 13.7011 6.80885 13.7011 4.47109C13.7011 4.09917 13.7011 3.67412 13.7011 3.30221C13.7011 2.93029 13.7542 2.55837 14.2324 2.55837C14.3918 2.55837 14.4981 2.50524 14.4981 2.34585C14.4981 2.18646 14.3918 2.13333 14.2324 2.13333C13.0635 2.13333 11.8946 2.13333 10.7258 2.13333C10.6195 2.13333 10.4601 2.13332 10.4601 2.29272C10.4601 2.45211 10.5664 2.45211 10.6726 2.45211C11.2571 2.45211 11.2571 2.82403 11.2571 3.24908C11.2571 4.47109 11.2571 5.6931 11.2571 6.91511C11.2571 8.19025 11.2571 9.46539 11.2571 10.7405C11.2571 11.0593 11.2571 11.3781 10.832 11.4312C10.6726 11.4312 10.4601 11.3781 10.4601 11.6438C10.4601 11.9625 10.7258 11.8563 10.8852 11.8563C11.9478 11.8563 13.0104 11.8563 14.073 11.8563C14.2324 11.8563 14.4449 11.9625 14.4449 11.6969C14.4981 11.4312 14.2855 11.4844 14.1261 11.4844C13.7542 11.4844 13.648 11.2718 13.648 10.9531V9.62479C13.648 7.28703 13.648 7.28703 15.9857 7.39329C16.3576 7.39329 16.4639 7.49955 16.4639 7.87147C16.4639 8.88095 16.4639 9.89044 16.4639 10.8468C16.4639 11.2187 16.3576 11.4844 15.9326 11.4844C15.7732 11.4844 15.6138 11.4844 15.6669 11.6969C15.6669 11.9094 15.8263 11.9094 15.9857 11.9094H19.5455C19.6518 11.9094 19.8112 11.9094 19.8112 11.75C19.8112 11.5906 19.7049 11.5375 19.5455 11.5375ZM19.3861 15.2567C19.3861 15.2035 19.2798 15.0973 19.1736 15.0973C18.4829 15.0973 17.7922 15.0973 17.1015 15.0973C16.9952 15.0973 16.889 15.1504 16.9421 15.2567C16.9421 15.3098 16.9952 15.4161 17.0483 15.4161C17.8984 15.4161 17.6859 16.0536 17.6859 16.5318C17.6859 17.3819 17.6859 18.232 17.6859 19.0821V21.7386C17.6859 23.0669 16.889 24.0233 15.7201 24.0233C14.5512 24.0233 13.7011 23.12 13.648 21.7918C13.648 19.9322 13.648 18.0726 13.648 16.2662C13.648 15.8411 13.7011 15.5223 14.2324 15.4692C14.3918 15.4692 14.4449 15.4161 14.4449 15.2567C14.4449 15.0973 14.3387 15.0973 14.1793 15.0973C13.0104 15.0973 11.8415 15.0973 10.6726 15.0973C10.5664 15.0973 10.407 15.0973 10.407 15.2567C10.407 15.4161 10.5132 15.4692 10.6195 15.4692C11.2039 15.4161 11.2571 15.8411 11.2571 16.2662C11.2571 18.1257 11.2571 19.9853 11.2571 21.7918C11.2571 23.6514 12.4791 24.8202 14.4981 25.0328C16.4108 25.2453 18.111 24.1827 18.3766 22.5356C18.6954 20.4635 18.4297 18.3914 18.4829 16.3193C18.4829 15.8942 18.536 15.5223 19.0673 15.5223C19.2798 15.4692 19.3861 15.4161 19.3861 15.2567ZM17.6859 28.9113C17.6859 28.8582 17.6859 28.7519 17.6859 28.6457C17.739 28.1675 17.5797 28.0081 17.1015 28.0081C15.9326 28.0612 14.7106 28.0081 13.5417 28.0081H10.9383C9.45062 28.0081 9.45062 28.0081 9.45062 29.5489C9.45062 29.7083 9.29123 30.0271 9.66315 30.0271C9.98193 30.0271 9.82254 29.7083 9.82254 29.602C9.76941 29.0176 10.0351 28.7519 10.6195 28.8051C10.9383 28.8582 11.3102 28.8582 11.629 28.8051C12.1603 28.7519 12.3728 29.0176 12.3728 29.5489C12.3728 31.9398 12.3728 34.2775 12.3728 36.6684C12.3728 37.0403 12.3197 37.4123 11.7884 37.3591C11.629 37.3591 11.5227 37.4654 11.5227 37.6248C11.5227 37.8373 11.6821 37.7842 11.8415 37.7842C12.9573 37.7842 14.073 37.7842 15.1888 37.7842C15.295 37.7842 15.5076 37.8373 15.5076 37.6248C15.5076 37.4654 15.4544 37.3591 15.2419 37.3591C14.6575 37.3591 14.6575 36.9872 14.6575 36.5622C14.6575 34.5963 14.6575 32.6305 14.6575 30.6646C14.6575 28.7519 14.6575 28.7519 16.6233 28.8582C16.889 28.8582 17.0483 28.9113 17.1546 29.177C17.314 29.4958 16.889 30.1333 17.4734 30.0271C17.8984 29.9208 17.5797 29.2832 17.6859 28.9113ZM9.71628 1.65515C9.76941 1.44262 9.71628 1.2301 9.71628 1.01758C9.76941 0.592528 9.61002 0.486266 9.18497 0.486266C6.42216 0.486266 3.65935 0.486266 0.896544 0.486266C0.630889 0.486266 0.365234 0.433136 0.365234 0.805052C0.365234 1.28323 0.365234 1.70828 0.365234 2.18646C0.365234 2.29272 0.365234 2.45211 0.524627 2.45211C0.68402 2.45211 0.737151 2.29272 0.68402 2.18646C0.524627 1.2301 1.10907 1.17697 1.79977 1.2301C2.17169 1.28323 2.59673 1.28323 2.96865 1.2301C3.55309 1.17697 3.76561 1.38949 3.76561 2.02706C3.71248 4.89613 3.76561 7.71207 3.76561 10.5811C3.76561 11.0062 3.76561 11.4312 3.18117 11.4312C3.12804 11.4312 3.02178 11.5375 2.96865 11.5906C2.91552 11.75 3.07491 11.8032 3.18117 11.8032C4.35005 11.8032 5.51893 11.8032 6.68781 11.8032C6.84721 11.8032 6.90034 11.75 6.90034 11.5906C6.90034 11.4844 6.84721 11.4312 6.68781 11.4312C6.10337 11.4312 6.10338 11.0062 6.10338 10.6343C6.10338 9.19974 6.10338 7.81833 6.10338 6.3838C6.10338 4.89613 6.10338 3.40847 6.10338 1.97393C6.10338 1.54888 6.26277 1.2301 6.68781 1.33636C7.53791 1.49575 8.49427 0.805052 9.18497 1.76141C9.34436 1.97393 8.97245 2.55837 9.39749 2.50524C9.9288 2.50524 9.66315 1.97393 9.71628 1.65515ZM7.16599 18.1257C8.49427 17.3288 8.86618 16.5849 8.60053 15.2567C8.388 14.3003 7.59104 13.7159 6.20964 13.5565C4.40319 13.344 2.5436 13.5033 0.737151 13.4502C0.630889 13.4502 0.418366 13.3971 0.418366 13.6096C0.418366 13.8221 0.577758 13.8753 0.737151 13.8753C1.1622 13.8753 1.21533 14.1409 1.21533 14.4597C1.21533 17.5944 1.21533 20.676 1.21533 23.8107C1.21533 24.1295 1.1622 24.3952 0.737151 24.3952C0.577758 24.3952 0.365234 24.3421 0.365234 24.6077C0.418365 24.8734 0.630889 24.7671 0.790282 24.7671C2.5436 24.7671 4.29692 24.8202 6.05024 24.7671C7.90983 24.714 9.34436 23.5451 9.55689 21.9512C9.87567 19.9853 9.2381 18.9227 7.16599 18.1257ZM6.95347 21.6855C6.74095 23.1732 5.78459 23.917 4.19066 23.917C3.71248 23.917 3.65935 23.7576 3.65935 23.3326C3.65935 21.898 3.65935 20.5166 3.65935 19.0821C3.65935 17.6476 3.65935 16.2662 3.65935 14.8316C3.65935 14.4066 3.71248 14.2472 4.19066 14.2472C5.35954 14.2472 6.10338 14.7254 6.26277 15.6286C6.42216 16.6912 5.99711 17.3819 4.82823 17.8069C4.66884 17.8601 4.56258 17.8601 4.56258 18.0726C4.56258 18.2851 4.72197 18.2851 4.88136 18.2851C6.52842 18.7633 7.16599 19.7728 6.95347 21.6855ZM6.68781 31.5679C5.57207 30.9303 4.40319 30.2927 3.34057 29.5489C2.59673 29.0176 2.64986 28.0081 3.3937 27.5299C4.66884 26.7329 6.68782 27.4768 7.05973 28.9113C7.16599 29.2301 7.32539 29.2301 7.48478 29.0707C7.8567 28.8051 7.6973 27.4237 7.32539 27.2111C6.42216 26.6798 5.41267 26.4142 4.35005 26.4142C4.13753 26.4142 3.97814 26.4142 3.76561 26.4142C1.74664 26.5204 0.471496 27.6893 0.524627 29.4426C0.577758 30.824 1.58725 31.5147 2.59673 32.1523C3.60622 32.7899 4.82823 33.2149 5.73146 34.065C6.58155 34.862 6.47529 35.9246 5.51894 36.6153C3.87188 37.731 1.53411 36.7216 1.1622 34.7026C1.10907 34.5432 1.26846 34.2244 0.949675 34.2244C0.68402 34.2775 0.737151 34.5432 0.68402 34.7026C0.577758 35.1276 0.577759 35.6058 0.471497 36.0309C0.365235 36.5622 0.471497 36.881 1.00281 37.1466C2.38421 37.8373 3.81874 38.0498 5.35954 37.8373C7.05973 37.6248 8.33487 36.509 8.65366 35.0745C8.97245 33.6931 8.33487 32.5773 6.68781 31.5679Z" fill="#757B82"/>
<path d="M72.0912 28.2736C70.1785 27.7954 68.2658 28.1673 66.2999 28.061C66.1937 28.061 66.0874 28.061 66.0874 28.2204C66.0874 28.4329 66.1937 28.4329 66.3531 28.4329C66.725 28.4329 66.9375 28.5923 66.9375 29.0174C66.9375 31.6208 66.9375 34.2242 66.9375 36.8276C66.9375 37.2527 66.7781 37.3589 66.3531 37.3589C65.503 37.3058 65.1842 36.6682 64.8123 36.0838C64.2278 35.0743 63.8028 34.0117 62.6339 33.3741C64.1216 32.6303 64.6529 31.7802 64.4935 30.4519C64.3872 29.2299 63.6965 28.4861 62.262 28.2204C60.1899 27.8485 58.1178 28.1142 56.0456 28.061C55.8863 28.061 55.8331 28.1142 55.78 28.2736C55.78 28.4861 55.8863 28.5392 56.0456 28.5392C56.6301 28.4861 56.6832 28.858 56.6832 29.283C56.6832 31.7271 56.6832 34.1711 56.6832 36.6151C56.6832 37.3589 56.205 37.6246 55.5675 37.3058C55.2487 37.1464 55.0893 36.8276 54.983 36.562C53.7079 33.8523 52.4327 31.0895 51.1576 28.3798C51.0513 28.1673 51.0513 27.8485 50.6794 27.9016C50.3606 27.9548 50.3606 28.2204 50.3075 28.3798C49.1918 31.0895 48.1291 33.7992 47.0134 36.4557C46.854 36.8808 46.6946 37.2527 46.1633 37.3589C46.057 37.3589 46.0039 37.4121 46.0039 37.5715C46.0039 37.7309 46.1102 37.784 46.2696 37.784C46.854 37.784 47.4916 37.784 48.076 37.784C48.1291 37.784 48.2354 37.6777 48.2885 37.6246C48.3417 37.5183 48.2885 37.4121 48.1291 37.4121C47.5978 37.3058 47.7572 36.987 47.8635 36.6151C48.1291 35.5525 48.6605 35.1806 49.8293 35.2337C50.9982 35.2868 52.0077 35.2337 52.3265 36.6682C52.3796 37.0402 52.5921 37.3058 52.0608 37.4121C51.9014 37.4652 51.9014 37.5715 51.9014 37.6777C51.9014 37.8902 52.0608 37.8371 52.2202 37.8371C54.7174 37.8371 57.1614 37.8371 59.6586 37.8371C59.7648 37.8371 59.9773 37.8902 59.9773 37.6777C59.9773 37.5183 59.8711 37.4121 59.7117 37.4121C59.1272 37.4121 59.1804 37.0933 59.1804 36.6682C59.1804 34.4367 59.2335 32.2052 59.1804 29.9737C59.1272 28.9643 59.446 28.7517 60.3493 28.858C61.2525 28.9643 61.8369 29.3362 62.0494 30.2394C62.3151 31.1958 61.8369 32.2584 61.0931 32.6303C60.243 33.0553 60.2961 33.0022 60.7212 33.8523C61.1462 34.6493 61.5713 35.4462 61.9963 36.2432C62.5276 37.1464 63.2715 37.7309 64.3872 37.784C66.4062 37.9434 68.372 37.8902 70.391 37.8371C73.5789 37.7309 75.0134 36.3495 75.3853 33.321C75.4916 30.8238 74.2696 28.858 72.0912 28.2736ZM50.9451 34.6493H50.892C48.5011 34.8087 48.5011 34.8087 49.4043 32.5772C49.5105 32.2584 49.6699 31.9396 49.8825 31.4614C50.3606 32.524 50.7857 33.4272 51.2107 34.3305C51.317 34.6493 51.2107 34.7024 50.9451 34.6493ZM72.3568 35.1806C71.9849 36.4026 70.9754 37.0401 69.7003 36.987C69.3284 36.987 69.3284 36.7745 69.3284 36.5088C69.3284 35.2868 69.3284 34.118 69.3284 32.8959C69.3284 31.7271 69.3284 30.5582 69.3284 29.3893C69.3284 29.0174 69.4346 28.9111 69.8066 28.9111C71.1348 28.9111 72.0381 29.4424 72.41 30.7176C72.835 32.1521 72.835 33.6929 72.3568 35.1806Z" fill="#757B82"/>
<path d="M35.804 27.9549C35.2727 27.9549 34.7414 27.9549 34.157 27.9549C33.9976 27.9549 33.7851 27.8486 33.7319 28.1143C33.6788 28.3799 33.8913 28.3268 34.0507 28.3799C34.3164 28.4331 34.4758 28.5925 34.4758 28.8581C34.4758 30.3989 34.4758 31.9397 34.4758 33.6399C33.36 32.2054 32.1911 30.9834 31.341 29.5488C30.2784 27.7424 28.7376 27.9549 27.1437 28.008C26.9843 28.008 26.8781 28.0612 26.8781 28.2737C26.8781 28.4331 26.9843 28.4862 27.1437 28.4862C27.7281 28.4331 27.7813 28.805 27.7813 29.23C27.7813 31.6741 27.7813 34.1181 27.7813 36.5621C27.7813 36.8278 27.8344 37.1997 27.4625 37.3059C27.0906 37.4122 26.7187 37.4122 26.453 37.1465C26.2405 36.934 26.0811 36.6684 25.9217 36.4027C24.6466 33.693 23.4245 31.0365 22.1494 28.3268C22.0431 28.1674 22.0431 27.8486 21.7243 27.8486C21.3524 27.8486 21.3524 28.1143 21.2993 28.3268C20.1836 31.0365 19.1209 33.7462 18.0052 36.4558C17.8458 36.8278 17.7395 37.1997 17.2614 37.3059C17.102 37.3591 17.0488 37.4653 17.0488 37.6247C17.0488 37.8372 17.2082 37.7841 17.3676 37.7841C17.8458 37.7841 18.2708 37.7841 18.749 37.7841C18.9084 37.7841 19.1741 37.9435 19.2803 37.6779C19.3866 37.3591 19.1209 37.4122 18.9084 37.3059C18.6959 37.1997 18.6959 37.0403 18.749 36.7746C19.1741 35.2338 19.2272 35.2338 20.8211 35.1807C21.9369 35.1276 22.9464 35.0744 23.2651 36.509C23.3183 36.8809 23.6371 37.1997 22.9995 37.3591C22.8401 37.4122 22.8401 37.5716 22.8932 37.6779C22.9464 37.731 23.0526 37.7841 23.1058 37.7841C25.0716 37.7841 27.0374 37.7841 29.0033 37.7841C29.1096 37.7841 29.2689 37.7841 29.2689 37.6247C29.2689 37.5185 29.1627 37.4122 29.1095 37.4122C28.2063 37.4122 28.472 36.7746 28.4188 36.2433C28.4188 34.3837 28.4188 32.5242 28.4188 30.6114C28.4188 30.452 28.4188 30.2927 28.472 29.9739C29.9596 31.9397 31.3942 33.8524 32.8287 35.712C33.3069 36.2965 33.7319 36.8809 34.2632 37.4122C34.4758 37.6247 34.7946 37.731 35.0602 37.6247C35.2727 37.5185 35.1665 37.1997 35.1665 36.9872C35.1665 34.3837 35.1665 31.7803 35.1665 29.1769C35.1665 28.7519 35.1665 28.3799 35.6978 28.2737C35.8572 28.2737 36.0166 28.3268 36.0166 28.0612C36.1228 27.8486 35.9103 27.9549 35.804 27.9549ZM21.99 34.6494C21.3524 34.6494 20.7149 34.6494 20.0773 34.6494C19.8116 34.6494 19.6522 34.6494 19.8116 34.2775C20.1836 33.3742 20.5555 32.471 20.9274 31.4615C21.4056 32.471 21.8306 33.3742 22.2557 34.2775C22.3619 34.5963 22.3619 34.7025 21.99 34.6494Z" fill="#757B82"/>
<path d="M7.16599 18.1257C8.49427 17.3288 8.86618 16.5849 8.60053 15.2567C8.388 14.3003 7.59104 13.7159 6.20964 13.5565C4.40319 13.3439 2.5436 13.5033 0.737151 13.4502C0.630889 13.4502 0.418366 13.3971 0.418366 13.6096C0.418366 13.8221 0.577758 13.8752 0.737151 13.8752C1.1622 13.8752 1.21533 14.1409 1.21533 14.4597C1.21533 17.5944 1.21533 20.676 1.21533 23.8107C1.21533 24.1295 1.1622 24.3952 0.737151 24.3952C0.577758 24.3952 0.365234 24.342 0.365234 24.6077C0.418365 24.8734 0.630889 24.7671 0.790282 24.7671C2.5436 24.7671 4.29692 24.8202 6.05024 24.7671C7.90983 24.714 9.34436 23.5451 9.55689 21.9512C9.87567 19.9853 9.2381 18.9227 7.16599 18.1257ZM6.95347 21.6855C6.74095 23.1732 5.78459 23.917 4.19066 23.917C3.71248 23.917 3.65935 23.7576 3.65935 23.3326C3.65935 21.898 3.65935 20.5166 3.65935 19.0821C3.65935 17.6475 3.65935 16.2661 3.65935 14.8316C3.65935 14.4066 3.71248 14.2472 4.19066 14.2472C5.35954 14.2472 6.10338 14.7253 6.26277 15.6286C6.42216 16.6912 5.99711 17.3819 4.82823 17.8069C4.66884 17.8601 4.56258 17.8601 4.56258 18.0726C4.56258 18.2851 4.72197 18.2851 4.88136 18.2851C6.52842 18.7633 7.16599 19.7728 6.95347 21.6855Z" fill="#757B82"/>
<path d="M19.8116 11.75C19.8116 11.9094 19.6522 11.9094 19.5459 11.9094H16.0393C15.8799 11.9094 15.7736 11.8563 15.7205 11.6969C15.7205 11.4843 15.8268 11.4843 15.9862 11.4843C16.4643 11.4843 16.5175 11.2187 16.5175 10.8468C16.5175 9.83729 16.5175 8.8278 16.5175 7.87144C16.5175 7.49952 16.4112 7.44639 16.0393 7.39326C13.7015 7.34013 13.7015 7.34013 13.7015 9.62476V10.953C13.7015 11.2718 13.8078 11.4843 14.1797 11.4843C14.3391 11.4843 14.5516 11.4312 14.4985 11.6969C14.4454 11.9625 14.2328 11.8563 14.1266 11.8563C13.064 11.8563 12.0013 11.8563 10.9387 11.8563C10.7793 11.8563 10.5137 11.9625 10.5137 11.6437C10.5137 11.3781 10.7262 11.4843 10.8856 11.4312C11.3106 11.3781 11.3106 11.0593 11.3106 10.7405C11.3106 9.46537 11.3106 8.19023 11.3106 6.91508C11.3106 5.69307 11.3106 4.47106 11.3106 3.24905C11.3106 2.824 11.3106 2.45209 10.7262 2.45209C10.6199 2.45209 10.5137 2.45209 10.5137 2.29269C10.5137 2.1333 10.6731 2.1333 10.7793 2.1333C11.9482 2.1333 13.1171 2.1333 14.286 2.1333C14.4454 2.1333 14.5516 2.18643 14.5516 2.34582C14.5516 2.50522 14.4454 2.55835 14.286 2.55835C13.8078 2.55835 13.7547 2.87713 13.7547 3.30218C13.7547 3.6741 13.7547 4.09915 13.7547 4.47106C13.7547 6.86195 13.8078 6.91508 16.2518 6.5963C16.5175 6.54317 16.5706 6.49004 16.5706 6.27751C16.5706 5.21489 16.5706 4.15228 16.5706 3.08966C16.5706 2.71774 16.3581 2.55835 16.0393 2.55835C15.8799 2.55835 15.7205 2.50522 15.7736 2.29269C15.7736 2.23956 15.9862 2.1333 16.0393 2.1333C17.2082 2.1333 18.377 2.1333 19.5459 2.1333C19.6522 2.1333 19.8116 2.1333 19.8116 2.34582C19.8116 2.50522 19.7053 2.55835 19.5991 2.55835C19.0146 2.55835 18.9615 2.93026 18.9615 3.40844C18.9615 5.85247 18.9615 8.24336 18.9615 10.6874C18.9615 11.1656 19.0146 11.5375 19.5991 11.5375C19.7053 11.5375 19.8116 11.5906 19.8116 11.75Z" fill="#757B82"/>
<path d="M42.7639 28.2204C41.7544 28.0079 40.6918 28.1142 39.7886 28.061C38.8854 28.061 38.1415 28.061 37.3446 28.061C37.1852 28.061 36.9727 27.9548 36.9727 28.2204C36.9727 28.4329 37.132 28.4329 37.2914 28.4329C37.6634 28.4329 37.8228 28.6986 37.8228 29.0705C37.8228 31.6208 37.8228 34.1711 37.8228 36.7214C37.8228 37.0933 37.7696 37.3589 37.3446 37.3589C37.1852 37.3589 37.0258 37.4121 37.0258 37.6246C37.0258 37.8903 37.2383 37.784 37.3977 37.784C38.6728 37.784 39.948 37.8371 41.17 37.784C44.411 37.6246 45.8455 36.2432 46.1643 33.1085C46.3237 30.7176 44.9423 28.6986 42.7639 28.2204ZM43.2952 35.0212C42.9233 36.3495 42.0732 36.9339 40.745 36.9339C40.3199 36.9339 40.2136 36.8276 40.2136 36.4026C40.2668 35.2337 40.2136 34.0648 40.2136 32.8959C40.2136 31.7271 40.2136 30.5051 40.2136 29.3362C40.2136 29.0174 40.3199 28.858 40.6387 28.858C41.967 28.8049 42.8702 29.4424 43.2421 30.7176C43.6672 32.1521 43.6672 33.5866 43.2952 35.0212Z" fill="#757B82"/>
<path d="M8.70597 35.1276C8.38719 36.5622 7.11205 37.6779 5.41186 37.8904C3.92419 38.103 2.43652 37.9436 1.05512 37.1997C0.523811 36.9341 0.364418 36.6153 0.523811 36.084C0.630073 35.6589 0.683204 35.1808 0.736335 34.7557C0.789466 34.5432 0.736335 34.2775 1.00199 34.2775C1.37391 34.2244 1.21451 34.5432 1.21451 34.7557C1.58643 36.7747 3.97732 37.7842 5.57125 36.6684C6.52761 35.9777 6.63387 34.9151 5.78377 34.1181C4.88055 33.3212 3.65854 32.8961 2.64905 32.2054C1.63956 31.5679 0.630073 30.8772 0.576942 29.4957C0.523811 27.7424 1.79895 26.5735 3.81793 26.4673C4.03045 26.4673 4.18985 26.4673 4.40237 26.4673C5.46499 26.4673 6.47448 26.7329 7.3777 27.2642C7.74962 27.5299 7.90901 28.8582 7.53709 29.1238C7.3777 29.2301 7.21831 29.2832 7.11205 28.9644C6.74013 27.5299 4.72115 26.7861 3.44601 27.583C2.70218 28.0612 2.64905 29.1238 3.39288 29.602C4.4555 30.3458 5.62438 30.9834 6.74013 31.621C8.33406 32.5773 8.97163 33.6931 8.70597 35.1276Z" fill="#757B82"/>
<path d="M42.5518 15.469C42.0736 15.469 42.0205 15.7878 42.0205 16.1597C42.0205 18.8163 42.0205 21.526 42.0205 24.1825C42.0205 24.9263 41.7548 24.8732 41.2235 24.6607C40.9047 24.5544 40.6922 24.2888 40.4797 24.0231C38.8326 21.8447 37.2387 19.6664 35.5916 17.488C35.4854 17.3286 35.3791 17.2224 35.1666 16.9567C35.1666 19.3476 35.1666 21.6322 35.1666 23.8637C35.1666 24.1825 35.3791 24.3419 35.6979 24.3419C35.8573 24.3419 36.0167 24.2888 36.0167 24.5544C36.0167 24.8201 35.8042 24.7669 35.6448 24.7669C35.0603 24.7669 34.4759 24.7669 33.8914 24.7669C33.7852 24.7669 33.5727 24.8201 33.5727 24.6076C33.5727 24.395 33.6789 24.395 33.8383 24.395C34.2634 24.395 34.3696 24.1294 34.3696 23.7043C34.3696 21.154 34.3696 18.6569 34.3696 16.1066C34.3696 15.6816 34.3165 15.4159 33.7852 15.4159C33.6789 15.4159 33.5195 15.4159 33.5195 15.2034C33.5195 14.9909 33.7321 15.044 33.8383 15.044C34.5821 15.044 35.3791 15.044 36.1229 15.044C36.6011 15.044 36.973 15.3628 37.2387 15.7347C38.3544 17.2224 39.5233 18.6569 40.6391 20.0914C40.7453 20.2508 40.9047 20.4102 41.1173 20.729C41.1173 18.9757 41.1173 17.4349 41.1173 15.841C41.1173 15.5753 40.9579 15.3628 40.6391 15.4159C40.4797 15.4159 40.2672 15.469 40.3203 15.2034C40.3203 14.9909 40.5328 15.044 40.6391 15.044C41.2235 15.044 41.808 15.044 42.3924 15.044C42.4987 15.044 42.7112 14.9909 42.7643 15.2034C42.8706 15.469 42.7112 15.469 42.5518 15.469Z" fill="#757B82"/>
<path d="M28.2051 9.67774C28.0989 10.3153 27.9926 10.9529 27.9395 11.5905C27.8864 11.9624 27.6738 11.9092 27.4613 11.9092C26.3987 11.9092 25.2829 11.9092 24.2203 11.9092C23.1577 11.9092 22.0951 11.9092 21.0325 11.9092C20.8731 11.9092 20.6074 12.0155 20.6074 11.6967C20.6074 11.4311 20.8199 11.5373 20.9793 11.4842C21.4044 11.4311 21.5106 11.2185 21.5106 10.8466C21.5106 8.29634 21.5106 5.74605 21.5106 3.19577C21.5106 2.82385 21.4044 2.5582 20.9262 2.5582C20.7668 2.5582 20.6074 2.61133 20.6074 2.34567C20.6074 2.18628 20.7668 2.18628 20.8731 2.18628C23.0514 2.18628 25.2829 2.18628 27.4613 2.18628C27.6738 2.18628 27.8332 2.23941 27.7801 2.50506C27.727 2.98324 27.9926 3.51455 27.6207 3.83334C27.4613 4.04586 27.355 3.72708 27.355 3.51455C27.4082 3.03637 27.1425 2.93011 26.7706 2.93011C25.9736 2.93011 25.1236 2.93011 24.3266 2.93011C23.9015 2.93011 23.7421 3.08951 23.7421 3.51455C23.7421 4.36465 23.7953 5.26787 23.7421 6.11797C23.7421 6.54302 23.9015 6.59615 24.2203 6.59615C24.7516 6.54302 25.2829 6.59615 25.7611 6.59615C26.1862 6.59615 26.5581 6.59615 26.505 6.01171C26.505 5.85231 26.5581 5.74605 26.7175 5.74605C26.93 5.74605 26.93 5.90544 26.93 6.01171C26.93 6.70241 26.93 7.33998 26.93 8.03068C26.93 8.19007 26.9831 8.4026 26.7175 8.34947C26.505 8.34947 26.505 8.19007 26.505 8.03068C26.5581 7.33998 26.0799 7.33998 25.6017 7.33998C23.7953 7.39311 23.7953 7.39311 23.7953 9.25269C23.7953 11.3248 23.4765 11.006 25.6017 11.1123C26.7706 11.1654 27.5676 10.9529 27.6738 9.62461C27.6738 9.46522 27.727 9.19956 27.9926 9.25269C28.3645 9.30582 28.2051 9.51835 28.2051 9.67774Z" fill="#757B82"/>
<path d="M51.211 22.5886C51.1047 23.2262 50.9985 23.8638 50.8922 24.5013C50.8391 24.767 50.7328 24.8733 50.4672 24.8733C48.2888 24.8733 46.1636 24.8733 43.9852 24.8733C43.8258 24.8733 43.6133 24.9795 43.6133 24.7139C43.6133 24.4482 43.8258 24.5013 43.9852 24.5013C44.3571 24.4482 44.5165 24.2357 44.5165 23.8638C44.5165 21.2604 44.5165 18.7101 44.5165 16.1067C44.5165 15.7347 44.4102 15.5222 43.9852 15.5222C43.8258 15.5222 43.6133 15.5754 43.6664 15.3097C43.7195 15.0972 43.8789 15.1503 43.9852 15.1503C45.1009 15.1503 46.1636 15.1503 47.2793 15.1503C48.3419 15.1503 49.4045 15.1503 50.4672 15.1503C50.6266 15.1503 50.9453 15.044 50.9453 15.3628C50.8922 15.841 51.1579 16.4254 50.786 16.8505C50.5734 17.063 50.4672 16.7442 50.5203 16.5317C50.5734 16.0535 50.3078 15.8941 49.8827 15.9473C49.0858 15.9473 48.2888 15.9473 47.4918 15.9473C47.0137 15.9473 46.8543 16.1598 46.9074 16.5848C46.9074 16.9568 46.9074 17.2755 46.9074 17.6475C46.9074 19.879 47.0137 19.9852 49.2983 19.6664C49.6702 19.6133 49.7233 19.4008 49.7765 19.1351C49.7765 18.9757 49.7233 18.7632 49.989 18.8163C50.2015 18.8163 50.1484 19.0289 50.1484 19.1351C50.1484 19.7727 50.1484 20.4103 50.1484 21.0478C50.1484 21.2072 50.1484 21.3666 49.9359 21.3666C49.7765 21.3666 49.7233 21.2072 49.7233 21.101C49.7233 20.4634 49.3514 20.4103 48.8732 20.4103C46.8543 20.4103 46.8543 20.4103 46.8543 22.4292C46.8543 24.342 46.6417 24.0232 48.5013 24.1294C49.7233 24.1826 50.6266 24.0232 50.786 22.5886C50.786 22.4292 50.8922 22.2698 51.1047 22.323C51.3173 22.2698 51.2641 22.4292 51.211 22.5886Z" fill="#757B82"/>
<path d="M9.50296 2.50515C9.07791 2.55828 9.44983 1.97384 9.29044 1.76131C8.59974 0.804957 7.64338 1.49566 6.79328 1.33627C6.36824 1.23001 6.20884 1.54879 6.20884 1.97384C6.20884 3.4615 6.20884 4.89604 6.20884 6.38371C6.20884 7.81824 6.20884 9.19964 6.20884 10.6342C6.20884 11.0592 6.15571 11.4843 6.79328 11.4311C6.89955 11.4311 7.00581 11.4843 7.00581 11.5905C7.00581 11.7499 6.89955 11.8031 6.79328 11.8031C5.6244 11.8031 4.45552 11.8031 3.28664 11.8031C3.12725 11.8031 3.02099 11.7499 3.07412 11.5905C3.07412 11.5374 3.18038 11.4311 3.28664 11.4311C3.92421 11.4311 3.87108 11.0061 3.87108 10.581C3.87108 7.71198 3.87108 4.89604 3.87108 2.02697C3.87108 1.3894 3.65856 1.23 3.07412 1.23C2.7022 1.28314 2.27715 1.28314 1.90524 1.23C1.1614 1.17687 0.630096 1.28314 0.789488 2.18636C0.789488 2.29262 0.789488 2.45202 0.630096 2.45202C0.470703 2.45202 0.470703 2.29262 0.470703 2.18636C0.470703 1.70818 0.470703 1.28314 0.470703 0.804958C0.470703 0.37991 0.736358 0.486172 1.00201 0.486172C3.76482 0.486172 6.52763 0.486172 9.29044 0.486172C9.71549 0.486172 9.87488 0.592434 9.82175 1.01748C9.76862 1.23001 9.87488 1.44253 9.82175 1.65505C9.66235 1.97384 9.92801 2.50515 9.50296 2.50515Z" fill="#757B82"/>
<path d="M19.174 15.469C18.6427 15.469 18.5896 15.841 18.5896 16.266C18.5364 18.3381 18.8021 20.4102 18.4833 22.4823C18.2177 24.1294 16.5175 25.192 14.6048 24.9795C12.5858 24.7669 11.3638 23.5981 11.3638 21.7385C11.3638 19.8789 11.3638 18.0193 11.3638 16.2129C11.3638 15.7878 11.3106 15.4159 10.7262 15.4159C10.5668 15.4159 10.5137 15.3628 10.5137 15.2034C10.5137 14.9909 10.6731 15.044 10.7793 15.044C11.9482 15.044 13.1171 15.044 14.286 15.044C14.3922 15.044 14.5516 15.044 14.5516 15.2034C14.5516 15.3628 14.4454 15.4159 14.3391 15.4159C13.8078 15.4159 13.7547 15.7878 13.7547 16.2129C13.7547 18.0725 13.7547 19.932 13.7547 21.7385C13.7547 23.0668 14.6579 24.0231 15.8268 23.97C16.9956 23.97 17.7926 23.0136 17.7926 21.6854V19.0819C17.7926 18.2318 17.7926 17.3818 17.7926 16.5317C17.7926 16.0535 18.0051 15.4159 17.155 15.4159C17.1019 15.4159 17.0488 15.3096 17.0488 15.2565C17.0488 15.1503 17.1019 15.0971 17.2082 15.0971C17.8989 15.0971 18.5896 15.0971 19.2803 15.0971C19.3334 15.0971 19.4928 15.2034 19.4928 15.2565C19.3865 15.4159 19.2803 15.469 19.174 15.469Z" fill="#757B82"/>
<path d="M67.894 22.5887C67.5752 23.9701 66.3 24.9264 64.7061 24.9796C64.5467 24.9796 64.3873 24.9796 64.2279 24.9796C63.4841 25.0327 62.7934 24.8733 62.1027 24.6077C61.3057 24.342 60.7213 23.9701 61.0932 22.9606C61.2526 22.5887 61.0401 21.8448 61.4651 21.7917C61.7839 21.7386 61.6776 22.4293 61.837 22.7481C62.3683 23.9701 64.1217 24.5545 65.2374 23.917C66.1406 23.3856 66.1406 22.323 65.2374 21.6855C64.4404 21.101 63.5372 20.6228 62.6871 20.1447C61.3588 19.3477 60.8275 18.2851 61.0932 17.0099C61.3588 15.8942 62.3152 15.1503 63.7497 14.9378C64.5998 14.8316 65.3968 14.991 66.1938 15.2566C67.1501 15.5754 67.3095 16.213 67.0439 17.0631C66.9907 17.1693 66.9376 17.2756 66.8845 17.2756C66.7251 17.3287 66.7251 17.1693 66.6719 17.0631C66.1406 15.8942 65.2374 15.4691 64.0685 15.7348C63.5372 15.8411 63.1122 16.1067 63.059 16.6911C63.0059 17.2225 63.2184 17.7006 63.7497 17.9663C64.5467 18.3913 65.3437 18.8695 66.1938 19.3477C67.5752 20.1447 68.2127 21.3135 67.894 22.5887Z" fill="#757B82"/>
<path d="M59.66 22.6418C59.2881 23.9701 58.0661 24.8733 56.4721 24.9264C56.3127 24.9264 56.1533 24.9264 55.9939 24.9264V24.9796C55.5689 24.9264 55.197 24.8733 54.7719 24.8202C52.8592 24.4482 52.4342 23.7575 53.0186 21.9511C53.0717 21.8448 53.0717 21.6854 53.2311 21.6854C53.4968 21.6854 53.4437 21.898 53.4437 22.0574C53.7093 23.5982 54.9845 24.3951 56.4721 24.0763C57.1097 23.9169 57.5347 23.5982 57.641 22.9606C57.7473 22.3761 57.4285 21.898 56.8972 21.5792C56.1002 21.101 55.2501 20.5697 54.4531 20.0915C53.1249 19.2946 52.5936 18.2851 52.8592 17.0631C53.1249 15.8942 54.0812 15.0972 55.5158 14.9378C56.419 14.8316 57.216 14.9909 58.0661 15.3097C59.0755 15.6285 59.0224 16.3192 58.8099 17.1162C58.8099 17.1693 58.7036 17.2756 58.6505 17.3287C58.4911 17.3818 58.4911 17.2224 58.438 17.0631C57.9598 15.9473 56.844 15.416 55.6752 15.7879C55.197 15.9473 54.8251 16.213 54.8251 16.7443C54.7719 17.2756 54.9313 17.7006 55.4626 17.9663C56.3127 18.3913 57.1097 18.9226 57.9598 19.4008C59.3943 20.1978 60.0319 21.3667 59.66 22.6418Z" fill="#757B82"/>
<path d="M27.5677 22.5355C27.4083 23.6512 26.3988 24.5544 25.1768 24.8201C24.7517 24.9263 24.3267 24.9263 23.9016 24.9795C23.4766 24.9263 23.0515 24.8732 22.6265 24.8201C20.82 24.5013 20.3418 23.6512 20.9794 21.951C21.0325 21.8448 21.0325 21.6854 21.1919 21.7385C21.4045 21.7385 21.3513 21.951 21.3513 22.0573C21.617 23.5981 22.8921 24.4482 24.3798 24.1294C24.9642 23.97 25.4424 23.7043 25.5487 23.1199C25.7081 22.4292 25.3893 21.951 24.8048 21.6322C24.0079 21.154 23.2109 20.6759 22.414 20.1977C20.9794 19.3476 20.5012 18.3912 20.82 17.063C21.0857 15.841 22.0952 15.0971 23.636 14.9909C24.4861 14.9377 25.283 15.1503 26.08 15.4159C27.0363 15.7347 26.9832 16.3723 26.7707 17.1161C26.7707 17.2224 26.6113 17.2755 26.5582 17.3818C26.505 17.2755 26.3988 17.2224 26.3456 17.1161C25.8675 16.0003 24.6455 15.469 23.5297 15.8941C23.1047 16.0535 22.7859 16.3723 22.7859 16.8504C22.7859 17.3286 22.9453 17.7005 23.4234 17.9662C24.3267 18.4975 25.283 19.0288 26.1862 19.5601C27.2489 20.1446 27.7802 21.2072 27.5677 22.5355Z" fill="#757B82"/>
<path d="M17.5274 29.9738C16.9961 30.0269 17.368 29.3894 17.2086 29.1237C17.1024 28.8581 16.943 28.8049 16.6773 28.8049C14.7115 28.6987 14.7115 28.6987 14.7115 30.6114C14.7115 32.5772 14.7115 34.5431 14.7115 36.5089C14.7115 36.934 14.7646 37.3059 15.2959 37.3059C15.5085 37.3059 15.5616 37.4121 15.5616 37.5715C15.5616 37.8372 15.3491 37.7309 15.2428 37.7309C14.127 37.7309 13.0113 37.7309 11.8955 37.7309C11.7362 37.7309 11.5768 37.7841 11.5768 37.5715C11.5768 37.4121 11.6299 37.3059 11.8424 37.3059C12.3737 37.3059 12.4269 36.9871 12.4269 36.6152C12.4269 34.2243 12.4269 31.8865 12.4269 29.4956C12.4269 28.9643 12.2143 28.6987 11.683 28.7518C11.3642 28.8049 10.9923 28.8049 10.6735 28.7518C10.0891 28.6987 9.82344 28.9643 9.87657 29.5488C9.87657 29.7082 10.036 29.9738 9.71718 29.9738C9.34526 29.9738 9.50466 29.7082 9.50466 29.4956C9.45153 27.9548 9.45153 27.9548 10.9923 27.9548H13.5957C14.7646 27.9548 15.9866 28.008 17.1555 27.9548C17.6868 27.9548 17.8462 28.1142 17.7399 28.5924C17.7399 28.6987 17.7399 28.7518 17.7399 28.8581C17.5806 29.2831 17.8993 29.9207 17.5274 29.9738Z" fill="#757B82"/>
<path d="M32.7741 24.6076C32.7741 24.8201 32.6147 24.8201 32.5085 24.8201H29.1081C28.9487 24.8201 28.7893 24.8201 28.8425 24.6076C28.8425 24.4482 28.9487 24.395 29.1081 24.395C29.5863 24.395 29.6394 24.0762 29.6394 23.7043C29.6394 21.154 29.6394 18.6038 29.6394 16.0535C29.6394 15.6816 29.5863 15.4159 29.1081 15.4159C28.9487 15.4159 28.8425 15.3628 28.8956 15.2034C28.8956 14.9909 29.055 15.044 29.1612 15.044C30.3301 15.044 31.499 15.044 32.6679 15.044C32.7741 15.044 32.9335 15.044 32.9335 15.2034C32.9335 15.3628 32.8804 15.4159 32.721 15.4159C32.1366 15.4159 32.0834 15.7878 32.0834 16.266C32.0834 17.488 32.0834 18.71 32.0834 19.932C32.0834 21.154 32.0834 22.3229 32.0834 23.5449C32.0834 23.97 32.1366 24.3419 32.6679 24.3419C32.6679 24.395 32.7741 24.4482 32.7741 24.6076Z" fill="#757B82"/>
</svg>
