<svg width="100" height="41" viewBox="0 0 100 41" fill="none" xmlns="http://www.w3.org/2000/svg">
<path d="M29.614 38.0886C29.5335 37.8471 29.5737 37.5654 29.5737 37.2702C29.5603 36.0896 29.5737 34.8955 29.5603 33.7149C29.5469 32.9367 29.1578 32.3866 28.4199 32.1451C28.0174 32.011 27.6015 31.9707 27.1588 32.011C26.1928 32.1049 25.4415 32.5879 24.7572 33.3258C24.3816 32.1988 23.5095 31.9842 22.5167 32.011C21.5373 32.0378 20.7726 32.5611 20.0749 33.2319C19.9005 32.8428 19.9407 32.4671 19.5919 32.1988H15.8756V34.0905C16.1037 34.2515 16.4525 34.1308 16.6671 34.5198C16.6537 35.7005 16.7208 36.975 16.5866 38.2496C16.3854 38.4374 16.1573 38.3703 15.9695 38.4106C15.8756 38.4106 15.7817 38.424 15.6877 38.424C14.9901 38.3301 14.9364 38.2764 14.923 37.6056C14.923 36.1298 14.923 34.654 14.923 33.1782C14.923 32.8562 14.9901 32.494 14.6547 32.2256H10.7908V34.1442C10.9383 34.171 11.0457 34.1844 11.153 34.1979C11.2872 34.2247 11.4079 34.2918 11.4884 34.3991C11.6628 35.3517 11.5957 37.8605 11.3945 38.2764C11.2469 38.4508 10.992 38.3301 10.8042 38.5045C10.7773 39.068 10.7505 39.6717 10.831 40.2755H15.6877C15.7817 40.2755 15.889 40.2755 15.9829 40.2889C17.5392 40.2889 19.1089 40.2889 20.6786 40.2889C20.8933 40.2755 20.9738 40.195 20.7994 40.0206C20.7189 39.4973 20.8665 38.9607 20.7189 38.4643C20.5042 38.3167 20.2761 38.4643 20.0883 38.2899V34.5735C20.5445 34.5198 20.9604 34.4393 21.4434 34.7613V40.2486H25.4951V38.4374C25.267 38.3301 25.0524 38.4643 24.878 38.3033V34.5467C25.3341 34.5333 25.75 34.3991 26.2062 34.7882V40.2486H30.1909V38.4508C29.9896 38.3838 29.7481 38.3435 29.614 38.0886Z" fill="#757B82"/>
<path d="M0.486493 25.7857C2.51237 25.7857 4.49799 25.7991 6.48362 25.7857C7.1276 25.7857 7.77159 25.6381 8.37533 25.4101C9.67672 24.9405 10.361 24.0416 10.361 22.7805C10.3744 21.4791 9.87796 20.8351 8.45583 20.2984C8.45583 20.2045 8.44241 20.1106 8.44241 20.0167C9.11323 19.7349 9.71697 19.3727 9.94505 18.608C10.3341 17.32 9.79747 16.1125 8.56316 15.5624C7.77159 15.2002 6.93978 15.0794 6.08113 15.0794C4.337 15.066 2.59287 15.066 0.848735 15.0794C0.701155 15.0794 0.526742 15.0258 0.432828 15.1599V16.9712C0.687739 17.1322 1.02315 16.9712 1.23781 17.3602V23.5854C1.0634 24.0013 0.674322 23.8806 0.392578 24.0013C0.473076 24.6051 0.338913 25.1954 0.486493 25.7857ZM6.56412 23.3842C6.13479 23.9611 5.51764 23.8269 4.88707 23.7867V21.2778C5.50422 21.2242 6.10796 21.1437 6.56412 21.6535C6.84586 22.0023 6.84586 23.0085 6.56412 23.3842ZM4.87365 17.1322C5.43714 17.0517 6.00063 16.9577 6.3897 17.481C6.68486 17.8835 6.69828 18.3799 6.4702 18.8226C6.14821 19.4666 5.51764 19.3727 4.86024 19.3593V17.1322H4.87365Z" fill="#757B82"/>
<path d="M0.472656 33.5401H2.59245C2.67294 32.8827 2.76686 32.2521 2.84736 31.5947C3.14252 31.6081 3.38401 31.5142 3.61209 31.6484C3.73284 31.863 3.67917 32.0911 3.67917 32.3192C3.67917 33.9694 3.67917 35.6331 3.67917 37.2833C3.67917 38.2627 3.67917 38.2627 2.78028 38.4907V40.2617H8.18708C8.21391 39.6311 8.24075 39.0274 8.17366 38.4371C7.94558 38.4102 7.75776 38.3834 7.54309 38.3432C7.24793 37.8602 7.1406 32.5205 7.3821 31.5947C7.61017 31.5947 7.85167 31.5411 8.12 31.6618C8.21391 32.2924 8.29441 32.9229 8.37491 33.5401H10.4545V29.5688H0.472656V33.5401Z" fill="#757B82"/>
<path d="M42.6677 25.772V23.9206C42.453 23.9071 42.2652 23.8669 42.131 23.6522C42.0237 23.451 42.0908 23.1961 42.0773 22.9546C42.0371 21.6666 42.1444 20.3652 42.0237 19.0638C41.9432 18.232 41.4334 17.7222 40.6284 17.588C39.5148 17.3868 38.5086 17.6417 37.5963 18.3125C37.4487 18.4198 37.3414 18.6345 37.0999 18.6077C36.9255 18.3259 37.006 17.9234 36.6303 17.7222H32.9676C32.914 18.393 32.914 19.0236 32.9676 19.6139C33.2091 19.7481 33.4506 19.6407 33.6787 19.9225V23.7059C33.5177 23.9474 33.2762 23.9071 33.0615 23.9206H32.753C32.5651 23.8803 32.3505 23.9608 32.2163 23.8132C31.9748 23.5583 32.0419 23.2766 32.0419 23.0217C32.0419 21.5861 32.0419 20.164 32.0285 18.7418C32.0285 18.4064 32.0553 18.071 31.787 17.749H27.8828V19.6407C28.1377 19.7481 28.4195 19.681 28.5805 19.9359C28.7415 20.8348 28.6878 23.3839 28.4865 23.7998C28.3256 23.9742 28.0841 23.8401 27.9231 23.9876V25.7854H32.7798H33.0615H37.9988V23.9742C37.7036 23.8266 37.4219 24.0011 37.1804 23.8401V20.1103C37.6902 20.003 38.1463 19.9627 38.6293 20.2445C38.8574 21.1165 38.7098 22.0288 38.7367 22.9412C38.7635 23.8803 38.7367 24.806 38.7367 25.7586H42.6677V25.772Z" fill="#757B82"/>
<path d="M16.077 24.8465C16.1575 25.1685 16.1977 25.5039 16.5197 25.799C17.593 25.799 18.7334 25.799 19.8738 25.799C20.0616 25.799 20.169 25.7185 20.169 25.5307C20.2629 25.5173 20.3434 25.5173 20.4239 25.5039C22.168 26.0003 23.939 26.1613 25.6965 25.6783C27.0918 25.2892 27.6553 24.3501 27.5614 22.7535C27.4943 21.4789 26.8906 20.8484 25.455 20.5666C24.9318 20.4593 24.3951 20.4056 23.8719 20.3117C23.6036 20.2581 23.3218 20.2178 23.3486 19.8421C23.9658 19.3055 24.5695 19.3726 25.6428 20.0702C26.1527 20.0434 26.6893 20.1239 27.226 20.0166V17.9102C25.6294 17.5345 24.0463 17.3333 22.4497 17.7224C20.9874 18.0712 20.3031 19.0103 20.3568 20.4861C20.4105 21.8546 21.1081 22.5657 22.6107 22.8608C23.1876 22.9816 23.8182 22.9011 24.3549 23.2231C24.5025 23.5048 24.4488 23.7463 24.1805 23.8402C23.3621 24.1086 22.651 23.9073 22.1143 23.2633H20.397C20.3836 23.4914 20.3702 23.6927 20.3568 23.8939C20.2763 23.9073 20.1824 23.9207 20.1019 23.9341C19.8872 23.9073 19.6457 23.9341 19.4311 23.5719V17.7358H15.2317C15.2317 18.4066 15.1781 19.0237 15.2586 19.6141C15.5135 19.7751 15.7952 19.6007 15.9831 19.7885V23.478C15.433 23.478 14.9097 23.6524 14.4536 23.0755V17.7224H10.375V19.6007C10.5762 19.7482 10.858 19.6812 10.9787 19.9092C11.0861 20.1373 11.0592 20.3788 11.0592 20.6337C11.0592 21.7741 11.0458 22.9145 11.0727 24.0549C11.0995 25.1148 11.6496 25.7588 12.6558 25.8929C13.7157 26.0271 14.6951 25.8393 15.5537 25.155C15.7281 25.0611 15.8489 24.8733 16.077 24.8465Z" fill="#757B82"/>
<path d="M84.7147 9.17623C84.7147 9.16282 84.6879 9.12257 84.6879 9.08232C84.6879 7.78093 84.6744 6.49296 84.6744 5.19157C84.661 3.72918 84.0036 3.07178 82.5412 3.07178C81.8302 3.07178 81.1728 3.23277 80.569 3.60843C80.2873 3.78285 80.0324 3.98409 79.7104 4.21217C79.5494 3.87676 79.603 3.44744 79.2676 3.27302H75.5781V5.16473C75.7794 5.33915 76.0611 5.17815 76.155 5.33915C76.3831 5.58064 76.3563 5.80872 76.3563 6.02338C76.3563 6.89545 76.3294 7.76751 76.3563 8.63958C76.3831 9.18965 76.2087 9.51164 75.5915 9.47139V11.3094H80.6093C80.6093 10.6655 80.6629 10.0751 80.569 9.47139C80.2739 9.45798 80.0055 9.43114 79.7238 9.41773V5.70139C80.1934 5.51356 80.6495 5.55381 81.0923 5.74164C81.1325 5.80872 81.1996 5.84897 81.213 5.91605C81.4545 7.70043 81.1996 9.51164 81.3472 11.3229H85.2513C85.3453 10.7057 85.2916 10.1422 85.2916 9.51164C85.0903 9.41773 84.8354 9.43115 84.7147 9.17623Z" fill="#757B82"/>
<path d="M50.0463 6.60001C49.3889 6.60001 48.7583 6.69392 48.168 7.01592C47.3094 7.48549 46.9203 8.34414 47.041 9.47112C47.1484 10.4103 47.6985 11.0811 48.6242 11.3226C49.7243 11.6177 50.744 11.4433 51.6697 10.7725C51.6965 10.6786 51.7502 10.6249 51.8709 10.6115C51.8978 10.6518 51.9246 10.7054 51.9514 10.7591C52.4613 11.4165 53.1858 11.4702 53.9237 11.5104L54.3396 11.4702C54.7823 11.336 55.2653 11.3226 55.641 11.0006V9.48453C55.158 9.32353 55.158 9.32354 55.0506 8.90763L55.0909 8.88079L55.0506 8.92104C55.0372 8.23681 55.0238 7.53916 55.0104 6.85492C54.997 6.00969 55.0775 5.15104 54.7421 4.34606C54.7555 4.13139 54.7555 3.93015 54.4469 3.94356C54.3798 3.93015 54.3396 3.90331 54.3261 3.83623C54.3396 3.52766 54.1383 3.52766 53.9237 3.54107C51.8173 2.73609 49.7243 3.0715 47.6045 3.60815C47.5911 4.41314 47.5509 5.16445 47.618 5.92919H48.9864C49.4828 5.56695 50.0195 5.37912 50.6232 5.40595C51.4819 5.43278 51.7368 5.75478 51.5892 6.61343C51.066 6.60001 50.5561 6.60001 50.0463 6.60001ZM51.6429 8.08923V9.28329C51.2404 9.57845 50.8111 9.71261 50.4086 9.3772C50.1 9.12229 50.1 8.73321 50.2878 8.3978C50.5964 7.8209 51.1196 8.07581 51.6429 8.08923Z" fill="#757B82"/>
<path d="M69.5667 3.2192C66.32 3.91685 65.6894 7.20387 66.709 9.22974C67.5543 10.9068 69.0837 11.4166 70.8144 11.4837C71.123 11.4569 71.4182 11.4569 71.6999 11.4166C73.2562 11.1751 74.5174 10.4775 75.0943 8.948C75.6846 7.40511 75.537 5.87564 74.4503 4.58767C73.1623 3.07162 71.4182 2.81671 69.5667 3.2192ZM71.7402 8.85408C71.5926 9.22974 71.2974 9.45782 70.8547 9.45782C70.4254 9.45782 70.1436 9.22974 69.9558 8.8675C69.7143 8.39793 69.7277 7.87469 69.6875 7.37828C69.7277 6.88187 69.7143 6.38547 69.929 5.92931C70.1034 5.54023 70.3851 5.27191 70.8547 5.27191C71.3109 5.27191 71.6328 5.52682 71.767 5.92931C72.1293 6.89529 72.1293 7.8881 71.7402 8.85408Z" fill="#757B82"/>
<path d="M24.5147 11.3497C25.9771 11.618 27.4529 11.5241 28.8751 11.0545C29.13 10.974 29.3849 10.8935 29.5861 10.6654C29.5593 10.0483 29.6532 9.43113 29.5325 8.78715H27.8152C27.2383 9.4848 26.4333 9.60554 25.6015 9.33722C25.0246 9.14939 24.9038 8.59932 24.8636 7.98216H29.8947C29.8947 7.43209 29.935 6.98935 29.8947 6.54661C29.7874 5.35255 29.4788 4.18532 28.3116 3.62184C26.5809 2.76319 24.7831 2.76319 23.1463 3.8365C21.5631 4.85614 21.2948 6.49294 21.5363 8.22366C21.7778 10.0483 22.7169 11.0143 24.5147 11.3497ZM25.91 4.99031C26.4735 5.03056 26.7419 5.4733 26.7016 6.38561C26.1113 6.47953 25.521 6.41244 24.8904 6.43928C24.9709 5.3928 25.2929 4.96347 25.91 4.99031Z" fill="#757B82"/>
<path d="M35.302 32.0241C33.0883 31.8362 30.9014 32.6412 30.3782 35.2172C30.2037 36.049 30.2306 36.9076 30.4452 37.7395C30.7404 38.9201 31.4515 39.7519 32.6053 40.1007C34.5507 40.6911 36.4692 40.5166 38.4146 39.7251C38.3609 39.014 38.4548 38.37 38.3475 37.7395H36.6302C35.9728 38.4371 35.1946 38.5981 34.3494 38.2493C33.8262 38.0346 33.6786 37.5382 33.7054 36.9076H38.6561C38.8036 35.9819 38.7231 35.1367 38.4817 34.3183C38.0121 32.762 36.818 32.1582 35.302 32.0241ZM33.7054 35.2977C33.7725 34.3317 34.0542 33.9292 34.6714 33.9426C35.2617 33.956 35.5166 34.3317 35.5435 35.2977H33.7054Z" fill="#757B82"/>
<path d="M50.851 25.2223V23.2769H49.1606C48.4361 23.9075 47.5909 24.1221 46.9335 23.8404C46.37 23.5989 46.209 23.1159 46.1821 22.4719H51.173C51.2938 21.3449 51.2133 20.3119 50.7705 19.3325C50.5425 18.8092 50.1668 18.4068 49.6704 18.0982C48.2617 17.2529 45.6992 17.3469 44.3709 18.3397C42.761 19.5471 42.5731 21.2242 42.8817 23.0354C43.1635 24.6051 44.1563 25.4906 45.6857 25.8126C46.7188 26.0273 47.7653 25.987 48.8118 25.8529C49.5497 25.7589 50.2473 25.5979 50.851 25.2223ZM47.1884 19.4667C47.7787 19.4667 48.0068 19.8289 48.0604 20.8754C47.4299 20.8754 46.8261 20.9559 46.2492 20.8351C46.2626 19.9094 46.5712 19.4667 47.1884 19.4667Z" fill="#757B82"/>
<path d="M64.2948 20.647C63.7313 20.5128 63.1544 20.4592 62.5775 20.3518C62.3092 20.2982 61.9738 20.2982 61.9067 19.9225C62.3763 19.3053 63.1008 19.3456 64.2009 20.0835C64.7241 20.0298 65.2876 20.164 65.8109 20.003V17.9369C64.5363 17.5612 63.2618 17.4673 61.9604 17.5612C61.303 17.6149 60.6724 17.7356 60.1089 18.071C59.0893 18.6748 58.8209 19.6139 58.9283 20.7141C59.0222 21.7337 59.5857 22.3911 60.5651 22.6997C61.0749 22.8607 61.6115 22.9144 62.1348 22.9814C62.4836 23.0217 62.9263 22.9814 63.0068 23.5047C62.4434 24.1889 61.5713 24.095 60.6187 23.2363C60.0687 23.2632 59.4917 23.1559 58.9417 23.29V25.4635C60.0418 25.9062 62.336 26.0806 63.5972 25.8525C64.0131 25.772 64.429 25.6781 64.8046 25.4769C65.7975 24.9671 66.2804 23.9206 66.1463 22.646C66.0121 21.5325 65.4889 20.9287 64.2948 20.647Z" fill="#757B82"/>
<path d="M56.6469 20.5936C56.1237 20.4862 55.587 20.4326 55.0638 20.3387C54.8089 20.2984 54.5137 20.2716 54.4466 19.9362C54.9296 19.3056 55.6139 19.3458 56.7408 20.0837C57.2641 20.0703 57.7873 20.1374 58.3508 20.0301V17.9103C56.714 17.5346 55.0906 17.3334 53.4404 17.7627C52.1122 18.0981 51.4145 19.0641 51.4548 20.4057C51.495 21.8145 52.1793 22.5792 53.6282 22.8475C53.9636 22.9146 54.2856 22.9414 54.621 22.9951C54.943 23.0488 55.2919 23.0488 55.5334 23.3305C55.6139 23.6793 55.426 23.8672 55.1309 23.9208C54.3795 24.055 53.7087 23.9208 53.2392 23.2768H51.5084V25.504C52.0451 25.7589 52.622 25.826 53.1989 25.8796C54.4735 26.0004 55.748 26.0943 56.9823 25.665C58.2569 25.2088 58.7935 24.2428 58.6728 22.6731C58.5789 21.5059 57.9617 20.8619 56.6469 20.5936Z" fill="#757B82"/>
<path d="M44.6672 35.2039C44.1842 35.0429 43.6744 34.9759 43.1646 34.8954C42.7487 34.8283 42.2657 34.8819 41.9437 34.5063C42.2657 33.7415 43.0841 33.7684 44.1574 34.4929H45.8613V32.4133C44.6136 32.0377 43.3658 31.9303 42.0913 32.0243C41.3936 32.0779 40.7228 32.1852 40.1057 32.5743C39.0994 33.1915 38.8579 34.144 38.9787 35.2308C39.0994 36.3175 39.7434 36.9615 40.7765 37.2164C41.2729 37.3371 41.7827 37.3774 42.2925 37.4713C42.5877 37.525 42.9365 37.525 43.0439 37.914C42.6145 38.6922 41.7961 38.6117 40.6557 37.7396H39.0324C38.8848 38.1153 38.9653 38.4775 38.9653 38.8264C38.9519 39.202 38.9653 39.5777 38.9653 39.9399C40.0922 40.4095 42.2523 40.5839 43.7013 40.3156C45.5259 39.9802 46.3443 38.9337 46.1833 37.1359C46.076 36.1565 45.593 35.4991 44.6672 35.2039Z" fill="#757B82"/>
<path d="M5.90604 11.2957C5.99995 11.2957 6.09387 11.2957 6.2012 11.2957C7.85142 11.403 9.48821 11.3091 11.1653 11.3493V9.52469C10.8969 9.35028 10.6018 9.52469 10.3469 9.37711V5.67419C11.0579 5.52661 11.1787 5.54003 11.8629 5.8486C11.9971 7.61957 11.8495 9.47103 11.9434 11.3091H15.8744V9.55152C15.7268 9.39053 15.4585 9.45761 15.3512 9.25636C15.2573 9.02829 15.2841 8.77337 15.2841 8.53188C15.2841 7.41832 15.2841 6.29134 15.2841 5.17778C15.2841 3.75565 14.5999 3.09824 13.1777 3.08483C12.4398 3.08483 11.7556 3.25924 11.1384 3.6349C10.8567 3.80931 10.6018 4.02397 10.3066 4.22522C10.1322 3.88981 10.1993 3.4739 9.82362 3.27266H6.14753V5.20462C6.37561 5.29853 6.65736 5.20462 6.89885 5.52661C6.96593 6.72067 6.96593 8.02206 6.84519 9.31003C6.61711 9.49786 6.40244 9.40394 6.2012 9.44419C6.09387 9.44419 5.97312 9.44419 5.86579 9.44419C5.66454 9.43078 5.4633 9.41736 5.31572 9.40394C4.96689 9.21611 4.98031 8.92096 4.98031 8.62579C4.98031 6.86825 4.98031 5.09728 4.98031 3.33974C4.98031 3.07141 4.98031 2.80308 5.27547 2.60184C5.44988 2.575 5.66454 2.53475 5.90604 2.49451V0.616211H0.472401V2.49451C0.727312 2.575 0.968808 2.49451 1.17005 2.6555C1.39813 2.8165 1.3713 3.07141 1.3713 3.3129C1.3713 5.09728 1.3713 6.88166 1.3713 8.66604C1.3713 8.93437 1.3713 9.2027 1.03589 9.39053C0.901726 9.48444 0.646814 9.32345 0.458984 9.48444V11.3359C2.29703 11.3091 4.10824 11.403 5.90604 11.2957Z" fill="#757B82"/>
<path d="M16.5592 5.36583C16.5592 5.71466 16.5458 6.09032 16.5592 6.47939C16.586 7.52587 16.4921 8.58577 16.6128 9.63224C16.7068 10.5311 17.2032 11.1215 18.0618 11.3495C19.1351 11.6313 20.2218 11.591 21.3086 11.2959C21.3354 10.6653 21.3891 10.075 21.2817 9.47125C21.0402 9.45783 20.8524 9.45783 20.6512 9.44442C20.2621 9.41758 19.9938 9.22975 19.9804 8.82726C19.9669 7.66004 19.9804 6.47939 19.9804 5.24509H21.322C21.2817 4.54743 21.3757 3.91686 21.2415 3.23263H20.0072C19.8194 2.52156 20.0474 1.81049 19.873 1.1665H16.5458V3.15213C16.2774 3.29971 16.0359 3.16555 15.781 3.33996C15.781 3.9437 15.7139 4.57427 15.8079 5.19142C16.0494 5.35242 16.3177 5.15117 16.5592 5.36583Z" fill="#757B82"/>
<path d="M99.2722 9.47126C99.0441 9.40418 98.8294 9.48468 98.5611 9.2566C98.4135 9.13585 98.494 8.8541 98.4806 8.58578C98.4806 6.23791 98.4806 3.89004 98.4806 1.54217C98.4806 1.20676 98.5343 0.857939 98.1586 0.603027H94.2947V2.52157C94.5898 2.5484 94.9118 2.50815 95.0997 2.92406C95.0728 5.0036 95.1667 7.17706 95.0594 9.27001C94.7508 9.48468 94.5362 9.43101 94.3484 9.45784C94.241 9.45784 94.1337 9.45784 94.0264 9.44443C93.5702 9.45784 93.4763 9.16268 93.4897 8.78702C93.4897 7.74055 93.5165 6.68065 93.4763 5.63417C93.4226 4.27912 92.7786 3.5278 91.4772 3.23264C90.3234 2.97773 89.1696 3.04481 88.0158 3.19239C87.3584 3.27289 86.6876 3.3668 86.0704 3.66196V5.9025C86.7278 5.92933 87.3316 6.00983 87.9487 5.63417C88.5793 5.25851 89.3038 5.21826 89.9612 5.66101C90.0954 5.983 90.1893 6.26474 90.0551 6.58674C89.827 6.70748 89.6124 6.61357 89.3977 6.61357C88.6866 6.60015 87.9621 6.57332 87.2645 6.76115C86.0302 7.09656 85.3728 8.06254 85.4801 9.39076C85.574 10.5312 86.4193 11.3361 87.667 11.4435C88.6732 11.5374 89.5721 11.3093 90.31 10.5982C90.9003 11.3093 91.2223 11.4569 92.1078 11.4837C92.7652 11.4971 93.3958 11.3898 93.9995 11.1215C94.0934 11.1483 94.1874 11.1617 94.2678 11.1886C94.3215 11.3093 94.4288 11.3361 94.5362 11.3361C96.0925 11.3361 97.6488 11.3361 99.2453 11.3361C99.3258 10.6787 99.3392 10.075 99.2722 9.47126ZM90.0819 9.3371C89.6124 9.57859 89.183 9.73959 88.8074 9.3371C88.5525 9.06877 88.5793 8.67969 88.7403 8.39795C89.0623 7.86129 89.5855 8.04912 90.0819 8.1162C90.1624 8.5187 90.149 8.90777 90.0819 9.3371Z" fill="#757B82"/>
<path d="M30.8204 5.473V9.17592C30.6058 9.51133 30.3106 9.35033 30.1228 9.55158C30.163 10.1151 30.0691 10.7188 30.1899 11.2957H35.0734C35.0734 10.6651 35.1271 10.0748 35.0466 9.51133C34.7783 9.3235 34.4831 9.53816 34.255 9.33692V5.98282C35.06 5.68766 35.9053 5.76816 36.7371 5.66083C36.7639 5.52666 36.7773 5.3925 36.7907 5.27175C36.9115 5.25834 37.0322 5.25834 37.1664 5.24492C37.3945 5.2315 37.6226 5.2315 37.8372 5.52666C37.8506 6.73414 37.8909 8.03553 37.7567 9.3235C37.5286 9.49791 37.2737 9.35033 37.0993 9.53816C37.0725 10.1151 37.0322 10.7054 37.1396 11.2957H42.0768V9.4845C41.795 9.36375 41.4999 9.52475 41.2316 9.35033V5.68766C41.7816 5.54008 42.2915 5.48642 42.8013 5.94257V11.3091H46.7725V9.49792C46.6115 9.41742 46.3432 9.44425 46.1956 9.09542C46.142 8.96126 46.1822 8.69293 46.1822 8.4246C46.1822 7.28421 46.1956 6.14382 46.1822 5.00343C46.1554 3.76912 45.5516 3.16538 44.3307 3.08488C43.3245 3.0178 42.439 3.29954 41.6475 3.9167C41.5133 4.02403 41.4194 4.19844 41.2316 4.18503C41.084 3.88987 41.1376 3.50079 40.7352 3.23246H37.1396C37.0188 3.24588 36.8981 3.24588 36.7773 3.24588C35.704 2.8568 34.9661 3.46054 34.2685 4.15819C34.094 3.84962 34.1343 3.50079 33.8123 3.2593H30.1094V5.19125C30.3643 5.29859 30.6192 5.19126 30.8204 5.473Z" fill="#757B82"/>
<path d="M65.5161 9.22976C65.4222 9.02851 65.449 8.7736 65.449 8.5321C65.449 7.12338 65.449 5.72808 65.449 4.31936C65.449 3.97053 65.4759 3.60829 65.2075 3.31313C64.9124 3.1253 64.577 3.29971 64.2818 3.19238C63.9196 3.25946 63.5573 3.25946 63.1951 3.19238C62.6584 3.24605 62.1218 3.24605 61.5985 3.19238C61.3302 3.23263 61.2497 3.39363 61.2631 3.66196C61.2631 3.76929 61.2631 3.87662 61.2631 3.98395C61.2631 4.11811 61.2631 4.23886 61.2631 4.35961C61.2631 4.6011 61.2631 4.8426 61.2631 5.07068C61.4241 5.36584 61.7327 5.16459 61.9608 5.339C62.1486 6.65381 62.0681 7.98203 62.001 9.31026C61.7595 9.48467 61.5583 9.431 61.357 9.44442C61.3436 10.0616 61.3436 10.6787 61.3302 11.2959C62.9402 11.3898 64.5501 11.3227 66.1869 11.3495C66.2004 10.6519 66.254 10.0616 66.1601 9.48467C65.9186 9.40417 65.6771 9.47125 65.5161 9.22976Z" fill="#757B82"/>
<path d="M48.0078 40.2215H52.4352C52.9585 38.6517 53.0524 37.0015 53.4146 35.3379H48.8665C48.5713 36.9881 48.303 38.5712 48.0078 40.2215Z" fill="#757B82"/>
<path d="M11.6883 30.3742C11.6615 31.2463 12.2787 31.8366 13.2178 31.85C14.1704 31.8635 14.8009 31.3134 14.8144 30.4413C14.8278 29.5692 14.2106 28.9655 13.2849 28.9521C12.3726 28.9118 11.7018 29.5156 11.6883 30.3742Z" fill="#757B82"/>
<path d="M31.895 15.9648C31.9085 15.1062 31.2779 14.5024 30.3522 14.489C29.3728 14.4756 28.7422 15.0525 28.7422 15.9514C28.7422 16.7832 29.3728 17.3467 30.2717 17.3601C31.2242 17.3735 31.8816 16.81 31.895 15.9648Z" fill="#757B82"/>
<path d="M63.1956 2.87041C63.5578 3.1119 63.9066 3.1119 64.2689 2.87041C65.1544 2.40083 65.4495 1.89101 65.2751 1.13969C65.1275 0.482289 64.6445 0.079797 63.9603 0.012715C63.0614 -0.0677833 62.565 0.227377 62.2028 1.08603C62.1223 1.20677 62.0954 1.35435 62.1357 1.50193C62.243 2.15934 62.5784 2.62891 63.1956 2.87041Z" fill="#757B82"/>
<path d="M56.2984 5.40606C56.3119 5.91588 56.3253 6.4257 56.3387 6.93553C56.3789 8.03567 56.2314 9.14923 56.4863 10.236C56.4997 10.3433 56.5534 10.4238 56.6204 10.5043C57.0766 11.1214 57.7072 11.3898 58.4585 11.4703C59.3306 11.5642 60.2026 11.5373 61.0479 11.2959C61.0344 10.6921 61.0344 10.075 61.021 9.45781C60.86 9.45781 60.7124 9.44439 60.5514 9.44439C59.9075 9.40414 59.7196 9.21631 59.7062 8.57233C59.6928 7.49902 59.7062 6.43912 59.7062 5.35239C60.1087 5.12432 60.5514 5.32556 61.021 5.20481C61.1149 4.57424 61.0344 3.91684 61.0479 3.25944C60.699 3.23261 60.3368 3.20577 59.988 3.19236L59.733 2.97769C59.6391 2.37396 59.8001 1.74339 59.6391 1.13965H56.285V2.96428C56.218 3.09844 56.057 3.11186 55.9362 3.17894C55.8155 3.20577 55.6813 3.23261 55.5605 3.25944V5.21823C55.7618 5.23165 55.9094 5.24506 56.0704 5.25848C56.124 5.36581 56.1911 5.40606 56.2984 5.40606Z" fill="#757B82"/>
</svg>
