<svg width="40" height="40" viewBox="0 0 40 40" fill="none" xmlns="http://www.w3.org/2000/svg">
<path d="M19.9993 3.33337C15.4043 3.33337 11.666 7.07171 11.666 11.6667V15H9.99935C8.16102 15 6.66602 16.495 6.66602 18.3334V33.3334C6.66602 35.1717 8.16102 36.6667 9.99935 36.6667H29.9993C31.8377 36.6667 33.3327 35.1717 33.3327 33.3334V18.3334C33.3327 16.495 31.8377 15 29.9993 15H28.3327V11.6667C28.3327 7.07171 24.5943 3.33337 19.9993 3.33337ZM14.9993 11.6667C14.9993 8.91004 17.2427 6.66671 19.9993 6.66671C22.756 6.66671 24.9993 8.91004 24.9993 11.6667V15H14.9993V11.6667ZM30.0027 33.3334H21.666V29.5367C22.6577 28.9584 23.3327 27.895 23.3327 26.6667C23.3327 24.8284 21.8377 23.3334 19.9993 23.3334C18.161 23.3334 16.666 24.8284 16.666 26.6667C16.666 27.8934 17.341 28.9584 18.3327 29.5367V33.3334H9.99935V18.3334H29.9993L30.0027 33.3334Z" fill="white"/>
</svg>
