<svg width="77" height="75" viewBox="0 0 77 75" fill="none" xmlns="http://www.w3.org/2000/svg">
<path d="M37.6144 0.955132C37.1131 1.17612 34.887 3.29901 28.1495 10.0519L19.3477 18.8384L21.0725 19.3989L22.7973 19.9441L23.682 19.074L24.5667 18.1893L26.3362 19.9433L28.1056 21.7128L39.9736 25.6051L51.8417 29.4975L55.2327 26.1364L58.6238 22.76L66.0397 30.1759L73.4402 37.5771L70.0491 40.9682L66.6434 44.3585L65.6116 47.5132C65.051 49.2526 64.609 50.7272 64.6237 50.8011C64.6529 50.875 67.13 48.4572 70.1376 45.435C75.2096 40.3483 75.637 39.8771 75.9319 39.0809C76.3007 38.0637 76.33 37.2529 76.0058 36.1618C75.7848 35.3803 75.3713 34.9529 58.8009 18.3525C45.0741 4.61186 41.6692 1.2793 41.0794 0.999794C40.1061 0.542412 38.5876 0.513149 37.6144 0.955132ZM39.4577 8.44492C40.2686 8.82838 46.5194 15.1239 46.829 15.8608C47.0946 16.5245 47.1092 17.2761 46.8728 18.1015C46.6519 18.8684 43.9245 21.7136 42.9951 22.1709C42.2582 22.5244 41.0786 22.5544 40.297 22.2449C39.5602 21.9353 33.4117 15.8315 33.029 15.0207C32.6902 14.2985 32.6602 13.0749 32.9697 12.3373C33.2646 11.6443 36.0212 8.84301 36.7882 8.45955C37.5558 8.09072 38.6762 8.07609 39.4577 8.44492Z" fill="url(#paint0_linear_1301_2980)"/>
<path d="M16.7537 20.416C15.9429 20.6078 14.8664 21.3446 14.3798 22.0376C14.0995 22.4357 13.1855 25.0599 11.49 30.3082C10.134 34.5394 9.01367 38.0929 9.01367 38.1961C9.01367 38.3432 10.1633 38.3878 14.9843 38.3878C18.2722 38.3878 20.9548 38.3586 20.9548 38.3293C20.9548 38.3 20.1148 37.9897 19.0822 37.6509C17.372 37.0757 17.1364 36.9579 16.5019 36.3242C15.9714 35.7637 15.7797 35.4395 15.6472 34.8058C15.4701 34.0096 15.4701 33.9211 16.1339 31.8274C16.9154 29.3064 17.2989 28.6727 18.3453 28.1414C19.5249 27.5516 19.9523 27.6255 24.4784 29.1147C28.9605 30.6039 29.4764 30.8249 29.9477 31.4147C30.8909 32.609 30.9063 33.5522 30.0216 36.2649C29.6527 37.3853 29.3578 38.3139 29.3578 38.3439C29.3578 38.3732 32.0413 38.3878 35.3138 38.3878H41.2844L42.3308 35.13C43.3202 32.0484 43.3942 31.8859 43.7037 31.9891C44.7648 32.3133 63.3264 38.4025 63.3556 38.4317C63.3849 38.4463 62.397 41.6018 61.1588 45.4202C59.0059 52.1431 58.9181 52.3787 58.5932 52.3056L58.2544 52.217V57.4353C58.2544 60.3105 58.2105 63.1995 58.1658 63.834C58.0919 64.6448 58.1212 64.9544 58.2251 64.8512C58.3137 64.7626 60.1563 59.1901 62.3385 52.4673C66.2455 40.3783 66.2893 40.2158 66.2893 38.9776C66.2893 37.8866 66.2455 37.6363 65.8913 37.0465C65.3754 36.1618 64.5053 35.3956 63.6944 35.0861C63.3402 34.9536 53.0061 31.5625 40.7392 27.5524C26.2909 22.82 18.2414 20.2543 17.8879 20.2697C17.5938 20.2836 17.0779 20.3421 16.7537 20.416Z" fill="url(#paint1_linear_1301_2980)"/>
<path d="M57.4734 26.1218L56.3384 27.2568L59.1104 30.0141L61.8677 32.7561L63.2684 33.2135C65.4944 33.9357 66.6741 34.8944 67.4849 36.6046C67.6913 37.0319 67.8976 37.7395 67.9423 38.1823C68.0008 38.7867 68.1194 39.0524 68.4582 39.3766L68.8855 39.7747L70.0205 38.6397L71.1555 37.5047L64.89 31.2392L58.6245 24.9737L57.4734 26.1218Z" fill="url(#paint2_linear_1301_2980)"/>
<path d="M43.9099 35.5127L43.394 37.0458L45.3252 37.6795L47.271 38.3132L50.5142 38.3871L53.7575 38.4611L54.7454 38.9331C55.7772 39.4197 56.6765 40.2159 57.2664 41.1445C57.5905 41.6458 57.7676 41.749 58.9765 42.1471C59.7134 42.3827 60.3325 42.5451 60.3625 42.5013C60.4803 42.3834 61.3797 39.5529 61.3212 39.4936C61.2627 39.4351 44.6176 33.965 44.4998 33.965C44.4551 33.965 44.1902 34.658 43.9099 35.5127Z" fill="url(#paint3_linear_1301_2980)"/>
<path d="M3.13073 40.4669C2.52628 40.7764 2.05427 41.1452 1.71547 41.6018C0.712932 42.8993 0.742192 42.2948 0.786852 57.5686L0.830742 71.3385L1.28812 72.1493C1.78939 73.0486 2.83582 73.9334 3.70592 74.1982C4.10401 74.3161 10.9886 74.3607 28.7987 74.3607H53.3309L54.0832 73.9773C54.9679 73.5499 55.808 72.6798 56.2061 71.7951C56.4717 71.2199 56.4863 70.5715 56.4863 57.3175C56.4863 41.5133 56.5749 42.5743 55.2482 41.2476C53.8922 39.8909 56.3393 40.0095 28.5484 40.0095H4.04472L3.13073 40.4669ZM53.2423 50.6247V57.9959H42.5532H31.8648V50.6247V43.2535H42.5532H53.2416V50.6247H53.2423ZM17.9178 46.6438C18.7879 46.8355 19.6426 47.5139 20.0553 48.3247C20.3795 48.9584 20.4388 49.2834 20.4827 50.9196C20.5859 54.0304 20.0992 55.2986 18.5515 56.0209C17.7992 56.3743 17.7407 56.3743 13.1554 56.3743C10.1185 56.3743 8.33439 56.3158 7.96556 56.2118C7.22867 55.9762 6.41786 55.3125 6.01977 54.5602C5.72486 53.985 5.6956 53.7347 5.6956 51.5087C5.6956 49.2533 5.72486 49.0316 6.0498 48.3686C6.41863 47.6017 7.09623 47.0119 7.93707 46.7023C8.60004 46.4667 16.9599 46.4082 17.9178 46.6438ZM13.8784 66.2518V67.8735H8.93961H4.00083V66.2518V64.6302H8.93961H13.8784V66.2518ZM27 66.2518V67.8735H22.0604H17.1216V66.2518V64.6302H22.0604H26.9992V66.2518H27ZM40.1208 66.2518V67.8735H35.182H30.2432V66.2518V64.6302H35.182H40.1208V66.2518ZM53.2423 66.2518V67.8735H48.3036H43.3648V66.2518V64.6302H48.3036H53.2423V66.2518Z" fill="url(#paint4_linear_1301_2980)"/>
<path d="M33.6341 46.4959V48.1183H42.6277H51.6205V46.4967V44.875H42.6269H33.6333V46.4959H33.6341Z" fill="url(#paint5_linear_1301_2980)"/>
<path d="M33.6341 54.7526V56.3743H42.6277H51.6205V54.7526V53.131H42.6269H33.6333V54.7526H33.6341Z" fill="url(#paint6_linear_1301_2980)"/>
<path d="M58.1959 47.6317C58.0635 48.4718 58.0927 49.2387 58.2406 49.0616C58.4323 48.8699 58.8597 47.3661 58.7565 47.219C58.5647 46.9094 58.2845 47.1304 58.1959 47.6317Z" fill="url(#paint7_linear_1301_2980)"/>
<defs>
<linearGradient id="paint0_linear_1301_2980" x1="47.7889" y1="50.8027" x2="47.7889" y2="0.639629" gradientUnits="userSpaceOnUse">
<stop stop-color="#0FEF52"/>
<stop offset="1" stop-color="#5157E1"/>
</linearGradient>
<linearGradient id="paint1_linear_1301_2980" x1="37.6515" y1="64.8704" x2="37.6515" y2="20.2697" gradientUnits="userSpaceOnUse">
<stop stop-color="#0FEF52"/>
<stop offset="1" stop-color="#5157E1"/>
</linearGradient>
<linearGradient id="paint2_linear_1301_2980" x1="63.7469" y1="39.7747" x2="63.7469" y2="24.9737" gradientUnits="userSpaceOnUse">
<stop stop-color="#0FEF52"/>
<stop offset="1" stop-color="#5157E1"/>
</linearGradient>
<linearGradient id="paint3_linear_1301_2980" x1="52.359" y1="42.5084" x2="52.359" y2="33.965" gradientUnits="userSpaceOnUse">
<stop stop-color="#0FEF52"/>
<stop offset="1" stop-color="#5157E1"/>
</linearGradient>
<linearGradient id="paint4_linear_1301_2980" x1="28.6288" y1="74.3607" x2="28.6288" y2="40.0069" gradientUnits="userSpaceOnUse">
<stop stop-color="#0FEF52"/>
<stop offset="1" stop-color="#5157E1"/>
</linearGradient>
<linearGradient id="paint5_linear_1301_2980" x1="42.6269" y1="48.1183" x2="42.6269" y2="44.875" gradientUnits="userSpaceOnUse">
<stop stop-color="#0FEF52"/>
<stop offset="1" stop-color="#5157E1"/>
</linearGradient>
<linearGradient id="paint6_linear_1301_2980" x1="42.6269" y1="56.3743" x2="42.6269" y2="53.131" gradientUnits="userSpaceOnUse">
<stop stop-color="#0FEF52"/>
<stop offset="1" stop-color="#5157E1"/>
</linearGradient>
<linearGradient id="paint7_linear_1301_2980" x1="58.4418" y1="49.0873" x2="58.4418" y2="47.0766" gradientUnits="userSpaceOnUse">
<stop stop-color="#0FEF52"/>
<stop offset="1" stop-color="#5157E1"/>
</linearGradient>
</defs>
</svg>
