<svg width="24" height="24" viewBox="0 0 24 24" fill="none" xmlns="http://www.w3.org/2000/svg">
<path d="M1.875 23.25C1.6875 23.25 1.5 23.175 1.35 23.025C1.05 22.725 1.05 22.275 1.35 21.975L21.975 1.35C22.275 1.05 22.725 1.05 23.025 1.35C23.325 1.65 23.325 2.1 23.025 2.4L2.4 23.025C2.25 23.175 2.0625 23.25 1.875 23.25Z" fill="black"/>
<path d="M22.5 23.25C22.3125 23.25 22.125 23.175 21.975 23.025L1.35 2.4C1.05 2.1 1.05 1.65 1.35 1.35C1.65 1.05 2.1 1.05 2.4 1.35L23.025 21.975C23.325 22.275 23.325 22.725 23.025 23.025C22.875 23.175 22.6875 23.25 22.5 23.25Z" fill="black"/>
</svg>
