<svg width="40" height="40" viewBox="0 0 40 40" fill="none" xmlns="http://www.w3.org/2000/svg">
<path d="M37.5 22.5V29.375C37.5 31.25 36.375 32.875 34.625 33.75L32.5 34.75L30.375 33.75C28.625 33 27.5 31.25 27.5 29.375V22.5H37.5ZM40 20H25V29.375C25 32.125 26.625 34.75 29.25 36L32.5 37.5L35.75 36C38.375 34.75 40 32.25 40 29.375V20Z" fill="white"/>
<path d="M20 31.25H9.375C4.25 31.25 0 27 0 21.875C0 17.25 3.375 13.5 7.75 12.625C8.875 6.75 14 2.5 20 2.5C26.875 2.5 32.5 8.125 32.5 15H30C30 9.5 25.5 5 20 5C14.875 5 10.625 8.875 10 13.875V15H8.875C5.25 15.25 2.5 18.25 2.5 21.875C2.5 25.625 5.625 28.75 9.375 28.75H20V31.25Z" fill="white"/>
</svg>
