<svg width="240" height="48" viewBox="0 0 240 48" fill="none" xmlns="http://www.w3.org/2000/svg">
<path d="M48.4113 21.0945C47.4217 11.8635 40.6043 3.73587 31.661 1.08793C30.1949 0.646607 28.6554 0.46274 27.1893 0.0949707H22.2412C20.7751 0.46274 19.2357 0.646607 17.7695 1.08793C8.7896 3.77264 2.04548 11.79 1.0192 21.0945C1.0192 21.2416 0.945889 21.352 0.909236 21.4991C0.909236 21.0946 0.909236 20.6901 0.909236 20.2487C0.872584 20.6165 0.835938 20.9842 0.835938 21.3152C0.835938 21.4623 0.835938 21.5727 0.835938 21.7198V26.2433C0.835938 26.3536 0.835929 26.464 0.872581 26.5744C0.909234 26.8318 0.909239 27.0892 0.945892 27.3834C0.945892 27.0892 0.945892 26.7582 0.945892 26.464C1.31242 28.4867 1.67895 30.5462 2.44866 32.4954C4.94105 38.821 9.26608 43.3814 15.5337 46.0293C17.8795 47.0223 20.3719 47.5371 22.9376 47.7578V47.7946C22.9376 47.8314 22.9376 47.8682 22.9376 47.905H26.5296C26.5296 47.8682 26.5296 47.7946 26.5296 47.7578C26.9694 47.721 27.4459 47.6475 27.8857 47.5739C30.6347 47.1326 33.3103 46.5074 35.7294 45.2202C43.8297 40.8806 48.5579 32.9368 48.5579 23.9264C48.5579 23.007 48.5213 22.0507 48.4113 21.0945ZM18.6126 18.6305C18.6126 16.9388 19.9321 15.578 21.6181 15.578C23.2675 15.578 24.6236 16.902 24.6603 18.557C24.6969 20.2487 23.3408 21.6095 21.6547 21.6095C19.9321 21.6095 18.6492 20.2855 18.6126 18.6305ZM9.26609 22.9334C9.04617 26.464 8.7896 30.0314 7.76332 33.4884C7.4701 34.4814 7.17687 35.4376 6.62708 36.4306C5.56415 34.9963 4.79444 33.4884 4.20799 31.907C-0.740141 18.7776 7.32349 4.50822 21.105 2.22805C27.959 1.08797 34.1534 2.81644 39.3947 7.52389C44.9293 12.4888 47.2751 18.7776 46.6886 26.1698C45.9189 35.4743 38.625 43.6388 29.3885 45.588C28.6921 45.7351 28.6188 45.4777 28.6188 44.926C28.4355 41.8735 29.5351 39.2256 31.0379 36.688C32.8339 33.6355 35.2163 31.0979 37.7453 28.5971C38.8083 27.5673 40.0178 26.5743 40.8242 25.3239C40.0545 25.7284 39.3947 26.3537 38.5517 26.6847C35.6928 28.1926 32.7239 29.2591 29.4618 29.2223C27.9224 29.2223 26.4929 28.7442 25.3567 27.6408C26.273 27.9718 27.1893 28.3029 28.1789 28.4132C31.551 28.7442 34.7398 27.9719 37.782 26.6847C37.9653 26.6111 38.1485 26.5376 38.3318 26.464C39.2848 26.0227 40.0911 25.2871 41.1174 24.9561C41.5572 24.4412 41.8505 23.8896 42.107 23.2644C42.95 21.1681 42.3636 19.366 40.311 17.9685C38.9915 17.0491 37.4888 16.4975 35.9494 16.0929C34.4466 15.6884 33.0171 15.0632 31.551 14.5483C31.2578 14.438 31.1112 14.2173 30.9279 13.9967C30.4881 13.0405 29.755 12.4152 28.7654 12.121C27.5925 11.7532 26.4196 11.8268 25.2467 12.121C24.6236 12.2681 24.0005 12.0475 23.4141 11.9371C20.7384 11.4222 18.3193 12.1945 15.8636 13.1875C11.4653 15.0263 9.52266 18.3363 9.26609 22.9334ZM35.9494 22.7863C35.9494 22.2347 36.3159 21.9037 36.8657 21.9037C37.4155 21.9037 37.7087 22.2347 37.782 22.8231C37.7087 23.338 37.4521 23.7425 36.8657 23.7425C36.2792 23.7425 35.9494 23.3747 35.9494 22.7863Z" fill="#7D7E81"/>
<path d="M239.665 26.9789C238.529 21.7565 233.837 19.0351 228.119 20.2487C223.868 21.1314 221.192 24.8459 221.155 29.443C221.155 29.7372 221.155 30.0682 221.192 30.3624C221.449 33.5988 222.401 36.4306 225.334 38.2326C230.978 41.7632 237.832 39.0417 239.665 32.6057C239.702 32.4954 239.812 32.3851 239.885 32.3115V27.2364C239.812 27.1628 239.702 27.0892 239.665 26.9789ZM234.79 33.9297C233.764 35.6215 232.261 36.4673 230.245 36.357C228.229 36.2099 226.91 35.0698 226.103 33.3046C225.114 31.0979 225.114 28.8178 225.993 26.5744C226.8 24.4781 228.596 23.2644 230.685 23.3012C232.701 23.3379 234.387 24.5516 235.23 26.6111C235.67 27.6408 235.78 28.7442 235.816 29.8475C235.78 31.2818 235.523 32.6793 234.79 33.9297Z" fill="#7D7E81"/>
<path d="M157.71 25.5446C155.144 25.5813 152.578 25.5446 150.013 25.5446C147.74 25.5078 147.74 25.5077 147.74 27.8982C147.74 28.7441 147.997 29.0751 148.84 29.0015C150.416 28.928 152.028 29.0016 153.605 28.9648C154.484 28.928 154.631 29.259 154.521 30.0681C154.118 32.8632 152.798 34.9595 149.976 35.695C146.934 36.5041 144.038 36.0628 141.912 33.4516C138.943 29.8107 139.017 22.4553 142.059 18.8879C145.101 15.3205 151.735 15.7986 153.421 19.9177C154.081 21.5358 154.887 21.7933 156.317 21.6462C156.757 21.6094 157.197 21.6094 157.636 21.6462C158.333 21.6829 158.479 21.3888 158.369 20.7636C158.113 19.5499 157.71 18.4098 157.013 17.3433C153.531 12.0842 144.698 11.0912 139.713 15.578C135.608 19.2557 134.655 24.0367 135.498 29.2591C136.121 33.1574 138.064 36.3202 141.619 38.3061C146.201 40.807 150.562 40.1817 155.217 36.3569C155.327 36.7247 155.437 36.9822 155.474 37.2396C155.914 39.2624 155.914 39.2256 157.93 39.152C158.626 39.1152 158.846 38.8946 158.846 38.2326C158.846 34.371 158.846 30.5094 158.883 26.6479C158.773 25.802 158.479 25.5446 157.71 25.5446Z" fill="#7D7E81"/>
<path d="M79.6031 29.2958C79.3465 29.2958 79.0899 29.3326 78.7967 29.2958C77.6605 29.0752 77.2939 29.6268 77.1107 30.6934C76.5242 33.4884 74.9482 35.4008 72.0159 35.9525C69.267 36.4674 66.4814 35.2537 64.9053 32.8632C62.4862 29.1855 62.5962 22.9334 65.1619 19.3661C67.9108 15.5413 74.2884 15.4309 76.2677 19.4764C77.2939 21.5727 78.5035 21.9405 80.4094 21.683C80.556 21.6462 80.666 21.6462 80.8126 21.683C81.8389 21.8301 81.9122 21.352 81.6923 20.5429C81.3624 19.035 80.7759 17.6743 79.7863 16.5343C77.4772 13.8495 74.435 12.9301 71.3928 12.8566C67.471 12.8198 64.2455 14.1806 62.1197 16.5711C57.5381 21.6831 57.3915 30.6198 61.8631 35.8053C65.0152 39.4462 69.1204 40.476 73.6653 39.5198C77.8437 38.6004 80.4461 35.8789 81.509 31.7231C82.0588 29.2959 82.0588 29.2958 79.6031 29.2958Z" fill="#7D7E81"/>
<path d="M218.921 20.3221C218.884 20.3957 218.811 20.4693 218.737 20.506C218.884 20.506 219.032 20.506 219.179 20.506C219.105 20.4693 219.032 20.3957 218.921 20.3221Z" fill="#7D7E81"/>
<path d="M213.057 28.3394C212.543 27.6039 212.653 27.2361 213.24 26.5741C215.109 24.5881 216.942 22.5654 218.774 20.5059C218.225 20.5427 217.675 20.5426 217.125 20.4691C215.219 20.2116 213.753 20.8001 212.543 22.3815C211.737 23.4848 210.674 24.3674 209.648 25.3236C208.842 26.0959 208.255 27.089 207.082 27.7877V16.3133C207.082 13.3343 207.082 13.3711 204.15 13.3711C203.27 13.3711 202.94 13.555 202.94 14.5112C202.977 22.3815 202.977 30.215 202.94 38.0853C202.94 38.8576 203.087 39.1518 203.967 39.1518C207.119 39.1518 207.192 39.1886 207.082 36.0625C207.009 33.7088 207.046 31.5022 209.648 30.3253C210.784 32.1274 212.214 33.9662 213.13 35.9889C214.339 38.6369 216.172 39.6299 218.958 39.1518C219.288 39.115 219.764 39.2989 219.947 38.9679C220.167 38.6001 219.727 38.3427 219.581 38.0485C217.382 34.8121 215.256 31.539 213.057 28.3394Z" fill="#7D7E81"/>
<path d="M179.078 25.3238C177.575 22.0874 175.12 20.1383 171.491 20.028C167.972 19.8809 165.187 21.3519 163.501 24.4412C161.595 27.935 161.558 31.576 163.281 35.1433C164.71 38.1223 167.313 39.483 170.575 39.6301C173.91 39.7772 176.769 38.821 178.638 35.8421C179.078 35.1065 179.738 34.2607 179.445 33.5619C179.188 32.9367 178.089 33.4148 177.355 33.3045C177.136 33.2677 176.916 33.3044 176.696 33.2677C176.073 33.2309 175.669 33.4148 175.34 34.04C174.277 35.9892 172.297 36.7615 170.025 36.2466C168.009 35.8053 166.506 34.0032 166.323 31.9069C166.286 31.2082 166.433 30.9875 167.129 30.9875C169.109 31.0243 171.125 31.0242 173.104 31.0242C174.24 31.0242 175.376 31.0242 176.549 31.0242C180.251 31.0242 180.544 30.583 179.591 26.8685C179.445 26.3169 179.298 25.8019 179.078 25.3238ZM174.9 28.1557C173.58 28.1557 172.261 28.1557 170.905 28.1557C169.622 28.1557 168.339 28.1189 167.056 28.1557C166.543 28.1557 166.25 28.0822 166.323 27.4202C166.506 25.2136 168.742 23.2643 171.124 23.3011C173.324 23.3379 175.413 25.3239 175.596 27.4937C175.669 28.1189 175.34 28.1557 174.9 28.1557Z" fill="#7D7E81"/>
<path d="M95.9863 20.1383C91.4047 19.2925 87.1896 21.0577 85.5036 24.7722C83.9642 28.1189 84.0008 31.576 85.5402 34.9227C86.1633 36.3202 87.1896 37.4603 88.5091 38.2326C91.8812 40.1818 95.3632 40.2185 98.7719 38.4165C102.144 36.6144 103.134 33.378 103.17 29.7739C103.17 29.3326 103.207 28.8912 103.17 28.4499C102.804 24.1838 99.9448 20.9107 95.9863 20.1383ZM98.2221 33.4516C97.2692 35.2904 95.8397 36.3937 93.6772 36.3202C91.5147 36.2834 90.1218 35.1433 89.2788 33.2677C88.2526 30.9875 88.2525 28.5971 89.3155 26.3169C90.1218 24.478 91.588 23.3747 93.6405 23.3011C95.7664 23.2643 97.2692 24.2942 98.2221 26.133C98.8452 27.3466 98.9918 28.6706 99.0285 29.6635C98.9552 31.2082 98.7719 32.385 98.2221 33.4516Z" fill="#7D7E81"/>
<path d="M131.541 25.7651C131.504 22.7494 129.708 20.6531 126.849 20.1382C123.807 19.6233 121.204 20.2853 119.189 23.0804C118.932 20.4324 118.932 20.4325 116.55 20.4325C116.513 20.4325 116.476 20.4325 116.403 20.4325C115.487 20.3221 115.193 20.6899 115.193 21.6093C115.23 26.5374 115.193 31.4287 115.193 36.3568C115.193 39.1151 115.23 39.0415 118.052 39.1151C119.115 39.1518 119.372 38.8209 119.372 37.7911C119.298 34.5548 119.335 31.3184 119.335 28.082C119.372 25.2134 121.278 23.1907 123.88 23.2274C126.299 23.2642 127.325 24.625 127.325 27.8246C127.325 30.5093 127.325 33.2308 127.325 35.9155C127.325 39.1519 127.325 39.1519 130.588 39.0415C131.357 39.0047 131.541 38.7841 131.541 38.0118C131.541 34.0031 131.577 29.8841 131.541 25.7651Z" fill="#7D7E81"/>
<path d="M194.839 25.2872C195.426 26.6112 196.086 27.0157 197.149 26.7583C197.662 26.7583 197.992 26.7215 198.322 26.7583C199.458 26.9054 199.714 26.464 199.384 25.4343C199.018 24.2206 198.468 23.1541 197.552 22.2347C194.766 19.2925 186.959 18.6674 183.77 23.5587C181.901 26.3905 181.608 29.5165 182.268 32.7529C183.074 36.9455 186.336 39.5934 190.661 39.6669C195.316 39.7772 198.138 37.681 199.348 33.4516C199.678 32.238 199.384 31.9438 198.248 32.0909C197.698 32.1277 197.112 32.1277 196.526 32.0909C195.719 32.0174 195.426 32.238 195.206 33.1207C194.766 34.886 193.63 36.0628 191.724 36.357C189.781 36.6144 188.132 35.9157 187.252 34.1872C185.713 31.245 185.676 28.1925 187.436 25.3239C189.048 22.6024 193.667 22.5657 194.839 25.2872Z" fill="#7D7E81"/>
<path d="M110.831 29.8474C110.831 27.7143 110.831 25.5813 110.831 23.4482C110.831 20.3958 110.831 20.4693 107.789 20.4693C106.836 20.4693 106.616 20.8003 106.616 21.7197C106.653 26.5007 106.653 31.3185 106.653 36.0995C106.653 39.1519 106.653 39.1152 109.695 39.152C110.758 39.1887 110.905 38.7842 110.905 37.828C110.831 35.18 110.831 32.4953 110.831 29.8474Z" fill="#7D7E81"/>
<path d="M109.401 13.3346C106.542 13.4449 106.579 13.3714 106.616 16.2032C106.616 16.9755 106.836 17.38 107.642 17.2697C107.972 17.2329 108.338 17.2697 108.705 17.2697C110.867 17.2697 110.867 17.2697 110.867 15.1366C110.867 15.0631 110.867 14.9528 110.867 14.8792C111.051 13.7759 110.647 13.3346 109.401 13.3346Z" fill="#7D7E81"/>
</svg>
