<svg width="48" height="48" viewBox="0 0 48 48" fill="none" xmlns="http://www.w3.org/2000/svg">
<path d="M47.0399 17.3139C43.5287 5.00174 30.783 -2.38559 18.2129 0.701129C6.09926 3.6838 -1.76584 15.6838 0.340884 27.996C2.58805 41.1406 15.1933 50.2274 28.7816 47.5222C33.1706 46.6551 36.9978 44.6436 40.2632 41.6609C40.9304 41.0366 41.1762 40.2736 40.9304 39.4065C40.6846 38.5742 40.1228 38.0539 39.3152 37.8805C38.4023 37.6724 37.7352 38.0539 37.0681 38.6435C30.9234 44.1233 22.1806 45.1985 14.8773 41.3834C12.8057 40.3083 10.9798 38.8863 9.4349 37.1175C12.8057 31.7764 16.1413 26.5047 19.512 21.1983C19.6525 21.4411 19.6525 21.6492 19.6525 21.8226C19.6525 23.9729 19.6174 26.1232 19.6876 28.2735C19.7227 29.2793 19.8281 30.3544 20.1441 31.2908C20.9165 33.6839 23.4095 34.3429 25.3055 32.7129C26.0078 32.0886 26.6047 31.3255 27.1314 30.5625C28.0794 29.1752 28.9221 27.7186 29.835 26.2619C30.9234 24.5278 32.0119 22.7937 33.1004 21.0249C33.1706 21.0249 33.2057 21.0596 33.276 21.0596C33.276 21.9266 33.2408 22.759 33.276 23.6261C33.3462 25.0827 33.3111 26.5741 33.6271 27.9614C34.54 32.0539 38.2267 34.2736 42.1242 33.2331C45.2843 32.4007 47.707 29.3487 47.9528 25.8458C48.1283 22.9671 47.8123 20.1232 47.0399 17.3139ZM43.5287 25.3602C43.4233 26.5741 42.9669 27.6839 41.9486 28.4469C40.3686 29.6608 38.5428 29.1406 37.9107 27.2677C37.7001 26.6434 37.6298 25.9845 37.6298 25.3255C37.5596 23.1752 37.5947 21.0596 37.4894 18.9093C37.4543 18.2157 37.1734 17.4527 36.8574 16.8284C35.9445 15.0943 34.0484 14.6087 32.3279 15.5451C31.2395 16.1347 30.4319 17.0365 29.7648 18.0423C28.0443 20.7128 26.3589 23.4527 24.6384 26.1232C24.4628 26.4007 24.2873 26.6781 23.9713 26.9209V26.2966C23.9713 23.418 24.0064 20.5394 23.9713 17.6608C23.9713 16.8977 23.8308 16.1 23.6553 15.337C23.4095 14.2619 22.7423 13.4989 21.6188 13.2214C20.4601 12.944 19.4769 13.3948 18.7045 14.2619C18.3182 14.7127 17.9671 15.1983 17.6511 15.6838C14.1048 21.3024 10.5234 26.9209 6.97706 32.5741C6.87172 32.7128 6.76639 32.8862 6.55571 33.1637C6.09926 32.0539 5.6428 31.0481 5.32679 30.0423C1.67515 19.0827 8.2762 7.46415 19.6525 4.75893C28.1145 2.74736 37.2436 6.97862 41.2815 14.7474C43.0371 18.1463 43.8096 21.6492 43.5287 25.3602Z" fill="#7D7E81"/>
</svg>
