<svg width="190" height="37" viewBox="0 0 190 37" fill="none" xmlns="http://www.w3.org/2000/svg">
<path d="M18.6466 0.832764C8.71541 0.832764 0.736328 8.81185 0.736328 18.7186C0.736328 28.6254 8.71542 36.6532 18.5978 36.702C28.4313 36.7509 36.5568 28.6742 36.6056 18.8406C36.63 8.88505 28.6021 0.832764 18.6466 0.832764ZM24.2832 30.0406C20.7938 28.6254 17.2801 27.2345 13.8152 25.7705C12.1315 25.0628 10.3991 24.5504 8.81302 23.6232C8.56901 23.3548 8.61781 23.0132 8.61781 22.6959C8.59341 20.1339 8.59341 17.5962 8.54461 15.0341C8.54461 14.3752 8.69101 13.9848 9.34984 13.7164C14.23 11.6668 19.1102 9.59268 23.9904 7.4942C24.6736 7.20139 24.9176 7.3234 24.9176 8.10422C24.9176 10.7395 24.9176 13.3748 24.942 16.0101C24.942 16.5957 24.7224 16.8885 24.1856 17.0837C23.1363 17.4986 22.1115 17.9866 21.0623 18.4258C20.7938 18.5478 20.501 18.5966 20.5254 18.987C21.7699 19.475 22.9899 20.0119 24.2588 20.4755C24.7712 20.6707 25.0396 20.9635 25.0396 21.5491C25.064 24.282 25.0884 26.9905 25.1372 29.699C25.1616 30.5774 24.6736 30.187 24.2832 30.0406Z" fill="#757B82"/>
<path d="M103.708 9.95826C102.878 9.78745 102.293 10.1535 101.951 10.9343C101.829 11.2271 101.683 11.5199 101.561 11.8371C100.438 14.5456 99.3159 17.2541 98.1935 20.0114C97.7543 19.7186 97.7299 19.3282 97.5835 19.011C96.4854 16.4001 95.4118 13.7648 94.3382 11.1539C93.9965 10.2999 93.4353 9.78745 92.4593 9.98266C91.4833 10.1779 91.2148 10.8855 91.2148 11.7883C91.2392 15.2776 91.2392 18.767 91.2148 22.2807C91.2148 23.2567 91.5077 24.0376 92.5569 24.062C93.6305 24.0864 93.9721 23.3299 93.9477 22.3295C93.9233 20.4262 93.9477 18.523 93.9477 16.4733C94.4358 16.7905 94.4846 17.2297 94.631 17.5713C95.3874 19.3282 96.1194 21.0851 96.8514 22.8419C97.0955 23.4275 97.4859 23.7936 98.1447 23.7692C98.7303 23.7448 99.0963 23.4031 99.3159 22.8663C100.048 21.0607 100.804 19.2794 101.585 17.4981C101.707 17.2053 101.658 16.7417 102.171 16.6929C102.171 18.6694 102.171 20.6214 102.171 22.5735C102.171 23.5007 102.61 24.1108 103.513 24.1108C104.416 24.1108 104.904 23.5251 104.904 22.5979C104.904 18.9378 104.904 15.2776 104.904 11.6419C104.928 10.7147 104.538 10.1047 103.708 9.95826Z" fill="#757B82"/>
<path d="M165.686 14.7168C166.492 12.4719 164.979 10.2758 162.612 10.2026C161.075 10.1538 159.537 10.2026 157.976 10.2026C156.853 10.2026 156.365 10.7394 156.365 11.8375C156.39 13.5455 156.365 15.2536 156.365 16.9616C156.365 18.7185 156.365 20.451 156.365 22.2078C156.365 23.2083 156.853 23.7451 157.829 23.7451C159.562 23.7695 161.319 23.8183 163.051 23.7207C164.906 23.6231 166.272 22.6226 166.955 20.8902C167.663 19.1089 167.297 17.4497 165.955 16.0832C165.54 15.5952 165.491 15.3024 165.686 14.7168ZM160.465 12.3987C161.026 12.4719 161.587 12.3987 162.148 12.4231C162.856 12.4475 163.344 12.8135 163.368 13.5211C163.393 14.2775 162.905 14.6924 162.148 14.7412C161.709 14.7656 161.27 14.7412 160.709 14.7412C160.196 14.4972 159.049 15.4 159.049 13.7651C159.074 12.6671 159.342 12.2523 160.465 12.3987ZM164.71 19.4017C164.637 20.4754 163.783 21.3294 162.661 21.427C162.27 21.4514 161.855 21.4514 161.441 21.4514C159.098 21.4514 159.098 21.4514 159.098 19.1333C159.098 16.864 159.098 16.864 161.392 16.864C161.929 16.864 162.465 16.864 162.953 16.9616C164.076 17.2056 164.808 18.2549 164.71 19.4017Z" fill="#757B82"/>
<path d="M189.695 15.4734C189.695 14.7414 189.598 14.0337 188.719 13.8873C187.768 13.7165 187.377 14.3266 187.28 15.2294C184.962 13.4969 183.254 13.4481 181.668 14.961C180.008 16.5714 179.764 19.5239 181.155 21.4516C181.838 22.4032 182.741 23.0377 183.961 23.1597C185.157 23.2817 186.109 22.6961 187.109 22.0128C187.109 22.5252 187.109 22.8913 187.109 23.2573C187.036 25.0141 185.523 25.9902 183.961 25.2093C183.18 24.8189 182.448 24.5261 182.009 25.5022C181.546 26.527 182.375 26.9662 183.156 27.2834C186.353 28.6011 189.525 26.6246 189.622 23.1597C189.744 20.5976 189.695 18.0355 189.695 15.4734ZM185.01 21.4272C183.766 21.4516 182.766 20.2072 182.766 18.6211C182.766 17.1083 183.742 15.8638 184.913 15.8394C186.133 15.815 187.158 17.0839 187.158 18.6455C187.133 20.1584 186.206 21.3784 185.01 21.4272Z" fill="#757B82"/>
<path d="M56.7846 20.7681C56.321 21.2317 55.7598 21.5489 55.101 21.6953C52.3193 22.3785 49.6108 19.7676 49.8304 16.5711C50.0744 13.0574 53.5637 10.9833 56.321 12.7402C57.1019 13.2282 57.9071 13.9602 58.5415 12.7646C59.1515 11.6665 58.0779 11.2273 57.3947 10.7149C57.1995 10.5685 56.9555 10.4953 56.7358 10.3977C52.1729 8.42123 47.2439 11.813 47.2439 17.2055C47.1951 18.4744 47.6343 19.8652 48.464 21.1097C50.66 24.3794 55.4914 25.087 58.2975 22.5737C58.9075 22.0125 59.4199 21.3781 58.7367 20.5973C58.1267 19.8652 57.4191 20.1337 56.7846 20.7681Z" fill="#757B82"/>
<path d="M114.542 14.3997C112.736 13.5456 110.857 13.5944 108.978 14.2533C108.344 14.4729 107.904 14.9365 108.148 15.6441C108.417 16.3517 109.003 16.4493 109.661 16.1809C110.418 15.8881 111.223 15.7417 112.053 15.7905C113.321 15.8881 113.858 16.4493 113.883 17.9134C112.126 17.3522 110.467 17.2302 108.807 18.011C107.441 18.6454 106.733 19.9875 106.928 21.3783C107.124 22.7692 107.953 23.55 109.515 23.8916C110.93 24.2088 112.272 23.9648 113.517 23.2816C113.932 23.062 114.151 22.9156 114.42 23.4524C114.688 23.9892 115.2 24.1356 115.762 23.9648C116.372 23.794 116.567 23.3304 116.567 22.7448C116.567 20.9879 116.616 19.2554 116.542 17.4986C116.494 16.1321 115.835 15.0097 114.542 14.3997ZM113.98 20.2071C113.932 20.6951 114.151 21.2563 113.492 21.5491C112.711 21.9151 111.931 22.2323 111.052 22.1103C110.296 22.0127 109.588 21.8175 109.564 20.8659C109.539 19.9631 110.101 19.5726 110.906 19.4262C111.174 19.3774 111.467 19.353 111.76 19.3286C112.223 19.3774 112.711 19.4018 113.175 19.5238C113.517 19.597 114.029 19.597 113.98 20.2071Z" fill="#757B82"/>
<path d="M176.666 14.7413C174.665 13.4481 172.518 13.5457 170.371 14.3753C169.76 14.5949 169.516 15.1317 169.809 15.7662C170.078 16.3762 170.59 16.4494 171.151 16.2542C171.932 15.9614 172.689 15.7906 173.518 15.815C174.885 15.8882 175.373 16.3762 175.519 17.9134C175.153 17.8158 174.811 17.7182 174.47 17.6694C173.079 17.401 171.713 17.4254 170.419 18.0354C169.028 18.7187 168.394 19.9631 168.589 21.5492C168.76 22.818 169.638 23.5988 171.151 23.9404C172.567 24.2577 173.884 24.0137 175.129 23.3304C175.519 23.1108 175.739 22.9156 176.007 23.5256C176.227 24.0381 176.788 24.1845 177.374 24.0137C177.984 23.8184 178.13 23.3792 178.13 22.7936C178.106 21.0611 178.13 19.3043 178.13 17.5474C178.13 16.3518 177.642 15.3513 176.666 14.7413ZM175.177 21.476C174.299 21.964 173.396 22.2568 172.396 22.086C171.713 21.964 171.127 21.6468 171.103 20.8659C171.078 20.0607 171.566 19.5971 172.323 19.4507C172.689 19.3775 173.055 19.3531 173.372 19.3043C173.884 19.3775 174.372 19.4019 174.86 19.5239C175.202 19.5971 175.617 19.6459 175.592 20.1827C175.568 20.6463 175.763 21.1588 175.177 21.476Z" fill="#757B82"/>
<path d="M133.282 20.4753C132.721 19.6213 131.745 18.7917 131.721 17.9376C131.696 17.0348 132.965 16.4736 133.648 15.7416C134.088 15.2535 134.502 14.7655 133.941 14.1799C133.331 13.5211 132.77 13.9359 132.282 14.4239C131.233 15.5463 130.183 16.6444 129.134 17.7668C129.012 17.6936 128.89 17.6448 128.768 17.5716C128.768 15.4975 128.768 13.4479 128.768 11.3982C128.768 10.5686 128.451 9.95855 127.499 9.93415C126.596 9.90975 126.182 10.4466 126.182 11.325C126.182 15.1071 126.182 18.8649 126.182 22.647C126.182 23.4522 126.596 23.989 127.402 24.0379C128.28 24.0867 128.719 23.5254 128.768 22.6714C128.793 22.0614 128.768 21.4514 128.793 20.8413C128.817 20.1825 129.354 19.7921 129.817 19.5725C130.305 19.3529 130.427 20.0361 130.647 20.3533C131.33 21.3538 131.989 22.3786 132.648 23.4034C133.038 23.9646 133.551 24.2819 134.185 23.867C134.868 23.4278 134.844 22.8178 134.429 22.1834C134.039 21.6222 133.648 21.0365 133.282 20.4753Z" fill="#757B82"/>
<path d="M65.9104 13.8386C63.0555 13.8386 60.8594 16.0835 60.8594 18.9872C60.8838 21.8421 63.0555 24.0626 65.8372 24.087C68.6921 24.1114 70.9369 21.8665 70.9613 18.9872C70.9857 16.1323 68.7653 13.8386 65.9104 13.8386ZM65.9592 21.9153C64.4951 21.9397 63.4459 20.6953 63.4459 18.9628C63.4703 17.3035 64.5195 16.0347 65.886 16.0347C67.3256 16.0103 68.3748 17.2791 68.3748 19.0116C68.3748 20.7197 67.3988 21.8909 65.9592 21.9153Z" fill="#757B82"/>
<path d="M143.311 14.6193C141.188 13.2041 138.357 13.7165 136.917 15.7662C135.307 18.0843 135.746 21.598 137.845 23.1352C139.382 24.2821 141.895 24.3553 143.359 23.2816C143.945 22.8424 144.287 22.3056 143.847 21.6224C143.457 20.988 142.847 21.0368 142.261 21.4028C141.993 21.5736 141.7 21.72 141.383 21.7932C140.334 22.086 139.187 21.598 138.772 20.7196C138.528 20.2071 138.601 19.9631 139.211 19.9875C140.065 20.0119 140.919 19.9875 141.773 19.9875C142.554 19.9875 143.311 19.9631 144.091 19.9875C145.092 20.0363 145.482 19.4995 145.507 18.5723C145.507 16.8642 144.701 15.571 143.311 14.6193ZM142.31 18.4747C141.773 18.4259 141.261 18.4747 140.724 18.4747C140.358 18.4747 139.992 18.4991 139.626 18.4747C139.236 18.4503 138.699 18.6943 138.504 18.3039C138.284 17.8647 138.601 17.3522 138.894 16.9618C139.455 16.181 140.212 15.8882 141.139 16.0834C142.042 16.2786 142.627 16.8642 142.945 17.7183C143.14 18.2795 142.92 18.5235 142.31 18.4747Z" fill="#757B82"/>
<path d="M81.674 14.4483C81.2836 14.7167 80.942 15.0583 80.4784 15.4731C80.3564 14.5459 80.0636 13.7163 78.9899 13.8871C77.7943 14.0823 78.0139 15.1071 78.0139 15.9123C78.0139 18.1084 78.0139 20.3045 78.0139 22.5006C78.0139 23.4278 78.3799 24.0622 79.3316 24.0134C80.21 23.989 80.576 23.379 80.5516 22.525C80.5272 21.0609 80.5028 19.5969 80.5516 18.1328C80.6004 16.7908 81.5276 15.9855 82.8697 16.0099C84.0165 16.0587 84.4801 16.62 84.5045 18.084C84.5289 19.6213 84.5045 21.1829 84.5289 22.7202C84.5533 23.4766 84.9437 23.989 85.7002 24.0134C86.4566 24.0378 86.9202 23.5742 86.9202 22.7934C86.9202 20.7925 87.0178 18.7916 86.8714 16.8152C86.7006 14.2775 83.8213 13.0086 81.674 14.4483Z" fill="#757B82"/>
<path d="M151.656 16.0346C152.291 16.1322 152.852 15.8394 152.876 15.1562C152.901 14.3998 152.315 14.0581 151.632 14.1801C150.436 14.3754 150.168 13.7897 150.314 12.7649C150.339 12.5697 150.339 12.3501 150.314 12.1549C150.241 11.3984 149.753 10.9592 149.021 10.9836C148.338 10.9836 147.874 11.374 147.801 12.1061C147.777 12.4233 147.752 12.7649 147.777 13.0821C147.801 13.6677 147.825 14.2045 146.996 14.2533C146.605 14.2777 146.386 14.6194 146.361 15.0342C146.337 15.449 146.532 15.8882 146.874 15.8882C147.972 15.9126 147.777 16.669 147.777 17.3279V19.1579C147.777 19.6947 147.777 20.2072 147.777 20.744C147.777 23.4525 148.46 24.1113 151.168 24.0381C151.949 24.0137 152.632 23.8185 152.657 22.9889C152.681 22.1348 152.071 21.8176 151.266 21.8664C150.485 21.9152 150.314 21.4516 150.339 20.7928C150.363 19.6459 150.412 18.5235 150.314 17.3767C150.217 16.3274 150.534 15.8638 151.656 16.0346Z" fill="#757B82"/>
<path d="M122.838 14.009C122.277 14.2774 121.911 14.7898 121.35 15.351C121.228 14.4726 120.935 13.8138 120.008 13.8626C119.203 13.9114 118.885 14.4482 118.885 15.1802C118.861 17.6447 118.861 20.1336 118.885 22.5981C118.885 23.4521 119.349 24.0377 120.203 24.0133C121.082 23.9889 121.472 23.4033 121.472 22.5493C121.472 21.5245 121.521 20.524 121.472 19.4992C121.374 17.7423 121.911 16.4979 123.766 16.0343C124.498 15.8391 124.815 15.2534 124.449 14.5214C124.132 13.8138 123.546 13.6918 122.838 14.009Z" fill="#757B82"/>
<path d="M74.2796 13.863C73.3768 13.863 72.962 14.3755 72.962 15.2539C72.962 16.4739 72.962 17.694 72.962 18.8896C72.962 20.1097 72.9864 21.3297 72.962 22.5253C72.9376 23.4038 73.3524 23.965 74.2064 24.0138C75.0848 24.0626 75.524 23.477 75.524 22.6229C75.524 20.1585 75.524 17.6696 75.524 15.2051C75.4996 14.4243 75.1336 13.863 74.2796 13.863Z" fill="#757B82"/>
<path d="M74.2814 9.9097C73.3298 9.8853 72.8418 10.4465 72.8418 11.3249C72.8418 12.1546 73.3542 12.6426 74.2814 12.6914C75.1111 12.6426 75.6723 12.179 75.6479 11.2517C75.6235 10.4465 75.1355 9.9341 74.2814 9.9097Z" fill="#757B82"/>
</svg>
