<svg width="211" height="38" viewBox="0 0 211 38" fill="none" xmlns="http://www.w3.org/2000/svg">
<path d="M40.3136 4.68872C35.4059 4.72618 30.4982 4.68872 25.628 4.68872C25.2534 4.68872 24.8787 4.72616 24.5041 4.57631C24.092 3.9769 23.5675 3.48988 23.0056 3.04032C17.9105 -1.08065 8.58217 -1.00572 3.59955 3.22764C1.76384 4.76364 0.7898 6.67428 0.827263 9.14687C0.90219 13.605 0.939653 18.0631 0.827263 22.5213C0.752336 25.5183 2.06355 27.6163 4.42374 29.2272C6.85886 30.9131 9.59368 31.6248 12.4784 31.7747C16.2622 31.9995 19.7837 31.2127 22.8932 28.9649C23.2678 28.7027 23.7923 28.4779 23.9047 27.916C24.1295 28.2157 23.9796 28.5154 23.9047 28.8151C23.3053 31.3252 22.7059 33.8352 22.1439 36.3453C22.069 36.5326 21.9941 36.7199 21.9191 36.9072C21.7693 37.0945 21.6569 37.3193 21.8442 37.5066C21.9941 37.6565 22.1064 37.4317 22.1439 37.3193C22.2188 37.2069 22.2563 37.057 22.3312 36.9447C27.5761 29.452 32.7835 21.9968 38.0284 14.5041C37.9534 14.4292 37.916 14.3917 37.8411 14.3168C34.9564 15.4781 32.1092 16.677 28.9997 17.9508C29.5617 16.4897 30.0487 15.2909 30.4608 14.0171C30.6481 13.4177 30.9478 13.1929 31.6221 13.2303C33.8325 13.2678 36.0803 13.2304 38.2906 13.2678C38.965 13.2678 39.1897 13.0805 39.3396 12.4062C39.8641 10.1584 40.3886 7.87309 40.988 5.66276C41.2877 4.83856 41.0629 4.68872 40.3136 4.68872ZM3.71194 4.72617C8.13262 0.11818 18.0979 -0.0316822 22.7433 4.38899C22.6309 4.38899 22.5185 4.38899 22.4061 4.38899C22.556 4.46392 22.7433 4.53885 22.9306 4.57631C21.1324 4.83855 19.2967 4.65126 17.4985 4.68872C15.4754 4.72618 15.4754 4.68869 14.9884 6.67425C14.5388 8.58488 14.0893 10.533 13.6023 12.4062C13.4149 13.043 13.5648 13.2303 14.2391 13.1929C16.412 13.1554 18.5474 13.1929 20.7203 13.1929C21.2073 13.1929 21.6943 13.1929 21.2073 13.8672C21.1324 13.8298 21.02 13.8297 20.9451 13.7923C20.9451 13.7923 20.9451 13.7923 20.9451 13.8298C20.9451 13.9047 20.9451 13.9422 20.9451 14.0171C18.435 15.3283 15.7751 16.1525 12.9279 15.9652C9.66861 15.7779 6.59662 14.9162 4.12404 12.6684C1.5016 10.2707 1.35175 7.19875 3.71194 4.72617ZM2.06355 12.4062C2.6255 12.9306 3.0376 13.4177 3.52462 13.7923C8.58218 17.6135 14.0893 18.0257 19.9336 15.9277C20.1583 15.8528 20.4206 15.7404 20.6454 15.6655C20.7203 15.628 20.7952 15.5906 20.8702 15.5531C20.6454 16.9018 20.4206 18.2505 19.8586 19.4867C19.7837 19.5242 19.7088 19.5617 19.6339 19.5617C15.0633 21.285 10.5677 21.1351 6.18452 18.9622C4.1615 17.9882 2.6255 16.4896 2.13848 14.1669C1.98863 13.6799 2.02609 13.118 2.06355 12.4062ZM2.06355 17.4637C7.08364 22.2216 12.9654 22.7086 19.2592 21.0227C19.2967 21.0227 19.3342 20.9853 19.3716 20.9853C19.7088 21.3974 19.4091 21.8094 19.2967 22.2215C19.0719 23.1581 18.997 24.0947 18.51 24.9564C18.435 24.9938 18.3601 24.9938 18.2477 25.0313C14.9509 25.8555 11.6542 25.893 8.35739 24.8815C6.8214 24.3945 5.39779 23.6826 4.1615 22.5962C2.70043 21.2475 1.83877 19.6366 2.06355 17.4637ZM6.48423 29.0024C5.24793 28.403 4.1615 27.6163 3.29984 26.5673C2.25087 25.2936 1.83877 23.8325 2.10101 22.0342C2.73789 22.6711 3.22492 23.2705 3.82433 23.7576C6.18452 25.6682 8.91935 26.5299 11.879 26.7546C13.9394 26.9045 15.9625 26.8296 17.9855 26.4175C18.0604 26.4175 18.1728 26.38 18.2477 26.38C18.1353 27.6538 17.7232 28.89 17.3861 30.1638C17.3486 30.1263 17.2737 30.0889 17.2362 30.0514C17.2362 30.0889 17.2362 30.0889 17.2362 30.1263C17.2362 30.1638 17.2362 30.1638 17.2362 30.1638C13.5273 30.9505 9.93085 30.6883 6.48423 29.0024ZM39.6018 6.71175C39.1897 8.17282 38.8526 9.63387 38.5529 11.0949C38.403 11.8817 38.0284 12.069 37.2791 12.0315C35.2186 11.9941 33.1207 12.0315 31.0602 11.9941C30.3858 11.9941 30.0861 12.2188 29.8239 12.8557C28.8124 15.2534 27.7634 17.6136 26.602 20.2735C29.3369 19.0746 31.8095 18.0257 34.282 16.9392C34.357 16.9767 34.3944 17.0516 34.4694 17.0891C31.4348 21.5472 28.4377 26.0428 25.4032 30.501C25.141 30.3511 25.2159 30.0888 25.1784 29.9015C25.4407 28.5154 25.7029 27.1292 26.0026 25.5932C24.7663 26.1177 23.6799 26.5298 22.5935 27.0169C21.507 27.4664 20.4206 27.9535 19.1468 28.5154C19.7088 26.1177 20.1958 23.9074 20.7203 21.6971C21.3946 18.7749 22.069 15.8153 22.8182 12.8932C23.0056 12.1065 22.7808 11.9941 22.069 11.9941C20.0085 12.0315 17.9105 11.9941 15.8501 12.0315C15.1757 12.0315 14.876 11.9566 15.1008 11.1699C15.5129 9.70878 15.8501 8.17278 16.1872 6.67425C16.3371 6.03737 16.5619 5.81262 17.2362 5.81262C24.4292 5.85008 31.6221 5.85008 38.8151 5.81262C39.5269 5.85008 39.8266 5.92502 39.6018 6.71175Z" fill="#3C3B42"/>
<path d="M55.8223 21.0604C55.148 22.971 53.6494 23.9451 51.7014 24.1698C49.7533 24.3946 48.1049 23.7203 46.981 22.0719C45.9695 20.6108 45.5948 18.9624 45.7447 17.314C45.6698 15.5532 45.9695 13.9798 46.8686 12.5562C47.955 10.7954 49.6409 10.0461 51.6264 10.2334C53.7618 10.4582 55.2978 11.5821 55.9347 13.7175C56.0846 14.1671 56.4592 14.9164 55.7099 15.0662C54.9981 15.2161 53.8742 15.6657 53.5371 14.5792C53.05 13.1182 52.1884 12.4063 50.7273 12.6311C49.1913 12.8559 48.7043 14.1296 48.517 15.4034C48.3297 16.9394 48.2173 18.5503 48.7792 20.0489C49.1538 21.1353 49.8656 21.8096 51.027 21.8096C52.1509 21.8096 53.0875 21.3601 53.3497 20.1987C53.7244 18.7377 54.8857 19.1872 55.5975 19.3745C56.5716 19.6367 56.0471 20.4984 55.8223 21.0604Z" fill="#3C3B42"/>
<path d="M69.6089 13.1572C68.7473 11.3215 67.2113 10.31 65.1883 10.1976C63.3151 10.1227 61.7416 10.9094 60.7301 12.5578C59.831 13.9814 59.4938 15.5174 59.6437 17.2033C59.6437 17.7278 59.6062 18.2897 59.6437 18.8142C59.9434 21.7738 61.9664 23.9467 64.5889 24.2089C66.9865 24.4337 69.2343 22.8602 70.021 20.2003C70.7328 17.8027 70.6954 15.4425 69.6089 13.1572ZM67.2862 20.0879C66.8741 21.0994 66.1623 21.7363 65.0759 21.8112C63.9145 21.8487 63.0903 21.2493 62.6782 20.1628C61.9664 18.2148 61.9664 16.2292 62.6782 14.2811C63.0529 13.2321 63.9145 12.5953 65.0759 12.6327C66.1623 12.6702 66.8741 13.3445 67.2862 14.3186C67.6983 15.2552 67.6608 16.2292 67.7732 17.1283C67.6983 18.1773 67.6983 19.1514 67.2862 20.0879Z" fill="#3C3B42"/>
<path d="M77.1407 23.0834C77.1781 24.1698 76.6536 24.2822 75.792 24.2448C74.9303 24.2448 74.4058 24.1324 74.4433 23.0834C74.4808 19.1497 74.4808 15.2535 74.4433 11.3199C74.4433 10.2335 74.9678 10.1585 75.792 10.1585C76.6536 10.1585 77.1781 10.2709 77.1407 11.3199C77.0657 13.268 77.1032 15.2536 77.1032 17.2017C77.1032 19.1498 77.0657 21.0978 77.1407 23.0834Z" fill="#3C3B42"/>
<path d="M92.0131 22.7076C92.0131 23.2321 92.3878 24.0938 91.5261 24.1687C90.627 24.2436 89.578 24.6557 88.9411 23.4569C87.6674 21.0592 86.3187 18.7365 85.0075 16.3763C84.8576 16.114 84.7078 15.8893 84.2208 15.702V21.284C84.2208 21.8085 84.1833 22.3704 84.2208 22.8949C84.3332 23.9064 83.9585 24.2436 82.9095 24.2436C81.7856 24.2436 81.6358 23.7941 81.6358 22.82C81.6733 19.0737 81.6358 15.3648 81.6733 11.6185C81.6733 11.094 81.3361 10.2698 82.2352 10.1948C83.0969 10.1199 84.1084 9.78275 84.7078 10.9066C86.019 13.3418 87.3677 15.7019 88.7164 18.0996C88.8288 18.3244 88.9786 18.5117 89.091 18.699C89.2034 18.699 89.3158 18.6615 89.3907 18.6615C89.3907 16.2264 89.4282 13.7913 89.3532 11.3562C89.3158 10.1948 89.8777 10.1199 90.7768 10.1199C91.7134 10.1199 92.0506 10.3447 92.0506 11.3562C91.9757 15.14 92.0506 18.9238 92.0131 22.7076Z" fill="#3C3B42"/>
<path d="M105.686 11.281C105.686 12.1052 105.536 12.5173 104.562 12.5547C101.753 12.6297 101.79 12.6671 101.79 15.4394C101.79 17.9869 101.753 20.5344 101.828 23.0819C101.865 24.2058 101.303 24.2058 100.479 24.2433C99.6547 24.2433 99.0928 24.1684 99.1302 23.0819C99.2051 20.0474 99.1302 17.0128 99.1677 13.9783C99.2051 12.8919 98.9054 12.4049 97.7815 12.5547C97.4069 12.5922 96.9948 12.5173 96.6202 12.5547C95.7585 12.6297 95.2715 12.4423 95.2715 11.3934C95.2715 10.3819 95.6087 10.1196 96.5452 10.1571C97.8565 10.232 99.2051 10.1571 100.516 10.1571C101.902 10.1571 103.251 10.1945 104.637 10.1571C105.499 10.1196 105.686 10.5317 105.686 11.281Z" fill="#3C3B42"/>
<path d="M117.75 23.0831C117.75 24.3194 117.076 24.2445 116.252 24.2445C114.304 24.207 112.318 24.207 110.37 24.2445C109.396 24.2819 109.096 23.9073 109.134 22.9707C109.209 21.0601 109.134 19.1495 109.134 17.2388C109.134 15.2158 109.171 13.2303 109.134 11.2072C109.134 10.458 109.359 10.1583 110.145 10.1583C112.356 10.1957 114.566 10.1957 116.776 10.1583C117.788 10.1208 117.713 10.7202 117.713 11.3946C117.75 12.1438 117.601 12.5934 116.702 12.5559C115.39 12.481 114.042 12.5559 112.73 12.5559C111.457 12.5185 111.794 13.4925 111.831 14.1294C111.869 14.7662 111.307 15.8527 112.693 15.8527C113.704 15.8527 114.753 15.8901 115.765 15.8527C116.664 15.8152 116.851 16.1898 116.814 16.9766C116.776 17.6884 116.776 18.2129 115.802 18.1754C114.866 18.1005 113.929 18.2129 112.993 18.138C112.056 18.063 111.681 18.4002 111.719 19.3742C111.794 22.4088 111.419 21.8468 114.191 21.9218C114.866 21.9218 115.578 21.9592 116.252 21.9218C117.226 21.8094 117.75 21.9217 117.75 23.0831Z" fill="#3C3B42"/>
<path d="M129.552 23.0848C129.552 24.0214 129.178 24.2462 128.316 24.2087C126.368 24.1713 124.382 24.1713 122.434 24.2087C121.535 24.2462 121.236 23.9465 121.236 23.0474C121.273 21.0244 121.236 19.0388 121.236 17.0158C121.236 15.1426 121.273 13.3069 121.198 11.4337C121.161 10.3848 121.498 10.0851 122.547 10.1225C123.521 10.1225 123.933 10.3099 123.933 11.3963C123.858 14.3934 123.97 17.3904 123.895 20.35C123.858 21.6238 124.27 21.9984 125.469 21.8485C126.405 21.7736 127.342 21.886 128.241 21.8111C129.215 21.8111 129.552 22.1108 129.552 23.0848Z" fill="#3C3B42"/>
<path d="M141.652 23.0097C141.69 24.1711 141.09 24.246 140.191 24.246C138.243 24.2085 136.258 24.2085 134.309 24.246C133.373 24.2834 132.998 24.0212 133.036 23.0097C133.111 21.0991 133.073 19.1884 133.073 17.2778C133.073 15.3297 133.111 13.3442 133.073 11.3961C133.036 10.5344 133.261 10.1598 134.197 10.1972C136.295 10.2721 138.43 10.2347 140.528 10.1972C141.353 10.1972 141.652 10.4595 141.615 11.3211C141.577 12.1078 141.577 12.6698 140.528 12.5949C139.255 12.52 137.981 12.6324 136.707 12.5574C135.321 12.52 135.733 13.494 135.733 14.2058C135.733 14.8802 135.321 15.8916 136.707 15.8542C137.644 15.8167 138.58 15.8916 139.517 15.8542C140.491 15.8167 140.791 16.1539 140.791 17.1279C140.791 18.1769 140.229 18.2144 139.479 18.1769C138.88 18.1395 138.318 18.1769 137.719 18.1769C135.733 18.1769 135.845 18.1769 135.696 20.1625C135.621 21.5861 136.033 22.1106 137.494 21.9607C138.43 21.8483 139.367 21.9607 140.304 21.9233C141.09 21.8483 141.615 21.8858 141.652 23.0097Z" fill="#3C3B42"/>
<path d="M155.251 19.7116C155.251 22.6712 154.839 23.3081 152.516 23.9075C149.557 24.6943 146.897 23.7951 145.773 21.4724C144.387 18.6252 144.424 15.6281 145.81 12.8184C146.747 10.9077 148.508 10.0835 150.568 10.2334C152.591 10.3832 154.277 11.2075 154.952 13.3429C155.101 13.8299 155.588 14.5417 154.914 14.7665C154.202 14.9913 153.116 15.3284 152.666 14.4293C152.029 13.0806 151.205 12.2939 149.707 12.706C148.171 13.0806 147.759 14.4293 147.609 15.778C147.459 17.1267 147.421 18.5128 147.871 19.8615C148.395 21.3975 149.669 22.1468 151.205 21.8845C152.254 21.6972 152.666 21.1727 152.666 20.0863C152.666 18.9249 151.992 18.9624 151.243 19.0373C150.418 19.1122 150.269 18.6627 150.269 17.9509C150.269 17.2016 150.493 16.827 151.28 16.9019C151.655 16.9394 152.067 16.9019 152.441 16.9019C155.251 16.8644 155.251 16.8644 155.251 19.7116Z" fill="#3C3B42"/>
<path d="M168.963 23.1958C168.326 21.922 167.764 20.6108 167.09 19.3745C166.715 18.7002 166.79 18.2881 167.427 17.8011C169.038 16.4524 169.113 14.6167 168.551 12.8184C167.989 10.9827 166.416 10.3458 164.655 10.2334C163.306 10.1211 161.92 10.2335 160.534 10.196C159.635 10.1585 159.335 10.4957 159.335 11.3948C159.372 13.3055 159.335 15.2161 159.335 17.1267C159.335 18.9999 159.372 20.8731 159.335 22.7088C159.298 23.7577 159.447 24.3197 160.759 24.2822C162.07 24.2822 162.032 23.6079 161.995 22.7088C161.957 21.9595 161.957 21.2477 161.995 20.4984C162.032 19.9739 161.658 19.2247 162.557 19.0748C163.344 18.9624 164.13 18.925 164.505 19.9365C164.842 20.8356 165.441 21.6972 165.741 22.5964C166.191 23.945 167.015 24.3571 168.401 24.2447C169.375 24.1698 169.3 23.8701 168.963 23.1958ZM163.456 16.6772C161.995 16.6772 161.995 16.6772 161.995 14.0547C161.957 13.4553 161.658 12.2939 163.493 12.4812C165.404 12.6686 166.153 13.1182 166.153 14.6167C166.153 16.1527 165.442 16.6772 163.456 16.6772Z" fill="#3C3B42"/>
<path d="M183.276 22.7081C182.039 18.9243 180.691 15.178 179.454 11.4317C179.192 10.6075 178.892 10.1205 177.843 10.1205C176.794 10.1205 176.382 10.57 176.083 11.4691C174.846 15.2529 173.573 18.9992 172.224 22.7456C171.774 23.9819 172.037 24.394 173.31 24.1692C174.284 24.394 174.809 23.9444 174.921 23.0079C175.071 21.6217 175.783 21.2096 177.206 21.2471C178.93 21.2845 180.428 21.1347 180.803 23.4949C180.99 24.8061 182.414 24.2816 183.163 24.1318C184.175 23.9444 183.425 23.1577 183.276 22.7081ZM178.593 18.9618C178.106 18.9618 177.619 18.9618 177.132 18.9618C176.532 18.9618 176.307 18.6996 176.495 18.1376C176.869 16.8639 177.244 15.6275 177.656 14.3538C177.768 14.3538 177.881 14.3538 177.993 14.3538C178.368 15.5901 178.743 16.8638 179.192 18.1001C179.304 18.6995 179.23 18.9993 178.593 18.9618Z" fill="#3C3B42"/>
<path d="M193.126 10.3467C191.478 10.0095 189.792 10.2718 188.144 10.1594C187.207 10.0845 186.982 10.4965 186.982 11.3582C187.02 13.3063 186.982 15.2919 186.982 17.24C186.982 19.1881 187.02 21.1736 186.982 23.1217C186.982 23.9459 187.245 24.1707 188.069 24.2456C189.418 24.358 189.792 23.8335 189.68 22.5972C189.605 21.6232 189.38 20.4618 189.792 19.7125C190.354 18.701 191.665 19.3754 192.639 19.263C195.037 18.9633 196.648 17.4647 196.798 15.2544C196.91 12.7069 195.562 10.8712 193.126 10.3467ZM191.216 16.9402C189.155 17.1276 189.717 15.7789 189.642 14.9922C189.642 13.606 189.193 12.2948 191.216 12.4821C193.126 12.6694 194.1 13.2688 194.063 14.8423C194.1 16.3408 193.276 16.7904 191.216 16.9402Z" fill="#3C3B42"/>
<path d="M210.997 11.5823C210.922 13.4555 210.96 15.3286 210.96 17.1643C210.96 19.1874 210.922 21.2104 210.96 23.196C210.997 24.2824 210.398 24.2449 209.649 24.2075C208.937 24.2075 208.262 24.2824 208.3 23.196C208.337 21.9222 208.412 20.6484 208.3 19.3747C208.038 16.977 206.164 18.513 205.078 18.2133C204.291 17.9886 203.092 17.8012 203.205 19.4121C203.28 20.6484 203.167 21.8847 203.242 23.0836C203.317 24.2075 202.68 24.2075 201.856 24.2075C201.107 24.2075 200.545 24.2075 200.545 23.1585C200.582 19.1874 200.582 15.2163 200.545 11.2077C200.545 10.1962 201.032 10.0838 201.819 10.1213C202.605 10.1213 203.317 10.0463 203.242 11.2077C203.167 12.3691 203.242 13.5679 203.205 14.7292C203.167 15.4785 203.467 15.7408 204.216 15.7782C208.262 16.0405 208.262 16.0405 208.262 11.882C208.262 10.9829 207.925 10.0088 209.536 10.0463C210.735 10.1587 211.035 10.4959 210.997 11.5823Z" fill="#3C3B42"/>
<path d="M40.3132 4.68776C35.4055 4.72522 30.4978 4.68776 25.6275 4.68776C25.2529 4.68776 24.8783 4.7252 24.5036 4.57535C23.9417 4.42549 23.3797 4.38803 22.7803 4.38803H22.7428C22.6305 4.38803 22.5181 4.38803 22.4057 4.38803C22.5555 4.46296 22.7428 4.53788 22.9302 4.57535C21.1319 4.83759 19.2962 4.65029 17.498 4.68776C15.475 4.72522 15.475 4.68773 14.9879 6.67329C14.5384 8.58392 14.0888 10.532 13.6018 12.4052C13.4145 13.0421 13.5643 13.2294 14.2387 13.1919C16.4115 13.1545 18.5469 13.1919 20.7198 13.1919C21.2068 13.1919 21.6939 13.1919 21.2068 13.8663C21.1319 13.8288 21.0195 13.8288 20.9446 13.7913C20.9446 13.7913 20.9446 13.7914 20.9446 13.8288C20.9446 13.9038 20.9446 13.9412 20.9446 14.0161C20.9446 14.5406 20.7198 15.0651 20.6074 15.5896C20.6074 15.627 20.6074 15.627 20.6074 15.6645C20.6824 15.627 20.7573 15.5896 20.8322 15.5521C20.6074 16.9008 20.3826 18.2495 19.8207 19.4858C19.7458 19.5232 19.6708 19.5607 19.5959 19.5607C19.6334 20.0852 19.3711 20.5347 19.2213 21.0218C19.2587 21.0218 19.2962 20.9843 19.3337 20.9843C19.6708 21.3964 19.3711 21.8085 19.2587 22.2206C19.034 23.1572 18.959 24.0938 18.472 24.9554C18.3971 24.9929 18.3222 24.9929 18.2098 25.0303C18.1723 25.5174 18.0225 25.9669 17.9101 26.4165C17.985 26.4165 18.0974 26.379 18.1723 26.379C18.0599 27.6528 17.6478 28.8891 17.3107 30.1628C17.2732 30.1254 17.1983 30.0879 17.1608 30.0504C17.1608 30.0879 17.1608 30.0879 17.1608 30.1254C17.1608 30.1628 17.1608 30.1628 17.1608 30.1628C17.2732 30.6124 17.5729 30.7248 17.985 30.5375C19.9331 29.6384 21.9936 29.0389 23.8293 27.915C24.0541 28.2147 23.9042 28.5145 23.8293 28.8142C23.2299 31.3242 22.6305 33.8342 22.0685 36.3443C22.031 36.5691 21.8063 36.8313 22.2558 36.9062C27.5007 29.4136 32.7081 21.9584 37.953 14.4657C37.878 14.3908 37.8406 14.3533 37.7656 14.2784C34.881 15.4397 32.0338 16.6385 28.9243 17.9123C29.4862 16.4512 29.9733 15.2524 30.3854 13.9786C30.5727 13.3792 30.8724 13.1545 31.5467 13.1919C33.7571 13.2294 36.0049 13.1919 38.2152 13.2294C38.8895 13.2294 39.1143 13.0421 39.2642 12.3677C39.7887 10.1199 40.3132 7.83468 40.9126 5.62434C41.2872 4.83761 41.0624 4.68776 40.3132 4.68776ZM39.6014 6.71079C39.1893 8.17186 38.8521 9.63291 38.5524 11.094C38.4025 11.8807 38.0279 12.068 37.2786 12.0306C35.2181 11.9931 33.1202 12.0306 31.0597 11.9931C30.3854 11.9931 30.0857 12.2179 29.8234 12.8547C28.8119 15.2524 27.7629 17.6126 26.6016 20.2725C29.3364 19.0737 31.809 18.0247 34.2816 16.9383C34.3565 16.9757 34.3939 17.0507 34.4689 17.0881C31.4343 21.5463 28.4373 26.0419 25.4027 30.5C25.1405 30.3502 25.2154 30.0879 25.178 29.9006C25.4402 28.5144 25.7024 27.1283 26.0022 25.5923C24.7659 26.1168 23.6794 26.5289 22.593 27.0159C21.5065 27.4655 20.4201 27.9525 19.1464 28.5144C19.7083 26.1168 20.1953 23.9065 20.7198 21.6961C21.3942 18.774 22.0685 15.8144 22.8178 12.8922C23.0051 12.1055 22.7803 11.9931 22.0685 11.9931C20.008 12.0306 17.9101 11.9931 15.8496 12.0306C15.1752 12.0306 14.8755 11.9556 15.1003 11.1689C15.5124 9.70782 15.8496 8.17182 16.1868 6.67329C16.3366 6.03641 16.5614 5.81166 17.2357 5.81166C24.4287 5.84912 31.6217 5.84912 38.8146 5.81166C39.5264 5.84912 39.8261 5.92406 39.6014 6.71079Z" fill="#3C3B42"/>
<path d="M23.9046 27.916C23.7548 28.4405 23.2678 28.6652 22.8931 28.9649C19.7837 31.1753 16.2246 31.962 12.4783 31.7747C9.59363 31.6248 6.85881 30.8756 4.42369 29.2272C2.10096 27.6163 0.78975 25.4809 0.827213 22.5213C0.939604 18.0631 0.90214 13.605 0.827213 9.14687C0.78975 6.67428 1.76379 4.76364 3.5995 3.22764C8.58212 -1.00572 17.948 -1.08065 23.0055 3.04032C23.5675 3.48988 24.092 3.9769 24.504 4.57631C23.9796 4.80109 23.4925 4.72616 22.968 4.57631C22.7807 4.53885 22.5934 4.46392 22.4436 4.38899C22.556 4.38899 22.6683 4.38899 22.7807 4.38899C18.1353 0.00578133 8.17003 0.155644 3.74936 4.72617C1.38916 7.19875 1.50155 10.2707 4.12399 12.6684C6.59657 14.9536 9.66856 15.7779 12.9279 15.9652C15.8126 16.1525 18.435 15.2909 20.945 14.0171C20.945 13.9422 20.945 13.9047 20.945 13.8298C20.945 13.8298 20.945 13.8297 20.945 13.7923C21.02 13.7923 21.1323 13.8298 21.2073 13.8672C21.3197 14.4667 21.0949 14.9911 20.8701 15.5531C20.7952 15.5906 20.7202 15.628 20.6453 15.6655C20.4205 15.7778 20.1583 15.8528 19.9335 15.9277C14.0892 18.0257 8.58213 17.6135 3.52457 13.7923C3.03755 13.4177 2.62546 12.9681 2.06351 12.4062C2.02604 13.118 2.02604 13.6799 2.13843 14.2044C2.62545 16.5271 4.19892 18.0257 6.18447 18.9997C10.5677 21.1351 15.1007 21.3224 19.6338 19.5991C19.7087 19.5616 19.7837 19.5617 19.8586 19.5242C19.9335 20.0861 19.8586 20.6481 19.3716 21.0227C19.3341 21.0227 19.2966 21.0602 19.2592 21.0602C12.9653 22.746 7.08359 22.2215 2.06351 17.5012C1.83872 19.6366 2.73784 21.285 4.23637 22.6337C5.4352 23.7201 6.85881 24.4319 8.43227 24.9189C11.729 25.9304 15.0258 25.893 18.3226 25.0688C18.3975 25.0313 18.4724 25.0313 18.5848 24.9938C18.6972 25.5183 18.4724 25.9304 18.2851 26.38C18.2102 26.4175 18.0978 26.4175 18.0229 26.4175C15.9999 26.8296 13.9768 26.9045 11.9164 26.7546C8.95676 26.5299 6.18447 25.6682 3.86174 23.7576C3.26233 23.2705 2.77531 22.6711 2.13843 22.0342C1.91365 23.8325 2.32575 25.2936 3.33726 26.5673C4.19891 27.6163 5.28535 28.403 6.52164 29.0024C9.96827 30.6883 13.5647 30.9505 17.2736 30.1638V30.1263C17.2736 30.0889 17.2736 30.0889 17.2736 30.0514C17.3111 30.0889 17.386 30.1263 17.4235 30.1638C17.4984 30.8007 17.873 30.4261 18.0978 30.3137C19.7462 29.6393 21.4321 28.89 23.0804 28.2157C23.3052 28.0658 23.5675 27.8411 23.9046 27.916Z" fill="#3C3B42"/>
<path d="M91.5261 24.1687C90.627 24.2436 89.578 24.6557 88.9411 23.4569C87.6674 21.0592 86.3187 18.7365 85.0075 16.3763C84.8576 16.114 84.7078 15.8893 84.2208 15.702V21.284C84.2208 21.8085 84.1833 22.3704 84.2208 22.8949C84.3332 23.9064 83.9585 24.2436 82.9095 24.2436C81.7856 24.2436 81.6358 23.7941 81.6358 22.82C81.6733 19.0737 81.6358 15.3648 81.6733 11.6185C81.6733 11.094 81.3361 10.2698 82.2352 10.1948C83.0969 10.1199 84.1084 9.78275 84.7078 10.9066C86.019 13.3418 87.3677 15.7019 88.7164 18.0996C88.8288 18.3244 88.9786 18.5117 89.091 18.699C89.2034 18.699 89.3158 18.6615 89.3907 18.6615C89.3907 16.2264 89.4282 13.7913 89.3532 11.3562C89.3158 10.1948 89.8777 10.1199 90.7768 10.1199C91.7134 10.1199 92.0506 10.3447 92.0506 11.3562C92.0131 15.14 92.0506 18.9238 92.0131 22.7076C92.0131 23.2321 92.3878 24.0938 91.5261 24.1687Z" fill="#3C3B42"/>
<path d="M168.963 23.1958C168.326 21.922 167.764 20.6108 167.09 19.3745C166.715 18.7002 166.79 18.2881 167.427 17.8011C169.038 16.4524 169.113 14.6167 168.551 12.8184C167.989 10.9827 166.416 10.3458 164.655 10.2334C163.306 10.1211 161.92 10.2335 160.534 10.196C159.635 10.1585 159.335 10.4957 159.335 11.3948C159.372 13.3055 159.335 15.2161 159.335 17.1267C159.335 18.9999 159.372 20.8731 159.335 22.7088C159.298 23.7577 159.447 24.3197 160.759 24.2822C162.07 24.2822 162.032 23.6079 161.995 22.7088C161.957 21.9595 161.957 21.2477 161.995 20.4984C162.032 19.9739 161.658 19.2247 162.557 19.0748C163.344 18.9624 164.13 18.925 164.505 19.9365C164.842 20.8356 165.441 21.6972 165.741 22.5964C166.191 23.945 167.015 24.3571 168.401 24.2447C169.375 24.1698 169.3 23.8701 168.963 23.1958ZM163.456 16.6772C161.995 16.6772 161.995 16.6772 161.995 14.0547C161.957 13.4553 161.658 12.2939 163.493 12.4812C165.404 12.6686 166.153 13.1182 166.153 14.6167C166.153 16.1527 165.442 16.6772 163.456 16.6772Z" fill="#3C3B42"/>
<path d="M210.997 11.5823C210.922 13.4555 210.96 15.3286 210.96 17.1643C210.96 19.1874 210.922 21.2104 210.96 23.196C210.997 24.2824 210.398 24.2449 209.649 24.2075C208.937 24.2075 208.262 24.2824 208.3 23.196C208.337 21.9222 208.412 20.6484 208.3 19.3747C208.038 16.977 206.164 18.513 205.078 18.2133C204.291 17.9886 203.092 17.8012 203.205 19.4121C203.28 20.6484 203.167 21.8847 203.242 23.0836C203.317 24.2075 202.68 24.2075 201.856 24.2075C201.107 24.2075 200.545 24.2075 200.545 23.1585C200.582 19.1874 200.582 15.2163 200.545 11.2077C200.545 10.1962 201.032 10.0838 201.819 10.1213C202.605 10.1213 203.317 10.0463 203.242 11.2077C203.167 12.3691 203.242 13.5679 203.205 14.7292C203.167 15.4785 203.467 15.7408 204.216 15.7782C208.262 16.0405 208.262 16.0405 208.262 11.882C208.262 10.9829 207.925 10.0088 209.536 10.0463C210.735 10.1587 211.035 10.4959 210.997 11.5823Z" fill="#3C3B42"/>
<path d="M155.251 19.7116C155.251 22.6712 154.839 23.3081 152.516 23.9075C149.557 24.6943 146.897 23.7951 145.773 21.4724C144.387 18.6252 144.424 15.6281 145.81 12.8184C146.747 10.9077 148.508 10.0835 150.568 10.2334C152.591 10.3832 154.277 11.2075 154.952 13.3429C155.101 13.8299 155.588 14.5417 154.914 14.7665C154.202 14.9913 153.116 15.3284 152.666 14.4293C152.029 13.0806 151.205 12.2939 149.707 12.706C148.171 13.0806 147.759 14.4293 147.609 15.778C147.459 17.1267 147.421 18.5128 147.871 19.8615C148.395 21.3975 149.669 22.1468 151.205 21.8845C152.254 21.6972 152.666 21.1727 152.666 20.0863C152.666 18.9249 151.992 18.9624 151.243 19.0373C150.418 19.1122 150.269 18.6627 150.269 17.9509C150.269 17.2016 150.493 16.827 151.28 16.9019C151.655 16.9394 152.067 16.9019 152.441 16.9019C155.251 16.8644 155.251 16.8644 155.251 19.7116Z" fill="#3C3B42"/>
<path d="M69.6089 13.1572C68.7473 11.3215 67.2113 10.31 65.1883 10.1976C63.3151 10.1227 61.7416 10.9094 60.7301 12.5578C59.831 13.9814 59.4938 15.5174 59.6437 17.2033C59.6437 17.7278 59.6062 18.2897 59.6437 18.8142C59.9434 21.7738 61.9664 23.9467 64.5889 24.2089C66.9865 24.4337 69.2343 22.8602 70.021 20.2003C70.7328 17.8027 70.6954 15.4425 69.6089 13.1572ZM67.2862 20.0879C66.8741 21.0994 66.1623 21.7363 65.0759 21.8112C63.9145 21.8487 63.0903 21.2493 62.6782 20.1628C61.9664 18.2148 61.9664 16.2292 62.6782 14.2811C63.0529 13.2321 63.9145 12.5953 65.0759 12.6327C66.1623 12.6702 66.8741 13.3445 67.2862 14.3186C67.6983 15.2552 67.6608 16.2292 67.7732 17.1283C67.6983 18.1773 67.6983 19.1514 67.2862 20.0879Z" fill="#3C3B42"/>
<path d="M183.276 22.7081C182.039 18.9243 180.691 15.178 179.454 11.4317C179.192 10.6075 178.892 10.1205 177.843 10.1205C176.794 10.1205 176.382 10.57 176.083 11.4691C174.846 15.2529 173.573 18.9992 172.224 22.7456C171.774 23.9819 172.037 24.394 173.31 24.1692C174.284 24.394 174.809 23.9444 174.921 23.0079C175.071 21.6217 175.783 21.2096 177.206 21.2471C178.93 21.2845 180.428 21.1347 180.803 23.4949C180.99 24.8061 182.414 24.2816 183.163 24.1318C184.175 23.9444 183.425 23.1577 183.276 22.7081ZM178.593 18.9618C178.106 18.9618 177.619 18.9618 177.132 18.9618C176.532 18.9618 176.307 18.6996 176.495 18.1376C176.869 16.8639 177.244 15.6275 177.656 14.3538C177.768 14.3538 177.881 14.3538 177.993 14.3538C178.368 15.5901 178.743 16.8638 179.192 18.1001C179.304 18.6995 179.23 18.9993 178.593 18.9618Z" fill="#3C3B42"/>
<path d="M117.75 23.0831C117.75 24.3194 117.076 24.2445 116.252 24.2445C114.304 24.207 112.318 24.207 110.37 24.2445C109.396 24.2819 109.096 23.9073 109.134 22.9707C109.209 21.0601 109.134 19.1495 109.134 17.2388C109.134 15.2158 109.171 13.2303 109.134 11.2072C109.134 10.458 109.359 10.1583 110.145 10.1583C112.356 10.1957 114.566 10.1957 116.776 10.1583C117.788 10.1208 117.713 10.7202 117.713 11.3946C117.75 12.1438 117.601 12.5934 116.702 12.5559C115.39 12.481 114.042 12.5559 112.73 12.5559C111.457 12.5185 111.794 13.4925 111.831 14.1294C111.869 14.7662 111.307 15.8527 112.693 15.8527C113.704 15.8527 114.753 15.8901 115.765 15.8527C116.664 15.8152 116.851 16.1898 116.814 16.9766C116.776 17.6884 116.776 18.2129 115.802 18.1754C114.866 18.1005 113.929 18.2129 112.993 18.138C112.056 18.063 111.681 18.4002 111.719 19.3742C111.794 22.4088 111.419 21.8468 114.191 21.9218C114.866 21.9218 115.578 21.9592 116.252 21.9218C117.226 21.8094 117.75 21.9217 117.75 23.0831Z" fill="#3C3B42"/>
<path d="M141.652 23.0097C141.69 24.1711 141.09 24.246 140.191 24.246C138.243 24.2085 136.258 24.2085 134.309 24.246C133.373 24.2834 132.998 24.0212 133.036 23.0097C133.111 21.0991 133.073 19.1884 133.073 17.2778C133.073 15.3297 133.111 13.3442 133.073 11.3961C133.036 10.5344 133.261 10.1598 134.197 10.1972C136.295 10.2721 138.43 10.2347 140.528 10.1972C141.353 10.1972 141.652 10.4595 141.615 11.3211C141.577 12.1078 141.577 12.6698 140.528 12.5949C139.255 12.52 137.981 12.6324 136.707 12.5574C135.321 12.52 135.733 13.494 135.733 14.2058C135.733 14.8802 135.321 15.8916 136.707 15.8542C137.644 15.8167 138.58 15.8916 139.517 15.8542C140.491 15.8167 140.791 16.1539 140.791 17.1279C140.791 18.1769 140.229 18.2144 139.479 18.1769C138.88 18.1395 138.318 18.1769 137.719 18.1769C135.733 18.1769 135.845 18.1769 135.696 20.1625C135.621 21.5861 136.033 22.1106 137.494 21.9607C138.43 21.8483 139.367 21.9607 140.304 21.9233C141.09 21.8483 141.615 21.8858 141.652 23.0097Z" fill="#3C3B42"/>
<path d="M193.126 10.3467C191.478 10.0095 189.792 10.2718 188.144 10.1594C187.207 10.0845 186.982 10.4965 186.982 11.3582C187.02 13.3063 186.982 15.2919 186.982 17.24C186.982 19.1881 187.02 21.1736 186.982 23.1217C186.982 23.9459 187.245 24.1707 188.069 24.2456C189.418 24.358 189.792 23.8335 189.68 22.5972C189.605 21.6232 189.38 20.4618 189.792 19.7125C190.354 18.701 191.665 19.3754 192.639 19.263C195.037 18.9633 196.648 17.4647 196.798 15.2544C196.91 12.7069 195.562 10.8712 193.126 10.3467ZM191.216 16.9402C189.155 17.1276 189.717 15.7789 189.642 14.9922C189.642 13.606 189.193 12.2948 191.216 12.4821C193.126 12.6694 194.1 13.2688 194.063 14.8423C194.1 16.3408 193.276 16.7904 191.216 16.9402Z" fill="#3C3B42"/>
<path d="M55.8223 21.0604C55.148 22.971 53.6494 23.9451 51.7014 24.1698C49.7533 24.3946 48.1049 23.7203 46.981 22.0719C45.9695 20.6108 45.5948 18.9624 45.7447 17.314C45.6698 15.5532 45.9695 13.9798 46.8686 12.5562C47.955 10.7954 49.6409 10.0461 51.6264 10.2334C53.7618 10.4582 55.2978 11.5821 55.9347 13.7175C56.0846 14.1671 56.4592 14.9164 55.7099 15.0662C54.9981 15.2161 53.8742 15.6657 53.5371 14.5792C53.05 13.1182 52.1884 12.4063 50.7273 12.6311C49.1913 12.8559 48.7043 14.1296 48.517 15.4034C48.3297 16.9394 48.2173 18.5503 48.7792 20.0489C49.1538 21.1353 49.8656 21.8096 51.027 21.8096C52.1509 21.8096 53.0875 21.3601 53.3497 20.1987C53.7244 18.7377 54.8857 19.1872 55.5975 19.3745C56.5716 19.6367 56.0471 20.4984 55.8223 21.0604Z" fill="#3C3B42"/>
<path d="M105.686 11.281C105.686 12.1052 105.536 12.5173 104.562 12.5547C101.753 12.6297 101.79 12.6671 101.79 15.4394C101.79 17.9869 101.753 20.5344 101.828 23.0819C101.865 24.2058 101.303 24.2058 100.479 24.2433C99.6547 24.2433 99.0928 24.1684 99.1302 23.0819C99.2051 20.0474 99.1302 17.0128 99.1677 13.9783C99.2051 12.8919 98.9054 12.4049 97.7815 12.5547C97.4069 12.5922 96.9948 12.5173 96.6202 12.5547C95.7585 12.6297 95.2715 12.4423 95.2715 11.3934C95.2715 10.3819 95.6087 10.1196 96.5452 10.1571C97.8565 10.232 99.2051 10.1571 100.516 10.1571C101.902 10.1571 103.251 10.1945 104.637 10.1571C105.499 10.1196 105.686 10.5317 105.686 11.281Z" fill="#3C3B42"/>
<path d="M129.552 23.0848C129.552 24.0214 129.178 24.2462 128.316 24.2087C126.368 24.1713 124.382 24.1713 122.434 24.2087C121.535 24.2462 121.236 23.9465 121.236 23.0474C121.273 21.0244 121.236 19.0388 121.236 17.0158C121.236 15.1426 121.273 13.3069 121.198 11.4337C121.161 10.3848 121.498 10.0851 122.547 10.1225C123.521 10.1225 123.933 10.3099 123.933 11.3963C123.858 14.3934 123.97 17.3904 123.895 20.35C123.858 21.6238 124.27 21.9984 125.469 21.8485C126.405 21.7736 127.342 21.886 128.241 21.8111C129.215 21.8111 129.552 22.1108 129.552 23.0848Z" fill="#3C3B42"/>
<path d="M75.792 24.2448C74.9303 24.2448 74.4058 24.1324 74.4433 23.0834C74.4808 19.1497 74.4808 15.2535 74.4433 11.3199C74.4433 10.2335 74.9678 10.1585 75.792 10.1585C76.6536 10.1585 77.1781 10.2709 77.1407 11.3199C77.0657 13.268 77.1032 15.2536 77.1032 17.2017C77.1032 19.1498 77.0657 21.1353 77.1407 23.0834C77.1781 24.1324 76.6536 24.2448 75.792 24.2448Z" fill="#3C3B42"/>
<path d="M22.3311 36.907C22.2562 37.0194 22.2187 37.1693 22.1438 37.2816C21.8066 37.3191 21.8816 37.0943 21.919 36.907C21.994 36.7197 22.0689 36.5324 22.1438 36.3451C22.2187 36.5324 22.1438 36.7572 22.3311 36.907Z" fill="#3C3B42"/>
<path d="M22.1822 37.3187C22.1072 37.4685 22.0323 37.6558 21.8825 37.506C21.7326 37.3561 21.8075 37.0939 21.9574 36.9066C21.9949 37.0564 21.9949 37.2437 22.1822 37.3187Z" fill="#3C3B42"/>
<path d="M25.4033 30.5402C24.9155 30.5027 25.1407 30.1649 25.1782 29.9398C25.2157 30.1649 25.1407 30.3901 25.4033 30.5402Z" fill="#3C3B42"/>
<path d="M22.781 4.38803C22.6686 4.38803 22.5562 4.38803 22.4438 4.38803C22.5937 4.46296 22.781 4.53788 22.9683 4.57535C22.8934 4.50042 22.8185 4.42549 22.781 4.38803ZM20.9453 13.8288C20.9453 13.9037 20.9453 13.9787 20.9453 14.0161L21.2076 13.9037C21.0952 13.8663 21.0202 13.8288 20.9453 13.8288Z" fill="#3C3B42"/>
<path d="M17.2363 30.0501C17.2363 30.0879 17.2363 30.0879 17.2363 30.1257C17.2363 30.1634 17.2363 30.1634 17.2363 30.1634C17.2741 30.1634 17.3496 30.1257 17.3873 30.1257C17.3496 30.0879 17.3118 30.0501 17.2363 30.0501Z" fill="#3C3B42"/>
<path d="M25.4039 30.5376C25.3665 30.7249 25.2541 30.9123 25.0293 30.8748C24.6921 30.7999 24.9544 30.5751 24.9918 30.4252C25.0293 30.2379 25.1042 30.088 25.1792 29.9007C25.2166 30.163 25.1417 30.3878 25.4039 30.5376Z" fill="#3C3B42"/>
</svg>
