<svg width="49" height="48" viewBox="0 0 49 48" fill="none" xmlns="http://www.w3.org/2000/svg">
<path d="M48.0422 21.083C47.0468 11.8153 40.1897 3.65537 31.1943 0.996905C29.7196 0.553828 28.1713 0.369231 26.6966 0H21.7197C20.245 0.369231 18.6966 0.553828 17.222 0.996905C8.18969 3.69229 1.40629 11.7415 0.374029 21.083C0.374029 21.2307 0.30029 21.3415 0.263423 21.4892C0.263423 21.0831 0.263423 20.6769 0.263423 20.2339C0.226557 20.6031 0.189697 20.9723 0.189697 21.3046C0.189697 21.4523 0.189697 21.5631 0.189697 21.7108V26.2523C0.189697 26.363 0.189688 26.4738 0.226555 26.5846C0.263421 26.8431 0.263425 27.1015 0.300292 27.3969C0.300292 27.1015 0.300292 26.7692 0.300292 26.4738C0.668956 28.5046 1.03762 30.5723 1.81182 32.5292C4.31873 38.8799 8.66895 43.4584 14.9731 46.1169C17.3325 47.1138 19.8395 47.6307 22.4201 47.8523V47.8892C22.4201 47.9261 22.4201 47.9631 22.4201 48H26.033C26.033 47.9631 26.033 47.8892 26.033 47.8523C26.4754 47.8153 26.9547 47.7415 27.3971 47.6676C30.162 47.2246 32.8533 46.5969 35.2865 45.3046C43.4339 40.9477 48.1897 32.9723 48.1897 23.9262C48.1897 23.0031 48.1528 22.043 48.0422 21.083ZM18.0699 18.6092C18.0699 16.9107 19.3971 15.5446 21.0929 15.5446C22.7519 15.5446 24.116 16.8738 24.1528 18.5354C24.1897 20.2338 22.8256 21.6 21.1298 21.6C19.3971 21.6 18.1068 20.2707 18.0699 18.6092ZM8.66896 22.9292C8.44776 26.4738 8.1897 30.0554 7.15744 33.5262C6.86251 34.5231 6.56757 35.4831 6.01458 36.48C4.94545 35.04 4.17126 33.5262 3.5814 31.9385C-1.39556 18.7569 6.71504 4.43079 20.5768 2.14156C27.4708 0.996941 33.7012 2.73229 38.9731 7.45844C44.5399 12.4431 46.8994 18.7569 46.3095 26.1784C45.5353 35.52 38.1989 43.7169 28.9086 45.6738C28.2081 45.8215 28.1344 45.563 28.1344 45.0092C27.9501 41.9446 29.0561 39.2862 30.5676 36.7385C32.374 33.6738 34.7703 31.1262 37.3141 28.6154C38.3832 27.5815 39.5998 26.5846 40.4109 25.3292C39.6367 25.7353 38.9731 26.3631 38.1252 26.6954C35.2496 28.2092 32.2634 29.28 28.9823 29.2431C27.4339 29.2431 25.9961 28.763 24.8533 27.6553C25.775 27.9877 26.6966 28.32 27.692 28.4308C31.0837 28.7631 34.2911 27.9877 37.351 26.6954C37.5353 26.6216 37.7197 26.5477 37.904 26.4738C38.8625 26.0308 39.6736 25.2923 40.7058 24.9599C41.1482 24.443 41.4431 23.8892 41.7012 23.2615C42.5491 21.1569 41.9593 19.3476 39.8948 17.9446C38.5676 17.0215 37.0561 16.4677 35.5077 16.0615C33.9961 15.6554 32.5584 15.0277 31.0837 14.5108C30.7888 14.4 30.6413 14.1785 30.457 13.9569C30.0146 12.9969 29.2773 12.3692 28.2819 12.0738C27.1021 11.7046 25.9224 11.7784 24.7427 12.0738C24.116 12.2215 23.4892 12 22.8994 11.8892C20.2081 11.3723 17.775 12.1476 15.3049 13.1446C10.8809 14.9907 8.92703 18.3138 8.66896 22.9292ZM35.5077 22.7815C35.5077 22.2277 35.8763 21.8954 36.4293 21.8954C36.9823 21.8954 37.2773 22.2277 37.351 22.8185C37.2773 23.3354 37.0192 23.7416 36.4293 23.7416C35.8395 23.7416 35.5077 23.3723 35.5077 22.7815Z" fill="#7D7E81"/>
</svg>
