<svg width="175" height="32" viewBox="0 0 175 32" fill="none" xmlns="http://www.w3.org/2000/svg">
<path d="M15.6219 0.496765C7.14926 0.496765 0.271484 7.34132 0.271484 15.7807C0.271484 24.1869 7.14926 31.0647 15.5554 31.0647C24.0613 31.0647 30.9058 24.2533 30.8726 15.7475C30.8394 7.34133 24.0613 0.496765 15.6219 0.496765ZM14.027 21.562C16.5522 22.293 19.3432 21.2962 20.6722 19.0369C21.1374 18.2395 21.669 17.9736 22.5329 18.0401C23.3968 18.1066 24.2939 18.1066 25.191 18.0401C26.1877 17.9404 26.1877 18.3723 25.9219 19.1365C24.0281 24.9511 17.5822 28.0079 11.8341 25.8149C7.28216 24.0872 4.35828 19.3359 4.95634 14.6178C5.62086 9.3681 9.5083 5.54711 14.758 5.01549C19.4761 4.5171 24.1942 7.54068 25.8223 12.0926C26.3207 13.4549 26.3207 13.4549 24.8919 13.4549C24.46 13.4549 24.0281 13.4549 23.6293 13.4549C23.43 13.4549 23.1974 13.4217 22.9981 13.4549C21.8684 13.621 21.2039 13.2556 20.5393 12.2256C19.1438 10.0326 16.2532 9.20196 13.7612 10.0326C11.2693 10.8965 9.67444 13.2223 9.74089 15.9136C9.77411 18.5717 11.5351 20.8311 14.027 21.562Z" fill="#3C3B42"/>
<path d="M118.39 12.5249C115.533 10.0329 112.277 9.80034 109.087 12.1594C108.256 12.7907 108.323 12.1262 108.323 11.5946C108.323 10.0662 108.19 8.53774 108.356 7.04257C108.555 5.21514 107.924 4.71677 106.13 4.81645C104.535 4.8829 103.638 4.91613 103.771 6.94292C103.97 9.96648 103.837 12.99 103.837 16.0136C103.837 19.1036 103.804 22.2268 103.87 25.3169C103.904 26.0146 103.206 27.3769 104.701 27.2772C105.831 27.1775 107.558 28.4069 108.024 26.1475C108.256 25.0178 108.688 25.7488 109.12 26.0811C113.473 29.1379 119.055 27.244 120.517 22.1272C121.513 18.6052 121.314 15.0833 118.39 12.5249ZM112.243 23.8217C109.785 23.7885 108.223 21.8282 108.289 18.9043C108.356 16.0801 109.951 14.3523 112.409 14.3855C114.868 14.452 116.496 16.4123 116.397 19.303C116.297 22.0607 114.636 23.8549 112.243 23.8217Z" fill="#3C3B42"/>
<path d="M139.688 24.0546C137.362 22.8584 138.525 20.8316 138.193 19.3365C138.193 16.5455 138.591 13.7878 136 11.9271C133.209 9.93354 127.56 10.2326 125.002 12.5251C124.271 13.1564 123.773 13.9539 123.474 14.851C123.341 15.2497 123.208 15.9142 123.773 15.881C125.235 15.7481 126.796 16.6119 128.125 15.0171C129.587 13.2893 132.71 13.6549 133.508 15.4158C133.94 16.4126 134.039 17.2432 132.478 17.1768C130.684 17.1103 128.856 17.0771 127.095 17.5755C124.437 18.3065 122.975 19.9346 122.875 22.3933C122.776 24.4201 123.573 25.9484 125.401 26.7791C127.992 27.942 130.617 28.0749 132.976 26.2143C133.907 25.4833 134.172 25.1178 135.036 26.3804C136.033 27.8423 138.06 27.7426 139.422 27.1446C140.352 26.7459 140.087 24.2872 139.688 24.0546ZM129.919 24.2539C128.69 24.2207 127.361 23.8884 127.461 22.4265C127.627 19.9013 129.72 20.3 131.514 20.1671C132.079 20.6987 133.607 19.3033 133.674 21.0975C133.74 22.8252 131.913 24.2872 129.919 24.2539Z" fill="#3C3B42"/>
<path d="M164.277 20.1005C167.301 20.2001 170.325 20.1004 173.348 20.1337C174.312 20.1669 174.843 19.9676 174.81 18.8711C174.744 15.9472 173.847 13.4885 171.255 11.8937C168.198 9.99977 163.547 10.2656 160.855 12.4253C158.197 14.585 157.2 18.7049 158.463 22.3266C159.626 25.6492 162.55 27.5099 166.603 27.5431C170.192 27.5763 173.082 25.8485 174.146 23.1572C174.544 22.1604 174.511 21.6953 173.282 21.7618C171.787 21.8614 170.358 21.4959 169.128 23.1572C167.7 25.0179 164.078 24.1873 163.081 22.0608C162.55 20.8647 162.45 20.034 164.277 20.1005ZM163.679 15.183C164.743 13.9869 166.138 13.8207 167.633 14.153C168.896 14.452 170.125 15.3492 169.992 16.5453C169.859 17.7747 168.397 16.9108 167.534 17.1433C167.201 17.243 166.836 17.1433 166.47 17.1433C165.839 17.1433 165.175 17.1766 164.543 17.1433C164.012 17.1101 163.281 17.4756 162.982 16.8443C162.683 16.213 163.247 15.6482 163.679 15.183Z" fill="#3C3B42"/>
<path d="M65.9601 10.6306C60.6439 10.6306 57.122 14.0196 57.1884 19.2029C57.2217 24.2532 60.7436 27.5758 65.9601 27.5426C71.243 27.5094 74.5988 24.2532 74.5988 19.1032C74.5988 13.9864 71.2098 10.6306 65.9601 10.6306ZM65.9601 23.8213C63.4681 23.8545 61.8401 21.9606 61.8401 19.07C61.8733 16.1461 63.4681 14.3519 65.9933 14.3851C68.4188 14.4183 69.9804 16.2457 70.0137 19.0035C70.0801 21.8941 68.452 23.788 65.9601 23.8213Z" fill="#3C3B42"/>
<path d="M100.879 17.2439C100.613 11.3629 95.0979 8.63838 90.2137 11.9278C89.4495 12.4261 89.3166 12.5923 88.8515 11.5955C88.1537 10.0339 86.5589 10.931 85.4292 10.931C84.3327 10.931 84.8976 12.0606 84.8643 12.6587C84.7979 14.7519 84.8311 16.8452 84.8311 18.9384C84.8311 21.1646 84.964 23.4239 84.7979 25.6501C84.665 27.3778 85.4624 27.5772 86.8247 27.4111C87.9544 27.2781 89.5492 28.0424 89.3831 25.7165C89.2169 23.291 89.2502 20.8323 89.4163 18.3736C89.5824 15.6491 90.9779 14.32 93.3037 14.4529C95.397 14.5526 96.3605 15.782 96.427 18.5397C96.4934 21.0649 96.4934 23.5901 96.427 26.1152C96.3605 28.0756 97.7892 27.3778 98.6863 27.3778C99.5502 27.3446 101.012 28.142 100.979 26.1484C100.912 23.1581 101.045 20.201 100.879 17.2439Z" fill="#3C3B42"/>
<path d="M153.178 17.9746C151.55 17.3765 149.789 17.3101 148.095 17.0111C147.065 16.8449 145.403 17.0111 145.569 15.3498C145.736 13.7881 147.297 13.8546 148.526 13.8214C149.39 13.7881 150.487 13.8878 150.886 14.652C151.749 16.2469 153.112 15.8149 154.407 15.9146C155.969 16.0475 156.168 15.4162 155.537 14.1868C154.042 11.2297 151.317 10.7646 148.427 10.5985C147.33 10.5652 146.267 10.6649 145.204 11.0304C142.546 11.8943 141.051 13.7549 141.117 16.2137C141.184 18.4066 142.446 19.6691 145.403 20.3004C147.031 20.6659 148.693 20.7988 150.321 21.0979C151.052 21.2308 151.716 21.5962 151.716 22.4933C151.716 23.324 151.218 23.8889 150.454 24.055C148.493 24.4869 146.633 24.6198 145.237 22.593C144.141 21.0314 142.28 21.6627 141.15 22.0946C140.22 22.4934 141.217 23.9885 141.782 24.7859C144.34 28.3079 152.215 28.5073 155.039 25.1847C157.232 22.6927 156.301 19.1375 153.178 17.9746Z" fill="#3C3B42"/>
<path d="M54.896 21.164C53.2348 21.2969 51.2412 20.0344 50.0118 22.5263C49.1812 24.1876 46.5896 24.254 45.0612 22.9915C43.1008 21.3302 43.0011 17.1437 44.9283 15.3495C46.357 13.9872 48.9486 13.9208 49.9122 15.5489C50.7428 16.9444 51.6731 17.2434 52.836 17.044C55.6935 17.044 55.7932 16.8779 54.6302 14.5188C53.8328 12.9572 52.6035 11.894 51.0086 11.2627C47.5863 9.90044 43.267 10.7311 40.9744 13.223C38.715 15.6818 38.2166 20.134 39.8115 23.3902C41.2734 26.3473 44.4299 27.8425 48.417 27.5102C51.6731 27.2112 54.2648 25.284 55.0954 22.4931C55.2283 22.0279 55.7932 21.0976 54.896 21.164Z" fill="#3C3B42"/>
<path d="M79.516 10.8619C78.5856 10.9283 77.0573 9.99801 77.0573 12.1577C77.1237 16.7761 77.1237 21.3945 77.0573 26.013C77.024 27.9401 78.3531 27.3752 79.2834 27.342C80.2137 27.2755 81.7753 28.1726 81.7421 26.0462C81.6757 23.7536 81.7089 21.4277 81.7089 19.1352C81.7089 16.8426 81.6424 14.5168 81.7421 12.2242C81.8418 10.1974 80.4463 10.7954 79.516 10.8619Z" fill="#3C3B42"/>
<path d="M79.3162 3.95282C77.821 4.0525 76.8242 4.88314 76.8242 6.47799C76.8242 8.07283 77.7878 9.00315 79.4158 9.00315C81.0107 9.00315 82.0407 8.13928 82.0075 6.5112C82.0075 4.91636 81.0439 4.0525 79.3162 3.95282Z" fill="#3C3B42"/>
</svg>
