<svg width="280" height="48" viewBox="0 0 280 48" fill="none" xmlns="http://www.w3.org/2000/svg">
<path d="M47.0292 17.3404C43.5708 5.07691 31.0167 -2.28118 18.6355 0.793324C6.70389 3.76419 -1.04301 15.7167 1.03205 27.9802C3.24545 41.0727 15.6612 50.1235 29.0454 47.429C33.3684 46.5654 37.1381 44.5618 40.3545 41.591C41.0116 40.9691 41.2537 40.2092 41.0116 39.3455C40.7695 38.5164 40.2161 37.9982 39.4207 37.8255C38.5215 37.6182 37.8644 37.9982 37.2073 38.5855C31.155 44.0436 22.5435 45.1145 15.35 41.3146C13.3095 40.2437 11.5111 38.8273 9.9894 37.0655C13.3095 31.7456 16.595 26.4948 19.9151 21.2094C20.0534 21.4512 20.0534 21.6585 20.0534 21.8312C20.0534 23.973 20.0189 26.1148 20.088 28.2566C20.1226 29.2584 20.2264 30.3292 20.5376 31.262C21.2985 33.6456 23.754 34.3019 25.6215 32.6783C26.3132 32.0565 26.9012 31.2965 27.4199 30.5365C28.3537 29.1547 29.1837 27.7038 30.0829 26.2529C31.155 24.5257 32.2271 22.7985 33.2993 21.0367C33.3684 21.0367 33.403 21.0712 33.4722 21.0712C33.4722 21.9348 33.4376 22.7639 33.4722 23.6275C33.5414 25.0784 33.5068 26.5639 33.818 27.9457C34.7172 32.022 38.3486 34.2329 42.1874 33.1965C45.3 32.3674 47.6863 29.3275 47.9284 25.8384C48.1014 22.9712 47.7901 20.1385 47.0292 17.3404ZM43.5708 25.3548C43.4671 26.5639 43.0175 27.6693 42.0145 28.4293C40.4582 29.6384 38.6598 29.1202 38.0373 27.2548C37.8298 26.6329 37.7606 25.9766 37.7606 25.3202C37.6915 23.1785 37.7261 21.0712 37.6223 18.9294C37.5877 18.2385 37.311 17.4785 36.9998 16.8567C36.1006 15.1295 34.233 14.6459 32.5384 15.5786C31.4663 16.1658 30.6709 17.064 30.0138 18.0658C28.3191 20.7258 26.6591 23.4548 24.9644 26.1148C24.7915 26.3912 24.6186 26.6675 24.3073 26.9093V26.2875C24.3073 23.4203 24.3419 20.553 24.3073 17.6858C24.3073 16.9258 24.169 16.1313 23.9961 15.3713C23.754 14.3004 23.0969 13.5404 21.9902 13.264C20.8489 12.9877 19.8805 13.4368 19.1197 14.3004C18.7392 14.7495 18.3934 15.2331 18.0821 15.7167C14.5891 21.313 11.0615 26.9093 7.5685 32.5401C7.46474 32.6783 7.36099 32.851 7.15349 33.1274C6.70389 32.022 6.25429 31.0202 5.94303 30.0183C2.34626 19.1021 8.84811 7.52957 20.0534 4.83507C28.3883 2.83146 37.3802 7.04596 41.3574 14.784C43.0866 18.1694 43.8475 21.6585 43.5708 25.3548Z" fill="#7D7E81"/>
<path d="M148.534 33.8875C148.499 34.7857 148.05 35.442 147.22 35.7875C146.424 36.0984 145.629 35.9602 145.006 35.3729C144.488 34.9238 144.28 34.3366 144.28 33.6802C144.28 30.7439 144.28 27.8422 144.28 24.9058V24.1804C142.828 25.7349 141.479 27.1858 140.165 28.6367C139.922 28.8785 139.68 29.1549 139.473 29.3967C138.608 30.3294 137.917 30.3639 137.052 29.4312C135.599 27.8421 134.147 26.2876 132.66 24.6985C132.556 24.5949 132.452 24.4567 132.21 24.2149V24.9749C132.21 27.8421 132.21 30.7439 132.21 33.6111C132.21 34.8893 131.346 35.8565 130.135 35.9256C128.89 35.9947 127.922 34.9929 127.922 33.6802C127.922 30.6748 127.922 27.704 127.922 24.7331C127.922 21.5895 127.922 18.4804 127.922 15.3369C127.922 14.8878 127.853 14.4732 128.406 14.266C128.925 14.0587 129.27 14.3696 129.582 14.6805C131 16.235 132.383 17.8241 133.801 19.3786C135.012 20.7259 136.222 22.1077 137.432 23.4549C138.124 24.2149 138.366 24.2149 139.058 23.4549C141.513 20.6913 143.969 17.9623 146.424 15.1987C146.632 14.9568 146.839 14.6459 147.116 14.5078C147.427 14.335 147.842 14.2314 148.154 14.3005C148.569 14.3696 148.603 14.8187 148.603 15.1987C148.603 20.3113 148.603 25.424 148.603 30.5366C148.569 31.6766 148.603 32.7821 148.534 33.8875Z" fill="#7D7E81"/>
<path d="M278.848 24.8022C277.672 21.9695 275.044 20.3459 272 20.4495C270.271 20.5186 268.715 21.1058 267.435 22.384C267.401 22.2458 267.366 22.1422 267.331 22.0386C267.02 21.0022 266.363 20.5186 265.464 20.6568C264.565 20.7949 264.046 21.4859 264.046 22.5222C264.046 28.3948 264.046 34.302 264.046 40.1747C264.046 41.4874 264.98 42.4546 266.19 42.4892C267.366 42.4892 268.334 41.4874 268.369 40.2092C268.369 39.5183 268.369 38.8274 268.369 38.1365V34.9584C268.611 35.0966 268.784 35.2002 268.922 35.2693C272.727 37.1347 276.669 36.0638 278.606 32.2639C279.816 29.8457 279.92 27.3239 278.848 24.8022ZM274.317 31.0548C273.142 32.5402 271.136 32.713 269.718 31.4694C268.092 30.0876 267.85 27.3585 269.199 25.7003C270.064 24.5949 271.551 24.1458 272.83 24.5604C274.145 24.9749 275.113 26.2185 275.251 27.7385C275.251 27.9112 275.286 28.1185 275.286 28.2912C275.251 29.293 274.975 30.2257 274.317 31.0548Z" fill="#7D7E81"/>
<path d="M242.743 33.2311C239.457 35.9601 235.757 36.9619 231.676 35.4765C227.664 34.0256 225.312 31.0202 224.517 26.8402C224.413 26.253 224.378 25.6312 224.344 25.2512C224.413 18.6185 229.635 13.6095 235.93 13.955C237.935 14.0586 239.803 14.6804 241.463 15.7859C242.258 16.3386 242.673 17.064 242.501 18.0313C242.258 19.3785 240.668 20.0349 239.526 19.3094C238.005 18.3076 236.345 17.7895 234.512 17.9967C232.264 18.2731 230.569 19.4476 229.531 21.4512C228.286 23.9039 228.252 26.3911 229.531 28.8093C231.468 32.5056 236.102 33.4038 239.561 30.8474C239.803 30.6747 240.01 30.4675 240.218 30.2947C241.048 29.6384 242.224 29.742 242.881 30.502C243.607 31.3311 243.538 32.5747 242.743 33.2311Z" fill="#7D7E81"/>
<path d="M82.0972 33.1964C77.7742 37.0309 71.8949 37.0654 67.7447 33.6455C64.8742 31.2964 63.6292 28.1874 63.6638 24.3875C64.1134 19.793 66.3959 16.373 70.8573 14.6112C74.2812 13.2985 77.6359 13.7476 80.7139 15.7166C81.6131 16.2694 81.9935 17.133 81.8206 17.9966C81.6477 18.7912 80.9906 19.4821 80.1259 19.5512C79.6763 19.5857 79.1576 19.4475 78.7426 19.2057C76.4946 17.8585 74.1774 17.4094 71.7219 18.5839C69.1973 19.7584 67.641 22.7638 67.9522 25.6656C68.1943 28.2219 69.2319 30.3637 71.6182 31.5382C74.3504 32.8855 76.9096 32.3673 79.2613 30.571C79.6418 30.2601 80.1259 30.0183 80.6101 29.9146C81.4056 29.7419 82.1664 30.2255 82.5123 30.951C82.8927 31.7455 82.7543 32.6437 82.0972 33.1964Z" fill="#7D7E81"/>
<path d="M166.657 22.246C166.588 21.3478 165.861 20.6569 164.997 20.6569C164.132 20.6569 163.475 21.2787 163.371 22.1769C163.337 22.3496 163.337 22.4878 163.268 22.7642C163.06 22.5569 162.956 22.4878 162.853 22.3842C160.224 19.8624 156.178 19.8278 153.515 22.3842C150.99 24.8023 150.368 28.9477 152.062 32.264C153.376 34.8203 155.451 36.2713 158.426 36.1676C160.259 36.0985 161.953 35.5458 163.268 33.9567C163.302 34.2676 163.337 34.4749 163.371 34.6476C163.475 35.2694 163.994 35.8222 164.616 35.9604C165.308 36.0985 165.931 35.9258 166.276 35.3385C166.484 34.9931 166.622 34.5095 166.622 34.0604C166.657 30.2604 166.622 26.4605 166.622 22.6605C166.657 22.4878 166.657 22.3496 166.657 22.246ZM161.504 30.8822C159.982 32.9549 157.146 32.7477 155.97 30.4677C155.624 29.8113 155.521 29.0513 155.279 28.3259C155.417 27.0477 155.763 25.9078 156.8 25.1132C158.495 23.8005 160.985 24.4223 161.919 26.4259C162.645 27.9459 162.507 29.5004 161.504 30.8822Z" fill="#7D7E81"/>
<path d="M260.138 22.5223C260.138 22.3496 260.138 22.2114 260.103 22.0387C259.965 21.2441 259.308 20.6569 258.478 20.6569C257.683 20.6569 257.025 21.2096 256.887 22.0041C256.853 22.2459 256.818 22.4532 256.749 22.9023C256.541 22.6259 256.472 22.4877 256.368 22.3841C253.671 19.8278 249.624 19.8623 246.961 22.4878C244.125 25.2859 243.849 30.1913 246.339 33.473C248.898 36.893 253.844 37.1693 256.818 33.9912C256.887 34.3021 256.887 34.5094 256.956 34.7166C257.095 35.373 257.613 35.8567 258.236 35.9603C258.928 36.0639 259.516 35.8567 259.861 35.2694C260.069 34.9239 260.173 34.5094 260.173 34.1294C260.173 30.2258 260.138 26.3913 260.138 22.5223ZM254.674 31.2621C253.117 32.8167 250.869 32.5749 249.659 30.7785C248.898 29.6386 248.691 28.3604 249.071 27.0477C249.521 25.3895 250.904 24.3186 252.391 24.3877C254.12 24.4914 255.504 25.735 255.78 27.4968C255.815 27.7731 255.85 28.0495 255.85 28.2222C255.815 29.4658 255.504 30.4676 254.674 31.2621Z" fill="#7D7E81"/>
<path d="M194.566 35.3383C193.701 36.1328 192.595 36.1674 191.765 35.3038C190.727 34.1983 189.724 33.0238 188.721 31.8493C187.96 30.9856 187.2 30.0875 186.335 29.0857C186.335 30.6402 186.335 32.022 186.335 33.4038C186.335 33.6801 186.335 33.991 186.266 34.2674C186.024 35.3383 185.055 36.0292 184.018 35.9255C182.98 35.8219 182.185 35.0274 182.081 33.9565C182.081 33.8183 182.081 33.7147 182.081 33.5765C182.081 27.9111 182.081 22.2457 182.081 16.5804C182.081 15.164 182.98 14.1622 184.225 14.1968C185.47 14.1968 186.369 15.2331 186.369 16.6149V26.9784C186.404 27.013 186.473 27.013 186.508 27.0475C188.03 25.3548 189.586 23.6621 191.108 21.9694C191.384 21.693 191.626 21.3821 191.938 21.1403C192.768 20.4494 193.84 20.5185 194.566 21.313C195.327 22.1076 195.361 23.2821 194.67 24.0421C193.459 25.3548 192.249 26.6675 191.038 28.0148C191.868 29.0166 192.664 29.9838 193.459 30.9511C193.909 31.5038 194.358 32.022 194.773 32.5747C195.465 33.4038 195.396 34.5438 194.566 35.3383Z" fill="#7D7E81"/>
<path d="M208.746 29.6037C209.888 29.6037 210.614 28.8783 210.614 27.7728C210.579 23.7656 208.193 20.9675 204.25 20.5184C200.896 20.1039 197.818 21.382 196.538 24.9747C195.846 26.9092 195.777 28.9128 196.261 30.8819C196.815 33.1273 198.198 34.7164 200.412 35.5454C201.968 36.1327 203.593 36.2363 205.253 36.0636C206.464 35.96 207.57 35.6146 208.573 34.9237C209.058 34.5782 209.438 34.1637 209.473 33.5419C209.576 32.091 208.193 31.2619 206.775 31.8837C205.115 32.6437 203.386 32.851 201.691 31.9873C200.757 31.5383 200.342 30.7092 200.308 29.5692H200.999C203.559 29.6037 206.153 29.6383 208.746 29.6037ZM203.074 24.4911C204.596 24.422 206.36 25.2165 206.395 26.8056H200.308C200.308 25.5274 201.484 24.5602 203.074 24.4911Z" fill="#7D7E81"/>
<path d="M91.7466 20.4494C87.4927 20.4839 83.9305 24.0075 83.9651 28.222C83.9651 32.5401 87.5965 36.1328 91.9195 36.1328C96.035 36.1328 99.4935 32.471 99.4589 28.1874C99.4589 23.8693 96.0005 20.4148 91.7466 20.4494ZM94.5825 30.5365C93.4066 32.6783 90.7436 32.9201 89.2219 31.0201C88.1498 29.6728 87.9423 28.1529 88.5994 26.5638C89.2219 25.0784 90.7782 24.2493 92.3345 24.4911C93.8562 24.7329 94.9975 26.0111 95.1704 27.7038C95.1704 27.8765 95.205 28.0838 95.205 28.2565C95.2396 28.2565 95.3088 28.291 95.3433 28.291C95.1013 29.051 94.9629 29.8456 94.5825 30.5365Z" fill="#7D7E81"/>
<path d="M124.36 33.9222C124.36 35.0622 123.357 35.9603 122.25 35.9603C121.143 35.9603 120.175 35.1658 120.14 33.9913C120.071 31.9876 120.106 29.984 120.106 27.9804C120.106 27.5313 120.106 27.0477 120.037 26.5641C119.898 25.4241 119.276 24.7332 118.238 24.5259C116.82 24.215 115.645 24.5259 115.16 25.5277C114.814 26.2186 114.607 27.0132 114.572 27.8077C114.503 29.7422 114.572 31.6422 114.538 33.5767C114.538 34.9585 113.742 35.8567 112.566 35.9603C111.321 36.064 110.319 35.1312 110.284 33.8531C110.249 32.6094 110.284 31.4004 110.284 30.1568V22.6605C110.284 21.486 110.768 20.7951 111.667 20.6569C112.601 20.5187 113.224 21.0024 113.639 22.2114C114.676 21.3133 115.783 20.6914 117.132 20.5187C121.04 19.9315 124.118 22.2805 124.36 26.1841C124.464 28.7404 124.394 31.3313 124.36 33.9222Z" fill="#7D7E81"/>
<path d="M222.682 34.4054C222.613 35.269 221.887 36.0981 221.022 36.0981C220.019 36.1326 218.982 36.0981 217.979 35.9599C216.388 35.6836 215.351 34.6817 214.97 33.1617C214.693 32.0563 214.555 30.8818 214.486 29.7072C214.417 28.1873 214.486 26.6328 214.486 25.1128V24.3874C214.071 24.3874 213.725 24.3874 213.414 24.3874C212.342 24.3528 211.512 23.5237 211.512 22.4874C211.512 21.4165 212.307 20.5183 213.345 20.4838C213.691 20.4492 214.071 20.4838 214.521 20.4838C214.521 19.1365 214.521 17.8583 214.521 16.5802C214.521 15.6129 214.901 14.8184 215.835 14.4039C217.218 13.782 218.74 14.8184 218.809 16.3384C218.844 16.9947 218.809 17.6856 218.809 18.3765V20.4838C219.466 20.4838 219.985 20.4838 220.538 20.4838C221.68 20.5183 222.51 21.3474 222.475 22.4874C222.475 23.5928 221.645 24.3874 220.538 24.4219C219.985 24.4219 219.432 24.4219 218.913 24.4219C218.878 24.5255 218.809 24.5946 218.809 24.6292C218.844 26.7019 218.809 28.7746 218.913 30.8127C218.947 32.0909 219.293 32.2982 220.538 32.3327C221.922 32.3327 222.786 33.1618 222.682 34.4054Z" fill="#7D7E81"/>
<path d="M180.421 22.4183C180.421 23.4892 179.556 24.3528 178.449 24.3528C178.276 24.3528 178.069 24.3529 177.896 24.3874C175.717 24.6292 174.818 25.5965 174.783 27.7728C174.783 29.7073 174.783 31.6073 174.783 33.5418C174.783 34.9236 173.953 35.8909 172.708 35.9254C171.463 35.9599 170.529 34.9927 170.495 33.5764C170.495 30.7437 170.495 27.9455 170.495 25.1129C170.495 24.1801 170.46 23.282 170.495 22.3493C170.529 21.5202 171.014 20.8638 171.705 20.6911C172.362 20.5184 173.089 20.7257 173.469 21.2784C173.642 21.5547 173.746 21.8656 173.884 22.1765C174.195 21.9693 174.472 21.7274 174.783 21.4856C175.89 20.6911 177.135 20.3802 178.484 20.4493C179.591 20.5184 180.421 21.4165 180.421 22.4183Z" fill="#7D7E81"/>
<path d="M106.341 33.6804C106.341 34.9931 105.373 35.9604 104.162 35.9258C102.952 35.9258 102.053 34.9586 102.053 33.6113C102.053 31.815 102.053 30.0532 102.053 28.2569C102.053 26.4605 102.053 24.6987 102.053 22.9024C102.053 21.5551 102.952 20.5879 104.162 20.5879C105.373 20.5879 106.341 21.5551 106.341 22.8333C106.376 26.4951 106.376 30.0877 106.341 33.6804Z" fill="#7D7E81"/>
<path d="M106.723 16.4767C106.757 17.8585 105.616 18.9985 104.198 19.033C102.815 19.033 101.708 17.9275 101.708 16.5112C101.708 15.0949 102.78 13.9549 104.163 13.9549C105.547 13.9203 106.688 15.0603 106.723 16.4767Z" fill="#7D7E81"/>
</svg>
