<svg width="176" height="30" viewBox="0 0 176 30" fill="none" xmlns="http://www.w3.org/2000/svg">
<path d="M10.7276 22.954C11.2252 22.9992 11.5871 22.8635 11.949 22.5016C13.7131 20.7375 15.4772 18.9733 17.2414 17.164C17.6032 16.7569 17.8746 16.7569 18.2365 17.164C18.6436 17.6163 19.096 18.0234 19.5031 18.4305C20.0459 18.9733 20.0911 18.9733 20.4982 18.3853C21.8553 16.4402 22.6695 14.3142 22.6242 11.8263C22.6695 9.88126 22.1719 7.98142 21.1315 6.26252C19.3221 3.18659 16.6081 1.28675 13.0798 0.789176C9.32538 0.20113 6.15898 1.42245 3.53539 4.04604C1.04751 6.53393 0.0523553 9.70032 0.459463 13.1834C1.09274 18.7019 5.70664 22.6373 10.7276 22.954ZM6.43038 9.15751C7.01843 6.98627 8.9635 5.4483 11.2252 5.35783C12.3108 5.3126 13.3512 5.35783 14.3464 5.81018C15.7486 6.44346 16.4724 7.57431 16.7438 9.02181C16.789 9.38368 16.7438 9.56462 16.3367 9.56462C15.9296 9.56462 15.5677 9.56462 15.1606 9.56462C14.9344 9.56462 14.7083 9.51939 14.4821 9.56462C13.894 9.65509 13.5774 9.47415 13.3965 8.84087C13.0346 7.71002 11.4062 7.48384 10.4562 8.29806C10.1848 8.52423 9.95865 8.84087 9.86819 9.20275C9.46108 10.3788 9.46108 11.5549 9.86819 12.731C10.2301 13.6357 10.9538 14.1333 11.9037 14.088C12.7179 14.088 13.5774 13.5905 13.7583 12.6858C13.8036 12.3691 13.9845 12.2787 14.3011 12.2787C15.0701 12.2787 15.7939 12.2787 16.5629 12.2787C16.9247 12.2787 16.97 12.4596 16.9247 12.7763C16.6533 14.5404 15.7034 15.7165 14.0297 16.3045C12.4465 16.8473 10.8633 16.7569 9.28014 16.1688C7.96835 15.6712 7.06366 14.7213 6.61132 13.4095C6.06851 12.0073 6.02328 10.5598 6.43038 9.15751Z" fill="#757B82"/>
<path d="M29.6362 24.2656C30.0433 24.3108 30.2242 24.1751 30.2242 23.7228C30.179 21.5968 30.179 19.516 30.2242 17.39C30.2242 16.8924 30.0433 16.8472 29.6362 16.8472C28.641 16.8924 27.6006 16.8472 26.6055 16.8472H24.57C22.7606 16.8472 22.8058 16.8472 22.8058 18.6565C22.8058 19.1541 22.9868 19.2898 23.4391 19.2446C24.0271 19.1994 24.6152 19.2446 25.2485 19.2446C25.4294 19.2446 25.7008 19.1089 25.7913 19.3351C25.8817 19.5612 25.6103 19.6969 25.4746 19.8326C24.2985 21.0087 23.1225 22.1848 21.9464 23.3609C21.5393 23.768 21.3131 23.7228 20.9512 23.3157C20.2727 22.5919 19.549 21.8682 18.8252 21.1444C17.9658 20.285 17.5134 20.285 16.654 21.1444C14.6637 23.1347 12.6281 25.1703 10.6378 27.1606C10.2759 27.5225 9.64265 27.8843 9.64265 28.2914C9.59742 28.7438 10.3212 29.0604 10.6378 29.4675C10.9997 29.9651 11.2711 29.8746 11.6782 29.4675C13.4876 27.6129 15.2969 25.8036 17.1063 23.9942C17.6943 23.4061 17.7848 23.4061 18.4181 23.9942C19.0514 24.6275 19.6847 25.306 20.3179 25.9393C21.1774 26.7987 21.675 26.7987 22.5344 25.9393C24.0271 24.4465 25.4746 22.999 26.9221 21.5063C27.0578 21.3706 27.1483 21.2349 27.3292 21.1444C27.6459 20.9183 27.8268 21.0087 27.7816 21.4158C27.7816 21.7325 27.7816 22.0491 27.7816 22.3657C27.7816 22.9538 27.5554 23.6775 27.8721 24.0394C28.3244 24.537 29.0481 24.2204 29.6362 24.2656Z" fill="#757B82"/>
<path d="M175.289 15.3093C174.611 11.012 171.67 9.56451 167.826 11.5548C167.373 11.781 166.966 12.2786 166.649 11.4191C166.514 11.0572 166.288 10.7406 165.835 10.9215C165.292 11.1477 165.383 11.6453 165.383 12.0976C165.383 14.4046 165.383 16.7568 165.383 19.0637C165.383 21.4611 165.383 23.8585 165.383 26.2559C165.383 26.7988 165.202 27.5225 166.152 27.5677C167.057 27.613 167.011 26.9797 167.057 26.3916C167.057 25.2608 167.147 24.1299 167.057 22.9991C166.921 21.6421 167.147 21.5063 168.414 22.0944C171.625 23.6324 174.294 22.1849 175.154 18.6566C175.38 17.5257 175.425 16.3949 175.289 15.3093ZM172.53 20.0589C171.625 21.2349 170.313 21.4159 169.092 20.9635C167.102 20.1946 166.83 18.3852 166.966 16.3949C166.966 13.8165 167.69 12.5047 169.59 12.1881C170.947 11.9619 172.078 12.369 172.847 13.6356C173.842 15.3997 173.706 18.5661 172.53 20.0589Z" fill="#757B82"/>
<path d="M145.978 18.4301C144.033 15.8065 144.033 15.8065 146.25 13.4543C146.702 12.9568 147.199 12.4592 147.652 11.9616C147.923 11.645 148.511 11.3283 148.149 10.9212C147.968 10.695 147.29 10.8307 146.838 10.876C146.159 10.9212 145.842 11.464 145.435 11.9164C144.576 12.8211 143.716 13.8162 142.857 14.7661C142.586 15.0828 142.359 15.6708 141.862 15.4899C141.319 15.3089 141.545 14.7209 141.545 14.3138C141.5 11.9164 141.545 9.51896 141.545 7.07631C141.545 6.44303 141.5 5.85498 140.64 5.85498C139.691 5.85498 139.826 6.57873 139.826 7.12154C139.826 9.47372 139.826 11.7807 139.826 14.1328C139.826 16.485 139.826 18.792 139.826 21.1442C139.826 21.687 139.6 22.4107 140.55 22.456C141.59 22.5012 141.545 21.7774 141.545 21.0537C141.545 20.2847 141.545 19.561 141.545 18.792C141.545 18.1135 141.907 17.6159 142.495 17.3897C143.174 17.1183 143.355 17.7968 143.626 18.2039C144.485 19.3348 145.345 20.4656 146.204 21.5965C146.566 22.0941 146.928 22.5464 147.652 22.4107C148.014 22.3655 148.33 22.3202 148.692 22.275C148.556 22.0036 148.466 21.7322 148.33 21.4608C147.516 20.4656 146.747 19.4253 145.978 18.4301Z" fill="#757B82"/>
<path d="M122.23 10.8312C119.742 10.0622 117.163 11.1931 116.304 13.5452C115.445 15.9427 115.264 18.4758 116.847 20.647C118.43 22.8635 120.827 22.7278 123.18 22.4112C123.994 22.2755 125.26 22.2302 124.898 20.9184C124.582 19.9233 123.722 20.8732 123.089 20.8732C122.818 20.8732 122.501 21.0089 122.23 21.0541C120.149 21.3255 118.52 20.4661 117.842 18.7019C117.344 17.4806 117.571 16.8473 119.063 16.983C119.877 17.0735 120.737 16.983 121.551 16.983C122.546 16.983 123.496 16.983 124.491 16.983C125.079 16.983 125.441 16.8473 125.532 16.1688C125.758 13.9524 124.265 11.4645 122.23 10.8312ZM123.451 15.1284C123.089 15.8974 122.275 15.5356 121.642 15.5808C121.28 15.626 120.918 15.5808 120.511 15.5808C120.42 15.5808 120.375 15.5808 120.285 15.5808C119.425 15.3546 118.159 16.2141 117.751 14.9927C117.48 14.269 118.159 13.4095 118.792 12.912C119.697 12.2335 120.692 11.6906 121.823 12.4596C122.139 12.6858 122.456 12.912 122.682 13.1834C123.18 13.7262 123.813 14.3142 123.451 15.1284Z" fill="#757B82"/>
<path d="M51.0759 7.16699C45.874 5.31239 41.0792 8.43355 40.6721 13.9974C40.3554 18.0232 42.0743 21.2348 45.105 22.23C46.7787 22.7728 48.4976 22.5919 50.2165 22.4562C51.0307 22.3657 51.8902 22.0943 51.664 21.1444C51.4378 20.1492 50.5331 20.7373 49.9903 20.8277C45.2407 21.5515 42.7076 19.5159 42.6624 14.902C42.6624 9.88105 45.4217 7.7098 50.3974 8.84066C50.4879 8.84066 50.5331 8.88589 50.6236 8.93113C51.2569 9.20253 51.7544 9.11207 52.0259 8.34308C52.3425 7.34793 51.6187 7.34793 51.0759 7.16699Z" fill="#757B82"/>
<path d="M112.234 14.9923C112.234 11.8259 110.741 10.5141 107.575 10.695C106.806 10.7403 106.082 10.9665 105.449 11.3736C104.634 11.8711 104.363 11.5545 104.363 10.7403C104.363 9.51895 104.363 8.34286 104.363 7.12154C104.363 6.53349 104.453 5.85498 103.503 5.85498C102.554 5.90021 102.734 6.62396 102.734 7.16677C102.734 9.51896 102.734 11.8259 102.734 14.1781V16.4398C102.734 18.1135 102.734 19.7419 102.734 21.4156C102.734 22.0036 102.78 22.4559 103.549 22.4559C104.318 22.4107 104.363 21.9131 104.363 21.3703C104.363 20.6918 104.363 20.0133 104.363 19.3348C104.363 17.8873 104.318 16.485 104.453 15.0375C104.634 13.1377 105.946 12.0521 107.801 12.0973C109.52 12.1425 110.379 13.1377 110.424 15.3089C110.47 17.0278 110.379 18.792 110.47 20.5109C110.515 21.1894 109.836 22.3655 111.284 22.4107C112.912 22.4559 112.143 21.0989 112.188 20.4204C112.324 18.611 112.234 16.8017 112.234 14.9923Z" fill="#757B82"/>
<path d="M60.4401 10.6952C56.7761 10.5142 54.7405 12.5498 54.6953 16.7566C54.6953 16.9827 54.7405 17.5255 54.7858 18.0231C55.1477 20.6919 56.9118 22.4108 59.4901 22.5465C62.5208 22.7275 64.285 21.4157 65.054 18.5207C65.4611 17.028 65.3254 15.5352 64.9183 14.0877C64.3302 12.0522 62.6565 10.7856 60.4401 10.6952ZM63.3351 18.2493C62.9279 20.1944 61.7971 21.1443 59.9425 21.099C57.726 21.0538 56.5499 19.4254 56.5951 16.4851C56.6404 13.0926 58.6759 11.3284 61.2995 12.4593C63.1541 13.2735 63.9231 15.3543 63.3351 18.2493Z" fill="#757B82"/>
<path d="M98.5275 7.21222C96.8538 6.66941 95.1349 6.5337 93.4612 6.94081C89.5258 7.9812 87.5808 11.1928 88.0331 15.852C88.4402 20.3754 90.8829 22.5919 95.8134 22.5919C95.8586 22.5919 96.4014 22.5919 96.899 22.5014C97.7132 22.3657 99.0703 22.5919 98.8893 21.3253C98.6632 19.8326 97.4871 20.873 96.7633 20.9634C94.185 21.3705 92.0137 20.5563 90.8376 18.7017C89.4806 16.5305 89.5711 12.5951 91.0186 10.5596C92.7375 8.20737 95.0897 8.1169 97.668 8.79542C97.8037 8.84065 97.9394 8.88588 98.1203 8.93112C98.7536 9.15729 99.1155 8.79542 99.2964 8.2526C99.5678 7.52886 99.025 7.34792 98.5275 7.21222Z" fill="#757B82"/>
<path d="M78.2627 11.012C77.4485 11.3739 76.8152 12.4143 75.8653 10.9668C75.4582 10.3787 74.8249 11.012 74.8702 11.781C74.8702 13.3642 74.8702 14.9474 74.8702 16.5306C74.8702 18.0233 74.8249 19.5613 74.8702 21.054C74.8702 21.5516 74.5535 22.3658 75.5487 22.411C76.6343 22.5015 76.4986 21.6873 76.4986 21.0088C76.5438 18.9732 76.3176 16.9377 76.6795 14.9021C76.9962 13.1832 78.4889 11.9619 80.2078 12.0524C81.791 12.1429 82.6504 13.0928 82.7409 15.1736C82.8314 17.2091 82.7861 19.2446 82.7861 21.2802C82.7861 21.823 82.8314 22.3206 83.5551 22.3658C84.4598 22.411 84.505 21.8682 84.505 21.2349C84.505 19.1089 84.505 17.0282 84.505 14.9021C84.3693 11.3739 81.6101 9.60974 78.2627 11.012Z" fill="#757B82"/>
<path d="M160.046 10.8309C158.237 12.4593 159.639 14.5853 159.232 16.3947C159.096 16.9828 159.277 17.616 159.186 18.2041C158.96 20.1492 157.603 21.2348 155.613 21.0991C153.939 21.0086 153.17 20.0587 153.125 18.0231C153.08 15.9876 153.125 13.9521 153.125 11.9618C153.125 11.4189 153.125 10.8761 152.401 10.8309C151.497 10.7857 151.497 11.4189 151.497 12.007C151.497 14.0878 151.451 16.2138 151.497 18.2946C151.542 21.9133 154.256 23.6322 157.649 22.1847C158.417 21.8681 159.141 20.5563 160.001 22.2752C160.227 22.7275 161.041 22.2299 161.041 21.4157C161.041 19.8325 161.041 18.2493 161.041 16.6661C161.041 16.5757 161.041 16.5304 161.041 16.4399C160.408 14.6758 162.172 12.4141 160.046 10.8309Z" fill="#757B82"/>
<path d="M135.03 12.5048C135.166 12.55 135.347 12.5953 135.483 12.5953C135.935 12.6857 136.161 12.5048 136.297 12.0524C136.433 11.5549 136.388 11.2382 135.89 10.9668C133.628 9.7455 130.009 10.9668 128.924 13.3642C128.245 14.8117 128.11 16.3949 128.381 17.9781C128.879 21.1898 130.462 22.592 133.99 22.5468C134.126 22.5468 134.578 22.5016 135.03 22.4111C135.709 22.3206 136.478 22.1849 136.297 21.235C136.071 19.9684 135.257 20.8731 134.759 20.9636C133.176 21.235 131.683 21.0993 130.824 19.5613C129.738 17.6615 129.738 15.6259 130.778 13.7261C131.638 12.0524 133.312 12.0524 135.03 12.5048Z" fill="#757B82"/>
<path d="M69.848 10.8309C68.9434 10.7405 68.9434 11.3737 68.9434 12.007C68.9434 15.083 68.9434 18.2041 68.9434 21.28C68.9434 21.9133 68.9434 22.5014 69.848 22.4561C70.7527 22.4109 70.7075 21.7776 70.7075 21.1896C70.7075 19.6968 70.7075 18.1589 70.7075 16.6662C70.7075 15.1734 70.7075 13.6355 70.7075 12.1427C70.7527 11.5094 70.6623 10.9214 69.848 10.8309Z" fill="#757B82"/>
<path d="M69.8042 6.53369C69.1257 6.53369 68.7186 7.03127 68.6733 7.66455C68.6281 8.34306 69.0352 8.84064 69.7137 8.88587C70.4375 8.93111 70.7541 8.43353 70.7993 7.75502C70.8446 7.0765 70.4827 6.57893 69.8042 6.53369Z" fill="#757B82"/>
</svg>
