<svg width="189" height="38" viewBox="0 0 189 38" fill="none" xmlns="http://www.w3.org/2000/svg">
<path d="M37.6129 16.5027C36.8367 9.24692 31.4708 2.8686 24.4175 0.776235C23.2701 0.438757 22.0552 0.270043 20.9078 6.10352e-05H16.993C15.8456 0.303791 14.6307 0.438757 13.4833 0.776235C6.39623 2.8686 1.09783 9.17942 0.28788 16.5027C0.28788 16.6039 0.220383 16.7052 0.186635 16.8064C0.186635 16.5027 0.186635 16.1652 0.186635 15.8277C0.152887 16.1315 0.119141 16.4014 0.119141 16.6714C0.119141 16.7727 0.119141 16.8739 0.119141 16.9752V20.5187C0.119141 20.6199 0.119143 20.6874 0.15289 20.7887C0.186638 20.9912 0.186637 21.1937 0.220385 21.4299C0.220385 21.1937 0.220385 20.9236 0.220385 20.7212C0.524115 22.3073 0.794097 23.9272 1.40156 25.4458C3.35893 30.4068 6.76746 33.984 11.7284 36.0764C13.5845 36.8526 15.5419 37.2576 17.5667 37.4263V37.4601C17.5667 37.4938 17.5667 37.5276 17.5667 37.5613H20.4016C20.4016 37.5276 20.4016 37.4601 20.4016 37.4601C20.739 37.4263 21.1103 37.3588 21.4815 37.325C23.6413 36.9876 25.7675 36.4814 27.6573 35.4689C34.0357 32.0604 37.7817 25.8171 37.7817 18.7301C37.7479 18.0214 37.7142 17.2789 37.6129 16.5027ZM14.1245 14.5791C14.1245 13.2629 15.1706 12.183 16.4868 12.183C17.803 12.183 18.8492 13.2292 18.8829 14.5116C18.9167 15.8278 17.8367 16.9077 16.5206 16.9077C15.1707 16.9077 14.1582 15.8952 14.1245 14.5791ZM6.76745 17.9539C6.59871 20.7212 6.39623 23.5223 5.58628 26.2558C5.35005 27.032 5.11381 27.7744 4.67509 28.5506C3.8314 27.4369 3.22394 26.2558 2.75147 25.0071C-1.16327 14.6803 5.21506 3.47608 16.0818 1.68745C21.4815 0.77626 26.3749 2.15989 30.4921 5.8384C34.8456 9.75314 36.7017 14.6803 36.2293 20.4849C35.6218 27.8082 29.8847 34.2203 22.5952 35.7389C22.0552 35.8402 21.9877 35.6377 21.9877 35.2327C21.8527 32.8366 22.6964 30.7443 23.9113 28.7531C25.3287 26.3571 27.2186 24.3659 29.2097 22.4085C30.0534 21.5986 30.9984 20.8224 31.6396 19.8437C31.0321 20.1475 30.5259 20.6537 29.8509 20.9237C27.5898 22.1049 25.2612 22.9485 22.6964 22.9148C21.4815 22.9148 20.3678 22.5436 19.4566 21.6661C20.1653 21.9361 20.9078 22.1723 21.684 22.2736C24.35 22.5436 26.8474 21.9361 29.2435 20.9237C29.3785 20.8562 29.5472 20.8224 29.6822 20.7549C30.4246 20.4175 31.0659 19.8438 31.8758 19.5738C32.2133 19.1688 32.4495 18.7301 32.652 18.2576C33.327 16.604 32.8545 15.1865 31.2346 14.1066C30.1884 13.3979 29.0072 12.9592 27.7923 12.6217C26.6111 12.318 25.4975 11.8118 24.3163 11.4068C24.0801 11.3055 23.9788 11.1368 23.8101 10.9681C23.4726 10.2256 22.8989 9.71941 22.0889 9.48318C21.1778 9.17945 20.2328 9.24694 19.3216 9.48318C18.8154 9.58442 18.3429 9.41567 17.8705 9.34818C15.7781 8.9432 13.8545 9.55067 11.9309 10.3269C8.48859 11.7443 6.96994 14.3428 6.76745 17.9539ZM27.7923 17.8526C27.7923 17.4139 28.0961 17.1439 28.501 17.1439C28.906 17.1439 29.176 17.4139 29.2097 17.8526C29.1422 18.2576 28.9397 18.5613 28.501 18.5613C28.0623 18.5613 27.7923 18.3251 27.7923 17.8526Z" fill="#3C3B42"/>
<path d="M188.398 21.1251C187.487 17.0079 183.808 14.8818 179.286 15.8267C175.945 16.5354 173.819 19.4378 173.785 23.0488C173.785 23.285 173.785 23.555 173.819 23.7574C174.021 26.2885 174.764 28.5159 177.092 29.9333C181.547 32.7006 186.947 30.5745 188.398 25.5123C188.432 25.4111 188.499 25.3436 188.567 25.2761V21.2939C188.499 21.2939 188.398 21.2264 188.398 21.1251ZM184.551 26.5923C183.741 27.9085 182.56 28.5834 180.973 28.5159C179.387 28.4147 178.341 27.5034 177.7 26.1198C176.924 24.3987 176.924 22.61 177.599 20.8214C178.24 19.1678 179.657 18.2228 181.311 18.2566C182.897 18.2903 184.213 19.2352 184.888 20.8551C185.226 21.6651 185.327 22.5426 185.361 23.3863C185.327 24.5337 185.124 25.6136 184.551 26.5923Z" fill="#3C3B42"/>
<path d="M123.771 20.0124C121.746 20.0461 119.721 20.0124 117.696 20.0124C115.907 19.9786 115.907 19.9786 115.907 21.8685C115.907 22.5434 116.11 22.7797 116.785 22.7459C118.033 22.6784 119.282 22.7459 120.531 22.7122C121.24 22.6784 121.341 22.9484 121.24 23.5896C120.936 25.7832 119.89 27.4369 117.662 28.0106C115.266 28.6518 112.971 28.3143 111.318 26.2557C108.989 23.3872 109.023 17.6162 111.419 14.8152C113.815 12.0141 119.046 12.3854 120.362 15.6251C120.868 16.9076 121.509 17.11 122.657 16.9751C122.994 16.9413 123.366 16.9413 123.703 16.9751C124.243 17.0088 124.378 16.7726 124.277 16.2664C124.074 15.3214 123.771 14.4102 123.197 13.5665C120.463 9.4493 113.478 8.63937 109.563 12.1829C106.323 15.0852 105.581 18.8312 106.256 22.9147C106.762 25.9857 108.28 28.4493 111.081 30.0355C114.692 31.9928 118.135 31.5204 121.813 28.5168C121.914 28.8205 121.982 29.023 122.016 29.2255C122.353 30.8116 122.353 30.7779 123.939 30.7441C124.479 30.7104 124.648 30.5417 124.648 30.0355C124.648 26.9982 124.648 23.9609 124.682 20.9236C124.614 20.2149 124.378 20.0124 123.771 20.0124Z" fill="#3C3B42"/>
<path d="M62.2143 22.9487C62.0118 22.9487 61.8093 22.9825 61.5731 22.9487C60.6619 22.78 60.3919 23.2187 60.2569 24.0624C59.7844 26.256 58.5358 27.7746 56.2409 28.1796C54.081 28.5846 51.8874 27.6397 50.6388 25.7498C48.7152 22.8475 48.8164 17.954 50.8413 15.1529C53.0011 12.1494 58.0295 12.0482 59.5819 15.2542C60.3919 16.9078 61.3368 17.1778 62.8555 16.9753C62.9567 16.9416 63.058 16.9416 63.1592 16.9753C63.9691 17.0766 64.0366 16.7054 63.8679 16.0641C63.5979 14.883 63.1592 13.803 62.3493 12.9256C60.5269 10.8332 58.1308 10.0908 55.7347 10.0233C52.6299 9.98954 50.0988 11.0695 48.4114 12.9256C44.8004 16.9416 44.6992 23.9611 48.2089 28.0446C50.7063 30.9131 53.9461 31.7231 57.5233 30.9469C60.8306 30.2382 62.8555 28.0783 63.6992 24.8385C64.1379 22.9487 64.1379 22.9487 62.2143 22.9487Z" fill="#3C3B42"/>
<path d="M172.03 15.8936C171.996 15.9612 171.928 15.995 171.895 16.0288C171.996 16.0288 172.131 16.0288 172.233 16.0288C172.165 16.0288 172.131 15.9612 172.03 15.8936Z" fill="#3C3B42"/>
<path d="M167.406 22.2062C167.001 21.6325 167.103 21.3288 167.541 20.8226C169.026 19.2702 170.444 17.684 171.895 16.0641C171.456 16.0979 171.017 16.0979 170.579 16.0304C169.06 15.8279 167.913 16.3004 166.968 17.549C166.326 18.4265 165.483 19.1014 164.673 19.8439C164.032 20.4513 163.559 21.2275 162.648 21.7675V12.7568C162.648 10.4282 162.648 10.462 160.353 10.462C159.644 10.462 159.408 10.597 159.408 11.3732C159.442 17.549 159.442 23.7248 159.408 29.9007C159.408 30.5081 159.509 30.7444 160.218 30.7444C162.715 30.7444 162.749 30.7781 162.682 28.3145C162.614 26.4584 162.648 24.7373 164.707 23.7924C165.618 25.2098 166.731 26.6609 167.44 28.2471C168.385 30.3394 169.836 31.1156 172.03 30.7444C172.3 30.7106 172.671 30.8456 172.806 30.6094C172.975 30.3057 172.637 30.1032 172.502 29.9007C170.815 27.3021 169.128 24.7373 167.406 22.2062Z" fill="#3C3B42"/>
<path d="M140.611 19.8437C139.43 17.3126 137.506 15.7602 134.638 15.6927C131.871 15.5915 129.677 16.7389 128.327 19.1687C126.808 21.9023 126.808 24.7709 128.158 27.5719C129.272 29.9005 131.331 30.9804 133.895 31.0817C136.528 31.1829 138.789 30.4405 140.24 28.1119C140.577 27.5382 141.117 26.8633 140.881 26.3233C140.679 25.8171 139.801 26.222 139.228 26.1208C139.059 26.087 138.89 26.1208 138.721 26.0871C138.215 26.0533 137.911 26.1883 137.641 26.6945C136.798 28.2131 135.245 28.8206 133.457 28.4156C131.871 28.0782 130.689 26.6607 130.554 25.0071C130.521 24.4671 130.656 24.2984 131.196 24.2984C132.748 24.3322 134.334 24.3321 135.92 24.3321C136.831 24.3321 137.709 24.3321 138.62 24.3321C141.522 24.3321 141.759 23.9947 141.016 21.0586C140.915 20.6199 140.814 20.2149 140.611 19.8437ZM137.338 22.071C136.292 22.071 135.245 22.071 134.199 22.071C133.187 22.071 132.174 22.0373 131.162 22.071C130.757 22.071 130.521 22.0036 130.588 21.4973C130.723 19.7762 132.512 18.2238 134.368 18.2576C136.089 18.2913 137.743 19.8437 137.878 21.5648C137.945 22.0373 137.675 22.071 137.338 22.071Z" fill="#3C3B42"/>
<path d="M75.1412 15.7611C71.5302 15.0862 68.2229 16.4698 66.873 19.4059C65.6581 22.0382 65.6918 24.738 66.9068 27.3703C67.413 28.484 68.2229 29.3615 69.2354 29.969C71.9014 31.4876 74.635 31.5213 77.3348 30.1039C80.0009 28.6865 80.7771 26.1554 80.8108 23.3206C80.8108 22.9831 80.8446 22.6119 80.8108 22.2744C80.5071 18.9334 78.246 16.3686 75.1412 15.7611ZM76.8961 26.2229C76.1536 27.6741 75.0062 28.5177 73.3188 28.484C71.5977 28.4503 70.5178 27.5729 69.8428 26.088C69.0329 24.2993 69.0329 22.4094 69.8766 20.6208C70.5178 19.1696 71.6652 18.3259 73.2851 18.2584C74.9725 18.2247 76.1536 19.0346 76.8961 20.4858C77.4023 21.4307 77.5036 22.4769 77.5373 23.2531C77.4698 24.468 77.3348 25.3792 76.8961 26.2229Z" fill="#3C3B42"/>
<path d="M103.149 20.1803C103.116 17.818 101.698 16.1644 99.4372 15.7594C97.0411 15.3544 94.9825 15.8606 93.3964 18.0543C93.1939 15.9619 93.1939 15.9619 91.304 15.9619C91.2702 15.9619 91.2365 15.9619 91.2028 15.9619C90.4941 15.8606 90.2578 16.1644 90.2578 16.8731C90.2916 20.7541 90.2578 24.6013 90.2578 28.4486C90.2578 30.6084 90.2916 30.5409 92.5189 30.6084C93.3626 30.6422 93.5651 30.3721 93.5651 29.5622C93.4976 27.0311 93.5314 24.4663 93.5314 21.9352C93.5651 19.6741 95.05 18.088 97.1086 18.1217C99.0322 18.1555 99.8084 19.2354 99.8084 21.7327C99.8084 23.8251 99.8084 25.985 99.8084 28.0773C99.8084 30.6084 99.8084 30.6084 102.373 30.5409C102.981 30.5072 103.116 30.3384 103.116 29.7309C103.149 26.6599 103.183 23.4201 103.149 20.1803Z" fill="#3C3B42"/>
<path d="M153.065 19.8088C153.538 20.8549 154.044 21.1587 154.888 20.9562C155.293 20.9562 155.563 20.9224 155.799 20.9562C156.71 21.0574 156.912 20.72 156.642 19.91C156.339 18.9651 155.934 18.1214 155.191 17.4127C152.998 15.1178 146.856 14.6116 144.325 18.4588C142.84 20.6862 142.603 23.1497 143.143 25.6808C143.785 28.9881 146.349 31.0468 149.758 31.1143C153.436 31.2155 155.664 29.5619 156.609 26.2208C156.879 25.2759 156.642 25.0397 155.731 25.1409C155.293 25.1747 154.82 25.1747 154.381 25.1409C153.74 25.0734 153.504 25.2421 153.335 25.9508C152.998 27.3345 152.087 28.2457 150.602 28.4819C149.083 28.6844 147.767 28.1445 147.092 26.7608C145.877 24.466 145.843 22.0361 147.227 19.8088C148.476 17.7164 152.12 17.6826 153.065 19.8088Z" fill="#3C3B42"/>
<path d="M86.819 23.3876C86.819 21.7002 86.819 20.0465 86.819 18.3591C86.819 15.963 86.819 16.0305 84.4229 16.0305C83.6805 16.0305 83.5117 16.3005 83.5117 17.0092C83.5455 20.7552 83.5455 24.5349 83.5455 28.3147C83.5455 30.7108 83.5455 30.6771 85.9416 30.7108C86.7853 30.7446 86.8865 30.407 86.8865 29.6646C86.819 27.5722 86.819 25.4799 86.819 23.3876Z" fill="#3C3B42"/>
<path d="M85.7037 10.4297C83.4426 10.531 83.4764 10.4635 83.5101 12.6909C83.5101 13.2983 83.6789 13.6021 84.3201 13.5346C84.5901 13.5008 84.8601 13.5346 85.1638 13.5346C86.8849 13.5346 86.8849 13.5346 86.8849 11.8472C86.8849 11.7797 86.8849 11.7122 86.8849 11.6447C86.9862 10.7673 86.6824 10.4297 85.7037 10.4297Z" fill="#3C3B42"/>
</svg>
