<svg width="219" height="38" viewBox="0 0 219 38" fill="none" xmlns="http://www.w3.org/2000/svg">
<path d="M36.3831 13.5544C33.6669 3.90579 23.8155 -1.85096 14.0858 0.540931C4.72091 2.89228 -1.36017 12.2572 0.261448 21.9058C2.00469 32.2031 11.7344 39.2977 22.2344 37.1896C25.6398 36.5004 28.5993 34.9193 31.1128 32.6085C31.6398 32.122 31.802 31.5139 31.6398 30.8248C31.4371 30.1761 31.0317 29.7707 30.3831 29.6491C29.6939 29.4869 29.1669 29.7707 28.6398 30.2572C23.8966 34.5545 17.1263 35.4058 11.4912 32.4058C9.86956 31.5544 8.49118 30.4599 7.27497 29.0815C9.86956 24.9058 12.4642 20.7707 15.0588 16.6356C15.1804 16.8383 15.1804 17.0004 15.1804 17.122C15.1804 18.8247 15.1398 20.4869 15.2209 22.1896C15.2615 22.9599 15.3425 23.8112 15.5858 24.541C16.1939 26.4058 18.0993 26.9328 19.5588 25.6355C20.0858 25.1491 20.5723 24.541 20.9777 23.9329C21.7074 22.8383 22.3561 21.7031 23.0858 20.568C23.9371 19.2301 24.7885 17.8518 25.5993 16.4734C25.6398 16.4734 25.6804 16.5139 25.7209 16.5139C25.7209 17.2031 25.6804 17.8518 25.7209 18.5409C25.7615 19.6761 25.7615 20.8518 26.0047 21.9464C26.6939 25.1491 29.5723 26.8923 32.5723 26.0815C35.0047 25.4328 36.8696 23.041 37.0723 20.2842C37.2344 17.9734 36.9507 15.7436 36.3831 13.5544ZM33.6669 19.8382C33.5858 20.7707 33.2209 21.6625 32.4507 22.2707C31.2344 23.2031 29.8155 22.7977 29.329 21.3383C29.1669 20.8518 29.1263 20.3247 29.1263 19.7977C29.0858 18.095 29.0858 16.4734 29.0047 14.7707C28.9642 14.2436 28.7615 13.6355 28.5182 13.149C27.829 11.8112 26.329 11.4058 25.0317 12.1355C24.1804 12.5815 23.5723 13.3112 23.0452 14.0815C21.7074 16.1896 20.4101 18.2977 19.0723 20.4058C18.9506 20.6085 18.7885 20.8517 18.5452 21.0139V20.5274C18.5452 18.2572 18.5858 16.0274 18.5452 13.7571C18.5452 13.149 18.4236 12.5409 18.302 11.9328C18.0993 11.0815 17.6128 10.5139 16.7209 10.2707C15.829 10.068 15.0588 10.3923 14.4506 11.0815C14.1669 11.4463 13.8831 11.8112 13.6398 12.1761C10.8831 16.5545 8.12632 20.9734 5.36956 25.3923C5.28848 25.5139 5.2074 25.6355 5.04523 25.8382C4.68037 24.9869 4.35604 24.1761 4.1128 23.4058C1.27496 14.8112 6.38307 5.73011 15.1804 3.622C21.7074 2.04092 28.802 5.36527 31.9236 11.4463C33.2615 14.2031 33.8696 16.9598 33.6669 19.8382Z" fill="#3C3B42"/>
<path d="M116.044 26.5693C116.003 27.2585 115.679 27.7855 115.03 28.0693C114.422 28.3125 113.774 28.1909 113.287 27.7449C112.882 27.3801 112.72 26.9342 112.72 26.4071C112.72 24.0963 112.72 21.8261 112.72 19.5152V18.9477C111.585 20.1639 110.53 21.299 109.476 22.4341C109.274 22.6368 109.112 22.8396 108.949 23.0423C108.26 23.772 107.733 23.8125 107.044 23.0828C105.909 21.826 104.774 20.6098 103.598 19.3531C103.517 19.272 103.436 19.1504 103.233 18.9882V19.5963C103.233 21.8666 103.233 24.1369 103.233 26.3666C103.233 27.3801 102.544 28.1504 101.612 28.1909C100.639 28.2315 99.8683 27.4612 99.8683 26.4071C99.8683 24.0558 99.8683 21.7044 99.8683 19.3936C99.8683 16.9206 99.8683 14.4882 99.8683 12.0152C99.8683 11.6504 99.8278 11.3261 100.233 11.1639C100.639 11.0017 100.922 11.245 101.166 11.4882C102.26 12.7044 103.355 13.9612 104.49 15.1774C105.422 16.2314 106.395 17.326 107.328 18.3801C107.855 18.9882 108.058 18.9882 108.585 18.3801C110.53 16.1909 112.436 14.0828 114.382 11.8936C114.544 11.6909 114.706 11.4477 114.909 11.3666C115.152 11.245 115.476 11.1639 115.72 11.2044C116.044 11.245 116.085 11.6098 116.085 11.8936C116.085 15.9071 116.085 19.9207 116.085 23.9342C116.085 24.8261 116.125 25.6774 116.044 26.5693Z" fill="#3C3B42"/>
<path d="M218.37 19.3935C217.438 17.1638 215.37 15.9071 212.978 15.9881C211.64 16.0287 210.384 16.5152 209.411 17.5287C209.37 17.4071 209.37 17.326 209.329 17.2449C209.086 16.4341 208.559 16.0692 207.87 16.1503C207.181 16.2719 206.775 16.7989 206.775 17.6098C206.775 22.2314 206.775 26.853 206.775 31.4747C206.775 32.4882 207.505 33.2584 208.478 33.299C209.411 33.299 210.181 32.5287 210.181 31.5152C210.181 30.9882 210.181 30.4206 210.181 29.8936V27.3801C210.384 27.5017 210.505 27.5828 210.627 27.6233C213.627 29.0828 216.708 28.2314 218.248 25.2719C219.14 23.3665 219.221 21.38 218.37 19.3935ZM214.802 24.3395C213.87 25.5152 212.289 25.6368 211.194 24.6638C209.938 23.5692 209.735 21.4206 210.789 20.1233C211.478 19.2719 212.654 18.9071 213.627 19.2314C214.64 19.5557 215.411 20.5287 215.532 21.7449C215.532 21.8665 215.573 22.0287 215.573 22.1909C215.532 22.9611 215.329 23.6909 214.802 24.3395Z" fill="#3C3B42"/>
<path d="M190.032 26.0404C187.437 28.1891 184.559 28.9594 181.356 27.8242C178.194 26.6891 176.37 24.3377 175.721 21.0539C175.64 20.608 175.6 20.1215 175.6 19.7972C175.64 14.5675 179.735 10.635 184.681 10.9188C186.262 10.9999 187.721 11.4864 189.019 12.3377C189.627 12.7837 189.951 13.3512 189.829 14.1215C189.627 15.1756 188.41 15.7026 187.478 15.135C186.302 14.3648 184.964 13.9593 183.546 14.1215C181.762 14.3242 180.464 15.2567 179.654 16.8378C178.681 18.7837 178.64 20.7296 179.654 22.635C181.194 25.5539 184.802 26.2431 187.519 24.2566C187.721 24.135 187.883 23.9729 188.046 23.8107C188.694 23.2837 189.627 23.3648 190.154 23.9729C190.681 24.5405 190.64 25.5134 190.032 26.0404Z" fill="#3C3B42"/>
<path d="M63.9097 26.0015C60.5043 29.0015 55.8827 29.0421 52.6395 26.3664C50.3692 24.5015 49.3962 22.0691 49.4368 19.1096C49.8016 15.5015 51.5854 12.8258 55.0719 11.4069C57.7476 10.3934 60.3827 10.7177 62.8151 12.2583C63.5043 12.7042 63.8287 13.3529 63.6665 14.0421C63.5449 14.6502 63.0178 15.2177 62.3287 15.2583C61.9638 15.2988 61.5584 15.1772 61.2341 14.9745C59.4503 13.9204 57.6665 13.5556 55.7205 14.488C53.7341 15.4204 52.5178 17.7718 52.7611 20.042C52.9638 22.0691 53.7746 23.7312 55.6395 24.6637C57.7881 25.7177 59.7746 25.3123 61.6395 23.8934C61.9233 23.6501 62.3287 23.4475 62.6935 23.3664C63.3016 23.2448 63.9097 23.6096 64.1935 24.1772C64.5178 24.8664 64.4368 25.5961 63.9097 26.0015Z" fill="#3C3B42"/>
<path d="M130.275 17.4065C130.234 16.7173 129.667 16.1497 128.978 16.1497C128.288 16.1497 127.802 16.6362 127.721 17.3254C127.68 17.447 127.68 17.5687 127.64 17.7714C127.478 17.6092 127.397 17.5687 127.315 17.4876C125.248 15.5011 122.086 15.4606 119.978 17.4876C117.991 19.393 117.505 22.6362 118.842 25.2714C119.856 27.2984 121.518 28.4335 123.829 28.3524C125.248 28.3119 126.586 27.866 127.64 26.6092C127.68 26.8525 127.68 27.0146 127.721 27.1362C127.802 27.6227 128.207 28.0686 128.694 28.1497C129.221 28.2713 129.707 28.1092 129.991 27.6633C130.153 27.3795 130.275 27.0146 130.275 26.6497C130.315 23.6497 130.275 20.6903 130.275 17.6903C130.275 17.6092 130.275 17.4876 130.275 17.4065ZM126.261 24.1768C125.086 25.7984 122.856 25.6362 121.924 23.8524C121.64 23.3254 121.559 22.7579 121.397 22.1498C121.518 21.1362 121.761 20.2443 122.572 19.6362C123.91 18.6227 125.856 19.1092 126.586 20.6497C127.153 21.8659 127.032 23.1227 126.261 24.1768Z" fill="#3C3B42"/>
<path d="M203.695 17.6081C203.695 17.4864 203.695 17.3649 203.654 17.2432C203.533 16.6351 203.046 16.1486 202.397 16.1486C201.789 16.1486 201.262 16.5945 201.141 17.2026C201.1 17.4054 201.1 17.5675 201.019 17.8919C200.857 17.6892 200.816 17.5675 200.735 17.4865C198.627 15.4594 195.424 15.5 193.357 17.5675C191.127 19.7567 190.924 23.6081 192.87 26.2027C194.897 28.8784 198.749 29.1216 201.1 26.6081C201.141 26.8513 201.141 27.0135 201.222 27.1757C201.343 27.7027 201.749 28.0675 202.235 28.1486C202.762 28.2297 203.249 28.0675 203.492 27.6216C203.654 27.3378 203.735 27.0135 203.735 26.7297C203.695 23.6891 203.695 20.6486 203.695 17.6081ZM199.397 24.4999C198.181 25.7162 196.397 25.5135 195.465 24.1351C194.857 23.2432 194.695 22.2297 195.019 21.2162C195.384 19.9189 196.438 19.0675 197.614 19.1081C198.951 19.1892 200.046 20.1621 200.289 21.5405C200.33 21.7432 200.33 21.9865 200.33 22.1081C200.289 23.0811 200.046 23.8513 199.397 24.4999Z" fill="#3C3B42"/>
<path d="M152.207 27.7047C151.518 28.3128 150.667 28.3533 150.018 27.6642C149.207 26.8128 148.396 25.8804 147.626 24.948C147.018 24.2588 146.451 23.5696 145.761 22.7588C145.761 23.975 145.761 25.0696 145.761 26.1642C145.761 26.3669 145.761 26.6101 145.721 26.8533C145.518 27.7047 144.788 28.2317 143.937 28.1506C143.126 28.0695 142.518 27.4615 142.396 26.6101C142.396 26.4885 142.396 26.4074 142.396 26.3263C142.396 21.8668 142.396 17.4074 142.396 12.9885C142.396 11.8939 143.086 11.083 144.099 11.1236C145.072 11.1236 145.802 11.9344 145.802 13.029V21.1777C145.842 21.2182 145.883 21.2182 145.924 21.2182C147.099 19.8804 148.356 18.5425 149.532 17.2452C149.734 17.0425 149.937 16.7993 150.18 16.5966C150.829 16.0695 151.68 16.1101 152.248 16.7182C152.856 17.3263 152.856 18.2588 152.329 18.8669C151.396 19.8804 150.424 20.9344 149.491 21.9885C150.14 22.7587 150.748 23.529 151.396 24.2993C151.761 24.7452 152.086 25.1507 152.41 25.5561C152.896 26.1642 152.856 27.056 152.207 27.7047Z" fill="#3C3B42"/>
<path d="M163.314 23.2031C164.206 23.2031 164.773 22.6355 164.773 21.7841C164.733 18.622 162.868 16.4328 159.787 16.0679C157.152 15.7436 154.719 16.7571 153.746 19.5544C153.219 21.095 153.138 22.6355 153.543 24.2166C153.989 26.0004 155.084 27.2166 156.787 27.8652C158.003 28.3112 159.3 28.3923 160.598 28.2706C161.53 28.1895 162.422 27.9058 163.192 27.3788C163.557 27.095 163.881 26.7706 163.881 26.2841C163.962 25.149 162.868 24.5004 161.773 24.9869C160.476 25.595 159.098 25.7571 157.8 25.0679C157.071 24.7031 156.746 24.0544 156.706 23.1625H157.233C159.26 23.2031 161.287 23.2031 163.314 23.2031ZM158.895 19.149C160.071 19.1085 161.489 19.7166 161.489 20.9733H156.706C156.706 20.0004 157.638 19.2301 158.895 19.149Z" fill="#3C3B42"/>
<path d="M71.4908 15.9888C68.1664 16.0293 65.3691 18.7861 65.3691 22.1105C65.3691 25.5159 68.207 28.3131 71.6124 28.3131C74.8556 28.3131 77.5718 25.4347 77.5313 22.0699C77.5313 18.6645 74.8151 15.9482 71.4908 15.9888ZM73.7205 23.9348C72.7881 25.6375 70.7205 25.7996 69.5043 24.2996C68.6529 23.2455 68.4908 22.0293 69.0178 20.8131C69.5043 19.6374 70.7205 18.9888 71.9367 19.1915C73.1124 19.3942 74.0448 20.3672 74.1664 21.705C74.1664 21.8267 74.207 21.9888 74.207 22.151C74.2475 22.151 74.2881 22.1915 74.3286 22.1915C74.1259 22.7591 74.0043 23.3672 73.7205 23.9348Z" fill="#3C3B42"/>
<path d="M97.0719 26.5688C97.0719 27.4607 96.3016 28.1904 95.4097 28.1904C94.5584 28.1904 93.7881 27.5823 93.7476 26.6498C93.707 25.0688 93.7071 23.4877 93.7071 21.9066C93.7071 21.5417 93.707 21.1769 93.6665 20.812C93.5449 19.9201 93.0584 19.3931 92.2476 19.1904C91.153 18.9471 90.2206 19.1904 89.8152 19.9606C89.5314 20.4877 89.3692 21.1363 89.3692 21.7444C89.3287 23.285 89.3692 24.7444 89.3287 26.285C89.3287 27.3796 88.7206 28.0687 87.7881 28.1498C86.8152 28.2309 86.0043 27.5012 86.0043 26.4877C85.9638 25.5147 86.0043 24.5417 86.0043 23.5688V17.6904C86.0043 16.758 86.3692 16.2309 87.0989 16.1093C87.8287 15.9877 88.3152 16.3931 88.6395 17.3255C89.4503 16.6363 90.3422 16.1498 91.3962 15.9877C94.4773 15.5417 96.8692 17.366 97.0719 20.4471C97.153 22.5147 97.1125 24.5417 97.0719 26.5688Z" fill="#3C3B42"/>
<path d="M174.263 26.9738C174.222 27.6629 173.655 28.3116 172.965 28.3116C172.195 28.3521 171.344 28.3116 170.573 28.19C169.317 27.9873 168.506 27.1764 168.222 26.0008C168.019 25.1494 167.898 24.217 167.857 23.2845C167.817 22.1089 167.857 20.8521 167.857 19.6765V19.1089C167.533 19.1089 167.249 19.1089 167.006 19.1089C166.155 19.0683 165.506 18.4197 165.506 17.6089C165.506 16.7575 166.114 16.0683 166.925 16.0278C167.209 15.9873 167.492 16.0278 167.857 16.0278C167.857 14.9738 167.857 13.9602 167.857 12.9467C167.857 12.1764 168.141 11.5683 168.871 11.244C169.965 10.7575 171.141 11.5683 171.222 12.7846C171.263 13.3116 171.222 13.8386 171.222 14.4062V16.0683C171.749 16.0683 172.155 16.0683 172.56 16.0683C173.452 16.1089 174.1 16.7575 174.1 17.6494C174.1 18.5008 173.452 19.1494 172.56 19.1899C172.114 19.1899 171.709 19.1899 171.303 19.1899C171.263 19.271 171.222 19.3116 171.222 19.3521C171.263 20.9737 171.222 22.5954 171.303 24.217C171.344 25.2305 171.587 25.3927 172.56 25.3927C173.695 25.3116 174.344 26.0008 174.263 26.9738Z" fill="#3C3B42"/>
<path d="M141.099 17.5293C141.099 18.3807 140.409 19.0699 139.558 19.0699C139.437 19.0699 139.274 19.0699 139.112 19.1104C137.409 19.3131 136.68 20.0428 136.68 21.7861C136.68 23.3266 136.68 24.7861 136.68 26.3266C136.68 27.4212 136.031 28.1915 135.058 28.1915C134.085 28.232 133.355 27.4617 133.315 26.3266C133.315 24.0969 133.315 21.9077 133.315 19.678C133.315 18.9483 133.274 18.2591 133.315 17.4888C133.355 16.8401 133.72 16.3131 134.247 16.1915C134.774 16.0698 135.342 16.232 135.626 16.6374C135.747 16.8401 135.828 17.0834 135.95 17.3266C136.193 17.1644 136.396 16.9617 136.639 16.7996C137.491 16.1915 138.504 15.9482 139.558 15.9888C140.45 16.0293 141.099 16.759 141.099 17.5293Z" fill="#3C3B42"/>
<path d="M82.9235 26.4048C82.9235 27.4183 82.1532 28.1886 81.2208 28.1886C80.2883 28.1886 79.5586 27.4183 79.5586 26.3643C79.5586 24.9453 79.5586 23.567 79.5586 22.148C79.5586 20.7291 79.5586 19.3507 79.5586 17.9318C79.5586 16.8778 80.2478 16.1075 81.2208 16.1075C82.1532 16.1075 82.9235 16.8778 82.9235 17.8913C82.964 20.7291 82.964 23.567 82.9235 26.4048Z" fill="#3C3B42"/>
<path d="M83.2488 12.8645C83.2894 13.9591 82.3975 14.851 81.2623 14.8915C80.1678 14.8915 79.3164 14.0402 79.3164 12.905C79.3164 11.8104 80.1678 10.878 81.2623 10.878C82.3164 10.878 83.2083 11.7699 83.2488 12.8645Z" fill="#3C3B42"/>
</svg>
