<svg width="189" height="37" viewBox="0 0 189 37" fill="none" xmlns="http://www.w3.org/2000/svg">
<path d="M32.0361 9.62448V9.54638C28.2871 7.32044 24.421 5.28975 20.8282 2.8295C17.626 0.603559 14.9315 0.173991 11.534 2.67329C8.01932 5.2507 4.03605 7.12518 0.248047 9.31207C3.33312 12.28 6.30104 12.9048 9.54233 10.0931C10.3234 9.42922 11.4168 9.11681 12.2369 8.49198C14.8143 6.4613 17.2745 6.26604 19.9301 8.49198C21.8826 10.1321 24.7334 10.5227 26.2564 12.8658C24.5381 13.803 23.0932 15.326 20.9454 15.5213C15.8687 12.1238 15.2829 12.1628 10.9872 15.9508C10.8701 16.068 10.8701 16.2242 10.9482 16.3804C10.1672 18.0987 10.1672 19.8169 10.9482 21.4962C12.6665 22.863 14.2285 24.6203 16.7278 24.425C17.4308 24.0736 18.1727 23.8393 18.7976 23.3706C20.672 22.0038 22.3903 22.121 24.2648 23.4097C26.1393 24.6984 26.2174 25.3623 24.3038 26.4948C21.6483 28.0959 18.9538 29.658 16.2592 31.2591C13.096 29.4627 9.93285 27.9006 6.92587 25.9871C5.67622 25.2061 4.77803 25.128 3.68459 25.9481C2.7083 26.651 0.950976 26.8072 0.833821 27.9787C0.716666 29.3455 2.59114 29.4236 3.52838 29.9704C7.7069 32.3916 11.7292 35.0861 16.2202 36.9216C18.368 36.3748 20.0863 34.969 21.9217 33.8755C25.3973 31.8058 29.2243 30.2437 32.3094 27.5492C32.3875 22.4725 32.4656 17.3957 32.4656 12.319C32.4656 11.3818 32.8952 10.3665 32.0361 9.62448ZM16.1811 18.6063C16.1811 18.6454 16.1811 18.6454 16.1811 18.6063C16.1811 18.6454 16.1811 18.6454 16.1811 18.6063C16.1811 18.6454 16.1811 18.6063 16.1811 18.6063Z" fill="#757B82"/>
<path d="M142.942 12.8269C142.942 11.6553 142.903 10.8352 141.302 10.9133C139.935 10.9524 139.232 11.1867 139.31 12.7878C139.427 15.0919 139.349 17.3569 139.349 19.8562C138.724 19.4266 138.295 19.2313 138.06 18.9189C136.108 16.5758 134.155 14.2327 132.281 11.8115C131.461 10.7571 130.445 10.8743 129.469 10.9914C128.063 11.1867 128.727 12.3583 128.727 13.1002C128.649 16.9273 128.727 20.7543 128.688 24.5814C128.688 25.6749 128.571 26.573 130.25 26.4949C131.578 26.4168 132.32 26.2997 132.203 24.6986C132.046 22.3945 132.163 20.0514 132.163 16.9663C134.819 20.2076 137.045 22.785 139.076 25.4796C139.935 26.6511 140.989 26.534 142.083 26.4168C143.488 26.2606 142.825 25.05 142.864 24.3471C142.942 20.481 142.903 16.6539 142.942 12.8269Z" fill="#757B82"/>
<path d="M174.497 16.8102C173.99 18.6456 173.248 20.442 172.467 22.6679C171.568 20.2076 170.748 18.216 170.123 16.1463C169.811 15.0919 169.46 14.5452 168.249 14.4671C166.843 14.389 166.453 15.1309 166.062 16.1853C165.32 18.177 164.852 20.3248 163.563 22.3164C162.899 20.442 162.118 18.7627 161.688 17.0445C161.181 14.8576 160.126 13.9203 157.744 14.8185C159.033 18.2941 160.4 21.7697 161.571 25.2844C162.001 26.6121 162.899 26.3387 163.797 26.4169C164.773 26.495 165.398 26.2997 165.789 25.2453C166.453 23.3708 166.921 21.3792 168.249 19.3876C169.03 21.5745 169.733 23.3318 170.319 25.1281C170.67 26.2997 171.412 26.4169 172.467 26.4169C173.482 26.4169 174.224 26.3387 174.614 25.1672C175.786 21.7307 177.036 18.2941 178.324 14.7795C176.059 13.9984 175.044 14.8576 174.497 16.8102Z" fill="#757B82"/>
<path d="M91.3947 14.8576C90.6137 15.2481 90.2231 15.4434 89.4421 14.8576C87.8801 13.686 86.7085 14.6623 86.7085 16.4197V28.7209C86.5132 30.0877 86.9038 30.6735 88.4658 30.6735C90.2231 30.8687 90.2231 29.8925 90.0279 28.5257V25.5968C90.6137 25.792 91.0042 25.9873 91.1994 25.9873C94.1283 27.1588 96.6667 26.5731 98.424 24.4252C99.9861 22.4727 100.181 18.958 98.6192 16.8102C97.0572 14.7014 94.1283 13.9203 91.3947 14.8576ZM93.152 23.8395C91.3947 24.0347 90.0279 22.4727 90.0279 20.5201C90.0279 18.3722 91.3947 17.0054 93.152 17.2007C95.1046 17.3959 96.0809 18.3722 96.0809 20.3248C96.0809 22.4727 95.2999 23.6442 93.152 23.8395Z" fill="#757B82"/>
<path d="M59.5282 14.6619C61.0513 15.8335 61.5589 14.4666 62.1447 13.8418C63.0819 12.8265 61.7151 12.5531 61.2075 12.2017C58.552 10.21 53.9439 10.2881 51.1712 12.3188C48.2423 14.5057 47.1879 17.786 48.3204 21.3007C49.3748 24.6201 52.3818 26.7289 56.0917 26.7679C57.6928 26.7679 59.8407 26.2602 61.0513 25.362C61.637 24.9325 63.0429 24.6982 62.1838 23.5266C61.5589 22.7065 60.9341 21.7693 59.372 22.8627C56.3651 24.8934 52.7333 23.4876 51.796 20.2853C51.1321 18.0594 51.6398 16.0287 53.4752 14.701C55.3497 13.256 57.6147 13.1779 59.5282 14.6619Z" fill="#757B82"/>
<path d="M81.3197 17.1225C80.773 18.9189 79.8748 20.5981 79.1719 22.2383C76.3211 20.2076 78.2346 14.2327 72.1035 14.5451C73.6656 18.1769 75.1105 21.4963 76.5554 24.8547C77.5707 27.2369 76.7507 28.5646 74.2514 28.0179C72.8064 27.7055 72.5721 28.4475 72.2988 29.2676C71.9083 30.5172 72.9627 30.4782 73.7437 30.6734C76.2039 31.3373 78.508 30.6734 79.5624 28.4865C81.6712 23.9566 83.5847 19.3485 85.4982 14.8185C82.9599 13.9203 81.9445 15.0137 81.3197 17.1225Z" fill="#757B82"/>
<path d="M115.957 14.5059C112.052 14.5059 109.318 16.849 109.318 20.5589C109.318 24.0735 112.052 26.6119 115.762 26.6119C119.667 26.6119 122.205 24.2688 122.205 20.5589C122.205 16.849 119.862 14.5059 115.957 14.5059ZM115.957 24.0345C114.005 23.6439 112.833 22.6676 112.638 20.7151C112.638 18.5672 113.614 17.3957 115.762 17.2004C117.519 17.0052 118.886 18.372 118.886 20.3245C118.886 22.4724 118.105 23.6439 115.957 24.0345Z" fill="#757B82"/>
<path d="M148.136 15.0526C145.403 16.81 144.231 20.5199 145.793 23.2535C147.355 26.1823 151.846 27.5491 154.971 25.7918C155.556 25.5966 157.118 25.4013 156.337 24.2298C155.752 23.2535 155.166 22.6677 153.799 23.4487C151.846 24.6203 149.894 24.0345 148.332 21.4961C151.261 21.4961 153.604 21.3009 155.947 21.4961C157.314 21.4961 157.704 21.1056 157.509 19.7388C157.314 15.2479 152.237 12.7486 148.136 15.0526ZM150.48 19.1531C149.894 18.9578 149.308 19.3483 149.113 18.5673C149.113 17.9815 149.699 17.591 150.089 17.3957C151.651 16.6147 153.018 17.0052 153.994 19.1531H150.48Z" fill="#757B82"/>
<path d="M186.603 19.8169C185.939 19.5826 185.236 19.5045 184.572 19.3092C183.596 19.0358 181.722 19.4264 181.956 17.9814C182.229 16.3413 184.104 17.0442 185.314 17.0442C185.627 17.0442 185.978 17.2395 186.291 17.3957C187.462 17.9424 187.775 17.1614 188.165 16.3413C188.829 15.0135 187.697 15.2478 187.072 14.9354C186.095 14.4668 185.041 14.5449 183.635 14.4668C183.206 14.5058 182.386 14.4668 181.683 14.7011C179.964 15.2869 178.519 16.146 178.519 18.3329C178.519 20.637 180.16 21.1837 181.878 21.6523C182.698 21.8866 183.596 21.9647 184.455 22.1209C185.08 22.2381 185.783 22.4333 185.666 23.1753C185.588 23.8392 184.885 23.9954 184.221 24.0344C182.932 24.0344 181.605 24.1516 180.394 23.4877C179.457 23.0191 178.988 23.6439 178.637 24.425C178.363 25.0498 178.285 25.5965 179.105 25.8308C181.8 26.6899 184.533 27.1586 187.189 25.8308C188.439 25.206 189.063 24.0735 188.985 22.5895C188.907 21.0275 187.892 20.2855 186.603 19.8169Z" fill="#757B82"/>
<path d="M106.743 23.8783C105.806 24.0345 105.376 23.2534 105.337 22.3943C105.298 21.3399 105.376 20.2855 105.298 19.2702C105.22 18.0205 105.415 17.2004 106.938 17.4348C108.032 17.591 108.188 16.9271 108.227 16.0289C108.305 14.8183 107.563 14.7792 106.743 14.8574C105.806 14.9355 105.181 14.7402 105.337 13.6077C105.532 12.2018 104.869 11.8894 103.541 11.8504C102.135 11.8113 101.666 12.2799 101.823 13.6077C101.94 14.4278 101.705 14.9355 100.69 14.8574C100.026 14.8183 99.8309 15.2869 99.87 15.9117C99.909 16.4975 99.6747 17.3567 100.534 17.3567C102.096 17.3567 101.823 18.372 101.823 19.3092C101.823 20.2855 101.784 21.2228 101.823 22.16C101.901 25.206 103.346 26.5728 106.509 26.5338C107.134 26.0652 108.696 27.0024 108.774 25.4403C108.891 24.3078 108.149 23.644 106.743 23.8783Z" fill="#757B82"/>
<path d="M69.7209 14.7403C68.8228 15.0136 68.276 16.1071 67.0264 14.7012C65.972 13.5297 64.3709 14.7403 64.3709 16.5367C64.3318 17.7473 64.3709 18.9579 64.3709 20.2075C64.3709 21.6134 64.4099 22.9802 64.3709 24.386C64.3318 25.5966 64.2928 26.4948 66.0501 26.4948C67.7293 26.4948 67.8855 25.7528 67.8074 24.4641C67.7293 23.1754 67.7684 21.8477 67.8465 20.559C67.9246 18.9188 68.7056 17.5911 70.4629 17.5911C72.5327 17.5911 71.8688 16.068 71.7516 15.248C71.5564 13.9202 70.4629 14.545 69.7209 14.7403Z" fill="#757B82"/>
</svg>
