<svg width="47" height="57" viewBox="0 0 47 57" fill="none" xmlns="http://www.w3.org/2000/svg">
<path d="M9.19006 42.2821C11.0844 41.1455 11.8422 39.426 11.7256 37.2985C11.5799 34.559 9.62722 32.6064 6.91683 32.3732C5.92594 32.2858 4.93505 32.3441 4.11902 32.3149C2.89498 32.3149 1.8458 32.3149 0.825759 32.2275C0.767471 32.2275 0.709183 32.1984 0.650895 32.2566C0.534319 32.4024 0.650895 32.7812 0.854902 32.8395C1.05891 32.8978 1.26292 32.927 1.46693 33.0144C1.72922 33.1018 1.8458 33.2767 1.8458 33.5681C1.8458 36.2785 1.8458 38.9889 1.8458 41.6993C1.8458 42.0781 1.72922 42.2239 1.37949 42.3404C1.20463 42.3987 1.00062 42.4279 0.796614 42.4862C0.534319 42.5444 0.563463 42.7484 0.563463 42.9525C0.563463 43.1565 0.709183 43.0982 0.854902 43.0982C1.05891 43.0982 1.29206 43.069 1.49607 43.069C3.06984 43.069 4.64361 43.069 6.24652 43.0399C7.29571 43.0107 8.31574 42.8067 9.19006 42.2821ZM4.35217 42.1073C4.11902 42.049 3.94416 41.9324 3.94416 41.641C3.94416 40.2421 3.94416 38.8432 3.94416 37.4734H3.9733V33.4807C3.9733 33.131 3.9733 33.131 4.32303 33.131C5.05162 33.131 5.80937 33.131 6.53796 33.3058C8.17002 33.6847 9.04434 34.7922 9.33578 36.3659C9.53979 37.5025 9.59807 38.6683 9.19006 39.8049C8.66547 41.3204 7.52886 42.0198 5.98423 42.1656C5.4305 42.1947 4.9059 42.1947 4.35217 42.1073Z" fill="#757B82"/>
<path d="M18.8954 45.284C15.9227 45.1965 13.3289 47.7029 13.2707 50.7339C13.2124 53.7648 15.4273 56.3295 18.7206 56.3878C21.8098 56.4461 24.3745 53.9688 24.4328 50.9379C24.4911 47.7612 22.1013 45.2548 18.8954 45.284ZM21.9264 53.1237C21.7224 53.8231 21.3727 54.4351 20.7898 54.9014C19.624 55.8632 17.9628 55.7175 16.9136 54.5517C16.185 53.7357 15.8645 52.7448 15.6896 51.6665C15.6022 51.2002 15.573 50.7047 15.5439 50.2384C15.5147 49.2475 15.6605 48.3149 16.2433 47.4698C17.2634 45.9543 19.3326 45.7211 20.6441 47.0035C21.4018 47.732 21.7515 48.6355 21.9555 49.6264C22.1887 50.7922 22.2761 51.9579 21.9264 53.1237Z" fill="#757B82"/>
<path d="M41.803 45.4881C41.395 45.4881 40.9869 45.5173 40.5789 45.5464C39.996 45.5464 39.4423 45.5464 38.8594 45.4881C38.772 45.4881 38.6846 45.4007 38.6263 45.5755C38.568 45.8961 38.6554 46.071 38.976 46.1293C39.0926 46.1584 39.2092 46.1876 39.3257 46.2167C39.8503 46.3624 39.9378 46.479 39.9378 47.0036C39.9378 48.5482 39.9378 50.0929 39.9086 51.6375C39.9086 51.9581 39.9086 52.2786 39.9086 52.6575C39.8212 52.5701 39.792 52.5409 39.7629 52.4827C38.0434 50.2969 36.3239 48.1111 34.6044 45.9253C34.4004 45.663 34.1673 45.5464 33.8467 45.5464C33.1181 45.5464 32.3895 45.5173 31.6609 45.4881C31.3403 45.459 31.282 45.5464 31.3403 45.8378C31.3694 45.9836 31.4569 46.071 31.6026 46.1001C31.7192 46.1293 31.8358 46.1293 31.9523 46.1584C32.3895 46.275 32.5061 46.3916 32.5061 46.8287C32.5061 47.5865 32.5061 48.3151 32.5061 49.0728C32.5061 51.0255 32.5061 52.9781 32.5061 54.9307C32.5061 55.3679 32.3895 55.5136 32.0106 55.6302C31.8358 55.6885 31.6609 55.6885 31.5152 55.7468C31.2529 55.8342 31.3403 56.0382 31.3403 56.2131C31.3403 56.4171 31.5152 56.3005 31.6026 56.3005C32.5935 56.2422 33.5552 56.2422 34.5461 56.3296C34.6044 56.3296 34.6627 56.3588 34.721 56.3005C34.8376 56.1548 34.7501 55.8051 34.5461 55.7468C34.3713 55.6885 34.1964 55.6885 34.0507 55.6302C33.6135 55.5136 33.5261 55.4262 33.5261 54.9599C33.5261 52.7158 33.5261 50.4426 33.5552 48.1985C33.5552 48.1402 33.5261 48.0528 33.6135 47.9945C33.6718 48.0528 33.7301 48.1111 33.7884 48.1985C35.8576 50.8215 37.9268 53.4444 39.9669 56.0965C40.1709 56.3588 40.4041 56.5045 40.7538 56.4754C40.9286 56.4462 41.0161 56.4171 41.0161 56.2131C41.0161 54.7559 41.0161 53.2987 41.0161 51.8706C41.0161 50.2386 41.0161 48.5774 41.0161 46.9453C41.0161 46.4499 41.1618 46.275 41.6572 46.1584C41.7447 46.1293 41.8321 46.1293 41.9487 46.1001C42.1527 46.0419 42.211 45.8961 42.1818 45.6047C42.0653 45.3424 41.9195 45.4881 41.803 45.4881Z" fill="#757B82"/>
<path d="M14.7853 43.0693C14.9019 42.8652 14.7853 42.5738 14.5521 42.5155C14.3773 42.4864 14.2024 42.4572 14.0567 42.3989C13.707 42.2824 13.6487 42.1075 13.7653 41.7578C14.0276 41.0292 14.319 40.3297 14.5813 39.6011C14.6396 39.4554 14.6979 39.4263 14.8436 39.4263C15.339 39.4263 15.8636 39.4263 16.3591 39.4263C16.8837 39.4263 17.4083 39.4263 17.9328 39.4263C18.0203 39.4263 18.0786 39.3971 18.1368 39.5137C18.4283 40.3006 18.7197 41.0583 18.982 41.8161C19.0695 42.1075 18.982 42.2532 18.7197 42.3698C18.574 42.4281 18.3991 42.4572 18.2534 42.5155C18.0494 42.5738 17.962 42.7487 18.0203 43.011C18.0494 43.215 18.2243 43.1275 18.3409 43.1275C19.2152 43.0984 20.1186 43.0401 20.993 43.0693C21.4593 43.0693 21.9256 43.1275 22.3919 43.1567C22.5376 43.1567 22.5959 43.1275 22.5959 42.9818C22.625 42.6904 22.5376 42.5738 22.2461 42.5155C21.8381 42.4281 21.4884 42.3115 21.2844 41.8744C20.0312 38.7268 18.778 35.6084 17.5248 32.49C17.4083 32.2277 17.2917 32.1694 17.0294 32.1694C16.7671 32.1986 16.6797 32.3443 16.5922 32.5483C15.2807 35.6376 13.9984 38.7268 12.6869 41.8161C12.5412 42.1366 12.3372 42.3407 12.0166 42.4281C11.8418 42.4572 11.6669 42.4864 11.5212 42.5447C11.288 42.6321 11.3463 42.8361 11.3463 43.0401C11.3463 43.1567 11.4338 43.1567 11.5212 43.1567C12.5704 43.0401 13.5904 43.0984 14.6396 43.1567C14.6979 43.0984 14.7562 43.1275 14.7853 43.0693ZM15.0185 38.4645C15.4848 37.2988 15.9219 36.133 16.4174 34.909C16.6214 35.4336 16.7962 35.8999 16.9711 36.3662C17.2334 37.0365 17.4957 37.7359 17.7288 38.4062C17.758 38.4937 17.8163 38.5811 17.6414 38.5811C16.7671 38.5811 15.8928 38.5811 14.9893 38.5811C15.0185 38.5228 15.0185 38.4937 15.0185 38.4645Z" fill="#757B82"/>
<path d="M12.3092 53.2406C12.1052 53.0949 11.668 53.1823 11.5806 53.4155C11.4931 53.5904 11.4057 53.7944 11.3183 53.9692C11.0268 54.5813 10.6188 55.0767 9.94851 55.2807C8.25816 55.8053 6.71354 55.3099 5.72264 53.7361C4.9649 52.512 4.7609 51.1714 4.87747 49.7434C4.93576 49.1896 5.05234 48.665 5.25634 48.1405C5.89751 46.625 7.17984 46.0712 8.63703 46.0712C9.89022 46.1004 10.7354 46.5958 11.1434 47.8199C11.2891 48.2279 11.4348 48.2862 11.8429 48.1987C11.9594 48.1696 11.9594 48.1405 11.9303 48.053C11.7263 47.3244 11.6389 46.5958 11.5806 45.8381C11.5806 45.7215 11.5223 45.6632 11.4057 45.6341C9.97765 45.2552 8.5496 45.0512 7.09241 45.3135C5.43121 45.6049 4.11973 46.421 3.27456 47.9364C2.40024 49.5102 2.34195 51.2006 2.86654 52.8909C3.36199 54.4355 4.38202 55.4847 5.92665 56.0093C6.74268 56.3007 7.58785 56.3299 8.25816 56.3299C9.42392 56.3299 10.3857 56.2425 11.3474 56.0967C11.4349 56.0676 11.5223 56.0676 11.5514 55.951C11.7263 55.0767 12.0177 54.2315 12.28 53.3864C12.3383 53.3572 12.3966 53.2989 12.3092 53.2406Z" fill="#757B82"/>
<path d="M46.9031 32.4606C46.9031 32.2274 46.7574 32.3149 46.6408 32.344C45.6499 32.4314 44.6882 32.4023 43.6973 32.3149C43.5516 32.3149 43.4058 32.2566 43.4058 32.4897C43.4058 32.6937 43.3767 32.8686 43.6098 32.9269C43.7847 32.9852 43.9887 33.0143 44.1636 33.0726C44.3967 33.1309 44.455 33.3058 44.3967 33.5098C44.3676 33.6263 44.3093 33.7429 44.251 33.8595C43.9596 34.4424 43.639 34.9961 43.3184 35.579C42.9978 36.191 42.6772 36.7739 42.3275 37.415C42.0652 36.8904 41.8321 36.4241 41.5989 35.9578C41.1909 35.171 40.812 34.3841 40.404 33.5972C40.2291 33.2183 40.2874 33.0726 40.6954 32.956C40.812 32.9269 40.9286 32.9269 41.0452 32.8977C41.3366 32.8103 41.22 32.5772 41.2492 32.4023C41.2492 32.1983 41.1035 32.2857 40.9869 32.2857C40.3166 32.344 39.6463 32.344 38.976 32.344C38.3057 32.344 37.6062 32.344 36.9359 32.2857C36.8485 32.2857 36.761 32.2274 36.7027 32.344C36.5862 32.5772 36.7319 32.8394 36.9942 32.8977C37.4313 32.9852 37.8393 33.1309 38.0434 33.568C38.8594 35.171 39.7046 36.7739 40.5497 38.3768C40.608 38.4934 40.6372 38.5808 40.6372 38.7265C40.6372 39.7466 40.608 40.7666 40.608 41.7866C40.608 42.0781 40.4914 42.2529 40.2 42.3404C39.9377 42.3986 39.6754 42.4569 39.4131 42.5152C39.18 42.5735 39.2091 42.7775 39.2091 42.9232C39.2091 43.1272 39.3548 43.0981 39.4714 43.0981C39.9377 43.069 40.3749 43.0398 40.8412 43.0398C41.8029 43.0107 42.7938 43.069 43.7556 43.1272C43.9013 43.1272 44.047 43.1272 44.047 42.9232C44.047 42.7192 44.047 42.5444 43.8138 42.5152C43.6098 42.4861 43.3767 42.4278 43.1727 42.3695C42.7647 42.2529 42.6772 42.1072 42.6772 41.6992C42.6772 40.6792 42.6772 39.6591 42.6772 38.6682C42.6772 38.5808 42.7064 38.4934 42.7355 38.4059C43.6098 36.803 44.5133 35.171 45.3876 33.568C45.5625 33.2766 45.7956 33.0726 46.1454 32.9852C46.2911 32.956 46.4659 32.9269 46.6117 32.8977C46.9614 32.8686 46.9031 32.6354 46.9031 32.4606Z" fill="#757B82"/>
<path d="M29.2111 32.3733C29.1237 32.6647 29.2403 32.8687 29.5317 32.927C29.6192 32.927 29.7066 32.9561 29.794 32.9853C30.2603 33.1019 30.406 33.2476 30.406 33.7139C30.406 35.1128 30.406 36.5408 30.3769 37.9397C30.3769 39.2221 30.3478 40.5044 30.3769 41.8159C30.3769 42.1073 30.2603 42.2822 29.9689 42.3696C29.7357 42.457 29.5026 42.5153 29.2694 42.5445C28.9489 42.6028 29.0363 42.8359 29.0363 43.0399C29.0363 43.2731 29.2111 43.1565 29.3277 43.1565C31.4261 43.0691 33.4953 43.0982 35.5937 43.1274C36.0308 43.1274 36.4388 43.1565 36.876 43.1856C37.1091 43.1856 37.2549 43.1274 37.284 42.8651C37.3714 42.1365 37.5172 41.3787 37.692 40.6501C37.692 40.621 37.7212 40.5335 37.692 40.5335C37.5754 40.4461 37.4297 40.3878 37.2549 40.3587C37.1383 40.3587 37.0509 40.417 36.9926 40.5627C36.8468 40.9124 36.7011 41.2621 36.468 41.5827C36.2348 41.9033 35.9434 42.1365 35.5354 42.1948C34.6611 42.3113 33.7867 42.2822 32.9124 42.1365C32.5336 42.0782 32.417 41.9033 32.417 41.5244V37.6192H32.4461C32.4461 36.3077 32.4461 34.9962 32.4461 33.7139C32.4461 33.335 32.5627 33.1601 32.9124 33.0436C33.1164 32.9853 33.3204 32.927 33.5536 32.8978C33.845 32.8396 33.7867 32.6356 33.7867 32.4315C33.7867 32.1984 33.641 32.2567 33.4953 32.2567C33.1456 32.2567 32.7958 32.2858 32.4461 32.2858C31.4261 32.315 30.3769 32.2858 29.3569 32.2275C29.3277 32.2858 29.2403 32.2567 29.2111 32.3733Z" fill="#757B82"/>
<path d="M28.8614 50.8506V46.7413C28.8614 46.3624 28.9488 46.2459 29.2985 46.1584C29.4734 46.1001 29.6483 46.1001 29.8231 46.0419C30.0854 45.9836 30.0271 45.7796 30.0271 45.5755C30.0271 45.4298 29.9397 45.4007 29.794 45.4007C28.4534 45.4881 27.1127 45.4881 25.743 45.3715C25.6847 45.3715 25.6264 45.3424 25.5681 45.4007C25.4224 45.5756 25.5681 45.9544 25.8013 45.9836C25.9761 46.0127 26.151 46.071 26.3258 46.1001C26.5881 46.1584 26.7339 46.3333 26.7339 46.5956C26.7339 46.9745 26.7339 47.3825 26.7339 47.7613C26.7339 50.1511 26.7339 52.5118 26.7339 54.9016C26.7339 55.2805 26.6464 55.397 26.2676 55.5136C26.0927 55.5719 25.9178 55.5719 25.743 55.6302C25.4515 55.6885 25.539 55.9216 25.539 56.0965C25.539 56.3005 25.6847 56.2422 25.8013 56.2422C27.0836 56.1548 28.3951 56.1548 29.6774 56.2422C29.998 56.2714 30.0271 56.2131 29.998 55.8925C29.998 55.7468 29.9105 55.6593 29.7648 55.6302C29.6483 55.6011 29.5317 55.6011 29.4151 55.5719C28.8905 55.4553 28.8031 55.3679 28.8031 54.8142L28.8614 50.8506Z" fill="#757B82"/>
<path d="M27.7251 42.8067C27.7251 42.6319 27.6377 42.5444 27.4628 42.5153C27.3462 42.4861 27.2297 42.4861 27.1131 42.457C26.6176 42.3404 26.5302 42.2238 26.5302 41.7284C26.5302 39.0472 26.5302 36.3951 26.5594 33.7138C26.5594 33.6555 26.5594 33.5681 26.5594 33.5098C26.5594 33.2184 26.7051 33.0727 26.9674 33.0144C27.1422 32.9852 27.3171 32.9269 27.492 32.8978C27.7834 32.8395 27.7251 32.6355 27.7251 32.4315C27.7251 32.1983 27.5794 32.2566 27.4337 32.2858C26.5594 32.3149 25.7142 32.3732 24.8399 32.3441C24.4319 32.3149 24.0238 32.3149 23.6158 32.2858C23.2952 32.2566 23.2661 32.2858 23.2952 32.6064C23.2952 32.7812 23.3827 32.8687 23.5575 32.8978C23.7033 32.9269 23.8198 32.9561 23.9655 32.9852C24.3736 33.0727 24.4901 33.2184 24.4901 33.6555C24.4901 35.0253 24.4901 36.3951 24.4901 37.7648C24.4901 39.1055 24.4901 40.4169 24.4901 41.7575C24.4901 42.2238 24.3444 42.3696 23.9073 42.457C23.7615 42.4861 23.6158 42.4861 23.4701 42.5444C23.2078 42.6319 23.2952 42.8359 23.2952 43.0107C23.2952 43.2147 23.441 43.1273 23.5284 43.1273C24.8107 43.0399 26.1222 43.0399 27.4045 43.1273C27.7251 43.1565 27.7251 43.1273 27.7251 42.8067Z" fill="#757B82"/>
<path d="M13.4447 4.74513C14.5521 4.74513 15.3973 3.89995 15.3973 2.79248C15.3973 1.68502 14.5521 0.839844 13.4447 0.839844C12.3372 0.839844 11.4629 1.71416 11.4629 2.79248C11.4629 3.89995 12.3372 4.77427 13.4447 4.74513Z" fill="#757B82"/>
<path d="M13.4447 9.90366C14.5521 9.90366 15.3973 9.05849 15.3973 7.95102C15.3973 6.84356 14.5521 5.96924 13.4447 5.96924C12.3372 5.96924 11.4629 6.84356 11.4629 7.95102C11.4629 9.02935 12.3372 9.90366 13.4447 9.90366Z" fill="#757B82"/>
<path d="M13.4447 15.0619C14.5521 15.0619 15.3973 14.1876 15.3973 13.0801C15.3973 11.9726 14.5521 11.1274 13.4447 11.1274C12.3664 11.1274 11.4629 12.0018 11.4629 13.0801C11.4629 14.1876 12.3372 15.0619 13.4447 15.0619Z" fill="#757B82"/>
<path d="M28.9212 20.2202C30.0287 20.2202 30.8739 19.3459 30.8739 18.2676C30.8739 17.1601 30.0287 16.3149 28.9212 16.3149C27.8138 16.3149 26.9395 17.1601 26.9395 18.2676C26.9395 19.3459 27.8138 20.2202 28.9212 20.2202Z" fill="#757B82"/>
<path d="M18.6029 20.2206C19.6812 20.2206 20.5555 19.3462 20.5555 18.2388C20.5555 17.1313 19.7103 16.2861 18.6029 16.2861C17.4954 16.2861 16.6211 17.1313 16.6211 18.2388C16.6211 19.3462 17.4954 20.2206 18.6029 20.2206Z" fill="#757B82"/>
<path d="M13.4455 20.2206C14.553 20.2206 15.3982 19.3754 15.3982 18.2679C15.3982 17.1604 14.553 16.2861 13.4747 16.2861C12.3672 16.2861 11.4929 17.1313 11.4929 18.2388C11.4638 19.3462 12.3381 20.2206 13.4455 20.2206Z" fill="#757B82"/>
<path d="M18.5737 25.379C19.6521 25.4081 20.5555 24.5338 20.5555 23.4846C20.5847 22.348 19.7395 21.4737 18.6029 21.4446C17.5537 21.4154 16.6502 22.2897 16.6211 23.3098C16.6211 24.4755 17.4663 25.379 18.5737 25.379Z" fill="#757B82"/>
<path d="M23.7319 25.3788C24.8394 25.3788 25.7137 24.5044 25.7137 23.397C25.7137 22.2895 24.8394 21.4443 23.7319 21.4443C22.6245 21.4443 21.7793 22.3187 21.7793 23.397C21.7793 24.5044 22.6536 25.3788 23.7319 25.3788Z" fill="#757B82"/>
<path d="M34.0783 25.3786C35.1567 25.3786 36.031 24.5043 36.031 23.3968C36.031 22.3185 35.1567 21.4442 34.0783 21.415C32.9709 21.415 32.1257 22.2894 32.1257 23.3968C32.0966 24.5043 32.9709 25.3786 34.0783 25.3786Z" fill="#757B82"/>
<path d="M13.4447 25.3788C14.523 25.3788 15.3973 24.5044 15.3973 23.4553C15.3973 22.3187 14.5813 21.4443 13.4447 21.4443C12.3664 21.4443 11.4629 22.3187 11.4629 23.397C11.4629 24.5044 12.3372 25.3788 13.4447 25.3788Z" fill="#757B82"/>
<path d="M18.6038 4.74497C19.7112 4.74497 20.5564 3.8998 20.5855 2.79233C20.5855 1.68486 19.7404 0.810547 18.6329 0.810547C17.5254 0.810547 16.6511 1.65572 16.6511 2.73404C16.622 3.8998 17.4672 4.74497 18.6038 4.74497Z" fill="#757B82"/>
<path d="M23.7319 20.2206C24.8394 20.2206 25.7137 19.3462 25.7137 18.2388C25.7137 17.1313 24.8394 16.2861 23.7611 16.2861C22.6536 16.2861 21.8084 17.1313 21.7793 18.2388C21.7793 19.3462 22.6536 20.2206 23.7319 20.2206Z" fill="#757B82"/>
<path d="M23.7619 4.74497C24.8694 4.74497 25.7146 3.8998 25.7437 2.79233C25.7437 1.71401 24.8694 0.810547 23.7911 0.810547C22.6836 0.810547 21.8093 1.68486 21.8093 2.79233C21.7802 3.8998 22.6545 4.74497 23.7619 4.74497Z" fill="#757B82"/>
<path d="M28.8921 15.0619C29.9996 15.0619 30.8447 14.1876 30.8739 13.1092C30.8739 12.0018 30.0287 11.1274 28.9212 11.1274C27.8138 11.1274 26.9395 11.9726 26.9395 13.0801C26.9395 14.2167 27.8138 15.0619 28.8921 15.0619Z" fill="#757B82"/>
<path d="M18.6029 15.0619C19.7103 15.0619 20.5555 14.1876 20.5555 13.1092C20.5555 12.0018 19.7103 11.1566 18.6029 11.1274C17.4954 11.1274 16.6211 11.9726 16.6211 13.0801C16.6211 14.2167 17.4954 15.0619 18.6029 15.0619Z" fill="#757B82"/>
<path d="M23.7611 9.90366C24.8394 9.90366 25.7137 9.02935 25.7137 7.92188C25.7137 6.84355 24.8394 5.96924 23.7611 5.96924C22.6828 5.96924 21.8084 6.84355 21.7793 7.92188C21.7793 9.02935 22.6536 9.93281 23.7611 9.90366Z" fill="#757B82"/>
<path d="M18.6029 9.90366C19.7103 9.90366 20.5555 9.02935 20.5555 7.95102C20.5555 6.84356 19.7103 5.96924 18.6029 5.96924C17.5246 5.96924 16.6211 6.84355 16.6211 7.92188C16.6211 9.02935 17.4954 9.90366 18.6029 9.90366Z" fill="#757B82"/>
<path d="M28.8921 9.90366C29.9996 9.90366 30.8739 9.02935 30.8739 7.95102C30.8739 6.84356 29.9996 5.96924 28.8921 5.96924C27.8138 5.96924 26.9395 6.84356 26.9395 7.95102C26.9395 9.05849 27.8138 9.90366 28.8921 9.90366Z" fill="#757B82"/>
<path d="M23.7611 15.062C24.8394 15.062 25.7137 14.1877 25.7137 13.1094C25.7137 12.0019 24.8394 11.1567 23.7611 11.1567C22.6536 11.1567 21.7793 12.0311 21.7793 13.1385C21.7793 14.2168 22.6536 15.062 23.7611 15.062Z" fill="#757B82"/>
</svg>
