<svg width="254" height="24" viewBox="0 0 254 24" fill="none" xmlns="http://www.w3.org/2000/svg">
<path d="M80.1987 15.453C79.0253 15.7363 78.9849 16.505 78.823 17.1929C78.0138 20.7536 76.4357 22.0484 72.7536 22.1293C71.3375 22.1698 69.9213 22.1698 68.5051 22.1293C67.9791 22.1293 67.4935 22.0079 66.9271 21.927V12.2565C70.8924 11.7709 71.7421 12.3374 72.7941 15.6958C72.9155 16.06 73.3201 16.3432 73.7652 16.8692C74.2912 14.8865 74.0484 13.2276 74.0484 11.5686C74.0484 9.95012 74.3721 8.29117 73.4415 6.67267C72.5918 8.08885 72.5109 9.99059 70.8924 10.5975H67.0484C66.6438 8.04839 66.7652 3.07151 67.2508 1.49348C69.1525 1.49348 71.0947 1.41255 73.0369 1.49348C75.4242 1.5744 77.3664 2.46458 78.0138 5.05417C78.1756 5.74203 78.4184 6.47036 79.6323 6.55128C79.4704 4.40677 79.3086 2.42411 79.1467 0.19868C78.2161 0.19868 77.5687 0.19868 76.9213 0.19868C74.3721 0.19868 71.7825 0.19868 69.2334 0.19868C66.2797 0.19868 63.2854 0.19868 60.3317 0.19868C59.7247 0.19868 58.956 -0.00363249 58.6323 1.21024C59.8866 1.37209 60.9791 1.53394 62.0716 1.65533C62.5166 4.97325 62.3548 20.5513 61.8693 21.8865C60.8982 22.453 59.5629 21.5628 58.5918 22.8172C58.9964 23.0195 59.3201 23.3027 59.6438 23.3432C62.7999 23.7478 78.7421 23.3837 80.1178 22.8576C79.7941 20.5108 80.8461 18.0426 80.1987 15.453Z" fill="#757B82"/>
<path d="M18.5754 4.08325C19.0609 4.97343 19.2632 5.98499 19.6274 6.91562C19.8297 7.44164 19.8702 8.1295 20.8413 8.21042C21.4482 5.58036 20.5985 3.07169 20.4771 0.482097C19.9915 0.401172 19.6678 0.279785 19.3441 0.279785C13.5985 0.279785 7.89328 0.279785 2.14761 0.279785C1.66206 0.279785 1.13605 0.482098 0.488652 0.643948C0.44819 2.06013 0.28634 3.31447 0.407727 4.5688C0.529114 5.78268 -0.522909 7.11794 0.852814 8.49366C1.17651 7.84626 1.41929 7.44164 1.6216 6.95609C2.02622 6.02545 2.30946 5.05435 2.75455 4.16418C4.00888 1.65551 5.26322 1.1295 8.33836 1.85782V21.8058C7.12449 22.696 5.50599 21.563 4.41351 22.8983C5.78923 23.8289 7.20542 23.3434 8.54068 23.4243C9.95686 23.5052 11.373 23.5052 12.7892 23.4243C14.1245 23.3434 15.5407 23.8289 17.1996 22.7769C16.269 22.4937 15.743 22.2913 15.1765 22.2104C14.5291 22.089 13.8817 22.1295 13.0725 22.0486V1.81736C15.8644 1.21042 17.4019 1.85782 18.5754 4.08325Z" fill="#757B82"/>
<path d="M198.107 3.67849C198.713 4.77097 199.037 6.02531 199.442 7.23918C199.604 7.72473 199.685 8.33167 200.453 8.16982C200.979 5.78253 200.777 2.62646 199.887 0.481955C197.297 0.0368683 182.003 0.198719 180.627 0.643805C179.777 4.97329 179.777 7.27964 180.748 8.37213C180.95 8.00797 181.153 7.68427 181.274 7.32011C181.638 6.30855 181.881 5.25652 182.326 4.28542C183.419 1.85768 185.442 1.04843 187.91 1.9386C188.355 5.13514 188.153 20.6727 187.667 22.008C184.673 22.4126 184.673 22.4126 184.228 23.3432C188.193 23.3432 192.118 23.3432 195.962 23.3432C196.164 23.3432 196.367 23.06 196.609 22.8172C195.396 21.6438 193.979 22.4935 192.685 22.1294V1.73629C195.072 1.16982 196.933 1.65537 198.107 3.67849Z" fill="#757B82"/>
<path d="M223.437 10.0311C224.084 9.74789 224.61 9.50512 225.177 9.26234C225.136 9.14095 225.096 9.01957 225.096 8.89818H219.755C218.743 11.8519 217.772 14.8462 216.639 18.2045C214.98 15.0485 214.697 11.8115 213.159 8.89818C211.339 8.6554 209.477 8.73633 207.576 8.81725C207.576 8.9791 207.535 9.10049 207.535 9.26234C208.183 9.50512 208.83 9.74789 209.477 9.99066V22.2508C208.749 22.4936 208.142 22.7363 207.576 22.9386C210.448 23.7074 211.46 23.6265 212.714 22.8173C211.986 22.6554 211.339 22.4936 210.651 22.3317V10.6785C212.633 14.9271 213.24 19.3779 215.547 23.7074C217.691 19.1352 218.541 14.6034 220.159 10.6381V22.1699C219.229 22.4531 218.622 22.6554 217.691 22.9791C219.957 23.6265 223.963 23.5456 225.339 22.8577C224.651 22.5745 224.084 22.3722 223.518 22.1294V10.0311H223.437Z" fill="#757B82"/>
<path d="M36.0141 9.26244C33.9101 8.45319 29.176 8.57457 28.0835 9.42428C28.8118 9.58613 29.4592 9.70752 30.1471 9.82891V15.0486H23.8754C23.8754 13.7133 23.8754 12.5804 23.8754 11.4474C23.8754 10.9214 23.9563 10.3954 23.9968 9.86937C24.7251 9.66706 25.3725 9.46475 26.2627 9.22197C24.1586 8.41272 19.3841 8.53411 18.332 9.38382C19.0604 9.54567 19.7078 9.66706 20.4361 9.82891V22.2509C19.6268 22.4936 19.0199 22.6555 18.3725 22.8578C20.6789 23.6671 24.8465 23.5457 26.1413 22.8173C25.3725 22.6555 24.7656 22.4936 23.9158 22.2913C23.9158 20.3087 23.7135 18.4474 24.0372 16.6266H30.1875V22.2509C29.4187 22.4936 28.7713 22.696 27.8407 22.9792C29.9852 23.6266 34.4361 23.5861 35.9332 22.8983C35.1239 22.6555 34.4361 22.4936 33.7482 22.2913V9.90984C34.517 9.70752 35.1644 9.50521 36.0141 9.26244Z" fill="#757B82"/>
<path d="M150.725 9.86901C151.494 9.66669 152.101 9.50484 152.667 9.34299C152.667 9.18114 152.627 9.01929 152.627 8.85744C150.928 8.61467 149.188 8.65513 147.326 8.89791C146.315 12.0135 145.303 15.0077 144.211 18.4066C143.078 14.9268 142.066 11.8921 141.136 8.97883C138.546 8.57421 137.13 8.65513 135.633 9.26207C136.361 9.54531 136.928 9.78808 137.454 9.99039V22.1291C136.806 22.4124 136.24 22.6551 135.714 22.9384C137.413 23.4644 138.951 23.6667 141.014 22.9384C140.003 22.6147 139.477 22.4124 138.87 22.21V11.4875C140.529 15.4528 141.176 19.5395 143.199 23.2216C145.222 19.4181 145.951 15.21 147.569 11.2043V22.21C146.922 22.4528 146.396 22.6551 145.708 22.9384C147.691 23.7072 151.656 23.5858 152.829 22.7765C152.101 22.6147 151.494 22.4528 150.806 22.3314V9.86901H150.725Z" fill="#757B82"/>
<path d="M238.164 22.2508C236.505 22.615 234.887 22.6554 233.106 22.2508C233.066 20.3086 232.864 18.4473 233.228 16.667C235.777 16.3028 235.939 16.3837 237.274 18.6496C237.638 16.7884 237.679 14.9271 237.476 13.0658C237.355 13.0254 237.193 13.0254 237.072 12.9849C236.708 13.6323 236.303 14.3202 235.898 15.0485H233.228V9.78837C235.372 9.5456 237.355 9.30282 239.176 10.3144C239.702 11.1641 240.187 11.9329 240.875 13.0254C241.32 11.3664 241.401 10.193 240.592 8.73635H236.303C234.806 8.73635 233.349 8.69589 231.852 8.73635C230.476 8.81727 228.979 8.37219 227.32 9.30282C228.332 9.58606 229.02 9.74791 229.667 9.90976V22.2508C228.494 22.5745 228.494 22.5745 227.846 23.2219C230.8 23.667 240.026 23.5456 241.523 22.9791C241.604 21.5629 241.968 20.1063 241.239 18.3259C240.268 20.0254 240.106 21.8462 238.164 22.2508Z" fill="#757B82"/>
<path d="M50.2161 21.3198C48.2334 22.6551 46.2103 22.9383 43.4993 22.1695V16.5048C44.5109 16.5453 45.3606 16.5857 46.1698 16.6262C46.6958 17.5164 47.1005 18.2851 47.6265 19.1753C48.3548 17.2736 48.3143 14.4007 47.586 12.7822C47.1409 13.551 46.7363 14.1984 46.3721 14.8054C45.401 15.3314 44.4299 15.4123 43.4588 14.8863V9.82849C45.1987 9.54525 46.7363 9.58572 48.3548 9.86896C49.9328 10.1117 50.1352 11.6898 51.2681 12.8632V9.10017C49.1641 8.57416 39.4935 8.61462 37.5918 9.26202C38.6843 9.54526 39.3721 9.70711 40.2219 9.90942V22.2909C39.3721 22.5337 38.6438 22.736 37.956 22.9383C37.9964 23.1002 37.9964 23.3025 38.0369 23.4643C42.6091 23.4643 47.2219 23.5857 51.7941 23.4239C52.3606 21.684 52.3606 20.2273 51.9155 18.5684C50.6207 19.2158 50.9039 20.551 50.2161 21.3198Z" fill="#757B82"/>
<path d="M101.361 8.0081C97.7603 7.92718 94.2401 11.7306 94.1996 15.615C94.1591 19.8636 97.3557 23.3838 101.281 23.3838C105.205 23.4243 108.442 20.1064 108.483 15.9792C108.847 12.1353 105.448 8.08903 101.361 8.0081ZM104.639 20.1468C104.234 21.8058 102.939 22.5746 101.119 22.5341C99.4193 22.4532 98.1245 21.563 98.0031 19.9445C97.8412 17.1931 97.9221 14.4416 98.0031 11.6497C98.0031 11.1237 98.3268 10.6382 98.5695 9.90984C99.2169 9.58614 99.7834 9.22198 100.431 9.01967C102.292 8.41273 104.234 9.42429 104.679 11.326C105.408 14.2798 105.367 17.2335 104.639 20.1468Z" fill="#757B82"/>
<path d="M134.581 11.3663C133.044 9.22176 131.061 7.76512 128.31 8.04835C124.263 8.49344 121.35 12.4588 121.714 15.6958C121.714 17.5975 122.038 18.69 123.05 20.268C124.749 22.8981 128.067 24.1119 130.778 23.1408C135.512 21.3605 137.616 15.6553 134.581 11.3663ZM132.518 17.2738C132.437 18.3258 132.194 19.3778 131.951 20.4299C131.587 21.8865 130.495 22.4125 129.078 22.4934C127.339 22.6148 126.367 22.1697 125.761 20.794C125.437 19.9848 125.113 19.1351 125.113 18.2853C125.113 16.2218 125.113 14.1177 125.356 12.0946C125.761 9.22176 128.067 8.12928 130.657 9.42407C130.94 9.58592 131.223 9.78824 131.547 10.031C132.639 12.3374 132.761 14.8056 132.518 17.2738Z" fill="#757B82"/>
<path d="M122.927 8.89831C121.228 8.08906 118.759 8.16999 117.505 8.97923C118.274 9.18155 118.962 9.3434 119.771 9.58617C119.771 12.2162 119.892 14.7654 119.366 17.3145C117.262 14.3607 115.199 11.407 113.216 8.57461C110.02 8.08906 108.401 8.25091 107.47 9.0197C108.118 9.22201 108.765 9.38386 109.453 9.58617V21.8463C108.725 22.0486 108.118 22.2509 107.309 22.4532C109.048 23.1815 111.112 23.1815 112.731 22.4937C111.962 22.2509 111.355 22.0486 110.667 21.8463C110.303 18.933 110.424 11.7307 110.829 10.355C110.991 10.4763 111.193 10.5977 111.274 10.7191C113.702 14.1989 116.089 17.7191 118.476 21.1989C119.043 22.0081 119.528 22.8983 120.904 23.3434C120.944 20.8752 120.944 18.6093 120.985 16.3434C120.985 14.0775 120.985 11.7711 120.985 9.58617C121.713 9.3434 122.239 9.14109 122.927 8.89831Z" fill="#757B82"/>
<path d="M249.494 13.9155C248.968 13.7537 248.441 13.7132 247.915 13.5918C247.147 13.3895 246.337 13.2681 245.569 12.9849C244.8 12.7016 244.072 12.2566 244.031 11.2855C243.991 10.3548 244.638 9.82881 245.326 9.38373C247.025 8.41263 248.967 8.85772 250.384 10.5167C250.829 11.0427 251.233 11.6092 251.962 12.5398V8.77679C250.667 8.53402 249.534 8.41263 248.441 8.12939C246.944 7.72477 245.609 8.04847 244.355 8.77679C241.967 10.1121 241.603 13.1872 243.546 15.1294C244.395 15.9791 245.488 16.3028 246.621 16.5051C248.199 16.8288 249.817 16.9907 251.112 18.3664V20.5918C248.927 23.2219 245.973 23.1814 243.95 20.5109C243.546 19.9849 243.141 19.5398 242.736 19.0138C242.615 19.0542 242.534 19.0947 242.413 19.1756V22.4936C243.626 22.6959 244.598 22.8577 245.569 23.0196C246.499 23.141 247.43 23.3837 248.361 23.3433C250.91 23.2219 252.892 21.3201 253.216 18.771C253.499 16.7074 251.921 14.6438 249.494 13.9155Z" fill="#757B82"/>
<path d="M91.7314 20.5915C90.7603 21.9673 88.7776 22.7765 87.1187 22.4123C85.6216 22.1291 84.8932 21.0366 84.7314 19.7418C84.4077 16.9499 84.2054 14.1175 84.9337 11.3256C85.4192 9.46436 87.0782 8.53372 88.9799 8.97881C90.1533 9.26205 91.0435 9.94991 91.6505 10.9615C91.9742 11.5279 92.3383 12.054 92.7834 12.8632C93.714 11.2042 93.4713 9.86898 93.0666 8.33141C92.4597 8.57419 91.9742 8.73604 91.4886 8.89789C87.24 7.27939 84.4481 8.00771 82.0609 11.2852C80.1996 13.8343 80.1996 17.9615 82.1013 20.3488C84.61 23.5453 87.3614 24.1118 91.61 22.3314C92.0551 22.5337 92.5406 22.736 93.0666 22.9788C93.5927 21.4817 93.5117 20.1869 93.1476 18.2852C92.5811 19.3372 92.1765 19.9846 91.7314 20.5915Z" fill="#757B82"/>
<path d="M173.425 20.6726C172.575 22.0078 170.835 22.7766 169.419 22.4529C168.084 22.1292 167.396 21.1176 167.194 19.8633C166.748 17.1119 166.627 14.4009 167.194 11.6494C167.558 9.95002 168.327 9.14077 169.783 8.93846C171.159 8.73615 172.777 9.62632 173.425 10.9616C173.708 11.5281 173.951 12.0945 174.194 12.661C175.003 11.2044 174.962 9.90956 174.558 8.45291C174.032 8.65522 173.587 8.81707 173.222 8.93846C169.621 7.07719 167.315 8.37198 165.777 9.90956C162.945 12.7015 162.662 17.476 165.049 20.6726C167.072 23.3431 169.621 24.0309 172.696 22.6957C172.939 22.5743 173.182 22.4529 173.344 22.372C173.87 22.5338 174.275 22.6552 174.962 22.8575C175.043 21.32 175.124 20.0252 175.205 18.7708C175.003 18.7304 174.76 18.6494 174.558 18.609C174.194 19.3373 173.829 20.0252 173.425 20.6726Z" fill="#757B82"/>
<path d="M206.038 9.18157C203.933 8.57463 199.766 8.6151 197.864 9.22203C198.916 9.50527 199.644 9.66712 200.454 9.86943V22.2105C199.604 22.4532 198.916 22.6556 197.783 22.9793C200.656 23.6671 204.702 23.5053 205.795 22.7365C205.066 22.5746 204.419 22.4532 203.691 22.2914V9.95036C204.46 9.66712 205.066 9.50527 206.038 9.18157Z" fill="#757B82"/>
<path d="M162.459 9.14109C159.707 8.49369 155.985 8.61507 154.65 9.3434C155.418 9.54571 156.025 9.70756 156.794 9.90987V22.2914C156.025 22.5342 155.378 22.7365 154.447 23.0197C156.632 23.6671 160.638 23.5862 162.135 22.8983C161.326 22.6555 160.638 22.4937 160.031 22.3318C159.626 19.4185 159.788 11.407 160.193 9.9908C160.881 9.70756 161.488 9.46479 162.459 9.14109Z" fill="#757B82"/>
</svg>
