<svg width="333" height="256" viewBox="0 0 333 256" fill="none" xmlns="http://www.w3.org/2000/svg">
<path d="M280.772 265.977C285.61 275.471 275.472 285.609 265.977 280.772L212.957 253.757C208.711 251.593 203.554 252.41 200.185 255.779L158.108 297.857C150.573 305.392 137.798 298.882 139.465 288.358L148.774 229.584C149.519 224.877 147.149 220.226 142.903 218.062L89.8825 191.047C80.3879 186.209 82.6308 172.048 93.1556 170.381L151.929 161.073C156.636 160.327 160.327 156.636 161.073 151.929L170.382 93.1552C172.049 82.6304 186.21 80.3876 191.047 89.8821L218.063 142.902C220.226 147.149 224.878 149.519 229.585 148.773L288.358 139.464C298.883 137.797 305.392 150.572 297.857 158.107L255.78 200.184C252.41 203.554 251.593 208.71 253.757 212.956L280.772 265.977Z" fill="url(#paint0_linear_201_1220)"/>
<path d="M250.038 141.198C253.331 131.063 267.669 131.063 270.962 141.198L289.35 197.791C290.823 202.324 295.046 205.392 299.812 205.392H359.318C369.974 205.392 374.404 219.028 365.783 225.291L317.642 260.268C313.787 263.069 312.173 268.034 313.646 272.567L332.034 329.16C335.327 339.295 323.728 347.722 315.107 341.459L266.966 306.482C263.11 303.681 257.89 303.681 254.034 306.482L205.893 341.459C197.272 347.722 185.673 339.295 188.966 329.16L207.354 272.567C208.827 268.034 207.213 263.069 203.358 260.268L155.216 225.291C146.596 219.028 151.026 205.392 161.682 205.392H221.188C225.954 205.392 230.177 202.324 231.65 197.791L250.038 141.198Z" fill="url(#paint1_linear_201_1220)"/>
<path d="M275.038 43.1975C278.331 33.0631 292.669 33.0631 295.962 43.1976L314.35 99.7913C315.823 104.324 320.046 107.392 324.812 107.392H384.318C394.974 107.392 399.404 121.028 390.783 127.291L342.642 162.268C338.787 165.069 337.173 170.034 338.646 174.567L357.034 231.16C360.327 241.295 348.728 249.722 340.107 243.459L291.966 208.482C288.11 205.681 282.89 205.681 279.034 208.482L230.893 243.459C222.272 249.722 210.673 241.295 213.966 231.16L232.354 174.567C233.827 170.034 232.213 165.069 228.358 162.268L180.216 127.291C171.596 121.028 176.026 107.392 186.682 107.392H246.188C250.954 107.392 255.177 104.324 256.65 99.7913L275.038 43.1975Z" fill="url(#paint2_linear_201_1220)"/>
<defs>
<linearGradient id="paint0_linear_201_1220" x1="376.528" y1="217.073" x2="54.7806" y2="149.432" gradientUnits="userSpaceOnUse">
<stop stop-color="#5F36FF"/>
<stop offset="1" stop-color="#08FF42"/>
</linearGradient>
<linearGradient id="paint1_linear_201_1220" x1="147.748" y1="108.068" x2="327.429" y2="383.407" gradientUnits="userSpaceOnUse">
<stop stop-color="#5F36FF"/>
<stop offset="1" stop-color="#08FF42"/>
</linearGradient>
<linearGradient id="paint2_linear_201_1220" x1="172.748" y1="10.0679" x2="352.429" y2="285.407" gradientUnits="userSpaceOnUse">
<stop stop-color="#5F36FF"/>
<stop offset="1" stop-color="#08FF42"/>
</linearGradient>
</defs>
</svg>
