<svg width="40" height="40" viewBox="0 0 40 40" fill="none" xmlns="http://www.w3.org/2000/svg">
<path fill-rule="evenodd" clip-rule="evenodd" d="M3.3335 30C3.3335 29.0795 4.07969 28.3333 5.00016 28.3333H35.0002C35.9206 28.3333 36.6668 29.0795 36.6668 30C36.6668 30.9205 35.9206 31.6667 35.0002 31.6667H5.00016C4.07969 31.6667 3.3335 30.9205 3.3335 30Z" fill="white"/>
<path fill-rule="evenodd" clip-rule="evenodd" d="M3.3335 20C3.3335 19.0795 4.07969 18.3333 5.00016 18.3333H35.0002C35.9206 18.3333 36.6668 19.0795 36.6668 20C36.6668 20.9205 35.9206 21.6667 35.0002 21.6667H5.00016C4.07969 21.6667 3.3335 20.9205 3.3335 20Z" fill="white"/>
<path fill-rule="evenodd" clip-rule="evenodd" d="M3.3335 10C3.3335 9.07954 4.07969 8.33334 5.00016 8.33334H35.0002C35.9206 8.33334 36.6668 9.07954 36.6668 10C36.6668 10.9205 35.9206 11.6667 35.0002 11.6667H5.00016C4.07969 11.6667 3.3335 10.9205 3.3335 10Z" fill="white"/>
</svg>
