<svg width="108" height="29" viewBox="0 0 108 29" fill="none" xmlns="http://www.w3.org/2000/svg">
<path d="M73.209 17.7586C73.1787 16.3367 73.0274 14.9451 72.4829 13.6442C71.7568 11.829 70.6072 10.3466 68.8525 9.439C66.8861 8.41039 64.8288 8.56165 62.7716 9.16671C62.3481 9.28772 61.9245 9.49951 61.4707 9.71128C61.4707 9.56002 61.4707 9.43899 61.4707 9.31798C61.4707 6.68595 61.501 4.08418 61.501 1.45215C61.501 1.30088 61.501 1.11937 61.501 0.968107C61.501 0.847094 61.4405 0.756342 61.2892 0.786595C60.9867 0.847101 60.7144 0.877355 60.4119 0.937861C58.1731 1.36141 55.9647 1.78493 53.7259 2.20848C53.1814 2.29924 53.1814 2.29922 53.2116 2.87403C53.2116 3.08581 53.3024 3.20684 53.5141 3.23709C53.7562 3.2976 53.9982 3.3581 54.2402 3.41861C54.7243 3.53962 55.1478 3.75138 55.3293 4.23543C55.5109 4.68922 55.6924 5.17331 55.7529 5.6271C55.8436 6.80698 55.9042 7.98683 55.9042 9.19696C55.9042 13.8559 55.9042 18.515 55.8739 23.1739C55.8739 24.6564 55.8436 26.1387 55.8134 27.6211C55.8134 27.8027 55.8739 27.8632 56.0554 27.8934C56.3882 27.9539 56.6907 28.0447 56.9933 28.0749C58.5967 28.3472 60.1698 28.68 61.8035 28.68C63.0742 28.68 64.3448 28.7405 65.5852 28.438C68.7012 27.7119 71.0005 25.9875 72.3014 22.9924C72.9669 21.389 73.2392 19.6041 73.209 17.7586ZM67.2491 19.12C67.2188 21.0562 66.8255 22.9319 65.9785 24.6866C65.6154 25.4732 65.1314 26.1388 64.4053 26.6531C63.6187 27.1976 62.7414 27.2279 61.864 27.1069C61.6522 27.0766 61.622 26.9253 61.622 26.7438C61.5917 25.6244 61.5312 24.5051 61.5312 23.3857C61.501 21.9638 61.5312 20.5117 61.5312 19.0898H61.501C61.501 16.609 61.501 14.1282 61.501 11.6172C61.501 11.2542 61.501 11.2542 61.864 11.1332C62.4691 10.9214 63.1044 10.8911 63.7397 10.9819C64.375 11.0727 64.9196 11.4357 65.3734 11.8895C66.0692 12.5853 66.4625 13.4627 66.765 14.4005C67.2491 15.9434 67.2793 17.5468 67.2491 19.12Z" fill="#3C3B42"/>
<path d="M22.6553 8.83326C22.6553 8.95427 22.6251 9.01476 22.5041 9.04501C22.2318 9.10552 21.9898 9.1963 21.7477 9.25681C21.415 9.34757 21.2939 9.28706 21.1729 8.95428C20.9309 8.37947 20.7191 7.80463 20.4771 7.26007C20.0233 6.26171 19.4788 5.35413 18.6317 4.62806C17.7846 3.90198 16.8165 3.44818 15.6971 3.44818C14.1239 3.41792 12.5508 3.44818 10.9474 3.44818C10.7658 6.92729 10.7053 10.4367 10.7356 13.9763C11.2499 13.9763 11.7642 13.9763 12.2785 13.9763C12.7626 13.9763 13.2769 13.9158 13.7609 13.8855C14.6988 13.7948 15.3643 13.2805 15.8181 12.4939C16.1812 11.8888 16.3324 11.193 16.5139 10.4972C16.5442 10.3157 16.635 10.2551 16.8165 10.2551C17.1493 10.2551 17.4518 10.2551 17.8148 10.2551V19.4219C17.4215 19.4219 17.0585 19.4219 16.6652 19.4219C16.635 19.4219 16.5745 19.3009 16.5442 19.2404C16.3929 18.6958 16.2417 18.1512 16.0601 17.6369C15.9089 17.3041 15.6971 16.9714 15.4853 16.6688C15.1526 16.215 14.6988 15.9125 14.1239 15.852C13.0348 15.7612 11.9155 15.7007 10.7658 15.61C10.7658 16.3966 10.7356 17.1226 10.7658 17.8487C10.8263 19.6336 10.9171 21.4488 11.0079 23.2338C11.0684 24.0203 11.2196 24.8069 11.5524 25.533C11.855 26.1986 12.3693 26.6221 13.1256 26.7431C13.6096 26.8339 14.1239 26.9247 14.608 27.0154C14.7895 27.0457 14.9105 27.1364 14.9105 27.3482C14.9105 27.56 14.9105 27.7717 14.9105 27.9835C14.9105 28.1953 14.7895 28.2558 14.608 28.2558C11.2499 28.2558 7.89179 28.2558 4.56394 28.2558C3.47482 28.2558 2.35546 28.2255 1.26634 28.2558C0.994065 28.2558 0.933555 28.165 0.903302 27.923C0.842796 27.1364 0.903302 27.0457 1.65963 26.8944C1.90166 26.8339 2.14368 26.8036 2.38571 26.7431C3.35381 26.5919 3.89837 25.9868 4.2009 25.0792C4.50343 24.1414 4.56394 23.1733 4.62445 22.2051C4.83622 18.3025 4.77571 14.4301 4.74546 10.5274C4.71521 9.16603 4.6547 7.7744 4.56394 6.413C4.53369 5.77769 4.38242 5.17263 4.23115 4.56757C3.92862 3.4482 3.14204 2.8431 1.99242 2.72209C1.65963 2.69184 1.2966 2.63133 0.933557 2.57083C0.903304 2.14728 0.9033 1.754 0.873047 1.30021C1.05457 1.26995 1.20583 1.23972 1.3571 1.23972C5.65305 1.23972 9.91875 1.23972 14.2147 1.23972C16.877 1.23972 19.5695 1.23972 22.2318 1.23972C22.5948 1.23972 22.5948 1.2397 22.5948 1.60274C22.6251 3.53894 22.6856 5.44489 22.7158 7.38109C22.6553 7.89539 22.6553 8.34921 22.6553 8.83326Z" fill="#3C3B42"/>
<path d="M38.0842 14.4317C37.2674 12.0114 35.785 10.166 33.395 9.16762C31.5495 8.41129 29.6436 8.26003 27.6771 8.56256C24.5005 9.07686 22.2316 10.8013 20.8097 13.6754C20.2046 14.9157 19.9323 16.2469 19.8415 17.6083C19.7205 19.3932 19.8718 21.1781 20.4466 22.9026C21.2029 25.1716 22.6248 26.896 24.8333 27.9548C26.1645 28.5902 27.5864 28.8322 29.0385 28.7717C29.3108 28.7717 29.5831 28.7717 29.8554 28.7717C30.1276 28.7717 30.3999 28.7717 30.6722 28.7112C33.274 28.3179 35.3917 27.138 36.9043 24.9598C37.9632 23.4169 38.538 21.6924 38.659 19.8167C38.7498 17.9713 38.659 16.1864 38.0842 14.4317ZM32.7294 18.9091C32.7294 20.3915 32.6992 21.8437 32.4269 23.2958C32.2454 24.2942 32.0033 25.2623 31.3983 26.1094C31.005 26.654 30.5209 27.0775 29.8554 27.2288C28.8873 27.4103 28.1612 27.0472 27.5864 26.3212C26.951 25.5346 26.6183 24.5968 26.346 23.6287C25.9829 22.2673 25.8317 20.8756 25.8317 19.4537C25.8014 17.6385 25.7712 15.7931 26.104 13.9779C26.2855 12.9795 26.5275 11.9812 27.1023 11.0736C27.7074 10.1055 28.6452 9.68191 29.7041 9.98444C30.0066 10.0752 30.3091 10.2567 30.5814 10.4988C31.4285 11.2248 31.8823 12.2232 32.1848 13.282C32.6386 14.825 32.7597 16.4284 32.7899 18.0621C32.7294 18.3646 32.7294 18.6369 32.7294 18.9091Z" fill="#3C3B42"/>
<path d="M90.9369 12.7962C90.0898 10.8297 88.6982 9.43808 86.641 8.80277C85.2796 8.37922 83.8879 8.34895 82.5265 8.59097C79.592 9.07502 77.3835 10.5877 75.9918 13.2197C75.0843 14.9139 74.6607 16.7291 74.691 18.635C74.7212 19.9057 74.7817 21.146 75.2053 22.3864C76.5062 26.3496 79.7735 28.4976 83.1619 28.7093C84.5232 28.8001 85.8846 28.7396 87.2158 28.3161C88.8495 27.7715 90.2411 26.8639 91.3605 25.563C91.663 25.2 91.663 25.0487 91.3605 24.6857C91.1487 24.4134 91.0882 24.4134 90.7857 24.5647C90.3319 24.8067 89.9083 25.079 89.4545 25.2907C88.4562 25.7445 87.3973 25.7748 86.3384 25.7445C84.3115 25.6538 82.7988 24.6554 81.74 23.0218C80.7416 21.4788 80.4996 19.7241 80.4996 17.8484C80.6508 17.8484 80.7416 17.8484 80.8626 17.8484C84.4325 17.8484 88.0326 17.8182 91.6025 17.8182C91.8143 17.8182 91.8748 17.7577 91.8748 17.5762C91.8445 15.9123 91.6025 14.3088 90.9369 12.7962ZM80.4693 16.2148C80.5298 15.7307 80.5601 15.2769 80.6206 14.8231C80.8021 13.5827 81.1046 12.4029 81.74 11.3138C81.982 10.8902 82.3148 10.4969 82.7383 10.2247C83.4947 9.7406 84.3417 9.89188 84.8863 10.618C85.3098 11.1928 85.5216 11.8886 85.6729 12.5844C85.9451 13.734 85.9754 14.8836 86.0359 16.0938C84.1905 16.124 82.345 16.1543 80.4693 16.2148Z" fill="#3C3B42"/>
<path d="M106.669 25.4714C105.822 26.8631 104.582 27.7101 103.069 28.2547C102.222 28.5572 101.345 28.7085 100.468 28.7085C99.6508 28.7085 98.8037 28.769 97.9868 28.7085C96.3834 28.6177 94.8102 28.285 93.2976 27.7404C93.1161 27.6799 93.0253 27.5891 93.0253 27.3773C93.0253 26.5 93.0253 25.6227 93.0253 24.7453H92.9043C92.9043 23.868 92.9043 22.9907 92.9043 22.1133C92.9043 21.9318 92.9648 21.841 93.1161 21.8108C93.1766 21.7805 93.2371 21.7503 93.2976 21.7503C93.8724 21.599 93.9329 21.6293 94.1447 22.1738C94.538 23.1722 94.9918 24.11 95.6271 24.9571C96.2927 25.8344 97.1095 26.5 98.2288 26.7118C99.1062 26.8631 99.9835 26.8933 100.831 26.4093C102.464 25.5017 102.495 23.2327 101.587 22.3553C101.133 21.9015 100.619 21.5687 100.044 21.3267C99.0759 20.9032 98.0776 20.4796 97.1095 20.0863C96.3532 19.7535 95.6573 19.3905 95.022 18.8762C93.8421 17.8476 93.3278 16.5467 93.2371 15.0038C93.1463 12.6441 94.4775 10.4356 96.6859 9.3767C97.8658 8.80189 99.1365 8.55989 100.437 8.52963C102.222 8.49938 103.977 8.71115 105.701 9.28596C106.397 9.52799 106.397 9.52797 106.427 10.254C106.458 11.6457 106.488 13.0374 106.518 14.429C106.518 14.6105 106.488 14.7013 106.276 14.792C105.55 15.0341 105.52 15.0341 105.248 14.3382C104.915 13.4609 104.552 12.5836 103.977 11.8272C103.16 10.7381 102.071 10.1331 100.679 10.1936C99.4995 10.2238 98.5919 11.1919 98.4104 12.3415C98.2289 13.4911 98.6524 14.3685 99.5902 15.0038C100.468 15.6391 101.466 16.0627 102.464 16.5165C103.493 16.9703 104.522 17.3938 105.429 18.0594C106.791 19.0275 107.486 20.3586 107.517 22.0225C107.517 23.1419 107.335 24.352 106.669 25.4714Z" fill="#3C3B42"/>
<path d="M54.4225 9.55984C53.878 11.0422 53.3032 12.5549 52.7284 14.0373C52.6073 14.3398 52.6073 14.3398 52.3048 14.2188C51.6695 13.9768 51.0342 13.6743 50.3686 13.523C49.4005 13.281 48.4324 13.4322 47.5248 13.886C47.1315 14.0978 46.9197 14.3701 46.9197 14.8541C46.829 17.8492 46.829 20.8443 47.0105 23.8393C47.0408 24.4746 47.1315 25.1099 47.2828 25.715C47.4341 26.4108 47.9181 26.8344 48.6442 26.8949C49.098 26.9554 49.5518 27.0159 50.0056 27.0462C50.1568 27.0462 50.2173 27.1067 50.2173 27.2579C50.2173 27.5907 50.2173 27.8932 50.2173 28.226C50.1266 28.226 50.0661 28.2563 50.0056 28.2563C46.4054 28.2563 42.8053 28.2563 39.2052 28.2563C38.6304 28.2563 38.6304 28.2563 38.6606 27.6815C38.6909 27.1066 38.6909 27.1067 39.2354 27.0159C39.3564 26.9857 39.4775 26.9554 39.6287 26.9251C40.5363 26.7436 41.0506 26.2293 41.1414 25.2915C41.2624 24.0511 41.3229 22.8107 41.3532 21.6006C41.3834 19.3013 41.3532 17.0021 41.3229 14.7029C41.3229 14.0071 41.2321 13.281 41.0809 12.5852C40.9599 11.8591 40.5061 11.375 39.7195 11.254C39.4472 11.2238 39.1447 11.133 38.8724 11.0725C38.7211 11.0422 38.6606 10.9817 38.6606 10.8305C38.6606 10.8002 38.6606 10.8002 38.6606 10.77C38.6304 10.1346 38.6304 10.1346 39.2354 10.0136C41.6859 9.52958 44.1062 9.04552 46.5567 8.56147C46.708 8.53121 46.8895 8.53123 47.1013 8.50098C47.0408 9.83212 47.0105 11.133 46.95 12.4339C46.95 12.4339 46.9803 12.4339 46.9803 12.4641C47.0408 12.3734 47.071 12.3129 47.1315 12.2221C47.6156 11.3145 48.2206 10.4674 49.0072 9.77159C50.4291 8.56147 52.0628 8.16819 53.878 8.65224C53.9082 8.65224 53.9687 8.68249 53.999 8.68249C54.5738 8.86401 54.6343 8.95477 54.4225 9.55984Z" fill="#3C3B42"/>
</svg>
