<svg width="217" height="255" viewBox="0 0 217 255" fill="none" xmlns="http://www.w3.org/2000/svg">
<path d="M107.508 36.0546C107.508 36.0546 -1.18683 184.677 0.00980847 184.677C1.20645 184.677 136.067 254.88 136.067 254.88L107.508 36.0546Z" fill="#75D665"/>
<path d="M107.508 36.0546L217 156.995L136.028 254.88L107.508 36.0546Z" fill="#69B758"/>
<path d="M57.8067 183.241C52.9403 169.28 47.9942 155.2 40.5751 142.396C39.0593 139.763 37.4239 137.131 35.8284 134.418C33.5548 137.529 31.3211 140.601 29.207 143.592C35.7486 149.616 40.2959 157.793 43.8858 166.009C50.0684 180.13 54.1769 195.207 56.0516 210.524C56.1713 211.482 56.2909 212.439 56.3707 213.436C59.5617 215.072 62.7528 216.747 65.9837 218.422C65.8241 206.496 61.7955 194.649 57.8067 183.241Z" fill="#A96CFF"/>
<path d="M17.1612 160.266C15.1269 163.098 13.2521 165.73 11.4971 168.163C14.5286 171.315 16.9617 175.144 18.637 179.173C20.9106 184.597 22.1073 190.381 22.9848 196.205C25.7371 197.641 28.6888 199.156 31.7601 200.712C30.4438 186.273 25.3781 172.192 17.1612 160.266Z" fill="#A96CFF"/>
<path d="M101.604 235.534C98.1737 188.147 79.6258 143.632 61.1178 99.6758C57.6077 104.502 54.0178 109.408 50.4678 114.315C74.1213 143.433 85.4894 181.207 88.7602 218.661C89.1192 222.69 89.3984 226.719 89.7574 230.747C93.9057 232.901 97.8945 234.976 101.724 236.97C101.644 236.451 101.644 236.013 101.604 235.534Z" fill="#A96CFF"/>
<path d="M117.001 108.451C113.571 102.069 109.981 95.7668 106.231 89.5443C100.727 80.4498 94.6637 71.3155 87.6434 63.2582C84.1333 68.0447 80.3041 73.3099 76.2754 78.8145C78.8282 81.3673 81.1417 84.1993 83.2558 86.9915C97.9345 106.138 112.773 125.683 121.269 148.259C121.787 149.695 122.306 151.131 122.785 152.567L117.001 108.451Z" fill="#A96CFF"/>
<path d="M133.355 64.6543C128.129 96.804 124.938 129.273 123.861 161.821L128.648 198.558C129.765 198.478 130.921 197.8 131.6 196.843C132.597 195.407 132.756 193.612 132.916 191.857C134.432 171.993 133.714 152.009 134.99 132.105C136.147 113.996 139.099 95.6472 146.518 79.1735L133.355 64.6543Z" fill="#7657C1"/>
<path d="M153.018 170.477C152.42 145.467 154.135 120.059 162.153 96.405L152.739 86.0342C152.739 86.1538 152.739 86.3134 152.699 86.4331C150.944 113.836 149.229 141.279 145.998 168.562C142.967 194.529 138.699 221.494 142.528 246.982L156.489 230.109C155.372 210.245 153.497 190.381 153.018 170.477Z" fill="#7657C1"/>
<path d="M117.319 111.363L125.895 56.3575L125.377 55.7991C120.47 72.5121 117.559 89.8633 116.801 107.294L117.319 111.363Z" fill="#7657C1"/>
<path d="M216.68 156.636L205.352 144.111C203.916 153.644 203.118 163.217 204.075 172.631L216.52 157.593C216.56 157.274 216.6 156.955 216.68 156.636Z" fill="#7657C1"/>
<path d="M185.128 130.908C185.886 129.033 187.122 127.039 188.678 125.723L169.452 104.502C169.293 107.972 168.973 111.483 168.654 114.953C165.583 148.06 164.067 181.725 169.532 214.473L178.586 203.504C177.749 178.694 175.954 153.604 185.128 130.908Z" fill="#7657C1"/>
<path d="M202.679 141.159L192.508 129.951C189.596 146.185 186.963 162.539 187.203 179.013C187.243 183.121 187.562 187.389 188.599 191.378L197.613 180.489C198.69 167.086 198.93 153.524 202.679 141.159Z" fill="#7657C1"/>
<path d="M65.7053 2.42907C61.7165 0.793663 57.4086 -0.562527 53.1805 0.235232C48.9523 1.03299 45.3624 3.86501 42.6899 7.29537C38.382 12.8398 36.4674 21.296 40.9748 26.6809C43.3281 29.5129 46.9579 30.909 50.3883 32.1056C68.7766 38.5675 87.8431 43.1147 107.189 45.7075C107.229 43.3541 104.476 42.0776 102.203 41.4394C88.6408 37.69 75.039 33.9405 61.4772 30.2309C57.6878 29.1938 53.8586 28.1169 50.6276 25.8831C47.3967 23.6494 44.8838 20.0196 45.0433 16.1106C45.2428 10.8454 50.3484 6.77685 55.5737 6.01898C60.7991 5.26111 66.0244 7.09595 70.8508 9.21001C84.0537 14.9938 97.2167 24.2477 102.761 38.0489C103.838 40.6815 104.915 47.5024 108.784 43.2743C111.616 40.163 107.707 37.0119 105.833 34.6186C100.807 28.1169 95.7409 22.014 89.3987 16.7488C82.2588 10.8055 74.2812 5.9392 65.7053 2.42907Z" fill="#F4BE38"/>
<path d="M141.692 9.52916C148.433 7.65442 155.613 6.69714 162.434 8.21288C175.477 11.1247 185.648 23.8489 185.529 37.2114C185.529 39.3254 185.249 41.5193 184.133 43.2743C182.816 45.3884 180.463 46.6648 178.149 47.5025C166.183 51.8503 153.06 47.2232 140.495 45.0693C129.207 43.1148 117.52 43.2345 106.271 45.3884C105.154 45.5878 103.838 45.7474 103.12 44.8698C102.003 43.4339 103.958 41.6389 105.673 41.0406C111.497 39.0462 117.799 39.4052 123.942 39.8041C138.66 40.7215 153.339 41.6389 168.058 42.5962C169.573 42.676 171.089 42.7957 172.525 42.3171C175.397 41.3996 177.232 38.4878 177.87 35.5361C179.904 26.4417 172.565 17.1478 163.67 14.3955C154.735 11.6034 145.002 13.9567 136.466 17.7461C124.42 23.0511 116.881 31.9462 106.71 39.3653C97.0173 30.231 135.748 11.2044 141.692 9.52916Z" fill="#F4BE38"/>
<path d="M106.191 45.7872C108.106 49.0979 111.257 51.4912 114.168 54.0041C118.915 58.0727 123.303 62.8194 125.616 68.643C127.89 74.3869 128.01 80.7689 127.73 86.9116C127.451 93.0943 126.853 99.3168 127.89 105.42C128.887 111.522 131.759 117.625 136.984 120.976C139.777 122.771 143.087 123.688 145.879 125.403C151.424 128.794 154.695 135.535 153.937 141.997C156.131 140.322 158.324 138.646 160.478 136.971C160.797 136.732 161.156 136.452 161.316 136.054C161.476 135.575 161.316 135.056 161.156 134.578C158.683 127.637 153.857 121.574 147.634 117.585C143.327 114.833 138.141 112.839 135.628 108.371C134.272 105.978 133.913 103.146 133.674 100.354C133.155 94.5701 132.956 88.7864 133.075 83.0027C133.155 79.1734 133.434 75.2245 132.477 71.5149C129.366 59.4289 114.886 53.0468 111.496 41.0405C111.097 39.6445 110.858 38.1686 110.06 36.9321C108.265 34.1798 105.712 35.0175 104.875 37.8495C104.236 40.4821 104.875 43.4737 106.191 45.7872Z" fill="#F4BE38"/>
<path d="M95.2624 46.0265C88.1623 47.5422 80.5836 46.545 73.7628 49.0579C70.8908 50.1349 68.0987 51.9299 66.8622 54.7619C65.7852 57.1951 66.0245 60.067 66.902 62.58C67.7796 65.0929 69.2155 67.3665 70.5717 69.68C72.5262 73.0705 74.2414 76.5806 75.7572 80.1705C77.6718 84.8374 79.1875 90.1824 77.1133 94.7695C74.76 100.075 68.4178 102.588 65.5458 107.653C62.7936 112.48 63.7908 118.782 66.8622 123.409C67.1813 123.928 67.5801 124.406 68.0987 124.685C68.7369 124.965 69.4549 124.885 70.133 124.805C72.3667 124.486 74.6004 124.207 76.8341 123.888C74.8796 123.05 72.965 121.933 71.9279 120.098C71.2498 118.902 71.0105 117.506 71.0903 116.11C71.3296 111.363 74.9195 107.494 78.31 104.143C81.7005 100.793 85.2904 97.0032 85.6494 92.2566C86.0083 87.3902 82.8572 83.0824 80.2246 79.0138C78.4296 76.2217 76.7942 73.3497 75.3583 70.3581C73.7229 67.0075 72.2869 63.1783 73.4437 59.5884C74.9195 55.0411 80.0252 52.7277 84.7718 52.2889C89.5185 51.8501 94.305 52.7675 99.0517 52.1293C103.758 51.4911 108.744 48.699 109.662 43.9922C109.981 42.2371 109.622 39.6045 107.667 38.8068C105.793 38.0489 105.155 39.4051 104.078 40.7214C101.804 43.713 98.932 45.2287 95.2624 46.0265Z" fill="#F4BE38"/>
</svg>
