<svg width="242" height="341" viewBox="0 0 242 341" fill="none" xmlns="http://www.w3.org/2000/svg">
<path d="M495.674 68.1999C419.222 24.028 336.329 18.0926 298.881 33.6548C212.177 69.6854 208.641 130.8 158.915 197.394C119.134 250.669 54.9943 246.065 26.9224 242.434" stroke="#302E36" stroke-width="2"/>
<path d="M498.152 78.1994C421.7 34.0274 347.303 45.0817 309.854 60.6439C223.15 96.6745 219.614 157.789 169.888 224.383C130.107 277.659 78.0592 247.387 49.9874 243.756" stroke="#302E36" stroke-width="2"/>
<path d="M501.619 87.4545C425.167 43.2825 356.364 69.4331 318.915 84.9952C232.211 121.026 228.675 182.14 178.949 248.735C139.168 302.01 80.0413 246.538 51.9694 242.906" stroke="#302E36" stroke-width="2"/>
<path d="M499.637 96.5154C423.185 52.3434 332.859 100.876 330.311 102.178C277.927 129.645 240.002 209.323 190.276 275.917C150.495 329.193 84.5721 249.652 56.5002 246.021" stroke="#302E36" stroke-width="2"/>
<path d="M505.017 121.433C428.565 77.2611 347.368 124.742 338.238 130.777C259.913 182.555 249.629 236.506 199.903 303.1C160.122 356.376 91.0845 250.502 63.0127 246.871" stroke="#302E36" stroke-width="2"/>
<circle cx="54" cy="248.428" r="40" fill="url(#paint0_linear_245_1217)"/>
<path fill-rule="evenodd" clip-rule="evenodd" d="M65.3773 246.642L63.5705 248.474L66.172 251.043C67.6967 252.549 68.5608 254.6 68.5742 256.743C68.5875 258.886 67.7491 260.947 66.2432 262.472L60.0924 268.69L50.2391 258.956L50.2324 258.963L41.4722 250.306L41.5054 250.272C41.3009 250.115 41.1066 249.945 40.9235 249.764C40.3212 249.172 39.8418 248.466 39.5128 247.688C39.1838 246.91 39.0118 246.075 39.0065 245.23C39.0012 244.386 39.1628 243.548 39.482 242.766C39.8011 241.984 40.2717 241.273 40.8665 240.673L49.993 231.44C50.985 230.403 52.1735 229.573 53.4892 229C54.8049 228.427 56.2215 228.122 57.6564 228.102C59.0913 228.082 60.5159 228.347 61.8472 228.883C63.1784 229.419 64.3897 230.214 65.4105 231.223C66.4312 232.232 67.241 233.434 67.7927 234.758C68.3444 236.083 68.6269 237.504 68.6239 238.94C68.6208 240.375 68.3321 241.795 67.7747 243.117C67.2173 244.44 66.4024 245.638 65.3773 246.642ZM48.191 250.993C48.8588 250.676 49.4721 250.242 50.0001 249.707L54.8823 244.764C55.291 244.354 55.8449 244.123 56.4235 244.12C57.0021 244.116 57.5586 244.341 57.972 244.746L58.1074 244.885C58.5187 245.291 58.752 245.844 58.756 246.422C58.76 247 58.5344 247.556 58.1288 247.968L53.1397 253.032L56.1439 255.993L60.5984 251.482L63.1999 254.054C63.5596 254.409 63.8458 254.832 64.0422 255.298C64.2385 255.763 64.3411 256.263 64.3441 256.769C64.347 257.274 64.2504 257.775 64.0595 258.243C63.8687 258.711 63.5875 259.137 63.232 259.496L60.0603 262.703L51.8639 254.585L51.8451 254.604L48.191 250.993ZM61.0831 241.86C61.6132 242.382 62.0485 242.992 62.3696 243.663C62.9768 243.048 63.457 242.32 63.7827 241.52C64.1085 240.719 64.2734 239.863 64.2681 238.999C64.2628 238.135 64.0874 237.28 63.7519 236.484C63.4163 235.688 62.9272 234.965 62.3125 234.358C61.6978 233.751 60.9696 233.271 60.1693 232.945C59.369 232.619 58.5124 232.454 57.6484 232.46C56.7844 232.465 55.9298 232.64 55.1336 232.976C54.3374 233.311 53.615 233.8 53.0078 234.415L43.8778 243.634C43.4719 244.046 43.2463 244.603 43.2506 245.181C43.2498 245.468 43.3069 245.752 43.4183 246.017C43.5297 246.281 43.6932 246.521 43.8991 246.72C44.3093 247.129 44.8648 247.359 45.444 247.359C46.0231 247.359 46.5787 247.129 46.9888 246.72L51.871 241.778C52.4633 241.178 53.1679 240.7 53.9447 240.373C54.7216 240.046 55.5553 239.875 56.3983 239.87C57.2412 239.865 58.0769 240.026 58.8576 240.344C59.6382 240.662 60.3484 241.131 60.9477 241.724L61.0831 241.86Z" fill="white"/>
<defs>
<linearGradient id="paint0_linear_245_1217" x1="21.6697" y1="208.161" x2="73.1911" y2="287.112" gradientUnits="userSpaceOnUse">
<stop stop-color="#5F36FF"/>
<stop offset="1" stop-color="#08FF42"/>
</linearGradient>
</defs>
</svg>
