<svg width="840" height="602" viewBox="0 0 840 602" fill="none" xmlns="http://www.w3.org/2000/svg">
<path d="M875.502 121C740.502 43.0004 594.129 32.5198 528.001 59.9997C374.898 123.623 368.655 231.54 280.847 349.133C210.601 443.208 97.3425 435.077 47.7727 428.665" stroke="#302E36" stroke-width="2"/>
<path d="M879.877 138.657C744.877 60.6578 613.505 80.1776 547.378 107.658C394.275 171.281 388.031 279.198 300.224 396.791C229.978 490.866 138.071 437.412 88.501 431" stroke="#302E36" stroke-width="2"/>
<path d="M886 155C751 77.0004 629.505 123.178 563.378 150.658C410.275 214.281 404.031 322.198 316.224 439.791C245.978 533.866 141.571 435.912 92.001 429.5" stroke="#302E36" stroke-width="2"/>
<path d="M882.5 171C747.5 93.0004 588.001 178.7 583.501 181C491.001 229.5 424.032 370.198 336.224 487.791C265.978 581.866 149.571 441.412 100.002 435" stroke="#302E36" stroke-width="2"/>
<path d="M891.999 215C756.999 137 613.621 220.843 597.499 231.5C459.191 322.93 441.031 418.198 353.224 535.791C282.978 629.865 161.071 442.912 111.501 436.5" stroke="#302E36" stroke-width="2"/>
<circle cx="84" cy="427" r="61" fill="url(#paint0_linear_233_1217)"/>
<path fill-rule="evenodd" clip-rule="evenodd" d="M101.35 424.276L98.5951 427.069L102.562 430.987C104.888 433.284 106.205 436.411 106.226 439.679C106.246 442.948 104.967 446.09 102.671 448.416L93.291 457.899L78.2647 443.055L78.2545 443.065L64.8951 429.863L64.9458 429.812C64.634 429.572 64.3376 429.313 64.0584 429.036C63.1399 428.133 62.4088 427.058 61.9071 425.871C61.4055 424.685 61.143 423.411 61.135 422.123C61.1269 420.835 61.3733 419.558 61.8601 418.365C62.3468 417.172 63.0644 416.087 63.9715 415.173L77.8894 401.092C79.4023 399.511 81.2147 398.246 83.2211 397.372C85.2275 396.498 87.3878 396.032 89.5761 396.002C91.7643 395.971 93.9368 396.376 95.967 397.193C97.9972 398.01 99.8444 399.224 101.401 400.762C102.958 402.3 104.193 404.133 105.034 406.153C105.875 408.173 106.306 410.341 106.301 412.529C106.297 414.718 105.857 416.884 105.007 418.9C104.157 420.917 102.914 422.744 101.35 424.276ZM75.1413 430.912C76.1598 430.427 77.095 429.766 77.9003 428.95L85.3456 421.412C85.9689 420.787 86.8136 420.434 87.6959 420.429C88.5783 420.424 89.4269 420.767 90.0574 421.385L90.2639 421.597C90.8912 422.216 91.2469 423.059 91.253 423.94C91.2592 424.822 90.9151 425.669 90.2965 426.297L82.6881 434.02L87.2695 438.536L94.0627 431.656L98.0299 435.58C98.5785 436.121 99.015 436.765 99.3144 437.476C99.6138 438.186 99.7702 438.948 99.7748 439.719C99.7793 440.49 99.6319 441.254 99.3409 441.967C99.0499 442.681 98.621 443.33 98.0788 443.878L93.2421 448.769L80.7425 436.389L80.7138 436.418L75.1413 430.912ZM94.8018 416.983C95.6102 417.779 96.2741 418.709 96.7636 419.732C97.6896 418.795 98.4219 417.684 98.9187 416.464C99.4155 415.244 99.667 413.937 99.659 412.62C99.6509 411.302 99.3834 409.999 98.8717 408.785C98.36 407.57 97.6141 406.469 96.6767 405.543C95.7393 404.617 94.6287 403.885 93.4082 403.388C92.1878 402.891 90.8815 402.639 89.5639 402.648C88.2462 402.656 86.9431 402.923 85.7288 403.435C84.5146 403.946 83.413 404.692 82.487 405.63L68.5637 419.689C67.9447 420.317 67.6007 421.166 67.6072 422.048C67.606 422.485 67.693 422.919 67.863 423.322C68.0329 423.725 68.2823 424.09 68.5963 424.395C69.2218 425.019 70.0689 425.369 70.9522 425.369C71.8354 425.369 72.6826 425.019 73.308 424.395L80.7534 416.858C81.6565 415.943 82.7312 415.215 83.9158 414.716C85.1005 414.216 86.3719 413.955 87.6574 413.948C88.943 413.94 90.2174 414.186 91.4079 414.671C92.5983 415.157 93.6814 415.872 94.5953 416.776L94.8018 416.983Z" fill="white"/>
<defs>
<linearGradient id="paint0_linear_233_1217" x1="34.6964" y1="365.592" x2="113.266" y2="485.992" gradientUnits="userSpaceOnUse">
<stop stop-color="#5F36FF"/>
<stop offset="1" stop-color="#08FF42"/>
</linearGradient>
</defs>
</svg>
