<svg width="76" height="38" viewBox="0 0 76 38" fill="none" xmlns="http://www.w3.org/2000/svg">
<path d="M19.1849 20.8308C19.6031 21.0399 20.0213 21.2908 20.4814 21.4999C22.7398 22.5036 24.8309 22.0436 26.5038 20.2034C28.0094 18.5305 28.5112 16.063 27.1311 14.2647C25.9601 12.7172 25.8346 11.1698 25.8764 9.4551C24.9982 9.4551 24.1199 9.49692 23.2416 9.41328C21.5269 9.24599 20.3559 9.91514 19.6867 11.5044C19.6449 13.721 20.0631 14.3483 22.0706 14.9756C22.6143 15.1429 23.1162 15.2684 23.5344 15.6866C23.9944 16.1467 24.0363 16.6903 23.869 17.234C23.7017 17.8196 23.158 18.3632 22.698 18.1541C21.276 17.5268 20.7323 18.5723 19.9795 19.3252C19.7286 19.5343 19.5195 19.8688 18.8921 19.7434V9.37145C17.6793 9.37145 16.4246 9.37145 15.2118 9.32963C15.1281 11.0862 15.0863 12.8427 15.0027 14.6829C14.1244 14.3483 13.4971 13.9301 13.0788 13.3027C12.9952 13.2609 12.8697 13.2191 12.7861 13.1773C12.6188 13.0936 12.4515 12.9682 12.3679 12.7591C12.326 12.7172 12.326 12.6754 12.326 12.6754C10.5695 11.3789 8.77114 10.1243 6.76367 8.61865C6.76367 12.8009 6.76367 16.6067 6.76367 20.4125C6.76367 21.249 7.05643 21.5417 7.85105 21.4581C8.26927 21.4163 8.6875 21.4163 9.10572 21.4581C10.1931 21.5836 10.5695 21.1235 10.5277 20.0361C10.4859 19.1997 10.4022 18.3632 10.4859 17.4013C10.5277 17.1086 10.5695 16.8158 10.6531 16.4812C10.7368 16.5649 10.8204 16.6067 10.9041 16.6903C12.326 17.8196 13.5389 18.8233 14.7935 19.7434C16.1737 20.7053 17.3029 22.0018 18.8503 22.7546C19.1849 22.0854 18.683 21.4163 19.1849 20.8308Z" fill="#757B82"/>
<path d="M56.4062 10.8353C56.4899 13.972 56.4481 17.1086 56.4481 20.2035C56.4481 20.6217 56.2808 21.1654 56.699 21.3327C57.6191 21.6673 58.6228 21.3745 59.5847 21.4582C60.5466 21.5418 59.8775 20.3289 60.5885 20.2035C61.2158 20.5799 61.7595 20.9981 62.3868 21.2909C65.1889 22.6292 65.7744 22.4619 67.28 19.7853C67.6146 19.1997 68.1583 18.6979 68.2001 17.8614C67.6983 17.6105 67.1546 18.3215 66.6527 17.9033C66.5272 17.3596 67.0291 17.0668 67.1964 16.6486C68.2419 14.1393 67.4891 11.6299 65.1889 10.1243C64.7707 9.87338 64.3525 9.62245 63.9761 9.37152C62.3032 9.37152 60.6303 9.49698 58.9992 8.99512C58.6647 9.03694 58.3301 9.16241 57.9955 9.12058C56.699 8.99512 56.4062 9.58063 56.4062 10.8353ZM64.5616 13.5119C65.3562 13.5119 66.0254 14.1393 66.0254 14.9339C66.0254 15.6867 65.3562 16.3558 64.5616 16.314C63.767 16.2722 63.3069 15.7285 63.1815 15.0175C63.056 14.3902 63.8924 13.5119 64.5616 13.5119Z" fill="#757B82"/>
<path d="M40.4716 8.53533C41.1826 8.53533 41.9772 8.78627 42.6882 8.32622C42.3954 7.07155 41.9772 5.85871 42.8137 4.72951C43.7338 3.47484 45.5739 2.93115 47.3305 3.72577C48.1669 4.10217 48.8361 4.06035 49.6725 3.80942C52.0146 3.05662 54.1893 4.85497 54.022 7.28066C53.9802 7.69889 53.6456 8.03346 53.8547 8.53533C54.7748 8.53533 55.7367 8.53533 56.6987 8.53533C57.0332 8.53533 57.4515 8.57715 57.5769 8.20075C57.786 7.78253 57.5351 7.40613 57.2842 7.07155C56.5314 6.06782 55.3185 5.6496 54.4821 4.77133C53.8547 3.97671 53.3947 2.93115 52.4746 2.42928C51.3872 1.84377 51.3454 1.17461 52.1819 0.379991C51.1781 -0.247343 50.258 0.296347 49.4634 0.421813C46.8286 0.881858 44.1102 1.30008 42.3954 3.76759C42.1863 4.06035 41.9772 4.31128 41.6008 4.35311C40.2207 4.52039 39.4679 5.52413 38.6314 6.44422C38.506 8.53533 38.506 8.57715 40.4716 8.53533Z" fill="#757B82"/>
<path d="M27.4232 27.5226C25.9595 24.8878 23.1574 23.5494 20.4389 24.2604C17.4277 25.0132 15.5039 27.5644 15.5039 30.6592C15.5039 33.0431 16.8422 34.6323 18.5151 36.0543C20.7735 37.8108 22.0282 37.8945 24.3284 36.5143C26.1268 35.427 27.5487 34.005 28.1342 31.9139C28.2179 30.7847 28.7197 29.6973 28.0506 28.5681C27.8415 28.2335 27.6324 27.899 27.4232 27.5226ZM25.4158 32.1648C24.5793 32.0812 24.0356 31.5793 23.952 30.701C23.8684 29.8646 24.7048 29.0282 25.4994 29.07C26.3777 29.1536 26.8377 29.6973 26.9632 30.4501C27.005 31.3702 26.2104 32.2485 25.4158 32.1648Z" fill="#757B82"/>
<path d="M45.2823 16.4812C45.2823 16.4394 45.2823 16.3976 45.2823 16.3558C45.2823 15.603 45.2405 14.8083 45.2405 14.0555C45.2405 14.0137 45.2405 13.9719 45.2405 13.9301C45.115 13.7628 45.0313 13.5955 44.9477 13.3864C43.8185 10.5843 41.7692 9.20416 38.7162 9.32963C37.2942 9.37145 35.8305 9.32963 34.4085 9.32963C34.0739 13.0518 34.3249 16.8158 34.2412 20.538C34.2412 21.3326 34.6176 21.4581 35.2868 21.4163C36.8342 21.3744 38.3398 21.3744 39.8454 21.4163C41.0164 21.4163 41.9783 20.9144 42.8566 20.2452C44.1113 19.2833 44.8222 17.945 45.2823 16.4812ZM42.4802 16.6485C41.7692 16.5231 41.1837 16.1048 41.1837 15.2684C41.1837 14.5156 41.5183 13.9301 42.522 13.8883C43.1912 13.8883 43.693 14.2228 43.7349 15.0593C43.8185 15.8539 43.1075 16.774 42.4802 16.6485Z" fill="#757B82"/>
<path d="M54.775 18.2381C54.6495 18.1126 54.5241 18.0289 54.3986 17.9453C53.9385 17.6944 53.353 17.8198 52.8093 17.778C51.722 17.6944 50.5928 17.9871 49.3799 17.5271C50.6346 17.0252 51.7638 17.318 52.8512 17.2761C53.353 17.2343 53.8967 17.3598 54.3149 17.1507C54.4822 17.067 54.6495 16.9834 54.775 16.7743C54.7332 16.1051 54.6495 15.436 54.8586 14.8086C55.1096 14.5159 55.1096 14.2649 54.8586 13.9722C54.7332 13.8467 54.6077 13.6794 54.4822 13.554H54.1477H49.7563C49.7563 13.3867 49.7563 13.2612 49.7563 13.0939H54.0222H54.4822C54.6077 12.2993 54.6913 11.4629 54.8168 10.6682C54.9005 9.8736 54.7332 9.37174 53.7294 9.41356C51.471 9.45538 49.1708 9.45538 46.9124 9.41356C45.9505 9.41356 45.7832 9.8736 45.825 10.6682C45.8669 11.7556 45.7832 12.8848 45.7832 13.9722C45.7832 14.014 45.7832 14.014 45.7832 14.0558C45.9505 14.8505 45.9087 15.6451 45.7832 16.4397C45.7832 16.4815 45.7832 16.4815 45.7832 16.4815C45.825 17.778 45.8669 19.1163 45.825 20.4128C45.825 21.2074 46.1178 21.5002 46.9124 21.5002C48.9617 21.4584 51.0528 21.3747 53.1021 21.542C54.4822 21.6257 54.9841 21.1238 54.9423 19.8273C55.3187 19.4091 55.2769 18.9909 54.9423 18.5726C54.7332 18.4472 54.7332 18.3635 54.775 18.2381Z" fill="#757B82"/>
<path d="M40.8072 24.6783C39.8872 24.3855 38.8416 24.3437 37.9633 24.6783C37.2524 24.9292 37.6706 25.8075 37.5869 26.393C37.4196 27.564 37.8797 28.8187 37.2105 30.157C34.4921 28.0659 31.9409 26.1002 29.348 24.0928C29.0134 27.8568 29.2643 31.6626 29.1807 35.4684C29.1807 36.3049 29.5571 36.5558 30.3099 36.514C31.0627 36.4722 31.8155 36.514 32.5683 36.514C32.6101 35.092 32.6101 33.6701 32.6937 32.2481C32.7356 31.6208 32.9447 31.2862 33.4884 31.9554C36.1232 33.6701 38.3397 35.8867 41.1418 37.8105C41.1418 36.7649 41.1418 36.0958 41.1418 35.3848C41.1418 32.2481 41.1418 29.1114 41.1418 25.9748C41.1837 25.5147 41.3928 24.8456 40.8072 24.6783Z" fill="#757B82"/>
<path d="M14.0407 25.1385C14.0407 24.7621 13.9153 24.4694 13.497 24.3857C13.4552 24.6367 13.3298 24.804 13.0788 24.8458C11.5314 27.1042 9.44028 28.9025 7.64193 31.2864C5.75993 28.9862 3.75246 27.146 2.20503 24.8876C1.82863 24.804 1.49405 24.093 0.992188 24.7203C0.992188 24.7621 1.03401 24.8458 1.03401 24.8876C1.45223 26.1841 1.15948 27.5224 1.2013 28.8189C1.32677 31.3701 1.03401 33.963 1.32677 36.5142C1.41041 36.5142 1.45223 36.5142 1.53588 36.5142C4.5889 36.4724 4.5889 36.4724 4.79801 33.3775C6.01086 34.1722 6.4709 35.5523 7.51646 36.4724C8.64566 35.7196 8.93842 34.2558 9.94215 33.6703C10.3186 33.7121 10.4022 33.7957 10.4022 33.963C10.4858 36.556 9.81668 36.4724 13.037 36.4724C13.3298 36.4724 13.5807 36.4724 13.8734 36.4724C14.1662 32.7502 13.9153 28.9444 14.0407 25.1385Z" fill="#757B82"/>
<path d="M51.2628 24.3438C49.8827 25.6402 48.5862 26.9367 46.8715 28.5678C46.8715 27.5222 46.8715 27.0204 46.8715 26.5603C46.8297 24.511 46.8297 24.511 44.864 24.5529C43.2748 24.5947 43.2748 24.5947 43.233 26.1839C43.233 28.9024 43.1911 31.6208 43.233 34.2974C43.233 36.514 42.7311 36.514 45.4914 36.514C45.575 36.514 45.6168 36.514 45.7005 36.514C46.5787 36.6395 46.9551 36.2631 46.9133 35.343C46.8715 34.4647 46.746 33.5446 47.1224 32.4573C48.2934 33.6283 49.3808 34.6738 50.3846 35.7612C51.0537 36.514 51.6392 36.514 52.2666 35.7612C52.4757 35.5103 52.7266 35.2594 53.0194 35.0503C53.8558 34.4229 53.6885 33.8792 52.9775 33.2101C52.0575 32.3736 51.0537 31.579 50.3009 30.408C51.4719 29.237 52.6011 28.0241 53.7722 26.8531C53.0194 25.8075 52.2666 25.0129 51.2628 24.3438Z" fill="#757B82"/>
<path d="M75.8949 24.5111C74.9748 24.5111 74.3057 24.5947 73.6365 24.5111C72.34 24.3438 71.5454 24.8875 71.0017 26.0585C70.7926 26.5604 70.6253 27.2714 69.8725 27.3968C69.3288 27.0623 69.1197 26.5186 68.9106 26.0167C68.4506 24.8039 67.5723 24.4275 66.3176 24.5111C64.812 24.6366 63.2646 24.5111 61.759 24.5529C59.9606 24.5529 58.1623 24.5529 56.3639 24.5529C55.5275 24.5529 54.942 24.6784 55.2347 25.724C55.1093 29.3625 55.1093 32.9592 55.2347 36.5977C58.0368 36.5977 60.7971 36.5977 63.5992 36.5977C64.0174 35.9704 63.8919 35.2594 63.8919 34.5903C63.8919 33.001 63.8501 32.9592 62.3027 32.9174C61.1317 32.8756 60.0025 33.0847 58.4969 32.6246C60.1279 32.2482 61.4662 32.3737 62.7209 32.4155C63.641 32.4573 64.0174 32.0809 63.8501 31.2027C63.7246 30.4917 64.1847 29.6971 63.5155 29.0697C62.8046 28.4006 61.9263 28.8606 61.1317 28.7352C60.4625 28.6515 59.7097 28.9024 58.9987 28.4842C59.5842 28.066 60.0861 28.2333 60.5462 28.2333C61.5081 28.1915 62.5954 28.4842 63.4319 28.1078C64.3938 27.6478 63.4737 26.3095 64.0592 25.473C64.812 25.7658 64.8538 26.5604 65.2721 27.1041C67.3632 29.9062 68.6178 33.001 68.1578 36.5977C69.287 36.5977 70.3744 36.6396 71.4618 36.6396C71.7963 36.1377 71.8382 35.594 71.7545 35.0503C71.3363 32.6246 72.3818 30.6172 73.6365 28.6515C74.5148 27.355 75.2676 26.1422 75.8949 24.5111Z" fill="#757B82"/>
<path d="M31.0619 21.458C31.1874 21.458 31.3547 21.458 31.4801 21.458C32.1493 21.4999 32.5257 21.2908 32.4839 20.538C32.3584 16.8158 32.693 13.0518 32.3166 9.32959C31.5638 9.32959 30.811 9.41324 30.0164 9.37141C28.929 9.28777 28.5944 9.66417 28.6362 10.7934C28.7199 13.5536 28.6362 16.3139 28.6362 19.116C28.6362 21.5835 28.6362 21.5835 31.0619 21.458Z" fill="#757B82"/>
<path d="M1.07583 9.45509C1.07583 9.49691 1.07583 9.49691 1.07583 9.45509C1.07583 12.7172 1.07583 15.9794 1.11765 19.1997C1.11765 21.6254 0.741255 21.4163 3.33423 21.4163C4.83984 21.4163 4.83984 21.4163 4.83984 19.7852C4.83984 17.485 4.83984 15.1847 4.83984 12.9263C4.79801 9.20416 4.79801 9.20416 1.07583 9.45509L0.992188 9.37145L1.03401 9.41327L1.07583 9.45509Z" fill="#757B82"/>
<path d="M51.5143 7.44763C51.4725 7.90768 51.7234 8.3259 52.0998 8.40954C52.3926 8.45137 52.6017 8.03314 52.6853 7.5731C52.6435 7.28034 52.518 6.94577 52.1416 6.86212C51.7652 6.77848 51.5561 7.11305 51.5143 7.44763Z" fill="#757B82"/>
<path d="M48.7123 6.94607C48.4196 6.9879 48.3359 7.28065 48.3359 7.57341C48.3778 7.86616 48.545 8.1171 48.8378 8.1171C49.1306 8.1171 49.2979 7.90799 49.2979 7.57341C49.1724 7.28065 49.1724 6.90425 48.7123 6.94607Z" fill="#757B82"/>
</svg>
