<svg width="225" height="29" viewBox="0 0 225 29" fill="none" xmlns="http://www.w3.org/2000/svg">
<path d="M33.261 16.8274C33.2801 16.254 33.1081 16.082 32.5157 16.082C22.8071 16.1011 13.0986 16.1011 3.40914 16.082C2.79758 16.082 2.68291 16.2923 2.68291 16.8465C2.72113 18.815 2.74024 20.7643 2.68291 22.7328C2.6638 23.4972 2.85491 23.7457 3.65759 23.7266C8.39719 23.6883 13.1368 23.7075 17.8764 23.7075C22.7116 23.7075 27.5467 23.6883 32.3819 23.7266C33.0126 23.7266 33.2801 23.6119 33.261 22.9048C33.2228 20.879 33.2228 18.8532 33.261 16.8274Z" fill="#757B82"/>
<path d="M159.472 2.2838C159.969 2.13091 160.045 1.57668 159.969 1.15623C159.893 0.716669 159.415 0.850449 159.09 0.831337C158.669 0.812226 158.249 0.86956 157.848 0.812226C156.72 0.659335 156.185 1.21356 155.841 2.22646C154.924 4.97849 153.911 7.71141 152.955 10.4443C152 13.139 151.025 15.8528 150.012 18.7004C148.292 13.6741 146.648 8.80076 144.967 3.94648C143.667 0.200663 144.546 0.907782 140.437 0.812226C139.883 0.793114 139.539 0.946005 139.405 1.53846C139.252 2.13091 139.673 2.20735 140.055 2.39847C141.221 2.99092 141.947 3.77448 141.928 5.26516C141.832 9.81366 141.89 14.3813 141.909 18.9298C141.909 20.0956 141.966 21.2422 140.533 21.72C140.151 21.8538 140.151 22.3507 140.131 22.7329C140.131 22.9814 140.342 23.0005 140.533 23.0005C141.832 23.0005 143.132 23.0005 144.451 23.0005C144.948 23.0005 144.909 22.5609 145.043 22.2551C145.177 21.9111 145.043 21.7009 144.699 21.6245C143.419 21.376 143.304 20.4778 143.304 19.4075C143.323 15.1648 143.304 10.9221 143.304 6.64118C143.591 6.69851 143.591 6.88963 143.629 7.02341C144.756 10.3679 145.903 13.7124 147.031 17.0569C147.623 18.8151 148.216 20.5924 148.827 22.3507C148.923 22.6374 148.98 22.9622 149.42 22.9814C149.859 23.0005 149.936 22.6756 150.069 22.408C150.184 22.1787 150.241 21.9302 150.318 21.7009C152.019 16.8848 153.72 12.0688 155.421 7.23363C155.497 6.98518 155.535 6.71762 155.822 6.5074C155.822 10.6546 155.822 14.7444 155.822 18.8151C155.822 20 155.937 21.1849 154.446 21.7009C154.083 21.8347 154.064 22.3316 154.064 22.7138C154.064 22.9814 154.293 22.9622 154.484 22.9622C156.051 22.9622 157.599 22.9622 159.166 22.9622C159.721 22.9622 159.701 22.5036 159.797 22.1596C159.912 21.8156 159.701 21.6436 159.357 21.5671C158.268 21.3378 158.039 20.6116 158.058 19.5987C158.096 14.6679 158.096 9.7181 158.058 4.78738C158.077 3.71715 158.096 2.68514 159.472 2.2838Z" fill="#757B82"/>
<path d="M184.7 2.95262C183.534 4.25219 182.751 5.76199 182.292 7.42467C181.069 11.8203 181.145 16.0821 183.859 19.9426C186.879 24.2426 192.134 24.3955 195.498 20.3439C197.657 17.7639 198.345 14.7061 198.384 12.3554C198.403 8.49491 197.715 5.99132 196.32 3.85085C193.548 -0.449193 188.14 -0.888754 184.7 2.95262ZM194.581 18.2417C193.529 20.6115 191.867 21.6817 189.745 21.5097C188.044 21.3759 186.879 20.4204 185.98 19.0635C184.738 17.1906 184.108 14.5532 184.088 10.4634C184.108 8.78158 184.432 6.27799 186.019 4.13752C188.102 1.30905 191.828 1.32816 193.95 4.13752C194.447 4.80642 194.867 5.51354 195.116 6.2971C196.377 10.3487 196.301 14.343 194.581 18.2417Z" fill="#757B82"/>
<path d="M68.1014 20.535C66.8018 18.0506 65.7125 15.4514 64.5467 12.9096C64.3747 12.5465 64.4702 12.3745 64.7378 12.1069C66.8974 9.98558 67.6045 7.40555 67.0312 4.46241C66.7063 2.79973 65.8463 1.44282 64.1071 1.07971C61.6418 0.54459 59.1 0.907705 56.5964 0.850371C56.1186 0.850371 56.0613 1.30904 55.9466 1.67216C55.851 1.97794 56.023 2.20727 56.2906 2.2455C57.7622 2.51306 57.8386 3.6024 57.8386 4.76819C57.8386 9.5078 57.8195 14.2474 57.8386 19.0061C57.8386 20.1528 57.8577 21.223 56.4817 21.7199C56.0804 21.8537 56.0039 22.4079 56.0804 22.7902C56.1568 23.1533 56.5582 23.0004 56.8257 23.0004C58.2017 23.0195 59.5586 22.9813 60.9346 23.0195C61.5271 23.0386 61.68 22.7137 61.8138 22.2551C61.9667 21.739 61.6035 21.6626 61.2595 21.567C60.304 21.3377 60.0364 20.6688 60.0555 19.7897C60.0746 18.8724 60.0555 17.955 60.0555 17.0377C60.0555 16.0248 60.0555 15.0119 60.0555 13.999C60.0555 13.7887 59.9982 13.4256 60.2084 13.4065C60.8582 13.3301 61.5271 13.3301 62.196 13.3492C62.6738 13.3492 62.6547 13.827 62.7693 14.1136C63.6867 16.3688 64.5467 18.6239 65.464 20.879C66.5725 23.5737 65.8271 22.9048 68.6747 23.0004C68.885 23.0004 69.1907 23.096 69.2672 22.8666C69.3436 22.5799 69.4201 22.2359 69.1334 21.9875C68.713 21.567 68.3881 21.0702 68.1014 20.535ZM60.4569 11.6674C59.96 11.5718 60.0555 11.266 60.0555 10.9794C60.0555 9.6798 60.0555 8.38023 60.0555 7.09977C60.0555 5.8002 60.0746 4.50063 60.0555 3.22018C60.0364 2.72328 60.2084 2.51306 60.7053 2.57039C61.0493 2.60861 61.4124 2.57039 61.7564 2.57039C63.6485 2.60861 64.4702 3.2584 64.8334 5.1122C65.0818 6.43088 65.0627 7.76867 64.6996 9.04913C64.1071 11.0749 62.54 12.0114 60.4569 11.6674Z" fill="#757B82"/>
<path d="M84.1752 0.850586C82.933 0.850586 81.6908 0.850586 80.4485 0.850586C79.8752 0.850586 79.837 1.30926 79.7223 1.69148C79.5885 2.13104 79.9325 2.2266 80.2574 2.30305C81.1939 2.51327 81.4996 3.14394 81.4805 4.04218C81.4614 6.06798 81.4805 8.09378 81.4805 10.1196H81.385C81.385 12.1836 81.4232 14.2285 81.3659 16.2925C81.3467 17.3628 81.0792 18.4139 80.5632 19.3886C79.8561 20.6881 78.7094 21.2424 77.276 21.2806C75.8809 21.2997 74.9445 20.5735 74.3138 19.4077C73.664 18.1846 73.3582 16.8659 73.3391 15.4899C73.3009 11.9734 73.3009 8.476 73.2818 4.95952C73.2818 3.81284 73.148 2.64705 74.6196 2.16927C75.0018 2.0546 75.0209 1.55771 75.04 1.17548C75.04 0.888809 74.7725 0.869697 74.5431 0.869697C73.0142 0.869697 71.4853 0.869697 69.9564 0.869697C69.4595 0.869697 69.4022 1.29015 69.2875 1.65326C69.1728 2.01638 69.3448 2.2266 69.6697 2.28394C70.8929 2.51327 71.0457 3.37328 71.0457 4.40529C71.0266 8.20845 71.0266 11.9925 71.0649 15.7956C71.084 17.4201 71.3898 19.0063 72.1351 20.4588C73.1671 22.5037 74.868 23.4402 77.1614 23.4211C79.3401 23.4019 80.8116 22.3126 81.7672 20.4588C82.589 18.8535 82.8757 17.0952 82.8948 15.3179C82.933 11.7058 82.9139 8.11289 82.9139 4.50085C82.9139 3.48795 83.0285 2.62794 84.1752 2.24571C84.6148 2.09282 84.6721 1.61504 84.6721 1.19459C84.653 0.869697 84.3855 0.850586 84.1752 0.850586Z" fill="#757B82"/>
<path d="M113.013 21.5289C111.828 21.2995 111.561 20.4013 111.274 19.4266C109.535 13.5595 107.758 7.71139 106.248 1.76777C106.152 1.36643 106.114 0.869536 105.579 0.850425C104.471 0.812202 103.362 0.831313 102.254 0.869536C101.795 0.869536 101.738 1.27087 101.642 1.59577C101.547 1.93977 101.719 2.09266 102.005 2.26466C103.611 3.23934 103.783 3.64068 103.267 5.41803C102.005 9.77541 100.725 14.1328 99.4443 18.4902C99.0429 19.8089 98.9092 21.3378 97.1509 21.7773C96.7878 21.8729 96.7496 22.3316 96.7305 22.6756C96.7305 22.9431 96.9789 23.0004 97.2083 23.0004C98.4123 23.0004 99.6354 23.0004 100.839 23.0196C101.26 23.0196 101.336 22.7329 101.451 22.4271C101.547 22.1787 101.661 21.9111 101.355 21.7773C100.056 21.2231 100.419 20.2484 100.725 19.312C101.011 18.3564 101.05 17.0759 101.68 16.5026C102.387 15.8719 103.687 16.407 104.528 16.3115C104.757 16.3115 104.776 16.3115 104.815 16.3115C105.847 16.3688 107.165 15.891 107.853 16.5026C108.484 17.0568 108.484 18.3564 108.771 19.312C109.057 20.3058 109.44 21.2804 108.121 21.9111C107.834 22.0449 107.758 22.4844 107.777 22.8476C107.796 23.0578 108.006 23.0387 108.14 23.0387C109.669 23.0387 111.198 23.0387 112.727 23.0387C113.262 23.0387 113.3 22.5991 113.434 22.2742C113.568 21.8729 113.338 21.5862 113.013 21.5289ZM106.898 14.5915C105.464 14.5724 104.031 14.5724 102.617 14.5915C102.024 14.6106 102.101 14.3048 102.196 13.9417C103.037 11.0368 103.878 8.13184 104.776 5.01669C105.675 8.17006 106.496 11.1323 107.337 14.0946C107.452 14.515 107.261 14.5915 106.898 14.5915Z" fill="#757B82"/>
<path d="M175.775 0.888767C173.309 0.506541 170.825 0.774099 168.34 0.754988C167.805 0.754988 167.824 1.25188 167.71 1.57677C167.595 1.86344 167.786 2.05456 168.073 2.11189C169.372 2.37945 169.621 3.29679 169.602 4.46258C169.582 9.27864 169.582 14.0756 169.602 18.8916C169.602 20.0383 169.64 21.1277 168.264 21.5863C167.882 21.7201 167.843 22.1979 167.843 22.5801C167.843 22.905 168.13 22.8668 168.34 22.8668C169.869 22.8668 171.398 22.8668 172.927 22.8668C173.443 22.8668 173.519 22.5037 173.615 22.1214C173.711 21.7201 173.539 21.529 173.156 21.4526C172.124 21.2423 171.838 20.5352 171.857 19.5605C171.895 16.9041 171.876 14.2476 171.876 11.5911V4.00391C171.876 2.41767 171.876 2.41767 173.462 2.43678C175.392 2.4559 176.443 3.18213 176.921 4.90214C177.38 6.60305 177.303 8.28485 176.635 9.92842C176.119 11.1898 175.201 11.9733 173.806 12.1836C173.519 12.2218 172.984 11.9733 173.042 12.5849C173.08 13.0245 173.29 13.3685 173.902 13.3493C175.87 13.292 177.437 12.4893 178.393 10.7884C179.673 8.51418 179.807 6.08705 178.928 3.65991C178.374 2.18834 177.323 1.13721 175.775 0.888767Z" fill="#757B82"/>
<path d="M54.0928 18.9295C53.5194 18.7193 53.5385 19.2544 53.4047 19.4837C52.7167 20.7833 51.7229 21.5095 50.1749 21.2993C49.8691 21.2611 49.5443 21.2993 49.2194 21.2993C47.7287 21.2993 47.4038 21.0317 47.3847 19.541C47.3273 17.2286 47.3656 14.9161 47.3082 12.6227C47.2891 11.9156 47.5567 11.801 48.1873 11.8201C49.4296 11.8583 50.6718 11.8392 51.9141 11.8201C52.4492 11.801 53.099 10.9983 52.9843 10.4823C52.8505 9.88982 52.3154 10.1383 51.9523 10.1383C50.6527 10.1192 49.3531 10.0809 48.0345 10.1383C47.4229 10.1574 47.3082 9.94715 47.3082 9.39293C47.3465 7.59646 47.3273 5.78089 47.3273 3.98442C47.3273 2.55107 47.3273 2.64663 48.7989 2.53196C50.6336 2.39818 52.2007 2.60841 52.7358 4.86354C53.9016 3.96531 53.3665 2.91419 53.5003 1.99685C53.615 1.11772 53.1754 0.831055 52.3345 0.831055C50.1176 0.869277 47.8816 0.850166 45.6647 0.850166C45.0913 0.850166 44.518 0.850166 43.9446 0.850166C43.4286 0.850166 43.3522 1.23239 43.2184 1.59551C43.1037 1.9204 43.1993 2.20707 43.5242 2.2644C44.9766 2.55107 45.0913 3.6022 45.0913 4.7871C45.0722 10.0427 45.0913 15.2792 45.0913 20.5348C45.0913 21.0508 45.0913 21.5477 45.1486 22.0446C45.206 22.5797 45.4735 23.0193 46.1042 23.0193C48.6078 23.0193 51.1305 23.0193 53.6341 23.0193C54.2647 23.0193 54.5323 22.6562 54.5323 22.0446C54.5323 21.2802 54.5323 20.5348 54.5323 19.7704C54.5323 19.4073 54.5323 19.0824 54.0928 18.9295Z" fill="#757B82"/>
<path d="M138.011 18.9106C137.533 18.7959 137.533 19.2546 137.399 19.4839C136.711 20.7835 135.736 21.5289 134.188 21.3186C133.883 21.2804 133.558 21.3186 133.233 21.3186C131.742 21.3186 131.417 21.0511 131.379 19.5795C131.322 17.267 131.36 14.9546 131.302 12.6612C131.283 11.9732 131.532 11.8203 132.163 11.8394C133.405 11.8776 134.647 11.8585 135.889 11.8394C136.768 11.8203 136.902 11.075 136.94 10.5016C136.959 9.90917 136.31 10.1576 135.966 10.1385C134.666 10.1194 133.367 10.1003 132.048 10.1385C131.455 10.1576 131.302 9.98561 131.302 9.41228C131.341 7.52025 131.379 5.60912 131.302 3.7171C131.264 2.74242 131.551 2.5322 132.507 2.5322C134.399 2.49398 136.214 2.41753 136.768 4.84467C137.915 3.98466 137.38 2.93354 137.514 2.01619C137.628 1.15618 137.227 0.83129 136.367 0.850402C134.303 0.888624 132.239 0.869513 130.175 0.869513C129.449 0.869513 128.703 0.869513 127.977 0.869513C127.461 0.869513 127.366 1.25174 127.232 1.59574C127.117 1.90152 127.194 2.20731 127.518 2.28375C129.028 2.57042 129.105 3.67888 129.086 4.88289C129.066 10.0429 129.086 15.1839 129.086 20.344C129.086 20.8408 129.086 21.3568 129.124 21.8537C129.162 22.6373 129.525 23.0578 130.385 23.0386C132.736 23.0195 135.087 23.0195 137.437 23.0386C138.183 23.0386 138.565 22.752 138.546 21.9684C138.527 21.2422 138.527 20.516 138.546 19.7897C138.565 19.3502 138.488 19.0253 138.011 18.9106Z" fill="#757B82"/>
<path d="M92.1441 10.3486C91.2268 9.46946 90.2712 8.62856 89.5259 7.59655C88.4939 6.20142 88.3601 4.29029 89.201 3.06716C89.7361 2.2836 90.4815 1.84404 91.4561 1.92048C92.3926 1.97782 92.9468 2.55116 93.2908 3.35383C93.501 3.85073 93.6731 4.34762 93.8833 4.84452C93.9979 5.09296 94.0171 5.51341 94.3228 5.47519C94.6668 5.43697 94.8771 5.07385 94.9917 4.72985C95.718 2.49382 94.7624 0.945806 92.4117 0.582691C91.9148 0.506246 91.3988 0.448912 90.9019 0.525357C87.2134 0.984029 85.245 5.62808 87.3281 8.97256C87.9014 9.88991 88.7041 10.6161 89.4686 11.3806C90.4623 12.3935 91.5899 13.2917 92.3544 14.5148C93.5584 16.426 93.8068 18.3944 92.641 20.4202C92.0868 21.3758 91.2268 21.8727 90.0992 21.7963C88.9334 21.7198 88.1499 21.07 87.7485 19.9998C87.481 19.2927 87.309 18.5473 87.0605 17.8402C86.9841 17.6109 87.0223 17.1904 86.5828 17.286C86.2196 17.3624 85.933 17.5344 85.9521 17.974C85.9712 18.5664 85.9521 19.178 85.9521 19.7705H85.9712C85.9712 20.382 85.9712 20.9745 85.9712 21.5669C85.9712 22.0256 86.1432 22.3505 86.5828 22.5416C88.7423 23.5354 90.921 23.8985 93.0233 22.5225C95.0873 21.1847 95.6415 19.0825 95.5651 16.7318C95.5077 14.0371 94.0171 12.1068 92.1441 10.3486Z" fill="#757B82"/>
<path d="M205.798 10.2913C204.842 9.3548 203.81 8.49479 203.046 7.40545C202.224 6.23966 201.995 4.97831 202.415 3.62141C202.759 2.51295 203.734 1.76761 204.804 1.7485C205.798 1.72938 206.505 2.2645 206.983 3.43029C207.155 3.83163 207.289 4.27119 207.48 4.67253C207.594 4.94009 207.594 5.41787 207.977 5.34142C208.34 5.26498 208.626 4.90186 208.645 4.50053C208.703 3.83163 208.645 3.16273 208.684 2.51295C208.722 1.86316 208.435 1.44271 207.862 1.13693C206.123 0.181368 204.326 -0.0288573 202.625 1.06049C200.81 2.20717 199.912 3.9463 200.026 6.12499C200.122 7.71123 200.829 9.0108 201.937 10.1384C203.218 11.457 204.67 12.6037 205.76 14.0944C207.212 16.0629 207.384 18.5665 206.237 20.3056C205.607 21.2612 204.728 21.7581 203.581 21.6434C202.472 21.5287 201.708 20.898 201.326 19.866C201.077 19.178 200.924 18.4709 200.657 17.802C200.561 17.5344 200.638 16.9993 200.064 17.1522C199.625 17.2669 199.51 17.5918 199.529 18.0122C199.568 18.5473 199.529 19.0825 199.529 19.6176V20.4776C199.529 22.2932 199.568 22.3505 201.326 22.9238C204.728 24.0132 207.862 22.5798 208.875 19.4265C209.333 18.0122 209.276 16.5598 208.989 15.1264C208.588 13.0624 207.212 11.6673 205.798 10.2913Z" fill="#757B82"/>
<path d="M40.9439 0.735835C39.2047 0.735835 37.4465 0.735835 35.7074 0.735835C35.134 0.735835 35.0576 1.15628 34.962 1.55762C34.8474 1.99718 35.1531 2.09274 35.4971 2.15007C36.6056 2.3603 36.9496 3.02919 36.9305 4.11854C36.8732 7.36746 36.9114 10.6355 36.9114 13.8844H36.8732C36.8732 17.2098 36.9305 20.5352 36.854 23.8414C36.8158 25.2366 36.7394 26.7081 35.306 27.6064C34.9429 27.8357 35.0767 28.409 35.1914 28.753C35.306 29.1162 35.7456 28.9059 36.0323 28.8486C37.4083 28.5237 38.2683 27.6064 38.8034 26.345C39.415 24.8543 39.5296 23.2872 39.5296 21.701C39.5296 16.044 39.5487 10.3871 39.5296 4.71099C39.5296 3.52609 39.5105 2.41763 41.0203 2.05452C41.4408 1.95896 41.5363 1.42384 41.4981 1.00339C41.4599 0.678501 41.1541 0.735835 40.9439 0.735835Z" fill="#757B82"/>
<path d="M224.546 1.07994C224.374 0.430159 223.743 0.755051 223.342 0.755051C219.806 0.73594 216.289 0.755051 212.754 0.716828C211.932 0.716828 211.454 0.984387 211.168 1.72973C210.824 2.60885 210.843 2.66618 211.817 2.66618C213.06 2.66618 214.302 2.72352 215.544 2.64707C216.366 2.60885 216.653 2.78085 216.653 3.6982C216.595 8.7627 216.614 13.8272 216.633 18.8726C216.633 20.0193 216.672 21.1086 215.296 21.5673C214.913 21.7011 214.894 22.1788 214.856 22.5611C214.837 22.8286 215.066 22.8477 215.257 22.8477C216.844 22.8477 218.43 22.8477 220.016 22.8477C220.551 22.8477 220.551 22.3891 220.666 22.0451C220.8 21.6628 220.551 21.5291 220.226 21.4717C219.061 21.2424 218.869 20.4397 218.869 19.4268C218.908 16.8086 218.889 14.1712 218.889 11.5529C218.889 8.83914 218.908 6.10622 218.869 3.39241C218.869 2.79996 219.022 2.62796 219.615 2.64707C220.8 2.6853 221.966 2.66618 223.15 2.66618C223.762 2.66618 224.698 1.65328 224.546 1.07994Z" fill="#757B82"/>
<path d="M127.001 19.8281C127.001 19.4459 127.04 19.0828 126.543 18.9299C125.969 18.7579 125.989 19.2548 125.855 19.5032C125.186 20.7837 124.23 21.3761 122.721 21.3379C119.892 21.2615 119.777 21.2041 119.758 18.3183C119.758 13.7316 119.758 9.1449 119.758 4.55818C119.758 3.52617 119.835 2.60883 121.039 2.20749C121.478 2.0546 121.497 1.5577 121.516 1.15637C121.516 0.927031 121.306 0.850586 121.115 0.850586C119.548 0.850586 118 0.850586 116.433 0.850586C115.917 0.850586 115.898 1.30926 115.764 1.63415C115.63 1.97815 115.84 2.18838 116.146 2.26482C117.388 2.49416 117.503 3.35417 117.503 4.38618C117.484 9.3169 117.484 14.2476 117.503 19.1783C117.503 20.2677 117.484 21.2615 116.184 21.701C115.783 21.8348 115.668 22.3699 115.745 22.7713C115.84 23.1917 116.28 23.0006 116.567 23.0006C118.096 23.0197 119.624 23.0006 121.153 23.0006C122.701 23.0006 124.269 22.9815 125.836 23.0006C126.677 23.0197 127.059 22.6566 127.001 21.7966C126.963 21.1659 126.982 20.497 127.001 19.8281Z" fill="#757B82"/>
<path d="M11.5704 1.55741C12.3922 1.7103 12.4878 2.26453 12.4687 2.97165C12.4496 6.01035 12.4496 9.04905 12.4687 12.0878C12.4687 12.8904 12.4878 13.6167 11.5131 13.9033C11.2455 13.9798 11.1118 14.2664 11.15 14.5149C11.2073 14.8589 11.5513 14.7633 11.7807 14.7633C12.7744 14.7824 13.7491 14.7633 14.7429 14.7633C15.106 14.7633 15.3736 14.6487 15.4691 14.2856C15.5838 13.8269 15.1825 13.8651 14.934 13.7887C14.4562 13.6358 14.1696 13.3873 14.1696 12.8522C14.1696 11.2277 14.1887 9.62239 14.1505 8.01704C14.1505 7.59659 14.2842 7.46281 14.7047 7.48192C15.5074 7.50103 16.2909 7.48192 17.0936 7.48192C17.8963 7.48192 18.6798 7.52014 19.4825 7.48192C19.9985 7.46281 20.1323 7.63481 20.1323 8.13171C20.1132 9.43128 20.1132 10.7308 20.1323 12.0304C20.1514 12.8522 20.1896 13.6358 19.1576 13.9224C18.8901 13.9989 18.8136 14.3047 18.8136 14.5531C18.8136 14.706 19.0238 14.7633 19.1767 14.7633C20.3234 14.7633 21.4701 14.7633 22.6168 14.7633C22.9226 14.7633 23.0563 14.5531 23.1137 14.2856C23.171 13.9798 22.9608 13.9033 22.7314 13.8651C21.9479 13.7122 21.795 13.1771 21.795 12.47C21.8141 9.37394 21.8141 6.2588 21.795 3.16276C21.795 2.41742 21.8714 1.76764 22.7314 1.5383C22.999 1.46185 23.1137 1.21341 23.1137 0.94585C23.1137 0.697402 22.9034 0.65918 22.7123 0.65918C21.6039 0.65918 20.4763 0.65918 19.3679 0.65918C19.0047 0.65918 18.8518 0.907627 18.8136 1.1943C18.7372 1.57652 19.0812 1.55741 19.3105 1.61475C19.903 1.76764 20.1323 2.11164 20.1132 2.7232C20.075 3.7361 20.0941 4.749 20.1132 5.7619C20.1323 6.18235 20.0367 6.37347 19.5399 6.37347C17.9154 6.35435 16.2909 6.35435 14.6665 6.37347C14.246 6.37347 14.1313 6.23969 14.1313 5.83835C14.1505 4.95923 14.1696 4.061 14.1313 3.18187C14.1122 2.41742 14.1887 1.78675 15.0678 1.55741C15.3354 1.48097 15.45 1.23252 15.45 0.964961C15.45 0.716513 15.2398 0.678291 15.0487 0.678291C13.9402 0.678291 12.8127 0.678291 11.7042 0.678291C11.3411 0.678291 11.2073 0.926738 11.1309 1.21341C11.0926 1.48097 11.3411 1.51919 11.5704 1.55741Z" fill="#757B82"/>
<path d="M24.7948 1.55732C25.6548 1.74844 25.8268 2.34089 25.8077 3.12445C25.7695 4.82536 25.7886 6.54538 25.7886 8.24628C25.7886 10.0427 25.7886 11.8583 25.7886 13.6548C25.7886 14.2664 25.9606 14.7441 26.6868 14.7441C28.5024 14.7441 30.318 14.7441 32.1336 14.7441C32.6496 14.7441 32.9745 14.5148 32.9171 13.9223C32.8789 13.4828 32.9171 13.0432 32.898 12.5846C32.898 12.3934 32.8598 12.2023 32.6305 12.145C32.4202 12.0877 32.2482 12.145 32.1527 12.3361C31.4456 13.7503 30.1651 13.7121 28.8655 13.6548C27.8144 13.6166 27.5468 13.4063 27.5277 12.3743C27.4895 11.0174 27.5468 9.66052 27.4895 8.30362C27.4704 7.67295 27.6997 7.57739 28.254 7.5965C29.1331 7.63472 30.0313 7.5965 30.9295 7.61561C31.4647 7.61561 31.694 7.23339 31.7131 6.83205C31.7131 6.33515 31.2353 6.54538 30.9678 6.54538C30.1078 6.52627 29.2478 6.48804 28.3877 6.54538C27.7188 6.5836 27.4131 6.44982 27.4895 5.68537C27.566 4.84447 27.5086 3.98446 27.5086 3.12445C27.5086 1.71021 27.5086 1.71021 28.9611 1.71021C29.802 1.71021 30.7002 1.53821 31.2353 2.49378C31.35 2.704 31.4264 3.12445 31.8087 2.99067C32.1527 2.85689 32.1336 2.49378 32.1336 2.16888C32.1336 1.84399 32.1145 1.53821 32.1336 1.21332C32.1527 0.81198 31.9233 0.601756 31.5602 0.601756C29.3624 0.582644 27.1646 0.601756 24.9668 0.601756C24.6037 0.601756 24.4699 0.831091 24.4126 1.13687C24.3361 1.46177 24.5846 1.5191 24.7948 1.55732Z" fill="#757B82"/>
<path d="M4.34632 2.876C4.25077 4.42402 4.32721 5.97204 4.32721 7.52005C4.32721 9.02985 4.3081 10.5588 4.32721 12.0685C4.34632 12.8521 4.34632 13.5975 3.37164 13.8841C3.08498 13.9606 3.02764 14.2472 3.02764 14.5148C3.02764 14.7059 3.19964 14.7632 3.37164 14.7632C4.51832 14.7632 5.665 14.7632 6.81168 14.7632C7.11746 14.7632 7.27035 14.5721 7.30858 14.2855C7.38502 13.9032 7.07924 13.865 6.84991 13.8268C6.14279 13.6739 6.00901 13.177 6.00901 12.5463C6.02812 9.22096 6.02812 5.9147 6.00901 2.58933C6.00901 2.05421 6.1619 1.88221 6.69701 1.90132C7.55702 1.93955 8.41703 1.92044 9.27704 1.90132C9.90772 1.88221 10.2135 1.3471 10.1944 0.888424C10.1944 0.448864 9.62105 0.639977 9.31527 0.639977C6.77346 0.620866 4.23165 0.639977 1.68985 0.639977C1.34584 0.639977 0.963618 0.582643 0.676948 0.811978C0.371167 1.04131 0.0844971 1.38532 0.160942 1.74843C0.237388 2.07333 0.657837 1.92044 0.925395 1.92044C1.72807 1.93955 2.51164 1.97777 3.31431 1.92044C4.07876 1.82488 4.38454 1.99688 4.34632 2.876Z" fill="#757B82"/>
</svg>
