<svg width="269" height="56" viewBox="0 0 269 56" fill="none" xmlns="http://www.w3.org/2000/svg">
<path fill-rule="evenodd" clip-rule="evenodd" d="M37.2266 25.5809L34.7339 28.108L38.323 31.6529C40.4266 33.731 41.6187 36.5595 41.6372 39.5164C41.6556 42.4732 40.4989 45.3164 38.4213 47.4205L29.9352 56L16.3411 42.5699L16.3319 42.5792L4.24579 30.6357L4.29157 30.5894C4.00946 30.3727 3.74132 30.1384 3.48875 29.8879C2.65779 29.0708 1.99638 28.0976 1.54251 27.0242C1.08864 25.9509 0.851233 24.7984 0.843924 23.6331C0.836615 22.4677 1.05955 21.3123 1.49992 20.2334C1.94029 19.1544 2.58944 18.173 3.41009 17.3456L16.0015 4.60661C17.3702 3.17596 19.0099 2.032 20.8251 1.24138C22.6403 0.450746 24.5947 0.0292593 26.5744 0.00147002C28.5541 -0.0263193 30.5196 0.340141 32.3562 1.07951C34.1929 1.81888 35.8641 2.91637 37.2724 4.30803C38.6807 5.69969 39.7979 7.35769 40.5591 9.18545C41.3202 11.0132 41.71 12.9742 41.7057 14.9541C41.7015 16.934 41.3032 18.8932 40.5342 20.7177C39.7652 22.5421 38.6409 24.1953 37.2266 25.5809ZM13.5154 31.5842C14.4368 31.1457 15.2829 30.5475 16.0114 29.8092L22.7471 22.9898C23.311 22.4248 24.0752 22.1052 24.8734 22.1006C25.6717 22.096 26.4395 22.4068 27.0098 22.9653L27.1967 23.157C27.7642 23.7173 28.086 24.4799 28.0915 25.2773C28.0971 26.0748 27.7858 26.8418 27.2262 27.4099L20.3429 34.3964L24.4876 38.4821L30.6334 32.2577L34.2225 35.8075C34.7188 36.2973 35.1137 36.8801 35.3846 37.5226C35.6555 38.1652 35.797 38.8548 35.8011 39.5521C35.8052 40.2494 35.6718 40.9407 35.4085 41.5864C35.1453 42.2321 34.7573 42.8195 34.2668 43.3151L29.891 47.7401L18.5828 36.54L18.5568 36.5662L13.5154 31.5842ZM31.3021 18.9828C32.0335 19.7029 32.6341 20.5447 33.077 21.4706C33.9147 20.6225 34.5772 19.6178 35.0266 18.5136C35.4761 17.4095 35.7036 16.2277 35.6963 15.0357C35.689 13.8436 35.447 12.6647 34.9841 11.5662C34.5211 10.4676 33.8464 9.47106 32.9983 8.63332C32.1502 7.79557 31.1454 7.13307 30.0413 6.68364C28.9372 6.23421 27.7554 6.00665 26.5634 6.01396C25.3713 6.02126 24.1924 6.26329 23.0938 6.72621C21.9953 7.18914 20.9987 7.8639 20.161 8.71198L7.56463 21.4313C7.00468 21.9997 6.69342 22.7672 6.6993 23.5651C6.69827 23.961 6.77697 24.3532 6.9307 24.7181C7.08444 25.083 7.31006 25.4132 7.59413 25.6891C8.15999 26.2532 8.92644 26.57 9.72548 26.57C10.5245 26.57 11.291 26.2532 11.8568 25.6891L18.5926 18.8697C19.4097 18.042 20.3819 17.3835 21.4536 16.9318C22.5253 16.4801 23.6756 16.2441 24.8386 16.2372C26.0016 16.2304 27.1546 16.4528 28.2316 16.8919C29.3086 17.3309 30.2885 17.978 31.1152 18.796L31.3021 18.9828Z" fill="url(#paint0_linear_169_1000)"/>
<path d="M61.5336 28.8208L61.3808 3.07606L71.5379 3.01578C73.4905 3.00419 75.1563 3.36725 76.5351 4.10496C77.9139 4.83428 78.9675 5.85467 79.696 7.16612C80.4329 8.46915 80.8064 9.97546 80.8166 11.6851C80.8267 13.3947 80.4669 14.9054 79.7372 16.2171C79.0075 17.5288 77.945 18.5534 76.5498 19.2908C75.163 20.0281 73.4807 20.4027 71.5029 20.4144L65.029 20.4528L65.0031 16.0908L70.597 16.0576C71.6446 16.0514 72.5067 15.8661 73.1834 15.5017C73.8684 15.1289 74.3766 14.6188 74.708 13.9716C75.0477 13.3158 75.2151 12.5648 75.21 11.7183C75.205 10.8635 75.0287 10.1187 74.6814 9.48382C74.3423 8.84052 73.8281 8.34492 73.1389 7.99701C72.4495 7.64073 71.5769 7.46573 70.5209 7.47199L66.8503 7.49377L66.9767 28.7885L61.5336 28.8208Z" fill="white"/>
<path d="M84.3525 28.6854L84.2379 9.37683L89.4296 9.34602L89.4496 12.715L89.6507 12.7138C89.9956 11.5133 90.581 10.6047 91.4071 9.98799C92.2331 9.36291 93.1866 9.04716 94.2677 9.04075C94.5358 9.03916 94.8251 9.0542 95.1353 9.08588C95.4456 9.11756 95.7183 9.16204 95.9533 9.21931L95.9815 13.971C95.7296 13.8971 95.3814 13.8321 94.9369 13.7761C94.4924 13.7201 94.0858 13.6931 93.717 13.6953C92.9293 13.7 92.2263 13.876 91.6082 14.2233C90.9984 14.5621 90.5151 15.0343 90.1584 15.6398C89.81 16.2453 89.6381 16.9419 89.6428 17.7297L89.7076 28.6536L84.3525 28.6854Z" fill="white"/>
<path d="M98.8371 28.5994L98.7225 9.29088L104.078 9.2591L104.192 28.5677L98.8371 28.5994ZM101.398 6.78592C100.602 6.79064 99.9171 6.53071 99.3441 6.00612C98.7794 5.47311 98.4949 4.83367 98.4905 4.08781C98.4861 3.35033 98.7631 2.71594 99.3214 2.18464C99.8881 1.64491 100.57 1.37268 101.366 1.36796C102.162 1.36323 102.842 1.62738 103.407 2.1604C103.98 2.68498 104.269 3.31601 104.273 4.05349C104.277 4.79935 103.996 5.44215 103.43 5.98188C102.871 6.51318 102.194 6.78119 101.398 6.78592Z" fill="white"/>
<path d="M126.369 9.12682L119.733 28.4754L113.699 28.5112L106.834 9.24274L112.491 9.20917L116.583 23.0006L116.784 22.9994L120.699 9.16046L126.369 9.12682Z" fill="white"/>
<path d="M137.403 28.7477C135.417 28.7595 133.705 28.3674 132.267 27.5714C130.837 26.7669 129.733 25.6253 128.953 24.1465C128.173 22.6594 127.777 20.8976 127.765 18.8611C127.753 16.875 128.128 15.1296 128.891 13.6249C129.653 12.1202 130.731 10.9447 132.126 10.0983C133.529 9.25194 135.177 8.82313 137.071 8.81189C138.345 8.80433 139.532 9.00261 140.632 9.40674C141.741 9.80244 142.708 10.4043 143.534 11.2123C144.369 12.0203 145.02 13.0389 145.488 14.2681C145.956 15.4889 146.195 16.9206 146.205 18.5632L146.214 20.0339L129.91 20.1307L129.89 16.812L141.153 16.7452C141.149 15.9742 140.977 15.2922 140.638 14.6991C140.3 14.1061 139.832 13.6438 139.235 13.3121C138.646 12.972 137.962 12.8042 137.183 12.8088C136.37 12.8137 135.65 13.0065 135.024 13.3874C134.406 13.7598 133.923 14.2613 133.575 14.8919C133.226 15.5142 133.05 16.2066 133.046 16.9693L133.065 20.1245C133.071 21.0799 133.252 21.9043 133.608 22.5978C133.972 23.2913 134.482 23.8246 135.138 24.1978C135.794 24.5711 136.571 24.755 137.467 24.7497C138.062 24.7462 138.607 24.6591 139.1 24.4886C139.593 24.3181 140.015 24.0641 140.365 23.7268C140.715 23.3895 140.981 22.9773 141.162 22.4901L146.117 22.7876C145.873 23.9791 145.364 25.0213 144.589 25.9143C143.824 26.7988 142.83 27.4919 141.61 27.9936C140.398 28.4869 138.995 28.7383 137.403 28.7477Z" fill="white"/>
<path d="M163.715 9.87317C163.609 8.85973 163.173 8.07453 162.407 7.51757C161.641 6.9606 160.604 6.686 159.297 6.69376C158.408 6.69903 157.659 6.82919 157.049 7.08423C156.438 7.33089 155.971 7.67309 155.647 8.11081C155.331 8.54848 155.175 9.04388 155.178 9.59699C155.164 10.058 155.263 10.4597 155.474 10.8021C155.694 11.1444 155.994 11.4401 156.372 11.6893C156.751 11.9301 157.188 12.1412 157.683 12.3226C158.179 12.4957 158.708 12.6434 159.27 12.7658L161.586 13.3052C162.711 13.5499 163.743 13.879 164.685 14.2925C165.626 14.7059 166.442 15.2165 167.132 15.8242C167.823 16.4319 168.36 17.1494 168.742 17.9769C169.132 18.8042 169.335 19.7542 169.349 20.8269C169.35 22.4025 168.956 23.7709 168.167 24.9321C167.386 26.0849 166.252 26.9842 164.764 27.6299C163.284 28.2673 161.497 28.5922 159.402 28.6046C157.323 28.6169 155.511 28.3092 153.965 27.6815C152.428 27.0536 151.224 26.1179 150.353 24.8744C149.491 23.6224 149.034 22.0705 148.981 20.2186L154.248 20.1874C154.312 21.0502 154.563 21.7695 155.002 22.3451C155.45 22.9124 156.043 23.3405 156.782 23.6294C157.53 23.9099 158.373 24.0474 159.312 24.0418C160.234 24.0363 161.033 23.8975 161.71 23.6253C162.396 23.3531 162.926 22.977 163.3 22.497C163.674 22.0171 163.86 21.4671 163.856 20.8469C163.853 20.2687 163.678 19.7836 163.332 19.3918C162.994 18.9999 162.498 18.6676 161.843 18.3949C161.196 18.1222 160.402 17.8755 159.462 17.6548L156.655 16.9675C154.481 16.4524 152.763 15.6371 151.499 14.5216C150.235 13.406 149.602 11.8971 149.599 9.99465C149.581 8.43594 149.988 7.07166 150.819 5.9018C151.659 4.7319 152.814 3.81573 154.285 3.1533C155.756 2.49087 157.43 2.15409 159.307 2.14295C161.218 2.13161 162.888 2.44855 164.316 3.09377C165.753 3.73894 166.873 4.64161 167.676 5.80177C168.479 6.96192 168.898 8.30874 168.932 9.84221L163.715 9.87317Z" fill="white"/>
<path d="M181.755 28.4845C179.769 28.4963 178.057 28.1042 176.619 27.3082C175.19 26.5037 174.085 25.3621 173.306 23.8833C172.526 22.3962 172.13 20.6344 172.118 18.598C172.106 16.6118 172.481 14.8664 173.243 13.3617C174.005 11.857 175.084 10.6815 176.478 9.83515C177.881 8.98875 179.529 8.55993 181.423 8.54869C182.697 8.54113 183.884 8.73942 184.985 9.14354C186.093 9.53924 187.061 10.1411 187.887 10.9491C188.721 11.7571 189.373 12.7757 189.841 14.0049C190.309 15.2257 190.548 16.6574 190.558 18.3L190.566 19.7707L174.262 19.8675L174.243 16.5488L185.506 16.482C185.501 15.711 185.33 15.029 184.991 14.4359C184.652 13.8429 184.184 13.3806 183.587 13.0489C182.999 12.7088 182.315 12.541 181.535 12.5456C180.722 12.5505 180.003 12.7433 179.376 13.1242C178.758 13.4966 178.275 13.9981 177.927 14.6287C177.579 15.251 177.403 15.9434 177.399 16.7061L177.418 19.8613C177.423 20.8167 177.604 21.6411 177.96 22.3346C178.325 23.0281 178.835 23.5614 179.491 23.9346C180.147 24.3079 180.923 24.4918 181.82 24.4865C182.415 24.483 182.959 24.396 183.452 24.2254C183.946 24.0549 184.368 23.8009 184.718 23.4636C185.068 23.1263 185.333 22.7141 185.515 22.2269L190.47 22.5244C190.225 23.7159 189.716 24.7581 188.942 25.6511C188.176 26.5356 187.183 27.2287 185.962 27.7304C184.75 28.2237 183.348 28.4751 181.755 28.4845Z" fill="white"/>
<path d="M202.836 28.3594C200.859 28.3712 199.155 27.9622 197.725 27.1326C196.304 26.2946 195.208 25.1278 194.436 23.6322C193.673 22.1366 193.286 20.4125 193.274 18.4598C193.262 16.482 193.633 14.745 194.387 13.2488C195.149 11.7441 196.236 10.5685 197.647 9.7221C199.058 8.86727 200.74 8.43406 202.693 8.42247C204.378 8.41248 205.854 8.70961 207.123 9.31387C208.392 9.91814 209.399 10.7712 210.143 11.873C210.887 12.9749 211.301 14.2714 211.386 15.7627L206.332 15.7927C206.184 14.8298 205.802 14.0568 205.187 13.4738C204.58 12.8824 203.786 12.5896 202.806 12.5954C201.976 12.6003 201.253 12.8309 200.635 13.2871C200.026 13.7349 199.552 14.3873 199.214 15.2441C198.875 16.1009 198.709 17.1369 198.717 18.3521C198.724 19.584 198.898 20.6306 199.238 21.4918C199.587 22.3529 200.073 23.0079 200.695 23.4568C201.318 23.9057 202.045 24.1276 202.874 24.1227C203.486 24.1191 204.034 23.9901 204.519 23.7358C205.012 23.4815 205.416 23.1145 205.732 22.6349C206.056 22.1469 206.266 21.5632 206.362 20.8838L211.416 20.8538C211.341 22.3293 210.946 23.6306 210.232 24.7579C209.526 25.8767 208.547 26.7541 207.293 27.3901C206.04 28.0261 204.554 28.3492 202.836 28.3594Z" fill="white"/>
<path d="M227.22 19.6161L227.154 8.52874L232.509 8.49696L232.624 27.8055L227.482 27.836L227.461 24.3288L227.26 24.33C226.831 25.464 226.112 26.3775 225.102 27.0707C224.1 27.7639 222.874 28.1148 221.425 28.1234C220.134 28.1311 218.997 27.8445 218.013 27.2637C217.029 26.6829 216.257 25.8536 215.697 24.7758C215.146 23.6979 214.862 22.4048 214.845 20.8963L214.772 8.60222L220.127 8.57044L220.194 19.9092C220.209 21.0489 220.521 21.948 221.128 22.6064C221.735 23.2649 222.546 23.5911 223.56 23.5851C224.205 23.5813 224.808 23.4311 225.367 23.1344C225.927 22.8294 226.377 22.3825 226.717 21.7939C227.066 21.2051 227.233 20.4792 227.22 19.6161Z" fill="white"/>
<path d="M236.907 27.7801L236.792 8.47154L241.984 8.44073L242.004 11.8097L242.205 11.8085C242.55 10.608 243.136 9.69939 243.962 9.0827C244.788 8.45762 245.741 8.14187 246.822 8.13546C247.09 8.13387 247.38 8.14891 247.69 8.18059C248 8.21228 248.273 8.25675 248.508 8.31402L248.536 13.0657C248.284 12.9918 247.936 12.9268 247.491 12.8708C247.047 12.8148 246.64 12.7879 246.272 12.79C245.484 12.7947 244.781 12.9707 244.163 13.318C243.553 13.6568 243.07 14.129 242.713 14.7345C242.365 15.34 242.193 16.0366 242.197 16.8244L242.262 27.7483L236.907 27.7801Z" fill="white"/>
<path d="M259.295 28.0244C257.308 28.0362 255.596 27.6441 254.159 26.848C252.729 26.0436 251.624 24.902 250.845 23.4232C250.065 21.9361 249.669 20.1743 249.657 18.1378C249.645 16.1517 250.02 14.4062 250.782 12.9016C251.544 11.3969 252.623 10.2214 254.017 9.37502C255.42 8.52862 257.069 8.0998 258.963 8.08856C260.236 8.081 261.423 8.27928 262.524 8.68341C263.632 9.07911 264.6 9.68097 265.426 10.489C266.26 11.297 266.912 12.3156 267.38 13.5448C267.848 14.7656 268.087 16.1973 268.097 17.8398L268.105 19.3106L251.801 19.4073L251.782 16.0887L263.045 16.0219C263.04 15.2508 262.869 14.5688 262.53 13.9758C262.191 13.3828 261.723 12.9204 261.126 12.5888C260.538 12.2486 259.854 12.0809 259.074 12.0855C258.261 12.0903 257.542 12.2832 256.915 12.664C256.297 13.0364 255.814 13.538 255.466 14.1686C255.118 14.7908 254.942 15.4833 254.938 16.246L254.957 19.4012C254.962 20.3566 255.143 21.181 255.499 21.8745C255.864 22.5679 256.374 23.1013 257.03 23.4745C257.686 23.8477 258.462 24.0317 259.359 24.0264C259.954 24.0229 260.498 23.9358 260.992 23.7653C261.485 23.5947 261.907 23.3408 262.257 23.0035C262.607 22.6662 262.872 22.254 263.054 21.7668L268.009 22.0642C267.764 23.2558 267.255 24.298 266.481 25.191C265.715 26.0755 264.722 26.7686 263.501 27.2703C262.289 27.7636 260.887 28.0149 259.295 28.0244Z" fill="white"/>
<path d="M61.4541 55.4344L61.3732 41.7931L66.7551 41.7611C67.7897 41.755 68.6723 41.9474 69.4029 42.3382C70.1335 42.7247 70.6918 43.2654 71.0778 43.9603C71.4683 44.6507 71.6662 45.4488 71.6715 46.3547C71.6769 47.2606 71.4863 48.061 71.0996 48.7561C70.713 49.4511 70.15 49.994 69.4107 50.3847C68.6759 50.7754 67.7845 50.9739 66.7365 50.9801L63.3062 51.0004L63.2925 48.6892L66.2566 48.6716C66.8116 48.6683 67.2684 48.5701 67.627 48.377C67.9899 48.1795 68.2592 47.9092 68.4348 47.5662C68.6148 47.2188 68.7035 46.8208 68.7008 46.3723C68.6981 45.9194 68.6048 45.5247 68.4207 45.1883C68.241 44.8475 67.9686 44.5849 67.6034 44.4005C67.2381 44.2117 66.7757 44.119 66.2162 44.1223L64.2713 44.1339L64.3382 55.4172L61.4541 55.4344Z" fill="white"/>
<path d="M73.5984 55.3623L73.5174 41.721L78.8994 41.6891C79.9296 41.683 80.8099 41.862 81.5403 42.2263C82.2752 42.586 82.8355 43.1 83.2214 43.7683C83.6117 44.4321 83.8095 45.2147 83.8148 46.1161C83.8202 47.022 83.6294 47.8025 83.2425 48.4575C82.8556 49.1082 82.2924 49.6089 81.5529 49.9596C80.8178 50.3104 79.9263 50.4888 78.8783 50.4951L75.2749 50.5164L75.2611 48.1985L78.3983 48.1799C78.949 48.1766 79.4059 48.0984 79.7691 47.9453C80.1323 47.7921 80.4019 47.564 80.5777 47.261C80.758 46.958 80.8468 46.5822 80.8441 46.1337C80.8414 45.6808 80.7481 45.2995 80.5642 44.9897C80.3848 44.6799 80.1103 44.4462 79.7408 44.2885C79.3757 44.1264 78.9156 44.047 78.3605 44.0503L76.4156 44.0618L76.4825 55.3452L73.5984 55.3623ZM80.9284 49.1107L84.3556 55.2984L81.1717 55.3173L77.8178 49.1292L80.9284 49.1107Z" fill="white"/>
<path d="M98.4026 48.3942C98.4115 49.8818 98.137 51.149 97.5792 52.1959C97.0259 53.2427 96.2669 54.0443 95.3021 54.6007C94.3418 55.1526 93.2599 55.4321 92.0565 55.4393C90.8443 55.4465 89.7547 55.1776 88.7878 54.6327C87.821 54.0878 87.0547 53.2952 86.489 52.255C85.9233 51.2148 85.6361 49.9532 85.6273 48.47C85.6184 46.9824 85.8907 45.7152 86.444 44.6684C86.9973 43.6216 87.7541 42.8222 88.7145 42.2703C89.6748 41.7139 90.7611 41.4322 91.9734 41.425C93.1767 41.4178 94.2619 41.6867 95.2287 42.2316C96.2 42.7721 96.9685 43.5624 97.5342 44.6026C98.1043 45.6428 98.3938 46.9066 98.4026 48.3942ZM95.4786 48.4116C95.4728 47.448 95.3237 46.6362 95.0311 45.9763C94.743 45.3163 94.3382 44.8169 93.8166 44.4781C93.295 44.1393 92.6857 43.9719 91.9885 43.9761C91.2913 43.9802 90.684 44.1548 90.1665 44.4998C89.649 44.8448 89.2479 45.3489 88.9632 46.0123C88.6829 46.6756 88.5456 47.4891 88.5513 48.4527C88.5571 49.4163 88.704 50.228 88.9921 50.888C89.2847 51.5479 89.6917 52.0473 90.2133 52.3861C90.7349 52.725 91.3442 52.8923 92.0414 52.8882C92.7386 52.884 93.3459 52.7095 93.8634 52.3645C94.3809 52.0195 94.7798 51.5153 95.0601 50.852C95.3448 50.1886 95.4843 49.3752 95.4786 48.4116Z" fill="white"/>
<path d="M99.3704 43.9456L99.3563 41.5677L110.56 41.5012L110.574 43.8791L106.398 43.9039L106.464 55.1673L103.614 55.1842L103.547 43.9208L99.3704 43.9456Z" fill="white"/>
<path d="M124.358 48.2402C124.367 49.7278 124.092 50.995 123.535 52.0419C122.981 53.0887 122.222 53.8903 121.258 54.4467C120.297 54.9986 119.215 55.2781 118.012 55.2852C116.8 55.2924 115.71 55.0236 114.743 54.4787C113.776 53.9338 113.01 53.1412 112.444 52.101C111.879 51.0608 111.591 49.7991 111.583 48.316C111.574 46.8284 111.846 45.5612 112.399 44.5144C112.953 43.4675 113.71 42.6682 114.67 42.1163C115.63 41.5599 116.717 41.2781 117.929 41.2709C119.132 41.2638 120.217 41.5327 121.184 42.0776C122.155 42.618 122.924 43.4084 123.49 44.4486C124.06 45.4887 124.349 46.7526 124.358 48.2402ZM121.434 48.2575C121.428 47.2939 121.279 46.4822 120.987 45.8223C120.698 45.1623 120.294 44.6629 119.772 44.3241C119.25 43.9852 118.641 43.8179 117.944 43.822C117.247 43.8262 116.639 44.0007 116.122 44.3457C115.604 44.6907 115.203 45.1949 114.919 45.8583C114.638 46.5216 114.501 47.3351 114.507 48.2986C114.512 49.2622 114.659 50.074 114.947 50.734C115.24 51.3939 115.647 51.8933 116.169 52.2321C116.69 52.5709 117.3 52.7383 117.997 52.7342C118.694 52.73 119.301 52.5554 119.819 52.2104C120.336 51.8654 120.735 51.3613 121.015 50.698C121.3 50.0346 121.44 49.2211 121.434 48.2575Z" fill="white"/>
<path d="M138.518 46.1112L135.601 46.1285C135.545 45.7514 135.435 45.4168 135.269 45.1247C135.103 44.8282 134.89 44.5763 134.631 44.3691C134.373 44.1619 134.074 44.0039 133.736 43.8948C133.402 43.7858 133.04 43.7324 132.649 43.7348C131.943 43.739 131.329 43.918 130.807 44.2719C130.285 44.6214 129.882 45.13 129.597 45.7978C129.313 46.4612 129.173 47.2657 129.179 48.2116C129.185 49.1841 129.334 50.0003 129.626 50.6602C129.923 51.3201 130.335 51.8172 130.861 52.1516C131.387 52.486 131.994 52.6511 132.682 52.647C133.068 52.6447 133.426 52.5915 133.754 52.4874C134.086 52.3833 134.38 52.2328 134.637 52.0359C134.893 51.8346 135.105 51.5913 135.272 51.3061C135.443 51.0209 135.561 50.696 135.626 50.3315L138.543 50.3275C138.472 50.9541 138.286 51.5591 137.988 52.1426C137.694 52.7216 137.295 53.2413 136.792 53.7017C136.293 54.1576 135.695 54.5209 135 54.7914C134.308 55.0575 133.525 55.1932 132.651 55.1984C131.434 55.2056 130.344 54.9367 129.382 54.3918C128.424 53.8468 127.664 53.0542 127.103 52.014C126.546 50.9738 126.263 49.7121 126.255 48.2289C126.246 46.7414 126.518 45.4741 127.071 44.4273C127.625 43.3805 128.379 42.5811 129.335 42.0292C130.291 41.4729 131.369 41.1912 132.568 41.1841C133.358 41.1794 134.091 41.2861 134.768 41.5041C135.448 41.7221 136.052 42.0427 136.578 42.4658C137.105 42.8846 137.534 43.3994 137.866 44.0102C138.203 44.621 138.42 45.3214 138.518 46.1112Z" fill="white"/>
<path d="M153.134 48.0694C153.143 49.557 152.869 50.8242 152.311 51.8711C151.758 52.9179 150.999 53.7195 150.034 54.2759C149.073 54.8278 147.992 55.1073 146.788 55.1145C145.576 55.1217 144.486 54.8528 143.519 54.3079C142.553 53.763 141.786 52.9704 141.221 51.9302C140.655 50.89 140.368 49.6284 140.359 48.1452C140.35 46.6577 140.622 45.3905 141.176 44.3436C141.729 43.2968 142.486 42.4974 143.446 41.9455C144.406 41.3891 145.493 41.1074 146.705 41.1002C147.908 41.093 148.994 41.3619 149.96 41.9068C150.932 42.4473 151.7 43.2376 152.266 44.2778C152.836 45.318 153.125 46.5818 153.134 48.0694ZM150.21 48.0868C150.204 47.1232 150.055 46.3114 149.763 45.6515C149.475 44.9915 149.07 44.4922 148.548 44.1533C148.027 43.8145 147.417 43.6471 146.72 43.6513C146.023 43.6554 145.416 43.83 144.898 44.175C144.381 44.52 143.98 45.0242 143.695 45.6875C143.415 46.3508 143.277 47.1643 143.283 48.1279C143.289 49.0915 143.436 49.9032 143.724 50.5632C144.016 51.2231 144.423 51.7225 144.945 52.0613C145.467 52.4002 146.076 52.5675 146.773 52.5634C147.47 52.5593 148.078 52.3847 148.595 52.0397C149.113 51.6947 149.511 51.1905 149.792 50.5272C150.076 49.8638 150.216 49.0504 150.21 48.0868Z" fill="white"/>
<path d="M155.311 54.8774L155.23 41.2361L158.114 41.219L158.181 52.4824L164.029 52.4477L164.043 54.8256L155.311 54.8774Z" fill="white"/>
<defs>
<linearGradient id="paint0_linear_169_1000" x1="4.76127" y1="-0.187095" x2="43.9171" y2="43.5949" gradientUnits="userSpaceOnUse">
<stop stop-color="#5F36FF"/>
<stop offset="1" stop-color="#08FF42"/>
</linearGradient>
</defs>
</svg>
