<svg width="191" height="40" viewBox="0 0 191 40" fill="none" xmlns="http://www.w3.org/2000/svg">
<path fill-rule="evenodd" clip-rule="evenodd" d="M25.9877 18.2721L24.2072 20.0772L26.7709 22.6092C28.2735 24.0935 29.125 26.1139 29.1382 28.226C29.1513 30.338 28.3251 32.3689 26.8411 33.8718L20.7796 40L11.0696 30.4071L11.063 30.4137L2.43003 21.8827L2.46273 21.8496C2.26122 21.6948 2.06969 21.5274 1.88929 21.3485C1.29574 20.7648 0.823311 20.0697 0.499116 19.303C0.174921 18.5363 0.00534522 17.7132 0.000124344 16.8808C-0.00509654 16.0483 0.15414 15.2231 0.468692 14.4524C0.783244 13.6817 1.24692 12.9807 1.8331 12.3897L10.827 3.29043C11.8046 2.26855 12.9758 1.45143 14.2724 0.886696C15.569 0.321962 16.965 0.0208995 18.379 0.00105001C19.7931 -0.0187995 21.197 0.242958 22.5089 0.771077C23.8208 1.2992 25.0145 2.08312 26.0204 3.07716C27.0264 4.0712 27.8244 5.25549 28.3681 6.56103C28.9118 7.86657 29.1902 9.26725 29.1871 10.6815C29.1841 12.0957 28.8996 13.4951 28.3504 14.7983C27.8011 16.1015 26.9979 17.2824 25.9877 18.2721ZM9.0512 22.5602C9.70932 22.2469 10.3137 21.8197 10.834 21.2923L15.6453 16.4213C16.0481 16.0177 16.5939 15.7895 17.1641 15.7862C17.7342 15.7829 18.2827 16.0048 18.6901 16.4038L18.8235 16.5407C19.2289 16.9409 19.4588 17.4856 19.4627 18.0552C19.4667 18.6248 19.2443 19.1727 18.8446 19.5785L13.928 24.5689L16.8885 27.4872L21.2783 23.0412L23.842 25.5768C24.1965 25.9266 24.4786 26.3429 24.672 26.8019C24.8655 27.2608 24.9666 27.7535 24.9695 28.2515C24.9725 28.7496 24.8772 29.2433 24.6891 29.7045C24.5011 30.1658 24.224 30.5854 23.8736 30.9394L20.748 34.1001L12.6707 26.1L12.6522 26.1187L9.0512 22.5602ZM21.7559 13.5591C22.2784 14.0735 22.7074 14.6748 23.0237 15.3361C23.6221 14.7304 24.0953 14.0127 24.4163 13.224C24.7374 12.4354 24.8999 11.5912 24.8947 10.7398C24.8895 9.8883 24.7166 9.04619 24.3859 8.26154C24.0553 7.47688 23.5733 6.76504 22.9675 6.16665C22.3618 5.56827 21.6441 5.09505 20.8554 4.77403C20.0668 4.45301 19.2226 4.29047 18.3711 4.29568C17.5197 4.3009 16.6776 4.47378 15.8929 4.80444C15.1083 5.1351 14.3964 5.61707 13.798 6.22284L4.80063 15.3081C4.40067 15.7141 4.17834 16.2623 4.18254 16.8322C4.1818 17.115 4.23801 17.3951 4.34782 17.6558C4.45763 17.9164 4.61879 18.1523 4.8217 18.3493C5.22589 18.7523 5.77335 18.9786 6.34409 18.9786C6.91484 18.9786 7.4623 18.7523 7.86649 18.3493L12.6778 13.4784C13.2614 12.8872 13.9558 12.4168 14.7213 12.0941C15.4869 11.7715 16.3085 11.6029 17.1392 11.598C17.9699 11.5931 18.7935 11.752 19.5628 12.0656C20.332 12.3792 21.0319 12.8414 21.6225 13.4257L21.7559 13.5591Z" fill="url(#paint0_linear_127_2011)"/>
<path d="M43.3502 20.5863L43.2411 2.19719L50.4962 2.15413C51.8909 2.14586 53.0807 2.40518 54.0656 2.93212C55.0504 3.45306 55.803 4.18191 56.3234 5.11866C56.8497 6.04939 57.1165 7.12534 57.1238 8.34649C57.131 9.56764 56.874 10.6467 56.3528 11.5836C55.8316 12.5206 55.0727 13.2524 54.0761 13.7791C53.0855 14.3058 51.8839 14.5733 50.4711 14.5817L45.8469 14.6092L45.8284 11.4934L49.8241 11.4697C50.5724 11.4653 51.1882 11.3329 51.6715 11.0727C52.1608 10.8064 52.5238 10.442 52.7605 9.97969C53.0032 9.51132 53.1227 8.97484 53.1191 8.37025C53.1155 7.75967 52.9896 7.22765 52.7415 6.77416C52.4993 6.31466 52.1321 5.96066 51.6397 5.71216C51.1473 5.45767 50.524 5.33267 49.7698 5.33714L47.1479 5.3527L47.2382 20.5632L43.3502 20.5863Z" fill="white"/>
<path d="M59.6495 20.4896L59.5676 6.69774L63.276 6.67573L63.2902 9.08212L63.4339 9.08127C63.6802 8.22377 64.0984 7.57478 64.6884 7.13428C65.2784 6.6878 65.9595 6.46226 66.7317 6.45768C66.9233 6.45654 67.1299 6.46729 67.3515 6.48992C67.5731 6.51255 67.7679 6.54432 67.9357 6.58523L67.9559 9.97931C67.776 9.9265 67.5272 9.88009 67.2097 9.84007C66.8922 9.80005 66.6018 9.78082 66.3384 9.78238C65.7757 9.78572 65.2736 9.91142 64.8321 10.1595C64.3965 10.4015 64.0513 10.7388 63.7965 11.1713C63.5476 11.6038 63.4249 12.1014 63.4282 12.6641L63.4745 20.4669L59.6495 20.4896Z" fill="white"/>
<path d="M69.9956 20.4282L69.9137 6.63634L73.7388 6.61364L73.8206 20.4055L69.9956 20.4282ZM71.8247 4.84709C71.256 4.85046 70.767 4.6648 70.3577 4.29009C69.9544 3.90937 69.7512 3.45263 69.748 2.91987C69.7449 2.3931 69.9427 1.93996 70.3415 1.56046C70.7463 1.17494 71.2331 0.98049 71.8017 0.977116C72.3704 0.973741 72.8564 1.16242 73.2597 1.54314C73.669 1.91785 73.8752 2.36859 73.8784 2.89536C73.8815 3.42811 73.6807 3.88725 73.2759 4.27278C72.8771 4.65228 72.3934 4.84371 71.8247 4.84709Z" fill="white"/>
<path d="M89.6609 6.51916L84.921 20.3396L80.6111 20.3652L75.7075 6.60196L79.748 6.57798L82.6709 16.429L82.8146 16.4281L85.6114 6.54319L89.6609 6.51916Z" fill="white"/>
<path d="M97.5427 20.5341C96.124 20.5425 94.9011 20.2624 93.8741 19.6938C92.853 19.1192 92.064 18.3038 91.507 17.2475C90.9499 16.1853 90.6671 14.9269 90.6585 13.4723C90.6501 12.0536 90.918 10.8068 91.4624 9.73206C92.0067 8.6573 92.777 7.81764 93.7731 7.21311C94.7752 6.60854 95.9527 6.30224 97.3055 6.29421C98.2154 6.28881 99.0633 6.43044 99.8492 6.7191C100.641 7.00174 101.332 7.43165 101.922 8.00881C102.518 8.58594 102.983 9.3135 103.318 10.1915C103.652 11.0635 103.823 12.0861 103.83 13.2594L103.836 14.3099L92.1903 14.3791L92.1763 12.0086L100.222 11.9608C100.218 11.4101 100.096 10.923 99.8537 10.4994C99.6117 10.0758 99.2775 9.74555 98.8511 9.50863C98.4306 9.26569 97.942 9.14587 97.3853 9.14918C96.8047 9.15262 96.2907 9.29036 95.8433 9.5624C95.4019 9.82841 95.0568 10.1866 94.8081 10.6371C94.5593 11.0815 94.4335 11.5762 94.4308 12.1209L94.4441 14.3747C94.4482 15.0571 94.5774 15.6459 94.8318 16.1413C95.0921 16.6366 95.4565 17.0176 95.925 17.2842C96.3936 17.5508 96.9481 17.6822 97.5886 17.6784C98.0136 17.6758 98.4023 17.6137 98.7548 17.4919C99.1072 17.37 99.4085 17.1887 99.6585 16.9477C99.9085 16.7068 100.098 16.4124 100.228 16.0644L103.767 16.2768C103.593 17.1279 103.229 17.8724 102.676 18.5102C102.129 19.142 101.419 19.6371 100.548 19.9954C99.6816 20.3478 98.68 20.5273 97.5427 20.5341Z" fill="white"/>
<path d="M116.337 7.05227C116.261 6.32838 115.95 5.76753 115.402 5.36969C114.855 4.97186 114.115 4.77572 113.181 4.78126C112.547 4.78502 112.011 4.87799 111.575 5.06017C111.139 5.23636 110.806 5.48078 110.574 5.79344C110.348 6.10606 110.237 6.45991 110.239 6.85499C110.229 7.1843 110.3 7.47122 110.451 7.71576C110.608 7.96026 110.822 8.1715 111.092 8.34949C111.362 8.52148 111.675 8.67228 112.029 8.80188C112.383 8.92549 112.76 9.031 113.162 9.11841L114.816 9.50368C115.62 9.6785 116.357 9.91358 117.029 10.2089C117.702 10.5042 118.285 10.8689 118.778 11.303C119.271 11.7371 119.655 12.2496 119.927 12.8406C120.206 13.4316 120.351 14.1102 120.362 14.8764C120.362 16.0018 120.081 16.9792 119.517 17.8086C118.959 18.6321 118.149 19.2744 117.086 19.7357C116.029 20.1909 114.752 20.423 113.256 20.4319C111.771 20.4407 110.477 20.2209 109.373 19.7725C108.275 19.324 107.415 18.6557 106.793 17.7674C106.177 16.8731 105.85 15.7646 105.812 14.4419L109.575 14.4196C109.62 15.0359 109.8 15.5496 110.114 15.9608C110.433 16.366 110.857 16.6718 111.385 16.8781C111.919 17.0785 112.521 17.1767 113.192 17.1727C113.85 17.1688 114.421 17.0696 114.905 16.8752C115.395 16.6808 115.773 16.4121 116.041 16.0693C116.308 15.7265 116.44 15.3336 116.438 14.8907C116.435 14.4776 116.31 14.1312 116.063 13.8513C115.822 13.5714 115.468 13.334 115 13.1392C114.537 12.9444 113.971 12.7682 113.299 12.6106L111.294 12.1196C109.741 11.7517 108.514 11.1693 107.611 10.3725C106.708 9.57574 106.256 8.49791 106.254 7.13904C106.241 6.02568 106.532 5.05119 107.126 4.21558C107.725 3.37993 108.55 2.72552 109.601 2.25236C110.652 1.7792 111.848 1.53864 113.189 1.53068C114.554 1.52258 115.746 1.74897 116.767 2.20984C117.793 2.67068 118.593 3.31544 119.166 4.14412C119.74 4.97281 120.039 5.93482 120.064 7.03016L116.337 7.05227Z" fill="white"/>
<path d="M129.223 20.3461C127.804 20.3545 126.581 20.0744 125.554 19.5058C124.533 18.9312 123.744 18.1158 123.187 17.0595C122.63 15.9973 122.347 14.7389 122.339 13.2843C122.33 11.8656 122.598 10.6188 123.143 9.54407C123.687 8.4693 124.457 7.62965 125.453 7.02511C126.456 6.42054 127.633 6.11424 128.986 6.10621C129.896 6.10081 130.744 6.24244 131.53 6.53111C132.321 6.81375 133.012 7.24365 133.602 7.82081C134.199 8.39794 134.664 9.1255 134.998 10.0035C135.333 10.8755 135.503 11.8981 135.51 13.0714L135.517 14.122L123.871 14.1911L123.857 11.8206L131.902 11.7728C131.899 11.2221 131.776 10.735 131.534 10.3114C131.292 9.88781 130.958 9.55755 130.531 9.32063C130.111 9.07769 129.622 8.95787 129.066 8.96118C128.485 8.96462 127.971 9.10236 127.524 9.3744C127.082 9.64041 126.737 9.99864 126.488 10.4491C126.24 10.8935 126.114 11.3882 126.111 11.9329L126.124 14.1867C126.129 14.8691 126.258 15.458 126.512 15.9533C126.772 16.4486 127.137 16.8296 127.605 17.0962C128.074 17.3628 128.628 17.4942 129.269 17.4904C129.694 17.4878 130.083 17.4257 130.435 17.3039C130.788 17.182 131.089 17.0007 131.339 16.7597C131.589 16.5188 131.779 16.2244 131.908 15.8764L135.447 16.0888C135.273 16.9399 134.909 17.6844 134.356 18.3222C133.809 18.954 133.1 19.4491 132.228 19.8074C131.362 20.1598 130.36 20.3393 129.223 20.3461Z" fill="white"/>
<path d="M144.281 20.2567C142.868 20.2651 141.651 19.973 140.63 19.3805C139.615 18.7819 138.832 17.9484 138.281 16.8802C137.735 15.8119 137.459 14.5803 137.451 13.1856C137.442 11.7729 137.707 10.5322 138.246 9.46342C138.79 8.38865 139.566 7.54897 140.574 6.94436C141.582 6.33377 142.784 6.02433 144.178 6.01606C145.382 6.00892 146.436 6.22115 147.343 6.65277C148.249 7.08439 148.968 7.69371 149.5 8.48074C150.031 9.26777 150.327 10.1939 150.387 11.2591L146.778 11.2805C146.672 10.5927 146.399 10.0406 145.96 9.62417C145.526 9.20172 144.959 8.99257 144.259 8.99673C143.666 9.00024 143.149 9.16494 142.708 9.49082C142.273 9.81067 141.935 10.2766 141.693 10.8886C141.451 11.5007 141.333 12.2407 141.338 13.1087C141.343 13.9886 141.467 14.7361 141.711 15.3513C141.96 15.9664 142.307 16.4343 142.752 16.7549C143.196 17.0755 143.715 17.234 144.308 17.2305C144.745 17.2279 145.136 17.1358 145.482 16.9542C145.835 16.7725 146.123 16.5104 146.349 16.1678C146.58 15.8192 146.73 15.4023 146.799 14.917L150.409 14.8956C150.355 15.9495 150.073 16.879 149.563 17.6842C149.059 18.4834 148.36 19.1101 147.464 19.5644C146.569 20.0187 145.508 20.2494 144.281 20.2567Z" fill="white"/>
<path d="M161.697 14.0115L161.65 6.09196L165.476 6.06926L165.557 19.8611L161.885 19.8829L161.87 17.3777L161.726 17.3786C161.42 18.1885 160.906 18.8411 160.185 19.3362C159.469 19.8314 158.594 20.082 157.558 20.0881C156.636 20.0936 155.824 19.8889 155.121 19.474C154.418 19.0592 153.867 18.4668 153.467 17.697C153.074 16.9271 152.871 16.0034 152.858 14.926L152.806 6.14444L156.631 6.12175L156.679 14.2209C156.69 15.0349 156.912 15.6771 157.346 16.1475C157.78 16.6178 158.359 16.8508 159.083 16.8465C159.544 16.8438 159.975 16.7365 160.374 16.5246C160.774 16.3067 161.096 15.9875 161.339 15.567C161.587 15.1465 161.707 14.628 161.697 14.0115Z" fill="white"/>
<path d="M168.617 19.8429L168.535 6.05111L172.244 6.0291L172.258 8.43549L172.401 8.43463C172.648 7.57714 173.066 6.92814 173.656 6.48765C174.246 6.04116 174.927 5.81563 175.699 5.81105C175.891 5.80991 176.097 5.82066 176.319 5.84329C176.541 5.86592 176.735 5.89768 176.903 5.93859L176.923 9.33267C176.744 9.27986 176.495 9.23345 176.177 9.19343C175.86 9.15341 175.569 9.13418 175.306 9.13575C174.743 9.13909 174.241 9.26478 173.8 9.51284C173.364 9.75487 173.019 10.0922 172.764 10.5247C172.515 10.9572 172.392 11.4547 172.396 12.0174L172.442 19.8202L168.617 19.8429Z" fill="white"/>
<path d="M184.608 20.0174C183.189 20.0258 181.966 19.7458 180.939 19.1772C179.918 18.6026 179.129 17.7871 178.572 16.7309C178.015 15.6686 177.732 14.4102 177.724 12.9556C177.715 11.5369 177.983 10.2902 178.528 9.2154C179.072 8.14063 179.842 7.30098 180.838 6.69644C181.841 6.09187 183.018 5.78557 184.371 5.77755C185.281 5.77215 186.129 5.91378 186.915 6.20244C187.706 6.48508 188.397 6.91498 188.987 7.49215C189.584 8.06928 190.049 8.79684 190.383 9.67483C190.718 10.5468 190.888 11.5695 190.895 12.7427L190.902 13.7933L179.256 13.8624L179.242 11.4919L187.287 11.4442C187.284 10.8935 187.161 10.4063 186.919 9.98273C186.677 9.55914 186.343 9.22889 185.916 8.99197C185.496 8.74903 185.007 8.62921 184.451 8.63251C183.87 8.63596 183.356 8.7737 182.909 9.04573C182.467 9.31175 182.122 9.66998 181.873 10.1204C181.625 10.5649 181.499 11.0595 181.496 11.6043L181.51 13.858C181.514 14.5404 181.643 15.1293 181.897 15.6246C182.157 16.1199 182.522 16.5009 182.99 16.7675C183.459 17.0341 184.013 17.1655 184.654 17.1617C185.079 17.1592 185.468 17.097 185.82 16.9752C186.173 16.8534 186.474 16.672 186.724 16.4311C186.974 16.1901 187.164 15.8957 187.293 15.5477L190.832 15.7602C190.658 16.6113 190.294 17.3557 189.741 17.9935C189.194 18.6253 188.485 19.1204 187.613 19.4788C186.747 19.8311 185.745 20.0107 184.608 20.0174Z" fill="white"/>
<path d="M43.2935 39.596L43.2357 29.8522L47.0799 29.8294C47.8189 29.825 48.4493 29.9624 48.9712 30.2416C49.493 30.5177 49.8918 30.9038 50.1675 31.4002C50.4464 31.8934 50.5878 32.4635 50.5916 33.1105C50.5955 33.7576 50.4593 34.3293 50.1831 34.8258C49.9069 35.3222 49.5048 35.71 48.9768 35.9891C48.4519 36.2682 47.8152 36.4099 47.0666 36.4144L44.6164 36.4289L44.6066 34.778L46.7238 34.7654C47.1203 34.7631 47.4465 34.6929 47.7027 34.555C47.9619 34.4139 48.1543 34.2209 48.2797 33.9759C48.4083 33.7277 48.4716 33.4435 48.4697 33.1231C48.4678 32.7996 48.4011 32.5177 48.2696 32.2774C48.1413 32.0339 47.9467 31.8463 47.6858 31.7147C47.4249 31.5798 47.0946 31.5136 46.695 31.516L45.3057 31.5242L45.3536 39.5838L43.2935 39.596Z" fill="white"/>
<path d="M51.968 39.5445L51.9101 29.8007L55.7544 29.7779C56.4902 29.7736 57.119 29.9015 57.6407 30.1616C58.1656 30.4186 58.5659 30.7858 58.8415 31.2631C59.1203 31.7372 59.2616 32.2962 59.2654 32.9401C59.2692 33.5871 59.133 34.1446 58.8566 34.6125C58.5803 35.0773 58.178 35.4349 57.6497 35.6855C57.1247 35.936 56.4879 36.0635 55.7393 36.0679L53.1654 36.0832L53.1556 34.4275L55.3965 34.4142C55.7898 34.4119 56.1162 34.356 56.3756 34.2466C56.6351 34.1372 56.8276 33.9743 56.9532 33.7579C57.0819 33.5414 57.1454 33.273 57.1435 32.9527C57.1415 32.6292 57.0749 32.3568 56.9435 32.1355C56.8154 31.9143 56.6193 31.7473 56.3554 31.6347C56.0946 31.5189 55.7659 31.4621 55.3695 31.4645L53.9802 31.4727L54.028 39.5323L51.968 39.5445ZM57.2037 35.0791L59.6516 39.4989L57.3775 39.5124L54.9818 35.0923L57.2037 35.0791Z" fill="white"/>
<path d="M69.6853 34.5673C69.6916 35.6299 69.4955 36.535 69.0971 37.2828C68.7019 38.0305 68.1597 38.6031 67.4706 39.0005C66.7847 39.3947 66.0119 39.5944 65.1523 39.5995C64.2864 39.6046 63.5082 39.4126 62.8176 39.0234C62.1269 38.6341 61.5796 38.068 61.1755 37.325C60.7715 36.582 60.5663 35.6808 60.56 34.6215C60.5537 33.5589 60.7482 32.6538 61.1434 31.906C61.5386 31.1583 62.0792 30.5873 62.7652 30.1931C63.4511 29.7957 64.227 29.5944 65.0929 29.5893C65.9525 29.5842 66.7276 29.7762 67.4182 30.1655C68.112 30.5515 68.6609 31.116 69.065 31.859C69.4722 32.602 69.679 33.5048 69.6853 34.5673ZM67.5966 34.5797C67.5926 33.8914 67.486 33.3116 67.2771 32.8402C67.0713 32.3688 66.7821 32.0121 66.4095 31.7701C66.037 31.5281 65.6017 31.4085 65.1037 31.4115C64.6058 31.4144 64.172 31.5391 63.8023 31.7856C63.4327 32.032 63.1462 32.3921 62.9428 32.8659C62.7426 33.3397 62.6445 33.9208 62.6486 34.6091C62.6527 35.2973 62.7577 35.8772 62.9635 36.3486C63.1724 36.82 63.4632 37.1767 63.8357 37.4187C64.2083 37.6607 64.6436 37.7802 65.1415 37.7773C65.6395 37.7743 66.0733 37.6496 66.443 37.4032C66.8126 37.1568 67.0975 36.7967 67.2977 36.3229C67.5011 35.849 67.6007 35.268 67.5966 34.5797Z" fill="white"/>
<path d="M70.3765 31.3897L70.3664 29.6912L78.3689 29.6437L78.379 31.3422L75.3959 31.3599L75.4436 39.4052L73.4073 39.4173L73.3596 31.372L70.3765 31.3897Z" fill="white"/>
<path d="M88.2248 34.4573C88.2312 35.5198 88.0351 36.425 87.6367 37.1728C87.2415 37.9205 86.6993 38.4931 86.0102 38.8905C85.3242 39.2847 84.5515 39.4844 83.6919 39.4895C82.826 39.4946 82.0478 39.3026 81.3571 38.9134C80.6665 38.5241 80.1192 37.958 79.7151 37.215C79.311 36.472 79.1059 35.5708 79.0996 34.5114C79.0933 33.4489 79.2877 32.5437 79.683 31.796C80.0782 31.0483 80.6188 30.4773 81.3047 30.0831C81.9907 29.6857 82.7666 29.4844 83.6325 29.4793C84.4921 29.4742 85.2672 29.6662 85.9578 30.0554C86.6515 30.4415 87.2005 31.006 87.6045 31.749C88.0118 32.492 88.2185 33.3947 88.2248 34.4573ZM86.1362 34.4697C86.1321 33.7814 86.0256 33.2016 85.8166 32.7302C85.6108 32.2588 85.3217 31.9021 84.9491 31.6601C84.5766 31.418 84.1413 31.2985 83.6433 31.3015C83.1454 31.3044 82.7115 31.4291 82.3419 31.6755C81.9722 31.922 81.6857 32.2821 81.4824 32.7559C81.2822 33.2297 81.1841 33.8108 81.1882 34.4991C81.1923 35.1873 81.2972 35.7672 81.503 36.2386C81.712 36.7099 82.0028 37.0666 82.3753 37.3087C82.7479 37.5507 83.1831 37.6702 83.6811 37.6673C84.1791 37.6643 84.6129 37.5396 84.9825 37.2932C85.3522 37.0468 85.6371 36.6866 85.8373 36.2128C86.0407 35.739 86.1403 35.158 86.1362 34.4697Z" fill="white"/>
<path d="M98.3394 32.9366L96.2555 32.949C96.2158 32.6796 96.1367 32.4406 96.0181 32.2319C95.8995 32.0201 95.7478 31.8402 95.5629 31.6922C95.3781 31.5443 95.1649 31.4313 94.9233 31.3535C94.685 31.2756 94.4263 31.2375 94.1471 31.2391C93.6428 31.2421 93.2043 31.37 92.8315 31.6228C92.4587 31.8724 92.1706 32.2357 91.9673 32.7127C91.7639 33.1866 91.6642 33.7613 91.6682 34.4369C91.6724 35.1315 91.7789 35.7145 91.9879 36.1859C92.2 36.6572 92.4939 37.0123 92.8696 37.2511C93.2453 37.49 93.679 37.6079 94.1706 37.605C94.4466 37.6034 94.7017 37.5654 94.936 37.4911C95.1734 37.4167 95.3837 37.3092 95.5669 37.1685C95.75 37.0247 95.9012 36.8509 96.0205 36.6472C96.143 36.4435 96.2273 36.2115 96.2733 35.9511L98.3573 35.9482C98.306 36.3958 98.1737 36.8279 97.9605 37.2447C97.7505 37.6583 97.4656 38.0295 97.106 38.3584C96.7495 38.684 96.3228 38.9435 95.826 39.1368C95.3323 39.3268 94.773 39.4237 94.1481 39.4274C93.2791 39.4326 92.5008 39.2405 91.8134 38.8513C91.1291 38.462 90.5865 37.8959 90.1856 37.1529C89.7879 36.4098 89.5859 35.5086 89.5796 34.4493C89.5733 33.3867 89.7678 32.4816 90.163 31.7338C90.5582 30.9861 91.0972 30.4151 91.78 30.0209C92.4628 29.6235 93.2324 29.4223 94.0887 29.4172C94.6533 29.4139 95.1771 29.4901 95.6602 29.6458C96.1464 29.8015 96.5776 30.0305 96.9537 30.3328C97.3297 30.6319 97.6364 30.9996 97.8737 31.4359C98.1142 31.8722 98.2694 32.3724 98.3394 32.9366Z" fill="white"/>
<path d="M108.779 34.3353C108.786 35.3979 108.59 36.303 108.191 37.0508C107.796 37.7985 107.254 38.3711 106.565 38.7685C105.879 39.1627 105.106 39.3624 104.246 39.3675C103.38 39.3726 102.602 39.1806 101.912 38.7914C101.221 38.4022 100.674 37.836 100.27 37.093C99.8655 36.35 99.6603 35.4489 99.654 34.3895C99.6477 33.3269 99.8422 32.4218 100.237 31.674C100.633 30.9263 101.173 30.3553 101.859 29.9611C102.545 29.5637 103.321 29.3624 104.187 29.3573C105.047 29.3522 105.822 29.5443 106.512 29.9335C107.206 30.3195 107.755 30.884 108.159 31.627C108.566 32.37 108.773 33.2728 108.779 34.3353ZM106.691 34.3477C106.687 33.6594 106.58 33.0796 106.371 32.6082C106.165 32.1368 105.876 31.7801 105.504 31.5381C105.131 31.2961 104.696 31.1765 104.198 31.1795C103.7 31.1824 103.266 31.3071 102.896 31.5536C102.527 31.8 102.24 32.1601 102.037 32.634C101.837 33.1078 101.739 33.6888 101.743 34.3771C101.747 35.0654 101.852 35.6452 102.057 36.1166C102.266 36.588 102.557 36.9447 102.93 37.1867C103.302 37.4287 103.738 37.5483 104.236 37.5453C104.734 37.5423 105.167 37.4176 105.537 37.1712C105.907 36.9248 106.192 36.5647 106.392 36.0909C106.595 35.617 106.695 35.036 106.691 34.3477Z" fill="white"/>
<path d="M110.334 39.1982L110.276 29.4544L112.337 29.4422L112.384 37.4874L116.562 37.4626L116.572 39.1611L110.334 39.1982Z" fill="white"/>
<defs>
<linearGradient id="paint0_linear_127_2011" x1="2.79823" y1="-0.133639" x2="30.7667" y2="31.1392" gradientUnits="userSpaceOnUse">
<stop stop-color="#5F36FF"/>
<stop offset="1" stop-color="#08FF42"/>
</linearGradient>
</defs>
</svg>
