<svg width="150" height="140" viewBox="0 0 150 140" fill="none" xmlns="http://www.w3.org/2000/svg">
<g clip-path="url(#clip0_79_1285)">
<path d="M146.501 0L82.1573 47.4127L94.1226 19.4711L146.501 0Z" fill="#E17726"/>
<path d="M3.64986 0.0559082L55.888 19.4745L67.2493 47.7825L3.64986 0.0559082ZM120.607 100.834L149.046 101.373L139.107 134.997L104.405 125.483L120.607 100.834ZM29.3926 100.834L45.5342 125.483L10.891 134.998L1.01221 101.373L29.3926 100.834Z" fill="#E27625"/>
<path d="M65.7047 40.5721L66.8668 77.9539L32.09 76.3783L41.9822 61.5161L42.1075 61.3732L65.7047 40.5721ZM83.9351 40.155L107.892 61.3744L108.017 61.5167L117.909 76.3789L83.1396 77.9539L83.9351 40.155ZM46.5528 100.942L65.5418 115.677L43.4835 126.282L46.5528 100.942ZM103.451 100.94L106.456 126.283L84.4593 115.676L103.451 100.94Z" fill="#E27625"/>
<path d="M84.9449 114.288L107.266 125.052L86.503 134.878L86.7186 128.384L84.9449 114.288ZM65.0486 114.293L63.3447 128.277L63.4846 134.871L42.6728 125.052L65.0486 114.293Z" fill="#D5BFB2"/>
<path d="M58.603 82.8328L64.4359 95.0408L44.5771 89.2471L58.603 82.8328ZM91.3964 82.8339L105.489 89.2471L85.5647 95.039L91.3964 82.8339Z" fill="#233447"/>
<path d="M48.0705 100.817L44.8606 127.091L27.6552 101.392L48.0705 100.817ZM101.931 100.818L122.347 101.392L105.077 127.092L101.931 100.818ZM118.411 74.8923L103.554 89.9721L92.0982 84.7588L86.6137 96.2412L83.0184 76.4959L118.411 74.8923ZM31.5809 74.8923L66.981 76.4959L63.3851 96.2412L57.8995 84.7606L46.5048 89.9727L31.5809 74.8923Z" fill="#CC6228"/>
<path d="M30.5799 71.7979L47.3899 88.7852L47.9721 105.555L30.5799 71.7979ZM119.437 71.7676L102.013 105.585L102.669 88.7852L119.437 71.7676ZM66.1592 72.8327L66.8358 77.0736L68.5075 87.6383L67.4326 120.086L62.3512 94.02L62.3495 93.7505L66.1592 72.8327ZM83.832 72.7738L87.6517 93.7505L87.6499 94.02L82.5556 120.152L82.3541 113.615L81.5593 87.4458L83.832 72.7738Z" fill="#E27525"/>
<path d="M104.164 88.1101L103.595 102.681L85.8616 116.44L82.2768 113.917L86.2951 93.3053L104.164 88.1101ZM45.8979 88.1101L63.7043 93.3053L67.7226 113.917L64.1378 116.44L46.404 102.679L45.8979 88.1101Z" fill="#F5841F"/>
<path d="M39.2795 121.834L61.967 132.539L61.8709 127.967L63.7694 126.308H86.2237L88.1906 127.962L88.0454 132.53L110.589 121.861L99.6193 130.888L86.3549 139.961H63.5872L50.3316 130.851L39.2795 121.834Z" fill="#C0AC9D"/>
<path d="M83.32 112.863L86.5276 115.12L88.4073 130.055L85.6871 127.768H64.3211L61.6524 130.101L63.4706 115.121L66.6793 112.863H83.32Z" fill="#161616"/>
<path d="M142.253 1.3125L149.976 24.3874L145.153 47.719L148.588 50.3574L143.94 53.8889L147.433 56.5757L142.807 60.7705L145.647 62.8186L138.111 71.5837L107.2 62.6208L106.933 62.4779L84.6583 43.7657L142.253 1.3125ZM7.74695 1.3125L65.3418 43.7657L43.0668 62.4779L42.7991 62.6208L11.8888 71.5837L4.3525 62.8186L7.1899 60.7722L2.56712 56.5757L6.05354 53.8918L1.33587 50.3504L4.90019 47.7103L0.0231934 24.3886L7.74695 1.3125Z" fill="#763E1A"/>
<path d="M105.689 60.6609L138.44 70.157L149.08 102.816H121.009L101.667 103.058L115.733 75.7535L105.689 60.6609ZM44.3112 60.6609L34.2649 75.7535L48.333 103.058L29.0001 102.816H0.978821L11.5593 70.1576L44.3112 60.6609ZM95.7264 19.3154L86.5658 43.9548L84.6216 77.2398L83.8777 87.6728L83.8186 114.324H66.1809L66.1235 87.7229L65.3773 77.2311L63.4325 43.9548L54.2731 19.3154H95.7264Z" fill="#F5841F"/>
</g>
<defs>
<clipPath id="clip0_79_1285">
<rect width="150" height="140" fill="white"/>
</clipPath>
</defs>
</svg>
