<svg width="158" height="39" viewBox="0 0 158 39" fill="none" xmlns="http://www.w3.org/2000/svg">
<path d="M12.6274 11.81C13.0027 11.5335 13.4373 11.6125 13.8719 11.6125C15.4719 11.6125 17.0916 11.6323 18.6916 11.5927C18.9484 11.5927 19.1459 11.6125 19.304 11.6915C19.3237 11.7113 19.3435 11.7113 19.3632 11.731C19.383 11.731 19.383 11.7508 19.4027 11.7508C19.6398 11.9088 19.7188 12.1853 19.7188 12.6397C19.6793 14.6347 19.699 16.6495 19.7188 18.6446C19.7188 19.0594 19.6398 19.5137 19.9163 19.8891C22.8793 15.6224 25.862 11.336 28.825 7.06929C28.746 6.97052 28.6669 6.852 28.5682 6.77299C25.0126 4.63965 21.4373 2.58533 17.704 0.787798C17.1706 0.531007 16.6966 0.55076 16.2027 0.827304C14.662 1.63718 13.1015 2.40755 11.5805 3.25694C8.10396 5.17299 4.64717 7.1483 1.32864 9.34089C0.775556 9.69645 0.261975 10.0718 0.222469 10.8421C-0.0540747 16.6891 -0.0935809 22.536 0.222469 28.3829C0.242222 28.6792 0.222469 28.9952 0.597778 29.1138C2.57309 26.2496 4.56815 23.3854 6.54346 20.5212C8.53853 17.6174 10.5929 14.7137 12.6274 11.81Z" fill="#757B82"/>
<path d="M33.5262 10.23C29.6546 15.7609 25.783 21.2917 21.8917 26.8226C21.7139 27.0991 21.4966 27.3362 21.2991 27.6127C20.5485 27.9683 19.7583 27.7707 18.988 27.7905C17.4472 27.83 15.9262 27.8102 14.3855 27.8102C14.346 27.751 14.3065 27.6917 14.2867 27.6325C14.1484 27.2967 14.188 26.9411 14.188 26.5856C14.188 24.4917 14.188 22.3781 14.188 20.2843V19.5337C13.8126 20.0275 13.4176 20.5016 13.062 21.0152C10.4546 24.7288 7.86695 28.4226 5.2793 32.1362C5.33856 32.3732 5.51634 32.5312 5.71387 32.63C6.95831 33.3214 8.22251 34.0127 9.46696 34.7041C11.62 35.909 13.7731 37.0745 15.9065 38.3189C16.7163 38.793 17.3682 38.793 18.1781 38.3782C22.8398 35.9683 27.383 33.3214 31.9065 30.6152C33.3485 29.7461 33.9213 28.6794 33.9411 27.0399C33.9806 22.3386 34.0201 17.6374 33.8818 12.9362C33.8423 12.0275 33.9016 11.0794 33.5262 10.23Z" fill="#757B82"/>
<path d="M126.564 19.1778C127.828 18.526 128.638 17.6173 128.756 16.2544C128.973 14.0815 127.334 12.363 124.746 12.2247C122.356 12.1062 119.946 12.1852 117.556 12.1655C116.983 12.1655 116.727 12.4223 116.727 12.9951C116.727 17.4593 116.727 21.9235 116.727 26.4075C116.727 27.0791 117.062 27.2371 117.655 27.2371C119.927 27.2173 122.178 27.2371 124.45 27.2173C125.339 27.2173 126.208 27 127.018 26.605C128.124 26.0519 128.934 25.242 129.211 23.9778C129.665 21.9037 128.875 20.3828 126.564 19.1778ZM121.052 14.9111C121.961 14.9507 122.89 14.8914 123.798 14.9506C124.727 15.0099 125.299 15.6025 125.339 16.4321C125.378 17.3013 124.806 17.9926 123.877 18.0914C123.324 18.1507 122.771 18.1111 122.198 18.1111C119.848 18.1111 120.085 18.526 120.045 15.879C120.045 15.1679 120.341 14.8914 121.052 14.9111ZM124.371 24.2741C123.146 24.5704 121.882 24.3926 120.638 24.4124C120.282 24.4124 120.085 24.2149 120.085 23.8593C120.065 23.6223 120.065 23.405 120.065 23.1679C120.104 20.5013 119.749 20.9161 122.376 20.8371C123.008 20.8766 123.64 20.8371 124.233 20.9358C125.102 21.0939 125.793 21.5284 125.813 22.5358C125.852 23.5235 125.26 24.0568 124.371 24.2741Z" fill="#757B82"/>
<path d="M95.7674 12.1065C95.1155 12.146 95.0563 12.5806 94.918 13.0152C93.7526 16.8473 92.6069 20.6794 91.4217 24.63C91.0069 24.2942 91.0069 23.9386 90.9081 23.6423C89.8415 20.146 88.7748 16.6695 87.7476 13.1732C87.5303 12.4423 87.2538 12.0868 86.4242 12.0868C85.6143 12.0868 85.2785 12.3633 85.0612 13.1139C84.034 16.6695 82.9279 20.2251 81.8612 23.7806C81.7822 24.0572 81.6637 24.3337 81.4859 24.8473C80.5772 21.8646 79.7476 19.1386 78.918 16.4127C78.5427 15.188 78.1871 13.9633 77.7921 12.7386C77.6143 12.1855 76.6069 11.8695 75.876 12.1658C75.1846 12.4423 75.718 12.9164 75.8167 13.2325C77.2192 17.6176 78.7007 21.9633 80.1032 26.3485C80.3797 27.1979 80.8735 27.2177 81.5649 27.2374C82.276 27.2572 82.6118 27.0399 82.8093 26.3288C83.8365 22.8917 84.9229 19.4744 85.9896 16.0571C86.0884 15.7411 86.0884 15.3658 86.5032 15.109C87.6686 18.8818 88.8143 22.5757 89.9205 26.2893C90.118 26.9609 90.3945 27.2572 91.1254 27.2374C91.8563 27.1979 92.3698 27.1979 92.6661 26.2893C94.0291 22.0028 95.4711 17.7362 96.8736 13.4695C97.3279 12.0868 97.2291 12.0078 95.7674 12.1065Z" fill="#757B82"/>
<path d="M157.279 24.1756C156.035 22.6941 156.055 22.6743 154.415 23.6225C154.139 23.7805 153.823 23.9188 153.526 24.0373C151.511 24.7682 149.378 24.0571 148.252 22.2793C147.008 20.3435 147.284 17.657 148.884 16.0965C150.366 14.6546 152.598 14.4768 154.435 15.6027C154.948 15.9188 155.324 16.7682 155.916 16.5311C156.45 16.3138 156.766 15.5632 157.22 15.0891C157.674 14.6151 157.694 14.2793 157.161 13.8052C154.652 11.5533 150.563 11.2373 147.6 13.0743C144.716 14.8719 143.393 18.4274 144.361 21.8645C145.309 25.2422 148.193 27.4151 151.748 27.4151C153.724 27.4151 155.818 26.5855 157.22 25.3015C157.635 24.9064 157.674 24.6299 157.279 24.1756Z" fill="#757B82"/>
<path d="M58.574 13.0545C58.574 12.3236 58.3369 12.1063 57.6258 12.0866C56.8357 12.0668 56.5394 12.2841 56.5394 13.1335C56.5789 16.5508 56.5591 19.9681 56.5591 23.5039C56.0456 23.2866 55.9073 22.931 55.7098 22.6347C53.5369 19.6323 51.3641 16.6298 49.1912 13.6076C48.9147 13.2322 48.6579 12.8569 48.3814 12.5014C47.8085 11.81 47.0381 12.0866 46.3665 12.1853C45.8135 12.2643 46.0505 12.8964 46.0505 13.2915C46.0307 17.5977 46.0702 21.9039 46.0307 26.21C46.0307 27.0792 46.3468 27.2372 47.1172 27.2372C47.8678 27.2372 48.1443 27.0397 48.1246 26.2495C48.0851 23.1681 48.1048 20.0668 48.1048 16.9853C48.1048 16.6495 48.1443 16.3137 48.1641 15.6619C49.5073 17.5187 50.6727 19.1384 51.8382 20.7582C53.2406 22.694 54.6826 24.61 56.0258 26.6051C56.6382 27.5137 57.4875 27.2965 58.2184 27.1582C58.8505 27.0594 58.5542 26.3286 58.5542 25.894C58.574 21.6076 58.5345 17.3211 58.574 13.0545Z" fill="#757B82"/>
<path d="M72.0059 25.301C69.8331 25.3405 67.6602 25.301 65.5071 25.3208C64.8948 25.3208 64.5985 25.1627 64.6183 24.4911C64.6578 23.4442 64.6578 22.3973 64.6183 21.3306C64.5985 20.6788 64.8553 20.4813 65.4874 20.501C67.3639 20.5208 69.2405 20.4813 71.117 20.5208C71.8084 20.5405 72.0059 20.3035 72.0059 19.6121C72.0059 18.9208 71.8479 18.6047 71.0775 18.6245C69.28 18.664 67.4627 18.6047 65.6652 18.664C64.8158 18.6837 64.5787 18.3874 64.6183 17.5775C64.6775 16.6887 64.6775 15.7998 64.6183 14.9109C64.5787 14.18 64.796 13.9232 65.5466 13.943C67.6207 14.0022 69.6948 13.943 71.7491 13.9627C72.401 13.9627 72.8553 13.9627 72.8553 13.0541C72.8553 12.1454 72.4207 12.0664 71.7096 12.0664C69.0429 12.0862 66.3763 12.1257 63.7294 12.0467C62.7417 12.0269 62.5244 12.3825 62.5442 13.2911C62.6034 15.385 62.5639 17.4985 62.5639 19.6121C62.5639 21.785 62.6034 23.9578 62.5442 26.1306C62.5244 26.9405 62.7417 27.2171 63.5911 27.1973C66.4158 27.1578 69.2405 27.1578 72.0652 27.1973C72.7368 27.1973 73.1516 27.1381 73.1516 26.2689C73.1516 25.3603 72.7368 25.2813 72.0059 25.301Z" fill="#757B82"/>
<path d="M142.069 12.126C138.948 12.1852 135.828 12.1457 132.707 12.1457C130.85 12.1457 130.889 12.1457 130.909 13.9827C130.909 14.7729 131.205 15.0297 131.956 14.9902C132.746 14.9506 133.536 15.0297 134.326 14.9704C135.215 14.9111 135.472 15.2864 135.452 16.1358C135.413 17.7753 135.432 19.4149 135.432 21.0544C135.432 22.4568 135.432 23.8791 135.432 25.3013C135.432 27.4346 135.274 27.1976 137.329 27.2173C138.771 27.2173 138.771 27.2173 138.771 25.7358C138.771 22.5161 138.79 19.2963 138.771 16.0766C138.771 15.2864 139.028 14.9309 139.857 14.9902C140.608 15.0297 141.378 14.9309 142.129 15.0099C143.334 15.1284 143.235 14.3581 143.255 13.5679C143.255 12.7185 143.215 12.1062 142.069 12.126Z" fill="#757B82"/>
<path d="M107.443 19.4543C106.061 18.8618 104.599 18.4272 103.216 17.8543C102.011 17.3605 101.537 16.4914 101.735 15.484C101.893 14.6346 102.702 14.0815 103.907 13.963C105.349 13.8247 106.712 14.1605 107.977 14.8519C108.372 15.0692 108.767 15.3259 108.944 14.6543C109.063 14.121 109.972 13.5679 108.925 13.0148C107.581 12.3235 106.199 11.9087 104.678 11.9284C104.322 11.9482 103.967 11.9482 103.591 11.9877C102.92 12.0469 102.307 12.2247 101.695 12.5013C100.233 13.1926 99.4037 14.3383 99.3839 15.9975C99.3642 17.6568 100.174 18.842 101.656 19.4741C103.078 20.0864 104.559 20.5013 106.001 21.0741C107.147 21.5482 107.641 22.3383 107.542 23.3457C107.463 24.3136 106.752 24.9852 105.567 25.242C103.512 25.6766 101.774 24.9457 100.135 23.8C99.8975 23.642 99.6012 23.0099 99.3247 23.5432C99.0679 24.0568 98.179 24.5704 98.9296 25.321C100.984 27.3951 105.231 27.9877 107.759 26.5457C108.688 26.0124 109.34 25.2815 109.636 24.2543C110.268 22.1408 109.458 20.3235 107.443 19.4543Z" fill="#757B82"/>
</svg>
