<svg width="49" height="48" viewBox="0 0 49 48" fill="none" xmlns="http://www.w3.org/2000/svg">
<path d="M44.0883 20.135C42.5665 18.8098 40.8592 17.7791 39.0034 16.9693C38.5951 16.7853 38.3724 16.5644 38.4466 16.0491C39.0034 13.3988 39.4859 10.7485 40.0426 8.09816C40.488 5.88957 40.154 3.90184 38.6322 2.13496C37.6672 1.03067 36.4052 0.515337 35.1061 0H32.5822C30.9862 0.515337 29.5387 1.17792 28.5365 2.65031C27.7571 3.79141 27.3488 5.04295 27.3488 6.40492C27.3488 8.72393 27.3117 11.0429 27.3859 13.3252C27.3859 13.9509 27.2375 14.135 26.5694 14.0982C25.3074 14.0245 24.0454 14.0245 22.8206 14.0982C22.2267 14.135 22.1154 13.9509 22.1154 13.4356C22.1525 11.1534 22.0411 8.87117 22.1525 6.58896C22.2638 3.42332 19.9255 0.552156 17.0304 0.147248C16.9933 0.147248 16.9562 0.0368098 16.9191 0H14.3952C13.1332 0.478527 11.9084 0.993874 10.9805 1.98774C9.38445 3.75461 8.93905 5.81595 9.45868 8.09816C10.0154 10.7485 10.4979 13.3988 11.0547 16.0491C11.166 16.638 10.832 16.7853 10.3866 17.0061C7.49151 18.4049 4.96759 20.2454 2.9633 22.8221C1.88692 24.2209 1.36729 25.8773 0.810547 27.4969V34.9693C1.51576 35.9632 1.66423 37.2147 2.33232 38.2454C4.37373 41.5215 7.34304 43.6564 10.7949 45.2393C13.8384 46.638 17.1047 47.411 20.4451 47.7791C20.5936 47.7791 20.8163 47.7791 20.8534 48H21.4844C21.9669 48 22.4494 48 22.9319 48H26.4951C27.0519 48 27.6086 48 28.1654 48H28.3881C28.4252 47.7791 28.6479 47.816 28.7963 47.7791C33.3617 47.3374 37.7043 46.1227 41.6015 43.6932C44.4595 41.9264 46.8349 39.681 48.0969 36.4417C48.9506 34.3067 48.765 32.135 48.8021 29.9264C48.9506 25.8773 47.1319 22.7485 44.0883 20.135ZM18.0326 25.8405C18.478 26.6135 18.7749 27.4601 18.7749 28.3804C18.7749 29.1165 18.6264 29.8528 18.3295 30.4785C17.9212 31.2515 17.4387 32.0613 16.3623 32.0613C15.3231 32.0613 14.655 31.3988 14.2838 30.5889C13.4673 28.8957 13.6157 27.1656 14.6921 25.5828C15.5829 24.2209 17.216 24.4049 18.0326 25.8405ZM31.8028 25.2883C32.8049 24.4049 33.9184 24.4785 34.735 25.5828C35.8856 27.1656 35.9227 29.4479 34.8463 31.0675C34.0669 32.2822 32.3966 32.2822 31.5058 31.1411C30.8377 30.2577 30.615 29.3006 30.6893 28.3068C30.6522 27.1288 30.912 26.0981 31.8028 25.2883Z" fill="#7D7E81"/>
</svg>
