<svg width="312" height="48" viewBox="0 0 312 48" fill="none" xmlns="http://www.w3.org/2000/svg">
<path d="M310.796 24.9897C310.17 22.5332 308.699 20.7 306.343 19.82C301.044 17.8035 295.893 18.3168 290.925 20.9933C290.336 21.2866 290.226 21.6899 290.226 22.3132C290.262 28.8394 290.226 35.3656 290.226 41.8918C290.226 42.2585 290.262 42.6617 290.299 43.0284C290.446 44.275 290.851 44.6416 292.102 44.6416C293.353 44.6783 294.605 44.6783 295.819 44.6416C297.217 44.605 297.659 44.1283 297.659 42.7351C297.659 40.7552 297.659 38.7754 297.659 36.6122C297.733 36.6488 297.806 36.6855 297.88 36.7222C297.917 36.7588 297.953 36.7588 297.99 36.7955C298.248 36.9055 298.505 37.0155 298.763 37.1255C299.168 37.2721 299.572 37.3821 299.977 37.4555C300.198 37.4921 300.382 37.5288 300.603 37.5654H300.64C300.676 37.5654 300.676 37.5654 300.713 37.5654C300.86 37.5654 301.008 37.6021 301.118 37.6021C301.265 37.6021 301.412 37.6388 301.56 37.6388C301.596 37.6388 301.633 37.6388 301.67 37.6388C302.112 37.6388 302.553 37.6388 302.995 37.6021C306.454 37.3455 308.993 35.7689 310.391 32.5791C310.686 31.8825 310.906 31.1125 311.164 30.4159V25.8696C310.759 25.6863 310.87 25.283 310.796 24.9897ZM297.696 27.3728C297.696 26.5662 297.769 25.7963 297.659 25.0263C297.549 24.1831 298.027 23.9264 298.689 23.8531C299.499 23.7798 300.345 23.7064 301.155 23.9631C302.884 24.513 303.584 25.6863 303.584 28.1061C303.584 28.9494 303.473 29.7926 303.142 30.5993C302.553 32.0292 301.302 32.7991 299.793 32.5058C298.358 32.2492 297.696 31.3692 297.696 29.6826C297.696 28.9494 297.696 28.1428 297.696 27.3728Z" fill="#7D7E81"/>
<path d="M43.3057 20.1502C41.797 18.8303 40.1042 17.8037 38.2643 16.9971C37.8595 16.8138 37.6387 16.5938 37.7123 16.0805C38.2643 13.4407 38.7427 10.8009 39.2947 8.16107C39.7362 5.96123 39.4051 3.98136 37.8963 2.22148C36.9395 1.12156 35.6884 0.608268 34.4004 0.0949707H31.8981C30.3158 0.608268 28.8806 1.26823 27.8871 2.73479C27.1143 3.87138 26.7095 5.11796 26.7095 6.47453C26.7095 8.78437 26.6727 11.0942 26.7463 13.3674C26.7463 13.9907 26.5991 14.174 25.9367 14.1373C24.6856 14.064 23.4344 14.064 22.2201 14.1373C21.6313 14.174 21.5209 13.9907 21.5209 13.4774C21.5577 11.2042 21.4473 8.93103 21.5577 6.65785C21.6681 3.50474 19.3498 0.644941 16.4795 0.241636C16.4427 0.241636 16.4059 0.131635 16.3691 0.0949707H13.8668C12.6156 0.571604 11.4013 1.08491 10.4813 2.07484C8.89894 3.83472 8.45735 5.8879 8.97253 8.16107C9.52452 10.8009 10.0029 13.4407 10.5549 16.0805C10.6653 16.6671 10.3341 16.8138 9.8925 17.0338C7.0222 18.427 4.51989 20.2602 2.53276 22.8267C1.4656 24.2199 0.950418 25.8698 0.398438 27.483V34.9259C1.09761 35.9158 1.24481 37.1624 1.90719 38.189C3.93111 41.4521 6.87501 43.5786 10.2973 45.1552C13.3148 46.5484 16.5531 47.3184 19.865 47.685C20.0121 47.685 20.2329 47.685 20.2697 47.905H20.8953C21.3737 47.905 21.8521 47.905 22.3305 47.905H25.8631C26.4151 47.905 26.9671 47.905 27.5191 47.905H27.7399C27.7767 47.685 27.9975 47.7217 28.1447 47.685C32.6709 47.245 36.9763 46.0351 40.8402 43.6152C43.6737 41.8554 46.0288 39.6189 47.28 36.3924C48.1263 34.2659 47.9424 32.1027 47.9792 29.9029C48.1263 25.8699 46.3232 22.7534 43.3057 20.1502ZM17.473 25.8332C17.9146 26.6031 18.209 27.4464 18.209 28.363C18.209 29.0963 18.0618 29.8296 17.7674 30.4529C17.3626 31.2228 16.8843 32.0294 15.8171 32.0294C14.7867 32.0294 14.1244 31.3694 13.7564 30.5628C12.9468 28.8763 13.094 27.1531 14.1612 25.5765C15.0443 24.2199 16.6635 24.4033 17.473 25.8332ZM31.1253 25.2832C32.1189 24.4033 33.2229 24.4766 34.0324 25.5765C35.1732 27.1531 35.21 29.4263 34.1428 31.0395C33.3701 32.2494 31.7141 32.2494 30.831 31.1128C30.1686 30.2329 29.9478 29.2796 30.0214 28.2897C29.9846 27.1164 30.2422 26.0898 31.1253 25.2832Z" fill="#7D7E81"/>
<path d="M72.4129 11.9741C68.2546 11.4241 64.0228 11.7174 59.8277 11.8274C58.7974 11.8641 58.3926 12.4141 58.3926 13.5507C58.3926 17.1437 58.3926 20.7735 58.3926 24.3665C58.3926 27.9596 58.3926 31.5894 58.3926 35.1825C58.3926 36.6124 58.7606 37.0157 60.1957 37.089C61.3733 37.1257 62.5508 37.1257 63.7284 37.089C65.5315 37.089 65.9731 36.649 65.9731 34.8158C65.9731 33.2026 66.0099 31.5894 65.9731 29.9762C65.9731 29.3529 66.1203 29.1329 66.7827 29.1696C68.2914 29.2062 69.837 29.2429 71.3457 29.1329C76.3503 28.8396 79.2206 26.4198 79.6622 21.8734C80.1406 16.3371 78.0063 12.7074 72.4129 11.9741ZM69.2114 23.7799C68.3282 23.8533 67.4083 23.7799 66.5251 23.8166C66.0099 23.8532 65.9731 23.5966 65.9731 23.1933C65.9731 22.3134 65.9731 21.3968 65.9731 20.5168C65.9731 19.6736 66.0099 18.7936 65.9731 17.9503C65.9363 17.4371 66.0467 17.1804 66.6355 17.2171C67.4451 17.2537 68.2178 17.2171 69.0274 17.2537C70.9409 17.327 72.0449 18.4636 72.1185 20.3702C72.1185 22.35 71.1249 23.5966 69.2114 23.7799Z" fill="#7D7E81"/>
<path d="M232.746 24.4035C231.458 23.5969 230.096 22.9736 228.698 22.4236C227.336 21.8736 225.901 21.507 224.65 20.6637C223.84 20.1137 223.436 19.3805 223.62 18.3906C223.804 17.364 224.503 16.9607 225.459 16.7407C227.631 16.3374 229.618 16.7406 231.531 17.7306C232.856 18.4272 232.856 18.4272 233.666 17.144C234.07 16.5573 234.438 15.934 234.843 15.3474C235.579 14.2475 235.469 13.8075 234.328 13.1109C233.003 12.2676 231.531 11.791 230.023 11.5344C226.747 11.0211 223.509 10.8377 220.381 12.121C217.989 13.1109 216.407 14.7975 216.076 17.4373C215.708 20.2971 216.444 22.7169 219.057 24.3668C220.492 25.2467 222 26.0167 223.546 26.64C224.834 27.1533 226.122 27.5932 227.299 28.3265C228.072 28.8031 228.403 29.4997 228.293 30.4164C228.183 31.333 227.594 31.7729 226.784 32.0296C226.379 32.1762 225.901 32.2129 225.459 32.2496C222.957 32.3962 220.602 31.7729 218.431 30.563C217.695 30.1597 217.253 30.2331 216.849 31.003C216.37 31.883 215.781 32.6895 215.266 33.5328C214.861 34.1928 214.935 34.7794 215.634 35.1827C216.223 35.5127 216.812 35.8793 217.437 36.1726C220.087 37.3092 222.92 37.6392 225.791 37.6759C227.52 37.7125 229.25 37.6025 230.869 37.0159C233.482 36.0993 235.358 34.4494 235.763 31.6263C236.278 28.6198 235.469 26.09 232.746 24.4035Z" fill="#7D7E81"/>
<path d="M185.57 28.5832C185.054 27.9965 185.202 27.6666 185.643 27.1533C187.52 25.0635 189.36 22.9369 191.237 20.8104C191.568 20.4438 191.789 20.0771 191.605 19.6005C191.421 19.1605 190.979 19.1239 190.537 19.1239C188.734 19.1239 186.931 19.1239 185.165 19.1239C184.466 19.1239 183.95 19.3805 183.509 19.9671C182.589 21.2137 181.632 22.4236 180.712 23.6335C180.16 24.3301 179.608 25.0268 178.909 25.9067C178.909 22.8636 178.909 20.1138 178.909 17.364C178.909 16.0807 178.946 14.8342 178.909 13.5509C178.872 12.2677 178.467 11.791 177.29 11.7177C175.781 11.6444 174.272 11.681 172.764 11.7544C171.807 11.791 171.365 12.3777 171.365 13.2943C171.365 20.6637 171.365 28.0699 171.365 35.4394C171.365 36.3193 171.77 36.9059 172.69 36.9426C174.052 36.9793 175.45 37.0159 176.811 37.0159C178.431 37.0159 178.872 36.5393 178.909 34.9261C178.946 33.3129 178.909 31.6997 178.909 30.0864C178.983 30.0498 179.056 30.0131 179.13 29.9764C180.639 32.0296 182.184 34.0828 183.693 36.1727C184.098 36.7593 184.613 37.0159 185.349 37.0159C187.078 36.9792 188.808 37.0159 190.537 37.0159C191.016 37.0159 191.568 37.1259 191.825 36.6126C192.083 36.0627 191.715 35.6594 191.384 35.2561C189.397 33.0929 187.52 30.8197 185.57 28.5832Z" fill="#7D7E81"/>
<path d="M263.655 19.1603C262.147 19.1237 260.638 19.1603 259.092 19.1603C258.467 19.1603 258.099 19.4536 257.951 20.1136C257.768 21.0669 257.51 21.9835 257.289 22.9001C256.884 24.5866 256.443 26.2732 256.001 28.2164C255.339 26.4565 254.75 24.9532 254.235 23.45C253.131 20.1869 253.499 20.8469 250.15 20.7369C249.488 20.7369 249.083 20.9569 248.862 21.6535C248.089 23.78 247.28 25.8699 246.434 28.143C246.323 27.7031 246.213 27.4464 246.139 27.1898C245.587 24.8433 245.035 22.5334 244.483 20.1869C244.373 19.6003 244.115 19.197 243.49 19.1603C241.76 19.1237 240.031 19.1603 238.338 19.1603C237.786 19.1603 237.528 19.417 237.712 20.0403C239.331 25.3932 240.951 30.7829 242.57 36.1358C242.79 36.8691 243.269 37.0524 243.968 37.0524C245.035 37.0524 246.102 37.0158 247.169 37.0524C248.089 37.0891 248.568 36.7224 248.899 35.8425C249.598 33.7527 250.408 31.6994 251.254 29.4996C251.953 31.3695 252.579 33.056 253.204 34.7792C254.161 37.529 253.977 37.0524 256.443 37.0891C259.571 37.1258 259.607 37.0891 260.527 34.1193C261.926 29.573 263.287 25.0266 264.686 20.4802C264.906 19.3803 264.796 19.197 263.655 19.1603Z" fill="#7D7E81"/>
<path d="M287.134 21.7267C287.134 21.1767 286.987 20.8834 286.472 20.6268C283.307 18.8669 279.922 18.3536 276.389 18.7202C271.053 19.2702 266.895 22.35 266.49 28.0329C266.306 30.7094 266.601 33.3125 268.551 35.4391C271.311 38.4455 276.978 38.4822 280.4 35.5857C280.915 36.099 280.878 37.1623 281.946 37.1256C283.27 37.0889 284.558 37.1256 285.883 37.1256C286.729 37.1256 287.097 36.7956 287.097 35.879C287.097 31.1493 287.097 26.4564 287.134 21.7267ZM280.069 27.3363C280.069 28.1063 280.069 28.9128 280.069 29.6828C280.069 31.2593 279.333 32.2126 277.898 32.4693C276.058 32.7993 274.88 32.2493 274.255 30.746C273.408 28.6195 274.255 25.5397 275.984 24.3665C277.051 23.6332 278.229 23.6699 279.443 23.8532C279.885 23.9265 280.069 24.1465 280.032 24.6232C280.032 25.5398 280.069 26.4197 280.069 27.3363Z" fill="#7D7E81"/>
<path d="M167.208 20.48C163.932 18.7568 160.4 18.2802 156.794 18.7568C153.04 19.2701 149.986 20.92 148.33 24.513C147.226 26.8962 147.152 29.4261 147.741 31.9559C148.477 34.999 150.354 37.0155 153.518 37.4922C156.389 37.9321 159.149 37.5655 161.541 35.4756C161.761 36.9055 162.608 37.2355 163.859 37.1255C164.705 37.0522 165.588 37.1255 166.435 37.1255C167.98 37.1255 168.091 36.9788 168.091 35.5123C168.091 30.9659 168.054 26.4563 168.128 21.9099C168.128 21.14 167.833 20.81 167.208 20.48ZM161.062 27.2629C161.062 28.1428 161.099 29.0594 161.062 29.9394C160.952 31.5159 160.069 32.3592 158.413 32.4692C156.573 32.6158 155.579 31.9559 155.174 30.3793C154.806 28.9494 154.954 27.5929 155.469 26.2363C156.205 24.3298 158.449 23.2665 160.473 23.8164C160.878 23.9264 161.136 24.0731 161.099 24.5864C161.025 25.503 161.062 26.3829 161.062 27.2629Z" fill="#7D7E81"/>
<path d="M100.602 20.5168C97.1797 18.757 93.5734 18.2803 89.7831 18.8303C87.7592 19.1236 85.9193 19.8202 84.3369 21.1035C80.7306 23.9633 80.2523 27.813 81.025 31.9927C81.6506 35.2191 84.3001 37.4557 87.612 37.639C90.2247 37.7856 92.6902 37.4557 94.7878 35.4758C95.0086 36.9057 95.8917 37.2357 97.1061 37.1257C97.9892 37.0523 98.9092 37.1257 99.7924 37.1257C101.191 37.1257 101.338 36.9424 101.338 35.6225C101.338 31.0394 101.338 26.4931 101.375 21.9101C101.412 21.2135 101.228 20.8468 100.602 20.5168ZM94.3462 27.3364C94.3462 28.1797 94.383 29.0596 94.3462 29.9029C94.3094 31.3328 93.463 32.2494 92.0646 32.4694C90.2983 32.726 89.084 32.176 88.6056 30.8195C87.9432 28.9863 88.2008 27.1531 89.1576 25.5032C90.0039 24.0733 92.175 23.34 93.7942 23.8533C94.199 23.9633 94.383 24.1832 94.3462 24.6599C94.3094 25.5398 94.3462 26.4564 94.3462 27.3364Z" fill="#7D7E81"/>
<path d="M119.075 18.7936C116.131 18.2803 113.408 18.8303 110.906 20.7735C110.685 19.4169 110.574 19.1969 109.765 19.1603C108.44 19.1236 107.078 19.1603 105.717 19.1603C104.834 19.1603 104.576 19.6002 104.576 20.4802C104.613 25.3565 104.576 30.2328 104.613 35.1092C104.613 36.5391 105.055 37.0157 106.527 37.0524C107.704 37.089 108.882 37.0524 110.059 37.0524C111.715 37.0524 112.194 36.5757 112.194 34.8892C112.194 31.9927 112.194 29.1329 112.194 26.2365C112.194 24.5132 113.003 23.7433 114.622 23.7433C116.057 23.7433 116.646 24.4032 116.646 26.1998C116.646 29.2062 116.646 32.176 116.646 35.1825C116.646 36.539 117.051 37.0157 118.412 37.0524C119.774 37.1257 121.172 37.089 122.571 37.0524C123.748 37.0157 124.227 36.4657 124.227 35.2925C124.227 31.7727 124.263 28.2897 124.227 24.7699C124.153 21.5801 122.276 19.3436 119.075 18.7936Z" fill="#7D7E81"/>
<path d="M207.905 19.3805C204.814 18.2805 201.65 18.3172 198.595 19.3072C195.504 20.2971 193.664 22.4969 193.039 25.7234C192.818 26.8233 192.855 27.9232 192.855 28.9865C192.892 32.0296 194.253 34.3761 196.866 35.9527C199.773 37.7492 203.011 37.7859 206.25 37.4925C208.016 37.3459 209.672 36.8693 211.217 35.9893C211.99 35.5494 212.285 35.1094 211.769 34.3028C211.401 33.7162 211.107 33.0195 210.776 32.3962C210.445 31.6996 210.003 31.553 209.304 31.9563C207.354 33.0195 205.256 33.2029 203.085 32.8729C201.76 32.6896 200.583 32.1762 200.067 30.7463C199.81 30.0497 199.81 29.7198 200.767 29.7564C202.533 29.8298 204.299 29.7931 206.029 29.7931C207.832 29.7931 209.635 29.7931 211.401 29.7931C212.616 29.7931 213.205 29.3531 213.278 28.3265C213.499 24.6234 212.064 20.847 207.905 19.3805ZM205.698 26.0534C204.888 25.98 204.042 26.0534 203.232 26.0534C202.349 26.0534 201.429 26.0534 200.546 26.0534C200.031 26.0534 199.883 25.9067 199.994 25.3567C200.325 23.9635 201.355 23.1569 203.011 23.0469C204.888 22.9369 205.992 23.5968 206.434 25.0268C206.618 25.76 206.581 26.1267 205.698 26.0534Z" fill="#7D7E81"/>
<path d="M144.096 31.8463C143.655 30.893 143.066 30.8564 142.22 31.3697C141.116 32.0296 139.938 32.4696 138.613 32.5062C136.516 32.5796 135.007 31.773 134.345 30.1231C133.572 28.1432 134.05 25.7234 135.559 24.5868C137.252 23.2669 139.092 23.6335 140.932 24.2568C141.704 24.5135 142.33 25.4667 143.14 25.1001C143.876 24.7701 144.096 23.8168 144.501 23.0835C145.789 20.9204 145.679 20.5537 143.324 19.6005C143.176 19.5271 142.992 19.4905 142.845 19.4171C140.748 18.5739 138.54 18.5005 136.332 18.6105C130.186 18.9772 126.212 22.6436 126.47 28.7298C126.617 32.3229 128.089 35.0361 131.511 36.5393C133.425 37.3826 135.412 37.6392 137.546 37.5659C140.049 37.6392 142.514 37.1259 144.796 35.8793C145.532 35.476 146.01 34.9994 145.421 34.1195C144.943 33.4228 144.464 32.6529 144.096 31.8463Z" fill="#7D7E81"/>
</svg>
