<svg width="876" height="870" viewBox="0 0 876 870" fill="none" xmlns="http://www.w3.org/2000/svg">
<path d="M708.501 721.5C653.929 575.45 787.501 343.479 533.577 277.543C373.102 235.873 301.511 308.578 158.963 343.479C44.9236 371.401 -37.3067 293.095 -71.4816 256.621" stroke="#302E36" stroke-width="2"/>
<path d="M710.5 726.5C655.928 580.45 731 382 518.219 326.644C357.764 284.901 286.154 357.679 143.605 392.58C29.5664 420.502 -7.36215 320.8 -41.537 284.326" stroke="#302E36" stroke-width="2"/>
<path d="M707.5 726.5C652.928 580.45 683.781 398.498 507.001 357C330.22 315.503 271.154 401.038 128.606 435.939C14.5666 463.86 -3.70658 321.868 -37.8815 285.394" stroke="#302E36" stroke-width="2"/>
<path d="M715 739.5C660.428 593.45 648 451 499.45 406.216C350.9 361.431 256.061 450.799 113.512 485.7C-0.52713 513.622 -1.03118 331.2 -35.2061 294.726" stroke="#302E36" stroke-width="2"/>
<path d="M712 744.5C657.428 598.449 612.5 490 478.136 454.09C317.961 411.281 238.652 498.652 96.1034 533.554C-17.9355 561.475 6.88963 339.672 -27.2852 303.198" stroke="#302E36" stroke-width="2"/>
</svg>
