<svg width="63" height="38" viewBox="0 0 63 38" fill="none" xmlns="http://www.w3.org/2000/svg">
<path d="M36.452 21.72C34.7983 21.6551 34.8307 21.72 34.1822 23.2116C32.8527 26.2272 31.4908 29.2428 30.0965 32.3233C29.9992 32.1612 29.9668 32.0964 29.9343 31.9991C28.4751 28.6916 27.0808 25.3193 25.4919 22.0767C25.5244 22.0118 25.4919 21.9794 25.4271 21.947C24.6813 21.3957 23.8382 21.8497 23.0275 21.72C22.2169 21.5578 21.9251 21.8497 21.9575 22.7252C22.0223 26.7785 21.9899 30.7993 21.9899 34.8526C21.9899 37.09 21.9899 37.0576 24.2273 37.0251C24.8758 37.0251 24.9731 36.7657 24.9731 36.2145C24.9407 33.7177 24.9731 31.2208 24.9731 28.7565V27.8485C26.1729 30.3778 27.1781 32.8746 28.2157 35.4038C29.0588 37.3818 28.4751 36.9603 30.6153 37.0251C31.2314 37.0576 31.5232 36.8306 31.7502 36.2793C32.723 33.7825 33.7606 31.3181 34.8307 28.8537C34.9928 28.4646 34.8955 27.9458 35.4143 27.7512C35.3819 30.7993 35.2846 33.8474 35.4468 36.863C36.3871 37.09 37.3275 37.09 38.2679 36.863C38.3976 31.9018 38.3651 26.9082 38.3003 21.947C37.6842 21.4281 37.0357 21.72 36.452 21.72Z" fill="#757B82"/>
<path d="M62.1346 8.19827C61.5185 7.58218 60.8051 7.45247 59.9944 7.77673C59.1514 8.45768 58.1786 8.55496 57.1409 8.45768C56.8815 8.42526 56.6221 8.42526 56.3627 8.45768C55.7142 8.55496 55.5521 8.29555 55.5521 7.67946C55.5845 5.47448 55.5845 3.23707 55.5521 1.03209C55.5521 0.77268 55.8115 0.383566 55.3251 0.221436C55.2602 0.221436 55.1954 0.221436 55.1305 0.221436H52.7958C52.4391 0.286288 52.6013 0.578123 52.6013 0.740254C52.6013 3.2695 52.6013 5.79874 52.6013 8.32798C50.5584 8.61981 48.4832 8.39283 46.4079 8.45768C45.9539 8.45768 45.9863 8.16585 45.9863 7.87401V4.56654C45.9863 2.49127 45.9863 2.52369 43.9435 2.49127C43.1977 2.49127 42.9707 2.6534 42.9707 3.43163C43.0031 7.42005 43.0031 11.376 43.0031 15.3645C43.0031 18.0558 43.0031 18.0558 45.7594 17.764C45.7918 17.764 45.8242 17.7316 45.8566 17.7316C46.1809 17.4722 46.0188 17.1479 46.0188 16.8561C46.0512 15.2672 46.0512 13.7107 46.0188 12.1218C46.0188 11.5382 46.116 11.2463 46.797 11.2788C48.7426 11.3436 50.6557 11.3436 52.6013 11.376C52.6013 12.9973 52.6013 14.6187 52.6013 16.2075C52.6013 17.8288 52.6013 17.8613 54.2226 17.7964C54.6441 17.7964 55.2602 18.218 55.5521 17.5046C55.5521 15.9806 55.5845 14.489 55.5845 12.9649C55.5845 11.2788 55.5845 11.2788 57.2382 11.2788C58.1462 11.2788 59.0217 11.2463 59.8647 11.8949C60.7402 12.5434 62.0049 12.0894 62.621 11.1166C63.2371 10.1114 63.0425 8.9765 62.1346 8.19827Z" fill="#757B82"/>
<path d="M40.2143 12.7379C39.5658 12.7703 38.9173 12.7379 38.2687 12.7379C37.9769 12.7379 37.7499 12.7379 37.5878 13.0945C36.7123 14.9104 35.1883 15.4292 33.3075 15.2022C31.3944 14.9753 30.2271 13.8403 29.6434 12.0569C29.2543 10.8247 29.2218 9.56009 29.5785 8.32789C30.0649 6.60931 31.1674 5.44196 32.9509 5.08528C34.5397 4.79344 36.0962 4.988 37.0041 6.44718C37.5554 7.35511 38.1715 7.61452 38.9497 7.41996H39.6955C40.8953 7.41996 40.8953 7.41996 40.4413 6.31747C39.4685 3.98279 37.7175 2.58846 35.1883 2.2642C32.1402 1.84266 29.4813 2.62089 27.6654 5.21498C25.6225 8.16576 25.5901 11.376 27.3735 14.4564C29.0273 17.3748 31.7835 18.2503 34.9937 17.9585C37.6526 17.6991 39.8901 15.8832 40.6359 13.3215C40.8628 12.8676 40.798 12.7054 40.2143 12.7379Z" fill="#757B82"/>
<path d="M60.2216 28.8861C59.2164 28.3024 58.1139 27.9457 57.0114 27.5566C56.2007 27.2648 55.4874 26.8432 55.1955 25.9677C55.2604 25.611 55.3252 25.2543 55.3901 24.8977C56.5898 23.6655 57.8545 23.7952 58.8597 25.3192C58.8273 25.7732 58.9245 26.0326 59.4758 26.0001C60.0919 25.9353 60.708 25.9677 61.3241 26.0001C61.9402 26.0326 61.9726 25.7407 61.8105 25.2868C61.4538 22.6927 59.5406 21.2659 56.7196 21.4605C53.7039 21.6875 51.9529 23.9249 52.4393 26.9081C52.7636 28.9509 54.32 29.7616 56.0062 30.475C56.8493 30.8316 57.7248 31.0262 58.503 31.5126C59.1191 31.9017 59.4109 32.4854 59.3461 33.2312C59.2488 33.9121 58.8597 34.3337 58.2436 34.5607C58.0815 34.6255 57.8869 34.6904 57.6923 34.7552C57.4654 34.7552 57.2384 34.7552 57.0438 34.7552C57.0438 34.7228 57.0438 34.6904 57.0438 34.7552C55.7468 34.5282 55.1631 33.6203 54.8388 32.453C54.2227 32.226 53.5742 32.4205 52.9257 32.3557C52.0178 32.226 51.7583 32.5827 52.115 33.4257C52.5366 35.6631 53.9958 36.9602 56.4277 37.252C59.4109 37.6411 61.778 36.1495 62.232 33.6203C62.4914 32.6799 62.459 31.772 62.0374 30.8965C61.6808 29.9237 60.9998 29.34 60.2216 28.8861Z" fill="#757B82"/>
<path d="M48.0618 34.1715C47.77 34.1715 47.4782 34.204 47.1863 34.1715C46.246 34.1067 45.0462 34.5931 44.4949 33.977C43.9437 33.3933 44.3977 32.1935 44.3328 31.2532C44.268 30.6695 44.4625 30.4425 45.0786 30.475C46.2784 30.5074 47.4782 30.475 48.6779 30.475C48.9373 30.475 49.3264 30.5722 49.3264 30.1507C49.3264 29.3725 49.5859 28.497 49.1967 27.8809C48.9373 27.4593 48.1267 27.7836 47.543 27.7187C47.2836 27.6863 47.0242 27.7187 46.7648 27.7187C44.2355 27.7187 44.268 27.7187 44.3004 25.1571C44.3004 24.5085 44.5598 24.4113 45.111 24.4113C46.1163 24.4437 47.1215 24.4113 48.1267 24.4113C50.1695 24.4113 50.1695 24.4113 50.1371 22.4008C50.1371 21.7847 49.9425 21.6226 49.3589 21.655C46.9918 21.6875 44.6246 21.6875 42.2575 21.655C41.5117 21.655 41.3496 21.882 41.3496 22.5954C41.382 27.1026 41.3496 31.5774 41.382 36.0847C41.382 36.3441 41.2523 36.6684 41.5442 36.8953C44.2355 37.1547 46.9593 36.9278 49.6507 37.025C50.0722 37.025 50.0722 36.7981 50.1047 36.4738C50.2992 34.1715 50.3317 34.1715 48.0618 34.1715Z" fill="#757B82"/>
<path d="M24.2932 17.6993C24.6823 16.8562 24.6499 15.8834 24.358 15.1052C24.1959 14.6512 23.2231 15.0079 22.6394 14.943C22.2828 14.9106 21.9261 14.943 21.5694 14.943C20.6615 14.8782 19.332 15.3646 18.878 14.7485C18.424 14.1324 18.7807 12.9002 18.7159 11.9274C18.6835 11.4086 18.9104 11.2789 19.3968 11.2789C20.7587 11.3113 22.1206 11.2789 23.4501 11.2464C23.8068 10.3709 23.8068 9.52786 23.4825 8.65235V8.61992C23.4825 8.5875 23.4501 8.55507 23.4501 8.52265C22.6719 8.52265 21.8936 8.49022 21.1154 8.49022C18.651 8.49022 18.6835 8.49022 18.6835 6.02583C18.6835 5.40973 18.8132 5.18275 19.4941 5.21518C20.9209 5.28003 22.3476 5.2476 23.7419 5.21518C24.0338 5.21518 24.3905 5.31245 24.4229 4.89091C24.4553 4.17754 24.4553 3.46416 24.4229 2.75079C24.4229 2.42653 24.1311 2.49138 23.9041 2.49138C21.2776 2.49138 18.6835 2.5238 16.0569 2.5238C15.4084 2.5238 15.7002 3.04262 15.7002 3.30203C15.6678 7.87412 15.7002 12.4462 15.7002 17.0183C15.7002 17.2129 15.603 17.4723 15.83 17.6344C18.6835 17.8614 21.5045 17.829 24.2932 17.6993Z" fill="#757B82"/>
<path d="M13.3975 2.55611C9.96031 2.55611 6.49071 2.52368 3.05354 2.52368C0.556722 2.52368 0.556722 2.52368 0.816131 5.08535C0.945836 5.44204 1.2701 5.27991 1.49708 5.27991C2.56714 5.31233 3.63721 5.34476 4.70727 5.27991C5.4855 5.21505 5.74491 5.44204 5.74491 6.25269C5.64763 9.72229 5.64763 13.2567 5.68006 16.7588C5.68006 17.0506 5.51793 17.4073 5.80976 17.6667C6.71769 17.8613 7.62563 17.8613 8.53356 17.6667C8.8254 17.4073 8.66326 17.0506 8.66326 16.7588C8.66326 13.6459 8.66326 10.5654 8.66326 7.45246C8.66326 5.24748 8.66326 5.27991 10.8682 5.21505C11.7762 5.21505 12.6841 5.47446 13.5596 5.05292C13.5596 4.98807 13.5596 4.92322 13.592 4.85837C13.4948 4.08014 13.8839 3.26948 13.3975 2.55611Z" fill="#757B82"/>
<path d="M18.8128 26.0002C18.2291 25.7732 17.613 25.9678 16.9969 25.8705C16.3484 25.7732 16.1214 26.0002 16.1214 26.7136C16.1538 29.8589 16.1214 32.9718 16.1538 36.1172C16.1538 36.3766 15.9917 36.7008 16.3159 36.8954C17.159 36.9927 17.9697 37.0899 18.8128 36.863C19.0397 36.7333 18.9425 36.5387 18.9425 36.3441C18.9425 33.0691 18.9425 29.7616 18.9425 26.4866C18.9749 26.3245 19.0722 26.1299 18.8128 26.0002Z" fill="#757B82"/>
<path d="M17.5808 20.7795C16.5108 20.7795 15.6677 21.655 15.7001 22.6927C15.7325 23.7303 16.5108 24.4761 17.5808 24.4761C18.6833 24.4761 19.4291 23.7627 19.4616 22.6927C19.4616 21.6226 18.6509 20.7795 17.5808 20.7795Z" fill="#757B82"/>
<path d="M13.5606 21.9145C13.4633 21.5254 13.139 21.6876 12.9445 21.6876C9.1182 21.6876 5.25949 21.6876 1.4332 21.6876C1.20621 21.6876 0.881952 21.5254 0.8171 21.9145C0.719821 22.6928 0.719821 23.471 0.8171 24.2492C0.946804 24.6059 1.27107 24.4438 1.46562 24.4438C2.56811 24.4762 3.6706 24.5086 4.77309 24.4438C5.58375 24.3789 5.71345 24.7032 5.71345 25.4166C5.68103 28.9186 5.68103 32.453 5.71345 35.9551C5.71345 36.2469 5.55132 36.6036 5.84316 36.863C6.52411 37.1224 7.23748 36.8954 7.91843 36.9927C8.59938 37.09 8.72909 36.7657 8.72909 36.1821C8.69666 33.1016 8.69666 29.9887 8.72909 26.9082C8.72909 26.1299 8.3724 25.0923 8.89122 24.6059C9.41004 24.1195 10.4152 24.5411 11.2259 24.4438C12.0366 24.3465 12.8472 24.7032 13.6254 24.2492C13.6254 24.1844 13.6254 24.1195 13.6254 24.0547C13.6254 23.4061 13.6254 22.7576 13.6254 22.1091C13.5606 22.0442 13.5606 21.9794 13.5606 21.9145Z" fill="#757B82"/>
</svg>
