<svg width="204" height="37" viewBox="0 0 204 37" fill="none" xmlns="http://www.w3.org/2000/svg">
<path d="M35.9673 25.8411C34.3651 24.9637 34.594 23.6285 34.5558 22.2171C34.4795 18.8601 34.8229 15.5032 34.2507 12.1462C33.9073 10.0863 32.9155 9.01816 30.8556 8.59855C28.6049 8.14078 26.5831 8.82743 24.6376 9.81925C24.1035 10.0863 23.722 10.7348 22.8065 10.3915V0.740234H21.2806C19.564 1.50318 17.6567 1.35059 15.9019 1.80835C15.3678 1.96094 14.7193 1.99909 14.6049 2.72389C14.4904 3.41053 14.9101 3.83015 15.4441 4.05904C16.5885 4.55495 16.703 5.50863 16.703 6.57675C16.6648 12.1081 16.703 17.6394 16.703 23.1326C16.703 24.1244 16.6267 25.04 15.5586 25.5359C14.9864 25.8029 14.7193 26.2988 14.8719 26.9473C15.0245 27.6721 15.6349 27.7103 16.2071 27.7103C18.6866 27.7484 21.1662 27.7103 23.6458 27.7103C24.218 27.7103 24.8283 27.6721 24.9809 26.9473C25.0953 26.2988 24.8283 25.8029 24.2561 25.5359C23.188 25.04 23.1117 24.1244 23.1117 23.1326C23.1117 20.2716 23.1117 17.4105 23.1117 14.5495C23.1117 12.6803 23.8365 12.0699 25.6676 12.1844C27.1934 12.2988 28.0327 13.0999 28.0708 14.8165C28.1471 17.4105 28.0708 20.0045 28.109 22.6367C28.109 23.8574 28.1853 25.0781 26.7738 25.6885C26.2779 25.9173 26.1635 26.4895 26.3161 27.0236C26.4686 27.5577 26.8883 27.7103 27.346 27.7103C30.0163 27.7103 32.6866 27.7866 35.3569 27.6721C36.4632 27.634 36.8828 26.337 35.9673 25.8411Z" fill="#757B82"/>
<path d="M149.798 24.9255C149.035 24.5822 148.92 23.9718 148.92 23.2089C148.958 15.7321 148.958 8.21707 148.996 0.740234H147.852C147.814 0.854676 147.776 0.93097 147.738 1.04541C147.127 1.08356 146.555 1.12171 145.945 1.15985C145.182 1.2743 144.419 1.42688 143.694 1.54133C143.389 1.50318 143.084 1.57947 142.817 1.77021C142.359 1.80835 141.863 1.8465 141.405 1.88465C140.375 2.60944 140.299 3.29609 141.138 3.90645C141.672 4.28792 142.397 4.40236 142.817 4.97457C142.778 6.34786 142.778 7.72116 142.74 9.05631C141.939 8.86557 141.138 8.63669 140.337 8.52225C135.721 7.9119 131.868 10.5441 130.8 15.0454C130.266 17.3724 130.19 19.6994 130.762 22.0263C131.449 24.8492 132.975 26.9855 136.026 27.6721C137.285 28.0536 138.544 28.0536 139.803 27.6721C140.909 27.5958 141.672 26.7566 142.817 26.1462C142.55 28.1299 143.847 27.7866 144.953 27.7484C145.449 27.7103 145.945 27.7103 146.402 27.4051C147.013 27.3669 147.623 27.3288 148.195 27.2906C148.501 27.2906 148.844 27.3288 149.149 27.2525C149.759 27.0618 150.637 27.4051 150.866 26.4133C151.056 25.6122 150.484 25.2307 149.798 24.9255ZM141.71 24.7348C141.1 24.7348 140.49 24.7348 139.879 24.7348C138.659 24.1626 137.781 23.3233 137.476 21.9882C136.828 19.089 136.789 16.228 137.629 13.3669C137.972 12.1462 138.735 11.2307 140.108 11.04C141.825 10.8111 142.588 11.4214 142.588 13.1381C142.626 16.3424 142.588 19.5849 142.588 22.7893C142.588 23.6285 142.588 24.3915 141.71 24.7348Z" fill="#757B82"/>
<path d="M12.6588 24.7348C10.5226 24.5822 9.83592 23.9337 9.79777 21.7593C9.75962 19.3561 9.75962 16.9146 9.79777 14.5114C9.79777 12.2607 9.79777 12.2607 12.1629 12.1462C13.8032 12.0699 14.1465 11.6122 13.994 10.0482C13.8795 8.59856 12.8114 8.82744 11.8959 8.7893C9.95036 8.713 9.91221 8.67485 9.83592 6.72935C9.83592 6.27158 9.79777 5.85197 9.75962 5.3942C9.68333 4.97458 9.4163 4.63126 8.99668 4.6694C7.50894 4.86014 5.94491 4.82199 4.49532 5.31791C3.92311 5.50864 3.80867 5.96641 3.73237 6.50047C3.31276 9.09447 3.31276 9.09447 0.71875 9.13262V12.1844C3.73237 12.1462 3.73237 12.1462 3.73237 15.198C3.73237 17.9828 3.73237 20.8056 3.77052 23.5904C3.77052 25.4214 4.64791 26.7947 6.32638 27.4814C8.61521 28.4351 10.9422 27.9773 13.231 27.2907C14.1465 27.0236 14.1847 26.1844 14.0702 25.3833C13.8795 24.5441 13.1929 24.7729 12.6588 24.7348Z" fill="#757B82"/>
<path d="M155.481 7.1871C156.244 7.37784 156.969 7.37784 157.694 7.11081C158.571 6.76748 159.219 6.19528 159.525 5.27974C159.792 4.55495 159.792 3.79201 159.563 3.06721C159.525 1.61762 157.846 1.73206 157.35 0.740234H155.443C152.315 2.99092 152.315 5.69936 155.481 7.1871Z" fill="#757B82"/>
<path d="M70.4132 23.6669C69.6502 23.6669 68.9254 23.6287 68.1625 23.5906C65.8737 23.4761 63.5467 23.8195 61.2578 23.3617C60.5331 22.408 60.9145 21.6451 61.6775 20.9203C63.2796 21.4925 64.92 21.3399 66.5603 21.2255C69.2688 20.8821 71.5957 19.9285 72.5875 17.0674C72.969 15.8086 73.0835 14.5879 72.5494 13.329C72.5494 12.6424 71.4431 12.4135 71.7865 11.6124C72.2824 11.3454 72.702 11.6887 73.0453 11.8413C74.266 12.3753 74.6475 11.9176 74.5331 10.735C74.4949 10.4298 74.4949 10.1246 74.5331 9.78132C74.6093 8.7895 74.266 8.36988 73.2361 8.67506C72.1298 8.98023 71.0235 9.17097 69.9172 9.438C69.5739 9.47615 69.2306 9.47615 68.9254 9.47615C67.7047 8.7132 66.2933 8.59876 64.92 8.52247C60.8001 8.29359 57.8628 10.0865 56.7946 13.329C56.5658 14.4734 56.5658 15.5797 56.8328 16.686C57.1761 18.3263 58.3587 19.3181 59.6175 20.3481C58.5875 21.4162 57.2524 22.141 56.8328 23.6287C56.5658 24.3535 56.5658 25.1165 56.8328 25.8413C57.138 27.0238 58.2442 27.4434 59.2742 28.1682C57.8246 28.8167 56.2987 28.893 55.5739 30.2663C54.9636 31.0293 55.0399 31.8304 55.3069 32.6696C56.4132 34.844 58.5113 35.3018 60.6093 35.6832C60.8764 35.7977 61.2197 35.7977 61.3341 36.141H62.86C63.89 36.141 64.8818 36.141 65.9118 36.141H67.4377C67.6666 35.6832 68.2006 35.874 68.544 35.6832C71.1761 35.1873 73.5031 34.2718 74.5712 31.5252C75.2197 30.19 75.1434 28.7786 74.9527 27.3672C74.2279 25.2309 72.8164 23.8958 70.4132 23.6669ZM68.6965 32.9748C68.5058 33.1274 68.3151 33.28 68.1243 33.4325C66.4077 33.9285 64.6529 33.8903 62.86 33.8522C62.4023 33.6614 61.9445 33.4707 61.4867 33.28C60.2279 32.7078 59.9608 31.7159 60.1897 30.4571C60.4186 29.1601 61.4486 29.2745 62.4023 29.2745C64.0426 29.2745 65.6829 29.2745 67.3232 29.2745C68.2006 29.2745 69.2306 29.1982 69.5739 30.2282C69.9172 31.2963 69.5739 32.25 68.6965 32.9748ZM66.9799 12.6042C67.3232 14.2445 67.3995 15.8849 66.9036 17.487C66.3696 18.6315 65.5685 19.2418 64.2333 19.0129C62.8219 18.784 62.7074 17.6015 62.593 16.5715C62.3641 14.5879 62.2115 12.5661 63.5467 10.8113C64.3096 10.5443 65.0344 10.6206 65.7974 10.735C66.4077 11.2691 66.5984 11.9939 66.9799 12.6042ZM63.0508 36.0647C62.9745 36.1028 62.86 36.1791 62.7837 36.2173C62.86 36.1028 62.9363 36.0647 63.0508 36.0647Z" fill="#757B82"/>
<path d="M202.365 25.6503C201.183 25.1925 201.221 24.3151 201.221 23.3615C201.221 20.0808 201.259 16.762 201.221 13.4813C201.183 11.4977 200.763 9.66664 198.551 8.90369C196.872 8.48408 195.232 8.36963 193.63 9.17072C192.256 9.28517 191.15 10.1625 189.968 10.7729C189.624 10.2007 189.777 9.70478 189.701 9.20887C189.586 8.44593 189.128 8.52222 188.594 8.78925C188.251 8.8274 187.87 8.8274 187.526 8.86555C187.068 8.8274 186.649 8.90369 186.267 9.17072C185.81 9.20887 185.314 9.24702 184.856 9.28517C184.513 9.24702 184.246 9.32331 183.979 9.51405C183.521 9.5522 183.025 9.59034 182.567 9.66664C181.957 9.62849 181.461 9.74293 181.423 10.544C181.385 11.0781 181.499 11.5358 182.071 11.7647C182.643 12.0318 183.216 12.2606 183.635 12.7566C183.521 16.762 183.521 20.7675 183.635 24.7729C183.292 25.1544 182.872 25.4214 182.414 25.6121C181.499 25.9936 181.27 26.6421 181.804 27.4813C184.741 27.8628 187.679 27.5958 190.654 27.6339C192.066 27.6339 192.028 26.871 191.341 25.9173C190.921 25.5358 190.425 25.3451 189.853 25.2307C189.777 21.0345 189.662 16.8383 189.891 12.6803C190.273 12.6803 190.654 12.604 190.921 12.3369C191.799 12.3751 192.676 12.3751 193.553 12.4132C194.469 12.9091 194.736 13.7865 195.041 14.6639C194.965 18.2116 194.927 21.7211 194.889 25.2688L194.202 25.574C193.477 25.841 192.676 26.0699 192.905 27.138C193.134 28.168 193.973 27.8247 194.622 27.8247C196.949 27.8628 199.314 27.8628 201.679 27.8247C202.213 27.8247 202.899 27.9773 203.09 27.1762C203.243 26.4132 202.861 25.841 202.365 25.6503Z" fill="#757B82"/>
<path d="M94.6738 24.4675C94.6357 24.4294 94.5594 24.4294 94.5213 24.3912V23.2468C94.5213 18.8217 94.4831 14.4348 94.5594 10.0097C94.5594 8.75089 94.2542 8.21683 92.9572 8.6746C92.7283 8.75089 92.4613 8.75089 92.1943 8.82719C90.6302 9.3231 88.9518 9.20866 87.3877 9.74272C86.9681 9.89531 86.4341 9.66642 86.3578 10.3531C86.2815 10.8871 86.3578 11.383 86.8918 11.6501C87.3496 11.879 87.8074 12.0315 88.2651 12.2223C88.3033 16.037 88.3414 19.8517 88.3414 23.6664C86.5485 24.2768 84.7937 24.7345 83.4204 22.789C83.4204 21.225 83.3823 19.6228 83.3823 18.0588C83.3823 15.3503 83.3441 12.6419 83.3823 9.93345C83.3823 8.90348 83.1916 8.33127 82.009 8.6746C81.7038 8.75089 81.3986 8.78904 81.0935 8.82719C79.9109 9.01792 78.6902 8.97978 77.5458 9.47569C77.088 9.51384 76.5921 9.55198 76.1343 9.59013C75.524 9.59013 75.0662 9.74272 74.9899 10.4675C74.9518 11.0397 75.1044 11.4212 75.6384 11.6501C76.2106 11.9171 76.7828 12.146 77.2025 12.6038C77.2025 15.9988 77.1643 19.3558 77.1643 22.7509C77.1643 23.5901 77.3169 24.3531 77.6984 25.116C78.2324 26.4893 79.2624 27.3667 80.6738 27.7482C82.3523 28.0915 83.9926 28.0915 85.5948 27.3667C86.6248 27.1378 87.2733 26.2223 88.1888 25.8408C88.6466 26.5275 88.227 27.2523 88.6847 27.7482C89.1807 27.9389 89.6766 27.8626 90.1725 27.7863C90.7447 27.8626 91.2787 27.8245 91.8128 27.5193C92.5376 27.4811 93.2624 27.443 93.9872 27.3667C94.9027 27.2141 96.1997 27.6719 96.5812 26.5275C97.0771 25.0397 95.3986 25.0779 94.6738 24.4675Z" fill="#757B82"/>
<path d="M50.2342 9.55225C44.9699 6.34789 37.5693 9.39966 36.3105 15.4269C35.8146 17.9065 35.8527 20.4623 36.8064 22.9419C37.1497 23.8574 37.6456 24.6204 38.3323 25.3452C41.4985 28.5877 48.098 29.1599 51.7601 26.4514C52.0271 26.2607 52.256 26.0318 52.4467 25.8029C52.8664 25.3452 53.0189 24.773 52.7519 24.2008C52.4467 23.5904 51.8745 23.8574 51.3786 23.9337C49.8527 24.1245 48.3268 24.1245 46.801 24.01C44.6266 23.8574 43.1388 22.446 42.7192 20.386C42.5285 19.3561 42.7955 18.7457 43.9018 18.7457C45.3132 18.7457 46.6865 18.7457 48.098 18.7457V18.7076C49.5094 18.7076 50.8827 18.7076 52.2941 18.7076C53.0189 18.7076 53.4767 18.4405 53.6293 17.6394C54.1252 15.0454 52.4086 10.8874 50.2342 9.55225ZM47.2969 15.8847C46.5721 16.7239 45.5039 16.228 44.741 16.3806C41.88 16.5332 42.414 16.4569 42.5666 14.1681C42.6048 13.4051 42.6811 12.6422 43.0244 11.9555C43.5966 10.6967 45.2751 10.2389 46.4195 10.9637C47.3732 11.574 48.0598 15.0454 47.2969 15.8847Z" fill="#757B82"/>
<path d="M180.469 25.7264C178.867 25.2305 178.981 23.9716 178.943 22.6746C178.867 19.5084 179.21 16.3803 178.752 13.2141C178.714 12.8708 178.676 12.5275 178.638 12.1842C177.875 10.2768 176.464 9.17054 174.518 8.78907C170.97 8.10242 167.537 8.3313 164.218 9.85719C163.341 11.3449 163.913 12.909 163.875 14.4348C166.355 15.2741 166.812 15.0452 167.652 12.7945C168.453 10.582 170.474 10.2005 172.077 11.9171C172.267 12.1079 172.382 12.3367 172.496 12.5275C172.687 14.0534 172.763 15.5793 172.496 17.067C170.627 17.3722 168.796 17.7536 166.927 17.9825C163.989 18.3258 162.082 20.3476 162.349 23.1705C162.54 25.3449 163.608 26.9471 165.782 27.6338C167.156 28.0915 168.529 28.0915 169.94 27.6338C171.314 27.4049 172.267 26.4893 173.297 25.4594C173.908 26.4512 174.442 27.5193 175.739 27.6338C176.998 28.0534 178.256 27.9389 179.515 27.6338C180.126 27.5193 180.812 27.5193 181.003 26.7182C181.079 26.3749 181.003 25.9171 180.469 25.7264ZM171.848 24.6964C171.237 24.6964 170.589 24.6964 169.979 24.6964C169.597 24.3531 169.216 23.9716 168.834 23.6283C168.72 22.9035 168.605 22.1406 168.491 21.4158C168.91 20.5384 169.406 19.661 170.36 19.2414C170.97 19.1651 171.619 19.0506 172.229 18.9744C172.84 20.9199 173.335 22.8654 171.848 24.6964Z" fill="#757B82"/>
<path d="M115.351 25.765C113.444 25.2309 113.863 23.7432 113.825 22.408C113.711 19.3563 114.13 16.2663 113.596 13.2146C113.558 12.8713 113.52 12.5279 113.482 12.2228C112.833 10.735 111.765 9.66689 110.201 9.17098C106.386 7.95027 102.648 8.33174 99.024 9.85763C98.1466 11.3454 98.7569 12.9094 98.6806 14.4353C101.084 15.3127 101.656 15.0456 102.457 12.8713C102.724 12.1465 102.648 11.1928 103.716 10.9639C105.051 10.6587 106.501 11.1546 107.073 12.1465C107.569 12.9857 107.721 16.2663 107.264 16.7623C107.187 16.8386 107.073 16.9911 106.959 16.9911C105.814 16.953 104.86 17.5634 103.716 17.7159C101.351 18.0593 98.6806 18.1737 97.5362 20.9584C97.0784 22.2173 97.1166 23.4762 97.5362 24.6969C97.8795 25.9176 98.6043 26.795 99.7487 27.329C101.313 28.2064 102.991 28.2064 104.67 27.7105C106.081 27.5198 107.073 26.5661 108.065 25.5743C108.675 26.6424 109.209 27.5579 110.43 27.7105C111.689 28.1301 112.948 28.0538 114.207 27.7105C114.817 27.6342 115.504 27.6342 115.694 26.8331C115.885 26.4516 115.847 25.9176 115.351 25.765ZM106.653 24.735C106.043 24.735 105.395 24.6969 104.784 24.6969C102.762 22.5988 103.029 20.6914 105.547 19.0511C106.043 19.0129 106.539 18.9748 107.035 18.9748C107.874 20.7296 107.683 23.6287 106.653 24.735Z" fill="#757B82"/>
<path d="M159.792 25.1163C159.754 20.3098 159.754 15.5033 159.678 10.6967C159.678 10.0482 160.021 9.28528 159.296 8.78937C158.686 8.56049 158.037 8.67493 157.427 8.78937C156.244 9.01825 155.062 9.20899 153.879 9.43787C153.383 9.47602 152.926 9.51417 152.468 9.55231C151.819 9.55231 151.4 9.74305 151.362 10.4678C151.323 11.0401 151.552 11.4215 152.048 11.6504C152.506 11.8411 152.964 11.9937 153.421 12.1845C153.65 16.4951 153.612 20.8057 153.421 25.1163C152.887 25.2308 152.43 25.4215 152.01 25.803C151.323 27.3289 151.4 27.5959 152.735 27.6341C155.329 27.7104 157.923 27.7104 160.479 27.6341C161.852 27.5959 161.89 27.367 161.242 25.8411C160.822 25.4597 160.288 25.2689 159.792 25.1163Z" fill="#757B82"/>
<path d="M130.266 10.6205C130.342 8.52244 130.266 8.52244 128.053 8.82762C127.214 9.01836 126.642 9.55241 126.031 10.0865C125.306 10.6968 125.192 11.8031 124.238 12.1464C124.238 11.4598 124.315 10.7731 124.276 10.1246C124.238 8.44615 124.238 8.408 122.484 8.71318C122.293 8.75133 122.102 8.78947 121.949 8.82762C120.767 9.01836 119.546 9.01835 118.44 9.51427C118.097 9.55241 117.753 9.55241 117.372 9.59056C116.723 9.55241 116.266 9.705 116.227 10.4679C116.189 11.002 116.304 11.4598 116.838 11.7268C117.41 12.032 117.906 12.3372 118.478 12.6805C118.402 16.8385 118.364 21.0347 118.287 25.1927C118.058 25.269 117.83 25.3835 117.601 25.4598C116.838 25.7268 116.113 26.0701 116.38 27.062C116.647 28.0538 117.486 27.7105 118.135 27.7486C120.614 27.7867 123.094 27.7867 125.535 27.7486C126.184 27.7486 127.023 28.0156 127.176 26.9475C127.328 25.9557 126.565 25.7649 125.917 25.6124C124.811 25.3453 124.582 24.6968 124.62 23.6669C124.696 21.0729 124.696 18.4788 124.62 15.8848C124.582 14.8167 125.078 14.359 125.993 14.2445C127.328 14.0538 128.663 14.0538 129.96 14.0919C130.761 12.9475 130.227 11.7649 130.266 10.6205Z" fill="#757B82"/>
</svg>
