<svg width="32" height="32" viewBox="0 0 32 32" fill="none" xmlns="http://www.w3.org/2000/svg">
<path d="M27.8667 2.66675H4.13341C3.74443 2.66675 3.37138 2.82127 3.09632 3.09632C2.82127 3.37138 2.66675 3.74443 2.66675 4.13341V27.8667C2.66675 28.0594 2.70468 28.2501 2.77839 28.428C2.8521 28.606 2.96013 28.7676 3.09632 28.9038C3.23252 29.04 3.3942 29.1481 3.57215 29.2218C3.75009 29.2955 3.94081 29.3334 4.13341 29.3334H16.9067V19.0001H13.4401V15.0001H16.9067V12.0001C16.8349 11.2958 16.9181 10.5843 17.1504 9.91546C17.3827 9.24668 17.7584 8.63681 18.2514 8.12863C18.7443 7.62045 19.3424 7.22627 20.0038 6.97373C20.6653 6.72119 21.3739 6.61642 22.0801 6.66675C23.1179 6.66036 24.1551 6.71378 25.1867 6.82675V10.4267H23.0667C21.3867 10.4267 21.0667 11.2267 21.0667 12.3867V14.9601H25.0667L24.5467 18.9601H21.0667V29.3334H27.8667C28.0594 29.3334 28.2501 29.2955 28.428 29.2218C28.606 29.1481 28.7676 29.04 28.9038 28.9038C29.04 28.7676 29.1481 28.606 29.2218 28.428C29.2955 28.2501 29.3334 28.0594 29.3334 27.8667V4.13341C29.3334 3.94081 29.2955 3.75009 29.2218 3.57215C29.1481 3.3942 29.04 3.23252 28.9038 3.09632C28.7676 2.96013 28.606 2.8521 28.428 2.77839C28.2501 2.70468 28.0594 2.66675 27.8667 2.66675Z" fill="white"/>
</svg>
