<svg width="32" height="32" viewBox="0 0 32 32" fill="none" xmlns="http://www.w3.org/2000/svg">
<path d="M15.9925 2.66675C13.3554 2.66675 10.7776 3.44873 8.58492 4.91382C6.39226 6.37891 4.68329 8.46129 3.67413 10.8976C2.66496 13.334 2.40091 16.0149 2.91538 18.6013C3.42985 21.1877 4.69973 23.5635 6.56443 25.4282C8.42913 27.2929 10.8049 28.5627 13.3913 29.0772C15.9777 29.5917 18.6586 29.3276 21.095 28.3185C23.5313 27.3093 25.6137 25.6003 27.0788 23.4077C28.5439 21.215 29.3259 18.6372 29.3259 16.0001C29.326 14.2491 28.9812 12.5152 28.3112 10.8975C27.6412 9.27972 26.6591 7.80981 25.4209 6.57167C24.1828 5.33352 22.7129 4.3514 21.0951 3.68139C19.4774 3.01138 17.7435 2.6666 15.9925 2.66675ZM20.2319 22.87C20.182 22.9945 20.106 23.1068 20.0092 23.1995C19.9123 23.2922 19.7967 23.3631 19.6702 23.4075C19.5437 23.4519 19.4091 23.4687 19.2756 23.4568C19.142 23.445 19.0126 23.4047 18.8959 23.3387L15.2763 20.5262L12.9532 22.6694C12.8993 22.7092 12.8363 22.7349 12.7698 22.7439C12.7034 22.753 12.6358 22.7452 12.5732 22.7213L13.0185 18.7367L13.0328 18.748L13.0419 18.6694C13.0419 18.6694 19.5552 12.7393 19.8206 12.4867C20.0892 12.2347 20.0006 12.18 20.0006 12.18C20.0159 11.8727 19.5185 12.18 19.5185 12.18L10.8885 17.7321L7.29453 16.5081C7.29453 16.5081 6.74253 16.3101 6.69053 15.8747C6.63587 15.4427 7.31252 15.2081 7.31252 15.2081L21.6019 9.5314C21.6019 9.5314 22.7765 9.00804 22.7765 9.87475L20.2319 22.87Z" fill="white"/>
</svg>
