<svg width="32" height="32" viewBox="0 0 32 32" fill="none" xmlns="http://www.w3.org/2000/svg">
<path d="M29.3334 7.73337C28.3312 8.16816 27.2713 8.45559 26.1867 8.5867C27.331 7.90313 28.1884 6.82775 28.6001 5.56004C27.5248 6.20012 26.3478 6.6511 25.1201 6.89337C24.2995 6.00346 23.2067 5.4111 22.0132 5.20917C20.8196 5.00724 19.5928 5.20718 18.5251 5.77762C17.4575 6.34806 16.6093 7.25674 16.1137 8.36115C15.6181 9.46556 15.5031 10.7032 15.7867 11.88C13.6127 11.7701 11.486 11.204 9.54495 10.2185C7.60391 9.23306 5.89188 7.85029 4.52008 6.16004C4.03893 7.00026 3.78611 7.9518 3.78675 8.92003C3.78504 9.81921 4.0057 10.7049 4.42909 11.4981C4.85247 12.2914 5.46544 12.9676 6.21341 13.4667C5.34405 13.443 4.49326 13.2098 3.73341 12.7867V12.8534C3.73993 14.1132 4.18141 15.3322 4.98317 16.304C5.78493 17.2758 6.89776 17.9409 8.13341 18.1867C7.65776 18.3315 7.16391 18.4078 6.66675 18.4134C6.3226 18.4093 5.97931 18.3781 5.64008 18.32C5.99196 19.4038 6.67291 20.3509 7.58818 21.0296C8.50345 21.7083 9.60752 22.0848 10.7467 22.1067C8.82302 23.6204 6.44793 24.4465 4.00008 24.4534C3.5544 24.4548 3.10906 24.4281 2.66675 24.3734C5.16599 25.987 8.0785 26.8437 11.0534 26.84C13.1063 26.8614 15.1429 26.4734 17.0442 25.6988C18.9455 24.9242 20.6734 23.7785 22.127 22.3287C23.5806 20.8788 24.7307 19.1539 25.5102 17.2546C26.2896 15.3553 26.6828 13.3197 26.6667 11.2667C26.6667 11.04 26.6667 10.8 26.6667 10.56C27.713 9.77978 28.6154 8.82327 29.3334 7.73337Z" fill="white"/>
</svg>
