<svg width="40" height="40" viewBox="0 0 40 40" fill="none" xmlns="http://www.w3.org/2000/svg">
<path d="M13.3327 26.6666C13.3327 27.5507 12.9815 28.3985 12.3564 29.0237C11.7313 29.6488 10.8834 30 9.99935 30C9.11529 30 8.26745 29.6488 7.64233 29.0237C7.0172 28.3985 6.66602 27.5507 6.66602 26.6666C6.66602 25.7826 7.0172 24.9347 7.64233 24.3096C8.26745 23.6845 9.11529 23.3333 9.99935 23.3333C10.8834 23.3333 11.7313 23.6845 12.3564 24.3096C12.9815 24.9347 13.3327 25.7826 13.3327 26.6666Z" fill="white"/>
<path fill-rule="evenodd" clip-rule="evenodd" d="M19.9993 18.3333C19.561 18.3333 19.166 18.6633 19.166 19.1017V34.1667C19.166 34.3877 19.2538 34.5996 19.4101 34.7559C19.5664 34.9122 19.7783 35 19.9993 35C20.2204 35 20.4323 34.9122 20.5886 34.7559C20.7449 34.5996 20.8327 34.3877 20.8327 34.1667V19.1017C20.8327 18.6633 20.4377 18.3333 19.9993 18.3333ZM19.166 12.5C19.166 12.96 19.561 13.3333 20.021 13.3333C20.4818 13.3333 20.8327 12.96 20.8327 12.5V5.83333C20.8327 5.61232 20.7449 5.40036 20.5886 5.24408C20.4323 5.0878 20.2204 5 19.9993 5C19.7783 5 19.5664 5.0878 19.4101 5.24408C19.2538 5.40036 19.166 5.61232 19.166 5.83333V12.5ZM29.9993 27.5C29.561 27.5 29.166 27.83 29.166 28.2683V34.1667C29.166 34.3877 29.2538 34.5996 29.4101 34.7559C29.5664 34.9122 29.7783 35 29.9993 35C30.2204 35 30.4323 34.9122 30.5886 34.7559C30.7449 34.5996 30.8327 34.3877 30.8327 34.1667V28.2683C30.8327 27.83 30.4377 27.5 29.9993 27.5ZM29.166 21.6667C29.166 22.1267 29.561 22.5 30.021 22.5C30.4818 22.5 30.8327 22.1267 30.8327 21.6667V5.83333C30.8327 5.61232 30.7449 5.40036 30.5886 5.24408C30.4323 5.0878 30.2204 5 29.9993 5C29.7783 5 29.5664 5.0878 29.4101 5.24408C29.2538 5.40036 29.166 5.61232 29.166 5.83333V21.6667ZM9.99935 31.6667C9.56102 31.6667 9.16602 31.9967 9.16602 32.435V34.1667C9.16602 34.3877 9.25381 34.5996 9.41009 34.7559C9.56637 34.9122 9.77834 35 9.99935 35C10.2204 35 10.4323 34.9122 10.5886 34.7559C10.7449 34.5996 10.8327 34.3877 10.8327 34.1667V32.435C10.8327 31.9967 10.4377 31.6667 9.99935 31.6667ZM9.16602 25.8333C9.16602 26.2933 9.56102 26.6667 10.021 26.6667C10.4818 26.6667 10.8327 26.2933 10.8327 25.8333V5.83333C10.8327 5.61232 10.7449 5.40036 10.5886 5.24408C10.4323 5.0878 10.2204 5 9.99935 5C9.77834 5 9.56637 5.0878 9.41009 5.24408C9.25381 5.40036 9.16602 5.61232 9.16602 5.83333V25.8333Z" fill="white"/>
<path d="M23.3327 13.3333C23.3327 14.2174 22.9815 15.0652 22.3564 15.6904C21.7312 16.3155 20.8834 16.6667 19.9993 16.6667C19.1153 16.6667 18.2674 16.3155 17.6423 15.6904C17.0172 15.0652 16.666 14.2174 16.666 13.3333C16.666 12.4493 17.0172 11.6014 17.6423 10.9763C18.2674 10.3512 19.1153 10 19.9993 10C20.8834 10 21.7312 10.3512 22.3564 10.9763C22.9815 11.6014 23.3327 12.4493 23.3327 13.3333V13.3333ZM33.3327 22.5C33.3327 23.3841 32.9815 24.2319 32.3564 24.857C31.7312 25.4821 30.8834 25.8333 29.9993 25.8333C29.1153 25.8333 28.2674 25.4821 27.6423 24.857C27.0172 24.2319 26.666 23.3841 26.666 22.5C26.666 21.6159 27.0172 20.7681 27.6423 20.143C28.2674 19.5179 29.1153 19.1667 29.9993 19.1667C30.8834 19.1667 31.7312 19.5179 32.3564 20.143C32.9815 20.7681 33.3327 21.6159 33.3327 22.5Z" fill="white"/>
</svg>
