<svg width="114" height="99" viewBox="0 0 114 99" fill="none" xmlns="http://www.w3.org/2000/svg">
<g clip-path="url(#clip0_1301_3000)">
<path fill-rule="evenodd" clip-rule="evenodd" d="M64.2125 48.5494C63.8094 48.5796 61.7271 48.7037 57.0822 48.7037C53.3878 48.7037 50.7647 48.593 49.8445 48.5494C35.5672 47.9224 24.9105 45.4413 24.9105 42.4707C24.9105 39.5 35.5672 37.0223 49.8445 36.3852V46.0784C50.7782 46.1454 53.4516 46.303 57.146 46.303C61.5793 46.303 63.7994 46.1186 64.199 46.0817V36.3919C78.4461 37.0256 89.0793 39.5068 89.0793 42.4707C89.0793 45.4346 78.4495 47.9157 64.199 48.5461L64.2125 48.5494ZM64.2125 35.3894V26.7156H84.0952V13.4885H29.9618V26.7156H49.8411V35.3861C33.683 36.1271 21.5317 39.3223 21.5317 43.1513C21.5317 46.9803 33.683 50.1722 49.8411 50.9165V78.7118H64.2091V50.9065C80.3303 50.1655 92.4614 46.9736 92.4614 43.148C92.4614 39.3223 80.3403 36.1304 64.2091 35.3861L64.2125 35.3894Z" fill="url(#paint0_linear_1301_3000)"/>
</g>
<defs>
<linearGradient id="paint0_linear_1301_3000" x1="56.9966" y1="13.4885" x2="56.9966" y2="78.7118" gradientUnits="userSpaceOnUse">
<stop stop-color="#5157E1"/>
<stop offset="1" stop-color="#0FEF52"/>
</linearGradient>
<clipPath id="clip0_1301_3000">
<rect width="114" height="99" fill="white"/>
</clipPath>
</defs>
</svg>
