<svg width="138" height="137" viewBox="0 0 138 137" fill="none" xmlns="http://www.w3.org/2000/svg">
<path fill-rule="evenodd" clip-rule="evenodd" d="M68.9999 0.150482C106.752 0.150482 137.349 30.7476 137.349 68.5C137.349 106.252 106.752 136.85 68.9999 136.85C31.2475 136.85 0.650391 106.252 0.650391 68.5C0.650391 30.7476 31.2475 0.150482 68.9999 0.150482Z" fill="url(#paint0_radial_902_898)"/>
<path d="M44.0899 52.9345C57.8399 39.5048 80.1603 39.5048 93.9102 52.9345L95.5656 54.5631C96.2598 55.2306 96.2598 56.3252 95.5656 56.9927L89.9054 62.5194C89.5583 62.8665 88.9976 62.8665 88.6505 62.5194L86.3811 60.3034C76.7695 50.932 61.2306 50.932 51.619 60.3034L49.1894 62.6796C48.8423 63.0267 48.2816 63.0267 47.9345 62.6796L42.2743 57.1529C41.5802 56.4854 41.5802 55.3908 42.2743 54.7233L44.0899 52.9345ZM105.631 64.3616L110.677 69.2743C111.371 69.9417 111.371 71.0364 110.677 71.7039L87.9564 93.8908C87.2622 94.5582 86.1408 94.5582 85.4734 93.8908L69.3471 78.1383C69.187 77.9781 68.8933 77.9781 68.7331 78.1383L52.6069 93.8908C51.9127 94.5582 50.7913 94.5582 50.1238 93.8908L27.3229 71.7039C26.6287 71.0364 26.6287 69.9417 27.3229 69.2743L32.369 64.3616C33.0632 63.6942 34.1845 63.6942 34.852 64.3616L50.9782 80.1141C51.1384 80.2743 51.4321 80.2743 51.5923 80.1141L67.7185 64.3616C68.4127 63.6942 69.534 63.6942 70.2015 64.3616L86.3277 80.1141C86.4879 80.2743 86.7816 80.2743 86.9418 80.1141L103.068 64.3616C103.816 63.6942 104.937 63.6942 105.631 64.3616Z" fill="white"/>
<defs>
<radialGradient id="paint0_radial_902_898" cx="0" cy="0" r="1" gradientUnits="userSpaceOnUse" gradientTransform="translate(0.650814 68.5021) scale(136.699)">
<stop stop-color="#5D9DF6"/>
<stop offset="1" stop-color="#006FFF"/>
</radialGradient>
</defs>
</svg>
